<svg width="29" height="29" viewBox="0 0 29 29" fill="none" xmlns="http://www.w3.org/2000/svg">
<path opacity="0.38" d="M15.4039 28.1959C22.9033 28.1959 28.9827 22.3102 28.9827 15.0499C28.9827 7.78958 22.9033 1.90393 15.4039 1.90393C7.90459 1.90393 1.8252 7.78958 1.8252 15.0499C1.8252 22.3102 7.90459 28.1959 15.4039 28.1959Z" fill="#9396A2"/>
<path d="M14.0221 27.744C21.5214 27.744 27.6008 21.8583 27.6008 14.5979C27.6008 7.33759 21.5214 1.4519 14.0221 1.4519C6.52277 1.4519 0.443359 7.33759 0.443359 14.5979C0.443359 21.8583 6.52277 27.744 14.0221 27.744Z" fill="url(#paint0_linear)"/>
<path d="M14.0217 27.6362C11.2921 27.6369 8.62352 26.8539 6.35351 25.3863C4.0835 23.9187 2.31399 21.8323 1.26874 19.3911C0.223496 16.9499 -0.0505394 14.2634 0.481292 11.6714C1.01312 9.0794 2.32693 6.69828 4.25658 4.82915C6.18623 2.96003 8.64505 1.68686 11.3221 1.17063C13.9992 0.6544 16.7742 0.918301 19.2964 1.92896C21.8185 2.93963 23.9744 4.65166 25.4915 6.84856C27.0086 9.04546 27.8188 11.6286 27.8195 14.2712C27.8166 17.8138 26.3622 21.2105 23.7755 23.7162C21.1887 26.2218 17.6809 27.6316 14.0217 27.6362ZM14.0217 1.34423C11.379 1.34354 8.79536 2.10169 6.59774 3.52278C4.40012 4.94387 2.68722 6.96405 1.67571 9.32776C0.66421 11.6915 0.399542 14.2925 0.915207 16.8019C1.43087 19.3112 2.7037 21.6162 4.57266 23.4251C6.44163 25.234 8.82276 26.4656 11.4149 26.9642C14.007 27.4627 16.6936 27.2058 19.1348 26.2259C21.5761 25.246 23.6623 23.5872 25.1296 21.4592C26.5969 19.3312 27.3793 16.8298 27.3779 14.2712C27.3722 10.8439 25.9631 7.55851 23.4594 5.13532C20.9558 2.71214 17.5619 1.34882 14.0217 1.34423Z" fill="url(#paint1_linear)"/>
<path d="M14.733 16.7251C14.8338 16.7419 14.9359 16.75 15.0382 16.7495C15.3606 16.747 15.6775 16.6673 15.9604 16.5174C16.2433 16.3676 16.4834 16.1522 16.6595 15.8906C16.8355 15.629 16.9418 15.3293 16.969 15.0182C16.9962 14.7071 16.9435 14.3943 16.8154 14.1078L16.2948 12.9399C16.2622 12.8683 16.2369 12.7938 16.2194 12.7174C16.2074 12.6654 16.1746 12.6201 16.1281 12.5914C16.0817 12.5627 16.0255 12.5531 15.9717 12.5644C15.9448 12.5698 15.9194 12.5803 15.8968 12.5953C15.8742 12.6104 15.855 12.6296 15.8402 12.652C15.8255 12.6744 15.8156 12.6994 15.811 12.7255C15.8065 12.7517 15.8074 12.7785 15.8137 12.8043C15.8351 12.9058 15.8676 13.0049 15.9106 13.0997L16.4348 14.2677C16.5395 14.4962 16.5829 14.7467 16.5609 14.9958C16.5389 15.2449 16.4522 15.4846 16.309 15.6927C16.1657 15.9007 15.9705 16.0703 15.7414 16.1858C15.5124 16.3013 15.2569 16.3589 14.9987 16.3532C15.1503 16.0672 15.2291 15.7501 15.2285 15.4286V15.1436H15.2536C15.3574 15.1626 15.4642 15.1593 15.5665 15.1338C15.6688 15.1083 15.764 15.0612 15.8454 14.996C15.9267 14.9307 15.9922 14.8489 16.0372 14.7564C16.0821 14.6638 16.1054 14.5628 16.1054 14.4606C16.1054 14.3583 16.0821 14.2573 16.0372 14.1648C15.9922 14.0722 15.9267 13.9904 15.8454 13.9252C15.764 13.8599 15.6688 13.8129 15.5665 13.7874C15.4642 13.7619 15.3574 13.7585 15.2536 13.7775H15.2285V13.284C15.2294 13.1675 15.1828 13.0554 15.0987 12.972C15.0147 12.8887 14.9 12.8409 14.7797 12.839L13.4153 12.8043C12.9422 12.7911 12.4867 12.6274 12.1192 12.3385L12.0295 12.2655C11.9523 12.2066 11.8544 12.1791 11.7566 12.189C11.7076 12.1932 11.66 12.2071 11.6168 12.2298C11.5735 12.2525 11.5356 12.2836 11.5053 12.3211C11.1633 12.735 10.9738 13.2476 10.9667 13.7775H10.938C10.8342 13.7585 10.7274 13.7619 10.6251 13.7874C10.5228 13.8129 10.4276 13.8599 10.3462 13.9252C10.2649 13.9904 10.1994 14.0722 10.1544 14.1648C10.1095 14.2573 10.0862 14.3583 10.0862 14.4606C10.0862 14.5628 10.1095 14.6638 10.1544 14.7564C10.1994 14.8489 10.2649 14.9307 10.3462 14.996C10.4276 15.0612 10.5228 15.1083 10.6251 15.1338C10.7274 15.1593 10.8342 15.1626 10.938 15.1436H10.9667V15.4286C10.9666 15.7497 11.044 16.0663 11.1929 16.3532C10.9347 16.3589 10.6792 16.3013 10.4502 16.1858C10.2211 16.0703 10.0259 15.9007 9.88261 15.6927C9.73935 15.4846 9.6527 15.2449 9.6307 14.9958C9.6087 14.7467 9.65207 14.4962 9.75677 14.2677L10.281 13.0997C10.3407 12.969 10.3817 12.831 10.403 12.6896C10.4591 12.2944 10.609 11.9173 10.8411 11.5877C10.8564 11.5649 10.8669 11.5394 10.872 11.5126C10.8772 11.4858 10.8768 11.4584 10.871 11.4317C10.8652 11.4051 10.854 11.3798 10.838 11.3574C10.8221 11.335 10.8018 11.3158 10.7782 11.3009C10.7547 11.2861 10.7283 11.2759 10.7006 11.2709C10.673 11.266 10.6446 11.2663 10.6171 11.272C10.5896 11.2776 10.5635 11.2885 10.5403 11.3039C10.5172 11.3193 10.4973 11.339 10.482 11.3618C10.2173 11.7423 10.0455 12.1762 9.97937 12.6305C9.96308 12.7373 9.93167 12.8414 9.88602 12.9399L9.36543 14.1078C9.23737 14.3943 9.18459 14.7071 9.2118 15.0182C9.23901 15.3293 9.34536 15.629 9.52136 15.8906C9.69736 16.1522 9.93753 16.3676 10.2204 16.5174C10.5033 16.6673 10.8202 16.747 11.1426 16.7495C11.2461 16.75 11.3494 16.7419 11.4514 16.7251C11.6248 16.9313 11.8383 17.1025 12.0797 17.2292V17.7193L10.8267 18.2024C10.7136 18.2473 10.6044 18.3008 10.5 18.3623C10.4604 18.3848 10.4296 18.4194 10.4124 18.4605C10.3952 18.5017 10.3926 18.5473 10.4048 18.5901C10.4171 18.6329 10.4437 18.6706 10.4804 18.6973C10.517 18.724 10.5618 18.7382 10.6077 18.7377C10.646 18.738 10.6836 18.7271 10.7154 18.7064C10.8014 18.6587 10.8901 18.6158 10.9811 18.5778L12.1228 18.1364C12.1855 18.3309 12.3108 18.5008 12.4803 18.6215C12.6499 18.7422 12.8548 18.8073 13.0653 18.8073C13.2757 18.8073 13.4807 18.7422 13.6502 18.6215C13.8197 18.5008 13.945 18.3309 14.0077 18.1364L15.1459 18.5778C15.4835 18.7064 15.773 18.931 15.9762 19.222C16.1794 19.513 16.2867 19.8568 16.284 20.208V21.2891C16.284 21.3425 16.306 21.3938 16.345 21.4316C16.3841 21.4694 16.437 21.4907 16.4923 21.4907C16.5475 21.4907 16.6005 21.4694 16.6395 21.4316C16.6786 21.3938 16.7005 21.3425 16.7005 21.2891V20.208C16.7014 19.7764 16.5684 19.3545 16.3187 18.9969C16.0691 18.6393 15.7143 18.3625 15.3003 18.2024L14.0508 17.7193V17.2604C14.3176 17.1304 14.5536 16.9482 14.7438 16.7251H14.733ZM15.2428 14.1703C15.2835 14.1659 15.3246 14.1699 15.3636 14.182C15.4026 14.194 15.4385 14.2139 15.469 14.2403C15.4995 14.2667 15.5239 14.2991 15.5406 14.3352C15.5573 14.3714 15.5659 14.4105 15.5659 14.4501C15.5659 14.4898 15.5573 14.5289 15.5406 14.5651C15.5239 14.6012 15.4995 14.6336 15.469 14.66C15.4385 14.6864 15.4026 14.7063 15.3636 14.7183C15.3246 14.7304 15.2835 14.7344 15.2428 14.73H15.2177V14.1703H15.2428ZM10.9344 14.73C10.8633 14.7223 10.7976 14.6895 10.7499 14.6379C10.7022 14.5862 10.6758 14.5194 10.6758 14.4501C10.6758 14.3809 10.7022 14.314 10.7499 14.2624C10.7976 14.2108 10.8633 14.178 10.9344 14.1703H10.9631V14.73H10.9344ZM11.3796 15.4251V13.8088C11.3798 13.3742 11.5274 12.9517 11.7997 12.6062L11.8499 12.6479C12.2898 12.9932 12.8349 13.1886 13.401 13.204L14.7653 13.2388C14.7708 13.2388 14.7763 13.2398 14.7813 13.242C14.7863 13.2441 14.7909 13.2473 14.7946 13.2512C14.7983 13.2551 14.8011 13.2597 14.8029 13.2648C14.8047 13.2698 14.8053 13.2752 14.8048 13.2805V15.4251C14.8048 15.8649 14.6244 16.2866 14.3032 16.5975C13.982 16.9085 13.5464 17.0832 13.0922 17.0832C12.638 17.0832 12.2024 16.9085 11.8812 16.5975C11.56 16.2866 11.3796 15.8649 11.3796 15.4251ZM13.6308 17.8583C13.6194 17.9969 13.5545 18.1262 13.449 18.2205C13.3436 18.3148 13.2053 18.3672 13.0617 18.3672C12.9181 18.3672 12.7798 18.3148 12.6743 18.2205C12.5689 18.1262 12.504 17.9969 12.4926 17.8583V17.3995C12.8635 17.504 13.2566 17.51 13.6308 17.4169V17.8583Z" fill="black"/>
<path d="M11.2501 11.0421C11.2985 11.0424 11.3455 11.0264 11.383 10.9969C11.8666 10.6239 12.4665 10.4205 13.0848 10.4199C13.4033 10.4188 13.7195 10.4729 14.0183 10.5798C14.0451 10.5932 14.0744 10.6008 14.1045 10.6023C14.1345 10.6038 14.1645 10.5991 14.1926 10.5885C14.2206 10.5779 14.2459 10.5616 14.267 10.5408C14.288 10.5199 14.3042 10.495 14.3144 10.4676C14.3247 10.4402 14.3289 10.4111 14.3266 10.382C14.3243 10.353 14.3157 10.3247 14.3012 10.2992C14.2868 10.2736 14.2669 10.2513 14.2429 10.2338C14.2189 10.2162 14.1913 10.2039 14.1619 10.1975C13.6544 10.021 13.1088 9.97269 12.5767 10.0572C12.0446 10.1418 11.5435 10.3563 11.1209 10.6806C11.0781 10.7146 11.0508 10.7635 11.0447 10.8167C11.0387 10.87 11.0544 10.9234 11.0886 10.9656C11.1079 10.9892 11.1324 11.0084 11.1604 11.0216C11.1883 11.0349 11.219 11.0418 11.2501 11.0421Z" fill="url(#paint2_linear)"/>
<path d="M10.0723 18.9636C10.0255 18.9346 9.96876 18.9245 9.91436 18.9355C9.85995 18.9466 9.81221 18.9779 9.78144 19.0227C9.54467 19.3753 9.41985 19.7874 9.4224 20.208V21.289C9.4224 21.3425 9.44435 21.3937 9.4834 21.4315C9.52245 21.4693 9.57542 21.4906 9.63065 21.4906C9.68588 21.4906 9.73885 21.4693 9.7779 21.4315C9.81695 21.3937 9.83889 21.3425 9.83889 21.289V20.208C9.8381 19.8656 9.94177 19.5307 10.1369 19.2452C10.1524 19.2231 10.1632 19.1982 10.1687 19.1721C10.1742 19.1459 10.1743 19.119 10.169 19.0928C10.1636 19.0666 10.1529 19.0417 10.1376 19.0195C10.1222 18.9973 10.1025 18.9783 10.0794 18.9636H10.0723Z" fill="url(#paint3_linear)"/>
<path d="M20.2473 7.70178H15.9389C15.6173 7.7027 15.3092 7.82677 15.0818 8.04691C14.8544 8.26705 14.7263 8.56535 14.7253 8.87667V11.9251C14.7263 11.9951 14.7456 12.0637 14.7814 12.1245C14.8172 12.1852 14.8683 12.2363 14.93 12.2727C14.9992 12.3169 15.0805 12.3399 15.1634 12.3388C15.2264 12.3381 15.2887 12.3251 15.3465 12.3005L15.684 12.1476H18.6281C18.6833 12.1476 18.7363 12.1263 18.7753 12.0885C18.8144 12.0507 18.8363 11.9994 18.8363 11.946C18.8363 11.8925 18.8144 11.8412 18.7753 11.8034C18.7363 11.7656 18.6833 11.7444 18.6281 11.7444H15.6445C15.6135 11.743 15.5827 11.749 15.5547 11.7617L15.1777 11.9321V8.88362C15.1777 8.67988 15.2613 8.48448 15.4101 8.34042C15.5589 8.19636 15.7608 8.11543 15.9712 8.11543H20.2796C20.4901 8.11543 20.6919 8.19636 20.8407 8.34042C20.9895 8.48448 21.0731 8.67988 21.0731 8.88362V10.9692C21.0731 11.1733 20.9896 11.369 20.8409 11.5136C20.6922 11.6583 20.4904 11.74 20.2796 11.7409H19.5328C19.4776 11.7409 19.4246 11.7621 19.3856 11.7999C19.3465 11.8377 19.3246 11.889 19.3246 11.9425C19.3246 11.996 19.3465 12.0472 19.3856 12.085C19.4246 12.1229 19.4776 12.1441 19.5328 12.1441H20.2796C20.6009 12.1432 20.9086 12.019 21.1354 11.7988C21.3622 11.5785 21.4896 11.2802 21.4896 10.9692V8.88362C21.4896 8.57262 21.3622 8.2743 21.1354 8.05407C20.9086 7.83384 20.6009 7.70965 20.2796 7.70873L20.2473 7.70178Z" fill="url(#paint4_linear)"/>
<path d="M18.3304 10.1731C18.5012 10.1336 18.6568 10.0481 18.7792 9.9263C18.8765 9.82608 18.948 9.70509 18.988 9.57313C19.028 9.44117 19.0354 9.30195 19.0095 9.16674C18.9836 9.03152 18.9251 8.90411 18.8389 8.79482C18.7527 8.68553 18.6411 8.59743 18.5132 8.53765C18.3852 8.47787 18.2446 8.44809 18.1025 8.45072C17.9605 8.45336 17.8211 8.48833 17.6957 8.55281C17.5702 8.61729 17.4622 8.70945 17.3803 8.82186C17.2985 8.93427 17.2451 9.06376 17.2246 9.19983C17.2246 9.24154 17.2246 9.27978 17.2246 9.32149C17.2246 9.37496 17.2466 9.42624 17.2856 9.46405C17.3247 9.50186 17.3776 9.52309 17.4329 9.52309C17.4881 9.52309 17.541 9.50186 17.5801 9.46405C17.6191 9.42624 17.6411 9.37496 17.6411 9.32149C17.6393 9.29951 17.6393 9.27743 17.6411 9.25545C17.6568 9.14273 17.7142 9.03935 17.8027 8.96455C17.8912 8.88974 18.0047 8.84859 18.1222 8.84876C18.2453 8.85204 18.3627 8.89993 18.4511 8.98296C18.5395 9.06599 18.5926 9.17811 18.5997 9.29716C18.6023 9.36071 18.5919 9.42413 18.5691 9.48378C18.5463 9.54343 18.5116 9.59813 18.4669 9.64475C18.4206 9.69163 18.3648 9.72878 18.303 9.75389C18.2413 9.77901 18.1748 9.79155 18.1078 9.79073C18.0526 9.79073 17.9996 9.81198 17.9606 9.84979C17.9215 9.88759 17.8996 9.93887 17.8996 9.99234V10.4477C17.8996 10.5012 17.9215 10.5524 17.9606 10.5902C17.9996 10.628 18.0526 10.6493 18.1078 10.6493C18.1631 10.6493 18.216 10.628 18.2551 10.5902C18.2941 10.5524 18.3161 10.5012 18.3161 10.4477V10.1835L18.3304 10.1731Z" fill="url(#paint5_linear)"/>
<path d="M18.1221 10.9586C18.0668 10.9586 18.0139 10.9799 17.9748 11.0177C17.9358 11.0555 17.9138 11.1067 17.9138 11.1602V11.2992C17.9138 11.3527 17.9358 11.4039 17.9748 11.4417C18.0139 11.4795 18.0668 11.5008 18.1221 11.5008C18.1773 11.5008 18.2302 11.4795 18.2693 11.4417C18.3084 11.4039 18.3303 11.3527 18.3303 11.2992V11.1602C18.3303 11.1067 18.3084 11.0555 18.2693 11.0177C18.2302 10.9799 18.1773 10.9586 18.1221 10.9586Z" fill="url(#paint6_linear)"/>
<defs>
<linearGradient id="paint0_linear" x1="11940.2" y1="11081.5" x2="13318.3" y2="12504.9" gradientUnits="userSpaceOnUse">
<stop stop-color="#E2E1E6"/>
<stop offset="0.84" stop-color="white"/>
</linearGradient>
<linearGradient id="paint1_linear" x1="21231.6" y1="5638.66" x2="23352.4" y2="5638.66" gradientUnits="userSpaceOnUse">
<stop stop-color="white"/>
<stop offset="1" stop-color="#E6E6E6"/>
</linearGradient>
<linearGradient id="paint2_linear" x1="1514.57" y1="457.315" x2="1544.35" y2="457.315" gradientUnits="userSpaceOnUse">
<stop stop-color="#4D4D4D"/>
<stop offset="1" stop-color="#666666"/>
</linearGradient>
<linearGradient id="paint3_linear" x1="349.676" y1="1206.74" x2="351.244" y2="1206.74" gradientUnits="userSpaceOnUse">
<stop stop-color="#4D4D4D"/>
<stop offset="1" stop-color="#666666"/>
</linearGradient>
<linearGradient id="paint4_linear" x1="3181.07" y1="2023.78" x2="3308.1" y2="2023.78" gradientUnits="userSpaceOnUse">
<stop stop-color="#4D4D4D"/>
<stop offset="1" stop-color="#666666"/>
</linearGradient>
<linearGradient id="paint5_linear" x1="872.367" y1="961.377" x2="881.439" y2="961.377" gradientUnits="userSpaceOnUse">
<stop stop-color="#4D4D4D"/>
<stop offset="1" stop-color="#666666"/>
</linearGradient>
<linearGradient id="paint6_linear" x1="216.577" y1="248.565" x2="217.061" y2="248.565" gradientUnits="userSpaceOnUse">
<stop stop-color="#4D4D4D"/>
<stop offset="1" stop-color="#666666"/>
</linearGradient>
</defs>
</svg>
