<svg width="29" height="28" viewBox="0 0 29 28" fill="none" xmlns="http://www.w3.org/2000/svg">
<path opacity="0.38" d="M15.2278 27.5373C22.6403 27.5373 28.6493 21.7199 28.6493 14.5437C28.6493 7.3675 22.6403 1.55005 15.2278 1.55005C7.81538 1.55005 1.8064 7.3675 1.8064 14.5437C1.8064 21.7199 7.81538 27.5373 15.2278 27.5373Z" fill="#9396A2"/>
<path d="M13.8619 27.0909C21.2744 27.0909 27.2833 21.2734 27.2833 14.0972C27.2833 6.9209 21.2744 1.10339 13.8619 1.10339C6.44942 1.10339 0.44043 6.9209 0.44043 14.0972C0.44043 21.2734 6.44942 27.0909 13.8619 27.0909Z" fill="url(#paint0_linear)"/>
<path d="M13.8618 26.9843C11.1637 26.985 8.52586 26.211 6.28206 24.7602C4.03827 23.3094 2.28926 21.2471 1.25622 18.8339C0.223185 16.4208 -0.0474721 13.7652 0.478487 11.2031C1.00445 8.64106 2.30339 6.28752 4.21104 4.44019C6.1187 2.59285 8.54937 1.33468 11.1957 0.824821C13.8419 0.314958 16.585 0.576297 19.0778 1.57578C21.5707 2.57527 23.7014 4.268 25.2005 6.43991C26.6996 8.61182 27.4998 11.1653 27.4998 13.7775C27.4951 17.2782 26.0568 20.6342 23.5003 23.1099C20.9438 25.5855 17.4777 26.9788 13.8618 26.9843ZM13.8618 0.99683C11.2498 0.996151 8.69629 1.74544 6.5242 3.14991C4.35211 4.55439 2.65904 6.55097 1.65915 8.88711C0.659257 11.2232 0.397452 13.794 0.906856 16.2742C1.41626 18.7544 2.67399 21.0326 4.52095 22.8207C6.36792 24.6088 8.72114 25.8265 11.283 26.3196C13.8448 26.8128 16.5002 26.5594 18.9132 25.5913C21.3263 24.6233 23.3886 22.9842 24.8393 20.8813C26.29 18.7785 27.064 16.3063 27.0633 13.7775C27.0586 10.3893 25.6662 7.1411 23.1915 4.74523C20.7167 2.34937 17.3616 1.00138 13.8618 0.99683Z" fill="url(#paint1_linear)"/>
<path d="M20.7856 9.00184L19.1248 7.46608C19.0938 7.43089 19.0559 7.40211 19.0132 7.38145C18.9705 7.36079 18.924 7.34867 18.8763 7.34583H12.2153C12.1212 7.34583 12.0309 7.38202 11.9644 7.44645C11.8978 7.51089 11.8604 7.59828 11.8604 7.6894V8.72698L9.51469 9.11522C9.42543 9.13274 9.34654 9.18281 9.29435 9.25508C9.24217 9.32734 9.22068 9.41627 9.23433 9.50345L9.35144 10.1906C8.58845 10.438 7.80773 10.6956 7.05184 10.9568C6.96654 10.9885 6.89717 11.0508 6.85817 11.1308C6.81917 11.2108 6.81354 11.3023 6.84246 11.3862L8.34714 15.4335C8.36054 15.4725 8.38624 15.5064 8.42063 15.5304C8.45502 15.5544 8.49636 15.5674 8.53878 15.5675C8.56232 15.5707 8.58621 15.5707 8.60974 15.5675C8.66097 15.5496 8.7028 15.5128 8.72608 15.4652C8.74936 15.4175 8.75219 15.3629 8.73395 15.3132L7.25057 11.3244C7.96033 11.077 8.70202 10.8365 9.42242 10.6029L10.1322 14.602L10.9626 19.1922C10.9784 19.2716 11.0227 19.343 11.0876 19.3939C11.1525 19.4448 11.2339 19.4719 11.3175 19.4704H11.3742L13.5851 19.1028L15.3098 18.8177L12.6873 19.7212L10.6396 20.4324L9.04979 16.155C9.04201 16.1288 9.02878 16.1045 9.0109 16.0834C8.99302 16.0624 8.97089 16.0452 8.94585 16.0327C8.92082 16.0203 8.89342 16.013 8.86535 16.0112C8.83729 16.0095 8.80914 16.0133 8.78266 16.0225C8.75617 16.0316 8.73191 16.046 8.71137 16.0646C8.69083 16.0832 8.67445 16.1057 8.66323 16.1306C8.65202 16.1556 8.64621 16.1826 8.64617 16.2098C8.64612 16.237 8.65184 16.264 8.66297 16.289L10.2741 20.6283C10.2991 20.6929 10.3436 20.7488 10.4018 20.7887C10.46 20.8285 10.5293 20.8504 10.6006 20.8516C10.6406 20.8512 10.6802 20.8442 10.7177 20.831L12.8257 20.0957L17.613 18.4329L18.5286 18.2783H20.5443C20.6384 18.2783 20.7286 18.2421 20.7952 18.1776C20.8617 18.1132 20.8991 18.0258 20.8991 17.9347V9.22516C20.8986 9.18209 20.8881 9.13968 20.8685 9.10104C20.8488 9.06239 20.8205 9.0285 20.7856 9.00184ZM20.2391 9.04994H19.1744C19.1248 9.04994 19.0076 9.04994 18.9792 9.02245C18.9721 9.00007 18.9721 8.97613 18.9792 8.95374V7.87836L20.2391 9.04994ZM20.4875 17.8728H12.2721V13.9836C12.2721 13.9308 12.2504 13.8801 12.2118 13.8427C12.1732 13.8053 12.1208 13.7843 12.0662 13.7843C12.0117 13.7843 11.9593 13.8053 11.9207 13.8427C11.8821 13.8801 11.8604 13.9308 11.8604 13.9836V17.9312C11.8604 18.0224 11.8978 18.1098 11.9644 18.1742C12.0309 18.2386 12.1212 18.2748 12.2153 18.2748H16.087L13.4858 18.6905L11.3565 19.0341L10.5509 14.4887L9.66373 9.48284L11.8746 9.11522V13.056C11.8746 13.1088 11.8963 13.1595 11.9349 13.1969C11.9735 13.2342 12.0259 13.2552 12.0804 13.2552C12.135 13.2552 12.1874 13.2342 12.226 13.1969C12.2646 13.1595 12.2863 13.1088 12.2863 13.056V7.7478H18.5569V8.95374C18.5547 9.0171 18.5659 9.08024 18.5897 9.1393C18.6135 9.19837 18.6494 9.25213 18.6954 9.29731C18.8223 9.40203 18.9868 9.4539 19.1531 9.44161H20.4875V17.8728Z" fill="black"/>
<path d="M13.2693 10.4449C13.2693 10.4978 13.291 10.5485 13.3296 10.5859C13.3682 10.6232 13.4205 10.6442 13.4751 10.6442H19.3696C19.4242 10.6442 19.4765 10.6232 19.5151 10.5859C19.5537 10.5485 19.5754 10.4978 19.5754 10.4449C19.5754 10.3921 19.5537 10.3414 19.5151 10.304C19.4765 10.2666 19.4242 10.2456 19.3696 10.2456H13.4751C13.4481 10.2456 13.4213 10.2508 13.3963 10.2608C13.3714 10.2708 13.3487 10.2855 13.3296 10.304C13.3105 10.3225 13.2953 10.3445 13.285 10.3686C13.2746 10.3928 13.2693 10.4187 13.2693 10.4449Z" fill="url(#paint2_linear)"/>
<path d="M19.3697 11.6646H13.4751C13.4248 11.6709 13.3785 11.6949 13.345 11.7319C13.3115 11.7688 13.293 11.8164 13.293 11.8656C13.293 11.9148 13.3115 11.9623 13.345 11.9993C13.3785 12.0363 13.4248 12.0602 13.4751 12.0666H19.3697C19.4201 12.0602 19.4663 12.0363 19.4998 11.9993C19.5334 11.9623 19.5518 11.9148 19.5518 11.8656C19.5518 11.8164 19.5334 11.7688 19.4998 11.7319C19.4663 11.6949 19.4201 11.6709 19.3697 11.6646Z" fill="url(#paint3_linear)"/>
<path d="M19.3696 13.0834H13.4751C13.4205 13.0834 13.3682 13.1044 13.3296 13.1418C13.291 13.1792 13.2693 13.2299 13.2693 13.2827C13.2693 13.3356 13.291 13.3863 13.3296 13.4237C13.3682 13.4611 13.4205 13.4821 13.4751 13.4821H19.3696C19.4242 13.4821 19.4765 13.4611 19.5151 13.4237C19.5537 13.3863 19.5754 13.3356 19.5754 13.2827C19.5754 13.2299 19.5537 13.1792 19.5151 13.1418C19.4765 13.1044 19.4242 13.0834 19.3696 13.0834Z" fill="url(#paint4_linear)"/>
<path d="M19.3696 14.5027H13.4751C13.4205 14.5027 13.3682 14.5237 13.3296 14.561C13.291 14.5984 13.2693 14.649 13.2693 14.7019C13.2693 14.7547 13.291 14.8054 13.3296 14.8427C13.3682 14.8801 13.4205 14.9011 13.4751 14.9011H19.3696C19.4242 14.9011 19.4765 14.8801 19.5151 14.8427C19.5537 14.8054 19.5754 14.7547 19.5754 14.7019C19.5754 14.649 19.5537 14.5984 19.5151 14.561C19.4765 14.5237 19.4242 14.5027 19.3696 14.5027Z" fill="url(#paint5_linear)"/>
<path d="M19.3696 15.9215H13.4751C13.4205 15.9215 13.3682 15.9425 13.3296 15.9798C13.291 16.0172 13.2693 16.0679 13.2693 16.1207C13.2693 16.1735 13.291 16.2242 13.3296 16.2615C13.3682 16.2989 13.4205 16.3199 13.4751 16.3199H19.3696C19.4242 16.3199 19.4765 16.2989 19.5151 16.2615C19.5537 16.2242 19.5754 16.1735 19.5754 16.1207C19.5754 16.0679 19.5537 16.0172 19.5151 15.9798C19.4765 15.9425 19.4242 15.9215 19.3696 15.9215Z" fill="url(#paint6_linear)"/>
<defs>
<linearGradient id="paint0_linear" x1="11801.9" y1="4187.95" x2="13164" y2="5594.86" gradientUnits="userSpaceOnUse">
<stop stop-color="#E2E1E6"/>
<stop offset="0.84" stop-color="white"/>
</linearGradient>
<linearGradient id="paint1_linear" x1="15963.8" y1="711.093" x2="18059.9" y2="711.093" gradientUnits="userSpaceOnUse">
<stop stop-color="white"/>
<stop offset="1" stop-color="#E6E6E6"/>
</linearGradient>
<linearGradient id="paint2_linear" x1="13.2693" y1="10.4484" x2="19.5754" y2="10.4484" gradientUnits="userSpaceOnUse">
<stop stop-color="#4D4D4D"/>
<stop offset="1" stop-color="#666666"/>
</linearGradient>
<linearGradient id="paint3_linear" x1="2920.54" y1="84.4961" x2="3031.76" y2="84.4961" gradientUnits="userSpaceOnUse">
<stop stop-color="#4D4D4D"/>
<stop offset="1" stop-color="#666666"/>
</linearGradient>
<linearGradient id="paint4_linear" x1="2942.47" y1="86.9557" x2="3054.53" y2="86.9557" gradientUnits="userSpaceOnUse">
<stop stop-color="#4D4D4D"/>
<stop offset="1" stop-color="#666666"/>
</linearGradient>
<linearGradient id="paint5_linear" x1="2942.47" y1="89.9519" x2="3054.53" y2="89.9519" gradientUnits="userSpaceOnUse">
<stop stop-color="#4D4D4D"/>
<stop offset="1" stop-color="#666666"/>
</linearGradient>
<linearGradient id="paint6_linear" x1="2942.47" y1="93.016" x2="3054.53" y2="93.016" gradientUnits="userSpaceOnUse">
<stop stop-color="#4D4D4D"/>
<stop offset="1" stop-color="#666666"/>
</linearGradient>
</defs>
</svg>
