<svg width="30" height="29" viewBox="0 0 30 29" fill="none" xmlns="http://www.w3.org/2000/svg">
<path opacity="0.38" d="M15.6787 28.3194C23.2472 28.3194 29.3827 22.4532 29.3827 15.2167C29.3827 7.9803 23.2472 2.11401 15.6787 2.11401C8.11012 2.11401 1.97461 7.9803 1.97461 15.2167C1.97461 22.4532 8.11012 28.3194 15.6787 28.3194Z" fill="#9396A2"/>
<path d="M14.3418 27.996C21.9103 27.996 28.0458 22.0573 28.0458 14.7316C28.0458 7.40585 21.9103 1.46716 14.3418 1.46716C6.77322 1.46716 0.637695 7.40585 0.637695 14.7316C0.637695 22.0573 6.77322 27.996 14.3418 27.996Z" fill="url(#paint0_linear)"/>
<path d="M14.5125 27.6726C11.7689 27.6732 9.08667 26.8864 6.80509 25.4115C4.52351 23.9366 2.74505 21.84 1.69462 19.3867C0.644191 16.9334 0.368976 14.2337 0.903792 11.629C1.43861 9.02437 2.75942 6.6317 4.6992 4.75365C6.63898 2.8756 9.11057 1.59653 11.8014 1.07819C14.4923 0.559851 17.2815 0.82553 19.8163 1.84163C22.3512 2.85773 24.5178 4.57861 26.0421 6.78663C27.5664 8.99465 28.3801 11.5906 28.3801 14.2463C28.3762 17.8054 26.9141 21.2177 24.3144 23.7348C21.7146 26.2518 18.1896 27.6679 14.5125 27.6726ZM14.5125 1.25305C11.8565 1.25236 9.25997 2.01411 7.05131 3.44194C4.84264 4.86976 3.12107 6.89954 2.10434 9.27451C1.08761 11.6495 0.821393 14.263 1.33937 16.7844C1.85736 19.3059 3.13627 21.622 5.01433 23.4398C6.89239 25.2576 9.28524 26.4955 11.8902 26.9969C14.4952 27.4982 17.1953 27.2406 19.649 26.2564C22.1026 25.2723 24.1997 23.606 25.6748 21.4681C27.1499 19.3303 27.9369 16.8171 27.9362 14.2463C27.9314 10.8017 26.5156 7.49948 23.9992 5.06378C21.4828 2.62808 18.0712 1.25768 14.5125 1.25305Z" fill="url(#paint1_linear)"/>
<path d="M17.8526 9.76597C17.0454 8.96559 15.9899 8.45146 14.8523 8.30451C13.7148 8.15756 12.5597 8.38613 11.569 8.95425C11.5456 8.96781 11.5251 8.98576 11.5088 9.00707C11.4925 9.02839 11.4806 9.05265 11.4738 9.07847C11.467 9.1043 11.4655 9.13119 11.4693 9.1576C11.4731 9.18402 11.4821 9.20944 11.4959 9.23241C11.5097 9.25538 11.528 9.27546 11.5497 9.2915C11.5715 9.30754 11.5962 9.31922 11.6225 9.32588C11.6488 9.33254 11.6762 9.33404 11.7031 9.33031C11.73 9.32658 11.7559 9.31769 11.7793 9.30413C12.8134 8.70599 14.04 8.51487 15.2119 8.76929C16.3839 9.0237 17.414 9.70474 18.0947 10.6751C18.7754 11.6456 19.0562 12.8332 18.8803 13.9987C18.7044 15.1642 18.085 16.221 17.1469 16.956C17.1227 16.9748 17.1031 16.9987 17.0895 17.026C17.0759 17.0532 17.0688 17.0831 17.0685 17.1134V17.7887C17.0678 18.0443 16.9697 18.2904 16.7937 18.4788C16.6176 18.6671 16.3762 18.7841 16.1169 18.8068H14.3597V13.5377H16.2773C16.3321 13.5377 16.3847 13.5163 16.4234 13.4782C16.4622 13.4402 16.484 13.3886 16.484 13.3347C16.484 13.2809 16.4622 13.2293 16.4234 13.1912C16.3847 13.1532 16.3321 13.1318 16.2773 13.1318H12.0715C12.0167 13.1318 11.9641 13.1532 11.9254 13.1912C11.8866 13.2293 11.8648 13.2809 11.8648 13.3347C11.8648 13.3886 11.8866 13.4402 11.9254 13.4782C11.9641 13.5163 12.0167 13.5377 12.0715 13.5377H13.9463V18.8208H12.2319C11.9726 18.7981 11.7312 18.6811 11.5551 18.4928C11.3791 18.3044 11.281 18.0583 11.2803 17.8027V17.1274C11.28 17.0971 11.2729 17.0672 11.2593 17.0399C11.2457 17.0127 11.2261 16.9888 11.2019 16.97C10.6684 16.5534 10.2331 16.0285 9.92568 15.4312C9.6183 14.8339 9.44618 14.1784 9.42113 13.5097C9.39607 12.841 9.51868 12.1749 9.78054 11.5571C10.0424 10.9392 10.4373 10.3843 10.9381 9.93042C10.9769 9.89236 10.9986 9.84076 10.9986 9.78696C10.9986 9.73317 10.9769 9.68157 10.9381 9.64351C10.9192 9.62426 10.8965 9.60895 10.8714 9.59849C10.8463 9.58803 10.8193 9.58263 10.792 9.58263C10.7647 9.58263 10.7377 9.58803 10.7126 9.59849C10.6875 9.60895 10.6648 9.62426 10.6459 9.64351C10.1077 10.1316 9.682 10.727 9.39741 11.3898C9.11281 12.0526 8.97588 12.7675 8.9958 13.4865C9.01571 14.2056 9.192 14.9121 9.51286 15.5587C9.83373 16.2054 10.2917 16.7772 10.8562 17.2359V17.8132C10.8573 18.1251 10.9624 18.428 11.1555 18.6757C11.3486 18.9233 11.619 19.1021 11.9254 19.1847V19.692C11.8958 19.6882 11.8656 19.6906 11.837 19.6992C11.8083 19.7077 11.7819 19.7222 11.7594 19.7415C11.7369 19.7609 11.7189 19.7848 11.7065 19.8115C11.6942 19.8383 11.6878 19.8673 11.6878 19.8967C11.6878 19.9261 11.6942 19.9551 11.7065 19.9819C11.7189 20.0086 11.7369 20.0325 11.7594 20.0519C11.7819 20.0712 11.8083 20.0857 11.837 20.0942C11.8656 20.1027 11.8958 20.1052 11.9254 20.1014C11.9052 20.314 11.963 20.5268 12.0885 20.7013C12.2139 20.8758 12.3988 21.0006 12.6097 21.053C12.6001 21.1949 12.6198 21.3372 12.6679 21.4713C12.7159 21.6055 12.7912 21.7286 12.8892 21.8333C12.9872 21.938 13.1058 22.0221 13.2379 22.0804C13.37 22.1387 13.5128 22.1701 13.6576 22.1726H14.6983C14.8435 22.1706 14.9866 22.1396 15.1191 22.0814C15.2516 22.0233 15.3707 21.9393 15.4691 21.8346C15.5674 21.7298 15.643 21.6065 15.6913 21.4722C15.7396 21.3378 15.7595 21.1952 15.7498 21.053C15.96 20.9999 16.1441 20.8748 16.2689 20.7004C16.3936 20.526 16.451 20.3136 16.4305 20.1014C16.7869 20.1014 16.7869 19.692 16.4305 19.692V19.1707C16.7369 19.0881 17.0073 18.9094 17.2004 18.6617C17.3935 18.414 17.4986 18.1111 17.4998 17.7992V17.2219C18.0492 16.7733 18.4974 16.2173 18.816 15.5894C19.1345 14.9614 19.3163 14.2752 19.3498 13.5745C19.3834 12.8738 19.2679 12.1739 19.0107 11.5194C18.7535 10.8649 18.3604 10.2701 17.8562 9.77298L17.8526 9.76597ZM16.0135 20.1923C16.0135 20.2521 16.0015 20.3112 15.9782 20.3664C15.955 20.4216 15.9208 20.4717 15.8778 20.514C15.8348 20.5562 15.7837 20.5897 15.7275 20.6126C15.6713 20.6354 15.611 20.6472 15.5502 20.6472H15.1938C15.1389 20.6472 15.0863 20.6686 15.0476 20.7066C15.0088 20.7447 14.987 20.7963 14.987 20.8501C14.987 20.9039 15.0088 20.9555 15.0476 20.9936C15.0863 21.0317 15.1389 21.053 15.1938 21.053H15.3399C15.3488 21.1406 15.3391 21.2291 15.3114 21.3128C15.2837 21.3965 15.2386 21.4737 15.179 21.5395C15.1193 21.6052 15.0465 21.6581 14.965 21.6948C14.8835 21.7316 14.7951 21.7513 14.7055 21.7528H13.6647C13.5751 21.7513 13.4867 21.7316 13.4052 21.6948C13.3237 21.6581 13.2509 21.6052 13.1912 21.5395C13.1316 21.4737 13.0865 21.3965 13.0588 21.3128C13.0311 21.2291 13.0214 21.1406 13.0303 21.053H14.0996C14.1544 21.053 14.207 21.0317 14.2457 20.9936C14.2845 20.9555 14.3063 20.9039 14.3063 20.8501C14.3063 20.7963 14.2845 20.7447 14.2457 20.7066C14.207 20.6686 14.1544 20.6472 14.0996 20.6472H12.8058C12.7359 20.6437 12.6676 20.6257 12.6054 20.5945C12.5431 20.5632 12.4883 20.5194 12.4445 20.4659C12.4007 20.4123 12.369 20.3503 12.3514 20.2838C12.3338 20.2174 12.3308 20.1481 12.3424 20.0804H16.0206L16.0135 20.1923ZM12.3353 19.671V19.2197H16.0135V19.671H12.3353Z" fill="black"/>
<path d="M8.32501 13.2757C8.32501 13.2328 8.30434 13.1916 8.26752 13.1613C8.2307 13.1309 8.18077 13.1139 8.1287 13.1139H7.18435C7.13228 13.1139 7.08235 13.1309 7.04553 13.1613C7.00871 13.1916 6.98804 13.2328 6.98804 13.2757C6.98804 13.3186 7.00871 13.3598 7.04553 13.3901C7.08235 13.4205 7.13228 13.4375 7.18435 13.4375H8.1287C8.18077 13.4375 8.2307 13.4205 8.26752 13.3901C8.30434 13.3598 8.32501 13.3186 8.32501 13.2757Z" fill="url(#paint2_linear)"/>
<path d="M8.65187 14.8801C8.64545 14.8545 8.63392 14.8306 8.61796 14.8096C8.60201 14.7886 8.58195 14.771 8.55899 14.7578C8.53603 14.7447 8.51064 14.7362 8.48433 14.733C8.45801 14.7298 8.43131 14.7319 8.40583 14.7391L7.47016 14.9866C7.41869 15.0007 7.37498 15.0345 7.34866 15.0806C7.32234 15.1267 7.31556 15.1813 7.32981 15.2323C7.34405 15.2834 7.37816 15.3267 7.42463 15.3528C7.4711 15.3789 7.52612 15.3856 7.57758 15.3715L8.50978 15.1241C8.53551 15.1177 8.55968 15.1063 8.58085 15.0904C8.60203 15.0746 8.61977 15.0547 8.63303 15.032C8.64629 15.0092 8.65479 14.984 8.65802 14.9579C8.66126 14.9318 8.65917 14.9053 8.65187 14.8801Z" fill="url(#paint3_linear)"/>
<path d="M9.01144 16.0512L8.08623 16.5883C8.04057 16.6204 8.00854 16.6687 7.99648 16.7236C7.98442 16.7785 7.99323 16.8359 8.02114 16.8846C8.04906 16.9332 8.09404 16.9695 8.14718 16.9861C8.20031 17.0028 8.2577 16.9987 8.30797 16.9746L9.23319 16.4337C9.27884 16.4016 9.31088 16.3533 9.32293 16.2984C9.33499 16.2435 9.32618 16.1861 9.29827 16.1374C9.27036 16.0888 9.22537 16.0525 9.17224 16.0358C9.11911 16.0192 9.06171 16.0233 9.01144 16.0474V16.0512Z" fill="url(#paint4_linear)"/>
<path d="M7.47088 11.8897L8.41112 12.1379C8.46224 12.1499 8.51605 12.1416 8.56113 12.115C8.60622 12.0883 8.63903 12.0453 8.65262 11.9951C8.66621 11.9448 8.6595 11.8913 8.63392 11.8459C8.60834 11.8005 8.56589 11.7668 8.51558 11.7518L7.57883 11.5036C7.55322 11.4966 7.52646 11.4946 7.50009 11.4978C7.47372 11.5011 7.44825 11.5094 7.42513 11.5224C7.37843 11.5485 7.34416 11.592 7.32984 11.6432C7.31553 11.6944 7.32234 11.7492 7.34879 11.7954C7.37524 11.8416 7.41916 11.8755 7.47088 11.8897Z" fill="url(#paint5_linear)"/>
<path d="M8.08623 10.1492L9.01144 10.5113C9.06171 10.5274 9.11911 10.5301 9.17224 10.519C9.22537 10.5078 9.27036 10.4835 9.29827 10.451C9.32618 10.4184 9.33499 10.38 9.32293 10.3432C9.31088 10.3065 9.27884 10.2741 9.23319 10.2526L8.30797 9.89313C8.2577 9.877 8.20031 9.87425 8.14718 9.88542C8.09404 9.89658 8.04906 9.92085 8.02114 9.9534C7.99323 9.98596 7.98442 10.0244 7.99648 10.0612C8.00854 10.0979 8.04057 10.1302 8.08623 10.1518V10.1492Z" fill="url(#paint6_linear)"/>
<path d="M21.1646 13.1139H20.2202C20.1682 13.1139 20.1182 13.1309 20.0814 13.1613C20.0446 13.1916 20.0239 13.2328 20.0239 13.2757C20.0239 13.3186 20.0446 13.3598 20.0814 13.3901C20.1182 13.4205 20.1682 13.4375 20.2202 13.4375H21.1646C21.2167 13.4375 21.2666 13.4205 21.3034 13.3901C21.3402 13.3598 21.3609 13.3186 21.3609 13.2757C21.3609 13.2328 21.3402 13.1916 21.3034 13.1613C21.2666 13.1309 21.2167 13.1139 21.1646 13.1139Z" fill="url(#paint7_linear)"/>
<path d="M20.882 14.986L19.9387 14.7369C19.8874 14.7249 19.8334 14.7332 19.7882 14.76C19.7429 14.7867 19.71 14.8299 19.6964 14.8803C19.6827 14.9307 19.6895 14.9843 19.7151 15.0299C19.7408 15.0755 19.7834 15.1093 19.8338 15.1243L20.7772 15.3734C20.8285 15.3854 20.8825 15.3771 20.9277 15.3503C20.973 15.3236 21.0059 15.2804 21.0195 15.23C21.0332 15.1796 21.0264 15.126 21.0008 15.0804C20.9751 15.0349 20.9325 15.001 20.882 14.986Z" fill="url(#paint8_linear)"/>
<path d="M20.2642 16.5884L19.3525 16.0566C19.3023 16.0266 19.2424 16.0181 19.186 16.0328C19.1296 16.0475 19.0813 16.0843 19.0517 16.135C19.0221 16.1857 19.0137 16.2463 19.0282 16.3033C19.0427 16.3604 19.0791 16.4092 19.1293 16.4392L20.0448 16.9748C20.0945 16.9987 20.1513 17.0027 20.2039 16.9862C20.2565 16.9697 20.301 16.9338 20.3286 16.8857C20.3562 16.8375 20.3649 16.7806 20.353 16.7262C20.3411 16.6719 20.3094 16.624 20.2642 16.5922V16.5884Z" fill="url(#paint9_linear)"/>
<path d="M19.6971 11.9966C19.7132 12.0465 19.7474 12.0888 19.793 12.115C19.8387 12.1412 19.8925 12.1496 19.944 12.1385L20.8827 11.8893C20.933 11.8743 20.9753 11.8404 21.0009 11.7948C21.0264 11.7492 21.0331 11.6956 21.0196 11.6451C21.006 11.5947 20.9732 11.5515 20.9282 11.5248C20.8832 11.498 20.8295 11.4897 20.7784 11.5017L19.8397 11.7509C19.8139 11.7573 19.7896 11.7688 19.7684 11.7847C19.7471 11.8007 19.7293 11.8207 19.716 11.8436C19.7027 11.8666 19.6942 11.8919 19.6909 11.9182C19.6877 11.9445 19.6898 11.9711 19.6971 11.9966Z" fill="url(#paint10_linear)"/>
<path d="M19.2364 10.5257C19.2762 10.525 19.3152 10.518 19.3502 10.5053L20.264 10.1481C20.3093 10.1269 20.341 10.095 20.353 10.0587C20.3649 10.0225 20.3562 9.98452 20.3285 9.9524C20.3009 9.92028 20.2562 9.89634 20.2035 9.88533C20.1508 9.87431 20.0939 9.87702 20.0441 9.89293L19.1265 10.2476C19.0859 10.2647 19.0545 10.29 19.0369 10.32C19.0193 10.3499 19.0165 10.3829 19.0288 10.414C19.0411 10.4451 19.0679 10.4728 19.1053 10.4929C19.1426 10.513 19.1886 10.5245 19.2364 10.5257Z" fill="url(#paint11_linear)"/>
<defs>
<linearGradient id="paint0_linear" x1="12050.6" y1="7690.32" x2="13441" y2="9126.84" gradientUnits="userSpaceOnUse">
<stop stop-color="#E2E1E6"/>
<stop offset="0.84" stop-color="white"/>
</linearGradient>
<linearGradient id="paint1_linear" x1="18758.1" y1="3167.28" x2="20889.5" y2="3167.28" gradientUnits="userSpaceOnUse">
<stop stop-color="white"/>
<stop offset="1" stop-color="#E6E6E6"/>
</linearGradient>
<linearGradient id="paint2_linear" x1="603.146" y1="114.223" x2="608.4" y2="114.223" gradientUnits="userSpaceOnUse">
<stop stop-color="#4D4D4D"/>
<stop offset="1" stop-color="#666666"/>
</linearGradient>
<linearGradient id="paint3_linear" x1="604.289" y1="219.901" x2="609.41" y2="219.901" gradientUnits="userSpaceOnUse">
<stop stop-color="#4D4D4D"/>
<stop offset="1" stop-color="#666666"/>
</linearGradient>
<linearGradient id="paint4_linear" x1="607.431" y1="327.875" x2="612.191" y2="327.875" gradientUnits="userSpaceOnUse">
<stop stop-color="#4D4D4D"/>
<stop offset="1" stop-color="#666666"/>
</linearGradient>
<linearGradient id="paint5_linear" x1="604.276" y1="210.598" x2="609.383" y2="210.598" gradientUnits="userSpaceOnUse">
<stop stop-color="#4D4D4D"/>
<stop offset="1" stop-color="#666666"/>
</linearGradient>
<linearGradient id="paint6_linear" x1="607.418" y1="206.222" x2="612.191" y2="206.222" gradientUnits="userSpaceOnUse">
<stop stop-color="#4D4D4D"/>
<stop offset="1" stop-color="#666666"/>
</linearGradient>
<linearGradient id="paint7_linear" x1="663.986" y1="114.223" x2="669.227" y2="114.223" gradientUnits="userSpaceOnUse">
<stop stop-color="#4D4D4D"/>
<stop offset="1" stop-color="#666666"/>
</linearGradient>
<linearGradient id="paint8_linear" x1="662.962" y1="219.901" x2="668.07" y2="219.901" gradientUnits="userSpaceOnUse">
<stop stop-color="#4D4D4D"/>
<stop offset="1" stop-color="#666666"/>
</linearGradient>
<linearGradient id="paint9_linear" x1="660.168" y1="327.875" x2="664.928" y2="327.875" gradientUnits="userSpaceOnUse">
<stop stop-color="#4D4D4D"/>
<stop offset="1" stop-color="#666666"/>
</linearGradient>
<linearGradient id="paint10_linear" x1="662.949" y1="210.598" x2="668.083" y2="210.598" gradientUnits="userSpaceOnUse">
<stop stop-color="#4D4D4D"/>
<stop offset="1" stop-color="#666666"/>
</linearGradient>
<linearGradient id="paint11_linear" x1="660.168" y1="206.222" x2="664.941" y2="206.222" gradientUnits="userSpaceOnUse">
<stop stop-color="#4D4D4D"/>
<stop offset="1" stop-color="#666666"/>
</linearGradient>
</defs>
</svg>
