<svg width="30" height="28" viewBox="0 0 30 28" fill="none" xmlns="http://www.w3.org/2000/svg">
<path opacity="0.38" d="M15.6357 27.4674C23.1322 27.4674 29.2093 21.5839 29.2093 14.3263C29.2093 7.06866 23.1322 1.18518 15.6357 1.18518C8.13915 1.18518 2.06201 7.06866 2.06201 14.3263C2.06201 21.5839 8.13915 27.4674 15.6357 27.4674Z" fill="#9396A2"/>
<path d="M14.2504 27.0158C21.747 27.0158 27.8241 21.1323 27.8241 13.8746C27.8241 6.61691 21.747 0.733398 14.2504 0.733398C6.75389 0.733398 0.676758 6.61691 0.676758 13.8746C0.676758 21.1323 6.75389 27.0158 14.2504 27.0158Z" fill="url(#paint0_linear)"/>
<path d="M14.2503 26.9082C11.5211 26.9102 8.85253 26.1286 6.58226 24.662C4.312 23.1955 2.54203 21.11 1.49629 18.6693C0.450541 16.2287 0.176002 13.5427 0.707406 10.9509C1.23881 8.35923 2.55227 5.97834 4.48164 4.10948C6.411 2.24062 8.86956 0.967758 11.5463 0.451937C14.223 -0.0638843 16.9976 0.200503 19.5191 1.21166C22.0406 2.22282 24.1957 3.9353 25.7116 6.13247C27.2276 8.32964 28.0364 10.9128 28.0357 13.555C28.0319 17.0942 26.5786 20.4874 23.9943 22.9906C21.4101 25.4938 17.9059 26.9027 14.2503 26.9082ZM14.2503 0.625808C11.609 0.625808 9.027 1.38409 6.83082 2.80477C4.63465 4.22545 2.92294 6.24473 1.91215 8.60724C0.901361 10.9697 0.636893 13.5694 1.15219 16.0774C1.66748 18.5854 2.9394 20.8892 4.80709 22.6974C6.67479 24.5056 9.05437 25.737 11.6449 26.2358C14.2355 26.7347 16.9207 26.4787 19.361 25.5001C21.8012 24.5215 23.8869 22.8643 25.3544 20.7381C26.8218 18.6119 27.605 16.1122 27.605 13.555C27.6012 10.1271 26.193 6.84066 23.6893 4.41676C21.1857 1.99285 17.791 0.629487 14.2503 0.625808Z" fill="url(#paint1_linear)"/>
<path d="M20.0319 19.2743H9.68473C9.62952 19.2743 9.57657 19.2531 9.53753 19.2153C9.49849 19.1775 9.47656 19.1263 9.47656 19.0728V6.45995C9.47656 6.4065 9.49849 6.35525 9.53753 6.31745C9.57657 6.27966 9.62952 6.25842 9.68473 6.25842H20.0319C20.0592 6.25842 20.0863 6.26364 20.1115 6.27377C20.1368 6.28389 20.1597 6.29874 20.1791 6.31745C20.1984 6.33617 20.2137 6.35837 20.2242 6.38283C20.2346 6.40728 20.24 6.43348 20.24 6.45995V19.0728C20.24 19.0993 20.2346 19.1255 20.2242 19.1499C20.2137 19.1744 20.1984 19.1966 20.1791 19.2153C20.1597 19.234 20.1368 19.2489 20.1115 19.259C20.0863 19.2691 20.0592 19.2743 20.0319 19.2743ZM9.89289 18.8713H19.8237V6.66148H9.89289V18.8713Z" fill="black"/>
<path d="M8.58302 10.7964C8.55585 10.7964 8.52895 10.7911 8.5039 10.781C8.47884 10.7708 8.45613 10.7559 8.43708 10.7371C8.41804 10.7184 8.40305 10.6961 8.39298 10.6717C8.38291 10.6473 8.37797 10.6211 8.37845 10.5948V7.52661C8.37797 7.5003 8.38291 7.47418 8.39298 7.44975C8.40305 7.42531 8.41804 7.40307 8.43708 7.38431C8.45613 7.36555 8.47884 7.35064 8.5039 7.34047C8.52895 7.3303 8.55585 7.32507 8.58302 7.32507H9.68486C9.74006 7.32507 9.79301 7.3463 9.83205 7.3841C9.87109 7.42189 9.89302 7.47315 9.89302 7.52661C9.89302 7.58006 9.87109 7.63132 9.83205 7.66912C9.79301 7.70691 9.74006 7.72815 9.68486 7.72815H8.79119V10.5948C8.79119 10.6483 8.76925 10.6996 8.73022 10.7373C8.69118 10.7751 8.63823 10.7964 8.58302 10.7964Z" fill="url(#paint2_linear)"/>
<path d="M8.58284 14.7957C8.55567 14.7957 8.52877 14.7904 8.50371 14.7802C8.47865 14.7701 8.45594 14.7552 8.43689 14.7364C8.41785 14.7177 8.40286 14.6954 8.39279 14.671C8.38272 14.6466 8.37778 14.6204 8.37826 14.5941V14.0104C8.37438 13.9819 8.37681 13.953 8.3854 13.9256C8.394 13.8981 8.40855 13.8727 8.42809 13.8512C8.44763 13.8296 8.4717 13.8123 8.4987 13.8004C8.52569 13.7886 8.55499 13.7825 8.58463 13.7825C8.61427 13.7825 8.64357 13.7886 8.67056 13.8004C8.69756 13.8123 8.72164 13.8296 8.74117 13.8512C8.76071 13.8727 8.77526 13.8981 8.78386 13.9256C8.79245 13.953 8.79488 13.9819 8.791 14.0104V14.5941C8.791 14.6476 8.76907 14.6988 8.73003 14.7366C8.69099 14.7744 8.63805 14.7957 8.58284 14.7957Z" fill="url(#paint3_linear)"/>
<path d="M18.9336 20.3409H8.58283C8.55566 20.3409 8.52876 20.3357 8.50371 20.3255C8.47865 20.3153 8.45594 20.3004 8.43689 20.2817C8.41785 20.2629 8.40286 20.2407 8.39279 20.2162C8.38272 20.1918 8.37778 20.1657 8.37826 20.1394V16.0011C8.37438 15.9727 8.37681 15.9438 8.3854 15.9163C8.394 15.8888 8.40855 15.8635 8.42809 15.8419C8.44762 15.8203 8.4717 15.803 8.49869 15.7912C8.52569 15.7793 8.55499 15.7732 8.58463 15.7732C8.61427 15.7732 8.64356 15.7793 8.67056 15.7912C8.69756 15.803 8.72163 15.8203 8.74117 15.8419C8.7607 15.8635 8.77526 15.8888 8.78385 15.9163C8.79244 15.9438 8.79488 15.9727 8.79099 16.0011V19.9378H18.7254V19.0727C18.7254 19.0192 18.7473 18.968 18.7864 18.9302C18.8254 18.8924 18.8784 18.8711 18.9336 18.8711C18.9888 18.8711 19.0417 18.8924 19.0808 18.9302C19.1198 18.968 19.1417 19.0192 19.1417 19.0727V20.1394C19.1417 20.1928 19.1198 20.2441 19.0808 20.2819C19.0417 20.3197 18.9888 20.3409 18.9336 20.3409Z" fill="url(#paint4_linear)"/>
<path d="M8.58284 12.801C8.55567 12.801 8.52877 12.7958 8.50371 12.7856C8.47865 12.7755 8.45594 12.7606 8.43689 12.7418C8.41785 12.7231 8.40286 12.7008 8.39279 12.6764C8.38272 12.652 8.37778 12.6258 8.37826 12.5995V12.0021C8.37438 11.9736 8.37681 11.9447 8.3854 11.9172C8.394 11.8898 8.40855 11.8644 8.42809 11.8428C8.44763 11.8213 8.4717 11.804 8.4987 11.7921C8.52569 11.7803 8.55499 11.7742 8.58463 11.7742C8.61427 11.7742 8.64357 11.7803 8.67056 11.7921C8.69756 11.804 8.72164 11.8213 8.74117 11.8428C8.76071 11.8644 8.77526 11.8898 8.78386 11.9172C8.79245 11.9447 8.79488 11.9736 8.791 12.0021V12.5891C8.791 12.6426 8.76907 12.6938 8.73003 12.7316C8.69099 12.7694 8.63805 12.7906 8.58284 12.7906V12.801Z" fill="url(#paint5_linear)"/>
<path d="M11.993 11.7168C11.9511 11.7175 11.91 11.706 11.875 11.6837C11.8399 11.6614 11.8127 11.6293 11.7968 11.5918C11.7809 11.5542 11.7771 11.5129 11.7858 11.4732C11.7946 11.4336 11.8155 11.3974 11.8459 11.3694L13.9993 9.28466C14.0388 9.24772 14.0915 9.22707 14.1464 9.22707C14.2014 9.22707 14.2541 9.24772 14.2936 9.28466L15.3344 10.2957L17.5704 8.13112C17.6106 8.10052 17.661 8.08531 17.7121 8.08841C17.7631 8.09151 17.8112 8.11269 17.8471 8.14791C17.8831 8.18314 17.9043 8.22995 17.9069 8.2794C17.9095 8.32885 17.8932 8.37748 17.8611 8.41602L15.4816 10.7196C15.4427 10.7564 15.3905 10.7769 15.3362 10.7769C15.2819 10.7769 15.2297 10.7564 15.1908 10.7196L14.1464 9.71203L12.1294 11.6612C12.1107 11.6809 12.0879 11.6966 12.0626 11.7074C12.0373 11.7181 12.0099 11.7237 11.9823 11.7238L11.993 11.7168Z" fill="url(#paint6_linear)"/>
<path d="M17.7245 9.57659C17.6973 9.5766 17.6704 9.57137 17.6453 9.5612C17.6203 9.55102 17.5976 9.53613 17.5785 9.51736C17.5595 9.4986 17.5445 9.47634 17.5344 9.45191C17.5244 9.42747 17.5194 9.40135 17.5199 9.37504V8.46805H16.5832C16.528 8.46805 16.475 8.44681 16.436 8.40901C16.3969 8.37121 16.375 8.31995 16.375 8.26649C16.375 8.21304 16.3969 8.16177 16.436 8.12397C16.475 8.08617 16.528 8.06494 16.5832 8.06494H17.7245C17.7797 8.06494 17.8326 8.08617 17.8717 8.12397C17.9107 8.16177 17.9326 8.21304 17.9326 8.26649V9.37504C17.9326 9.4285 17.9107 9.47977 17.8717 9.51757C17.8326 9.55536 17.7797 9.57659 17.7245 9.57659Z" fill="url(#paint7_linear)"/>
<path d="M18.7869 13.7565H10.9306C10.8754 13.7565 10.8224 13.7352 10.7834 13.6974C10.7443 13.6597 10.7224 13.6084 10.7224 13.555C10.7224 13.5015 10.7443 13.4503 10.7834 13.4125C10.8224 13.3747 10.8754 13.3535 10.9306 13.3535H18.7869C18.8422 13.3535 18.8951 13.3747 18.9341 13.4125C18.9732 13.4503 18.9951 13.5015 18.9951 13.555C18.9951 13.6084 18.9732 13.6597 18.9341 13.6974C18.8951 13.7352 18.8422 13.7565 18.7869 13.7565Z" fill="url(#paint8_linear)"/>
<path d="M18.7869 15.6119H10.9306C10.8754 15.6119 10.8224 15.5907 10.7834 15.5529C10.7443 15.5151 10.7224 15.4639 10.7224 15.4104C10.7224 15.357 10.7443 15.3058 10.7834 15.268C10.8224 15.2302 10.8754 15.209 10.9306 15.209H18.7869C18.8422 15.209 18.8951 15.2302 18.9341 15.268C18.9732 15.3058 18.9951 15.357 18.9951 15.4104C18.9951 15.4639 18.9732 15.5151 18.9341 15.5529C18.8951 15.5907 18.8422 15.6119 18.7869 15.6119Z" fill="url(#paint9_linear)"/>
<path d="M18.7869 17.4537H10.9306C10.8754 17.4537 10.8224 17.4325 10.7834 17.3947C10.7443 17.3569 10.7224 17.3056 10.7224 17.2522C10.7224 17.1987 10.7443 17.1475 10.7834 17.1097C10.8224 17.0719 10.8754 17.0507 10.9306 17.0507H18.7869C18.8422 17.0507 18.8951 17.0719 18.9341 17.1097C18.9732 17.1475 18.9951 17.1987 18.9951 17.2522C18.9951 17.3056 18.9732 17.3569 18.9341 17.3947C18.8951 17.4325 18.8422 17.4537 18.7869 17.4537Z" fill="url(#paint10_linear)"/>
<defs>
<linearGradient id="paint0_linear" x1="2364.4" y1="7495.94" x2="3742.19" y2="8918.81" gradientUnits="userSpaceOnUse">
<stop stop-color="#E2E1E6"/>
<stop offset="0.84" stop-color="white"/>
</linearGradient>
<linearGradient id="paint1_linear" x1="11686.9" y1="9722.21" x2="13806.8" y2="9722.21" gradientUnits="userSpaceOnUse">
<stop stop-color="white"/>
<stop offset="1" stop-color="#E6E6E6"/>
</linearGradient>
<linearGradient id="paint2_linear" x1="155.643" y1="1041.22" x2="162.035" y2="1041.22" gradientUnits="userSpaceOnUse">
<stop stop-color="#4D4D4D"/>
<stop offset="1" stop-color="#666666"/>
</linearGradient>
<linearGradient id="paint3_linear" x1="48.8563" y1="330.838" x2="49.3351" y2="330.838" gradientUnits="userSpaceOnUse">
<stop stop-color="#4D4D4D"/>
<stop offset="1" stop-color="#666666"/>
</linearGradient>
<linearGradient id="paint4_linear" x1="1055.08" y1="1494.7" x2="1377.93" y2="1494.7" gradientUnits="userSpaceOnUse">
<stop stop-color="#4D4D4D"/>
<stop offset="1" stop-color="#666666"/>
</linearGradient>
<linearGradient id="paint5_linear" x1="48.8563" y1="327.192" x2="49.3351" y2="327.192" gradientUnits="userSpaceOnUse">
<stop stop-color="#4D4D4D"/>
<stop offset="1" stop-color="#666666"/>
</linearGradient>
<linearGradient id="paint6_linear" x1="665.541" y1="1099.66" x2="770.54" y2="1099.66" gradientUnits="userSpaceOnUse">
<stop stop-color="#4D4D4D"/>
<stop offset="1" stop-color="#666666"/>
</linearGradient>
<linearGradient id="paint7_linear" x1="202.528" y1="457.268" x2="209.288" y2="457.268" gradientUnits="userSpaceOnUse">
<stop stop-color="#4D4D4D"/>
<stop offset="1" stop-color="#666666"/>
</linearGradient>
<linearGradient id="paint8_linear" x1="869.097" y1="138.578" x2="1059.78" y2="138.578" gradientUnits="userSpaceOnUse">
<stop stop-color="#4D4D4D"/>
<stop offset="1" stop-color="#666666"/>
</linearGradient>
<linearGradient id="paint9_linear" x1="869.097" y1="142.585" x2="1059.78" y2="142.585" gradientUnits="userSpaceOnUse">
<stop stop-color="#4D4D4D"/>
<stop offset="1" stop-color="#666666"/>
</linearGradient>
<linearGradient id="paint10_linear" x1="869.097" y1="146.618" x2="1059.78" y2="146.618" gradientUnits="userSpaceOnUse">
<stop stop-color="#4D4D4D"/>
<stop offset="1" stop-color="#666666"/>
</linearGradient>
</defs>
</svg>
