<svg width="81" height="79" viewBox="0 0 81 79" fill="none" xmlns="http://www.w3.org/2000/svg">
<path opacity="0.38" d="M42.9412 78.7889C63.928 78.7889 80.9412 62.0333 80.9412 41.3642C80.9412 20.6951 63.928 3.93945 42.9412 3.93945C21.9543 3.93945 4.94116 20.6951 4.94116 41.3642C4.94116 62.0333 21.9543 78.7889 42.9412 78.7889Z" fill="#9396A2"/>
<path d="M38.9412 77.804C59.928 77.804 76.9412 61.0484 76.9412 40.3793C76.9412 19.7102 59.928 2.95459 38.9412 2.95459C17.9543 2.95459 0.941162 19.7102 0.941162 40.3793C0.941162 61.0484 17.9543 77.804 38.9412 77.804Z" fill="url(#paint0_linear)"/>
<path d="M39.4712 77.8038C31.8554 77.8098 24.4088 75.5621 18.0736 71.3452C11.7383 67.1284 6.79903 61.1317 3.88045 54.1138C0.961868 47.0959 0.19515 39.3721 1.67729 31.9194C3.15942 24.4667 6.82382 17.62 12.2069 12.2454C17.5901 6.87069 24.4501 3.20957 31.9191 1.7251C39.3882 0.240634 47.1308 0.999519 54.1675 3.90576C61.2042 6.812 67.2189 11.735 71.4507 18.0521C75.6824 24.3691 77.9412 31.7964 77.9412 39.3943C77.9306 49.5727 73.8751 59.3317 66.6637 66.5317C59.4523 73.7317 49.6736 77.7853 39.4712 77.8038ZM39.4712 2.22388C32.0999 2.22388 24.8941 4.40473 18.7651 8.49062C12.6362 12.5765 7.85949 18.3839 5.03905 25.1783C2.21862 31.9727 1.48117 39.449 2.91998 46.6616C4.35878 53.8741 7.90922 60.499 13.1223 65.6984C18.3353 70.8978 24.9768 74.4381 32.2067 75.8716C39.4367 77.3051 46.9304 76.5674 53.74 73.7517C60.5497 70.9361 66.3695 66.169 70.4633 60.0534C74.5572 53.9378 76.7413 46.7484 76.7393 39.3943C76.7287 29.5376 72.7985 20.0878 65.8114 13.119C58.8243 6.15021 49.3511 2.23182 39.4712 2.22388Z" fill="url(#paint1_linear)"/>
<path d="M58.5052 25.6094H22.3771C21.8952 25.5825 21.4217 25.7411 21.0593 26.0509C20.6969 26.3608 20.4748 26.7968 20.4412 27.2646V51.5244C20.4748 51.9922 20.6969 52.4282 21.0593 52.738C21.4217 53.0478 21.8952 53.2065 22.3771 53.1796H58.5052C58.9872 53.2065 59.4606 53.0478 59.823 52.738C60.1854 52.4282 60.4075 51.9922 60.4412 51.5244V27.2646C60.4075 26.7968 60.1854 26.3608 59.823 26.0509C59.4606 25.7411 58.9872 25.5825 58.5052 25.6094ZM59.1505 51.5244C59.1401 51.6812 59.0666 51.8276 58.9458 51.9321C58.825 52.0366 58.6667 52.0907 58.5052 52.0826H22.3771C22.2156 52.0907 22.0573 52.0366 21.9365 51.9321C21.8158 51.8276 21.7422 51.6812 21.7318 51.5244V27.2646C21.7447 27.1096 21.8194 26.9655 21.9399 26.8631C22.0604 26.7607 22.2172 26.708 22.3771 26.7161H58.5052C58.6651 26.708 58.822 26.7607 58.9425 26.8631C59.063 26.9655 59.1376 27.1096 59.1505 27.2646V51.5244Z" fill="#666666"/>
<path d="M56.4412 27.5759H24.4412V44.3186H56.4412V27.5759ZM55.1612 43.2084H25.7312V28.6961H55.1612V43.2084Z" fill="#666666"/>
<path d="M47.4412 39.4439C47.4112 38.7763 47.1623 38.1381 46.7341 37.6305C46.3059 37.1228 45.7228 36.775 45.0775 36.642L42.8769 36.0837V35.9286C43.2662 35.6823 43.5891 35.3417 43.8167 34.9375C44.0443 34.5333 44.1695 34.0781 44.181 33.6127V32.5788C44.1605 31.7864 43.8419 31.0321 43.2905 30.4706C42.7392 29.9092 41.997 29.5833 41.2162 29.5598C40.3215 29.48 39.4301 29.7459 38.7202 30.3042C38.4037 30.5635 38.1482 30.891 37.9719 31.2629C37.7957 31.6349 37.7033 32.042 37.7014 32.4547V33.623C37.7128 34.0884 37.838 34.5436 38.0656 34.9479C38.2932 35.3521 38.6161 35.6926 39.0054 35.9389V36.094L36.8048 36.6523C36.1595 36.7853 35.5764 37.1332 35.1482 37.6408C34.72 38.1484 34.4711 38.7867 34.4412 39.4542V42.3491H47.4412V39.4439ZM46.1371 41.1808H35.7045V39.4439C35.7232 39.0434 35.8725 38.6607 36.1288 38.3556C36.3851 38.0506 36.734 37.8406 37.1206 37.7586L40.2586 36.9625V35.2772L39.9427 35.1118C39.6493 34.9872 39.3972 34.7797 39.2166 34.5139C39.036 34.2482 38.9344 33.9353 38.9239 33.6127V32.4444C38.9269 32.1946 38.9853 31.9488 39.0946 31.7251C39.204 31.5014 39.3615 31.3055 39.5556 31.152C39.7642 30.9817 40.0038 30.8547 40.2608 30.7784C40.5178 30.7022 40.7871 30.678 41.0532 30.7074C41.5256 30.7334 41.9708 30.9396 42.2996 31.2848C42.6283 31.6299 42.8164 32.0885 42.826 32.5684V33.6023C42.813 33.9244 42.7105 34.2361 42.5302 34.5014C42.3499 34.7667 42.0992 34.9748 41.8072 35.1015L41.4811 35.2669V36.9522L44.6292 37.7483C45.0159 37.8303 45.3648 38.0403 45.6211 38.3453C45.8774 38.6503 46.0267 39.0331 46.0454 39.4335L46.1371 41.1808Z" fill="#666666"/>
<path d="M23.4412 50.2279L29.4412 47.7705L23.4412 45.3037V50.2279ZM24.7407 47.0333L26.5376 47.7705L24.7407 48.4983V47.0333Z" fill="#666666"/>
<path d="M34.4412 45.3037H32.4412V51.2129H34.4412V45.3037Z" fill="#666666"/>
<path d="M31.4412 45.3037H30.4412V51.2129H31.4412V45.3037Z" fill="#666666"/>
<path d="M47.9222 45.3037H43.9776V47.6695H35.4412V48.8471H43.9776V51.2129H47.9222V48.8471H58.4412V47.659H47.9222V45.3037ZM46.6073 50.0353H45.2924V46.4918H46.6073V50.0353Z" fill="#666666"/>
<defs>
<linearGradient id="paint0_linear" x1="12.2949" y1="14.1365" x2="64.1908" y2="66.8201" gradientUnits="userSpaceOnUse">
<stop stop-color="#E2E1E6"/>
<stop offset="0.84" stop-color="white"/>
</linearGradient>
<linearGradient id="paint1_linear" x1="12.2653" y1="12.2523" x2="66.549" y2="66.664" gradientUnits="userSpaceOnUse">
<stop stop-color="white"/>
<stop offset="1" stop-color="#E6E6E6"/>
</linearGradient>
</defs>
</svg>
