<svg width="27" height="27" viewBox="0 0 27 27" fill="none" xmlns="http://www.w3.org/2000/svg">
<path d="M6.98945 22.7906L7.42174 23.0043C9.22322 24.0726 11.2407 24.5712 13.2583 24.5712C19.5991 24.5712 24.787 19.4433 24.787 13.176C24.787 10.1848 23.562 7.26472 21.4004 5.12809C19.2388 2.99145 16.3565 1.78076 13.2583 1.78076C6.91745 1.78076 1.72942 6.9086 1.80152 13.2472C1.80152 15.3838 2.45001 17.4492 3.5308 19.2296L3.81899 19.657L2.66621 23.859L6.98945 22.7906Z" fill="#00E676"/>
<path d="M22.6252 3.84588C20.1753 1.35322 16.7888 0 13.3301 0C5.98062 0 0.0721004 5.91124 0.144098 13.1044C0.144098 15.3835 0.792588 17.5914 1.87347 19.5855L0 26.3514L6.9893 24.5709C8.93477 25.6393 11.0963 26.1378 13.2581 26.1378C20.5356 26.1378 26.4441 20.2265 26.4441 13.0334C26.4441 9.54353 25.075 6.26736 22.6253 3.84588H22.6252ZM13.3301 23.93C11.3846 23.93 9.43917 23.4316 7.78189 22.4345L7.3496 22.2208L3.17046 23.2891L4.25124 19.2296L3.96304 18.8022C0.792588 13.7456 2.30577 7.05077 7.49369 3.91704C12.6816 0.783408 19.3827 2.27906 22.5532 7.40689C25.7235 12.5347 24.2104 19.1582 19.0225 22.2919C17.3652 23.3602 15.3477 23.9299 13.3301 23.9299V23.93ZM19.6709 16.0247L18.8783 15.6686C18.8783 15.6686 17.7256 15.17 17.005 14.8139C16.9329 14.8139 16.8609 14.7426 16.7888 14.7426C16.5726 14.7426 16.4285 14.8139 16.2844 14.8852C16.2844 14.8852 16.2124 14.9563 15.2036 16.0959C15.1315 16.2383 14.9874 16.3095 14.8433 16.3095H14.7712C14.6992 16.3095 14.5551 16.2383 14.483 16.1671L14.1227 16.0247C13.3301 15.6686 12.6096 15.2412 12.0331 14.6715C11.889 14.529 11.6728 14.3866 11.5287 14.2442C11.0243 13.7456 10.5199 13.1758 10.1598 12.5348L10.0877 12.3924C10.0157 12.3211 10.0157 12.25 9.94356 12.1075C9.94356 11.9651 9.94356 11.8227 10.0157 11.7514C10.0157 11.7514 10.3039 11.3953 10.5199 11.1817C10.6642 11.0392 10.7361 10.8256 10.8802 10.6832C11.0243 10.4695 11.0964 10.1846 11.0243 9.97091C10.9523 9.61479 10.0877 7.69185 9.87156 7.26457C9.72736 7.05087 9.58337 6.97971 9.36717 6.90845H8.57458C8.43038 6.90845 8.28638 6.97971 8.14218 6.97971L8.07008 7.05087C7.92599 7.12214 7.78189 7.26457 7.63779 7.33573C7.49369 7.47826 7.42159 7.62059 7.2775 7.76312C6.7731 8.4041 6.48491 9.18751 6.48491 9.97091C6.48491 10.5406 6.629 11.1104 6.8452 11.609L6.9173 11.8227C7.56579 13.1758 8.43038 14.3866 9.58337 15.4549L9.87156 15.7397C10.0877 15.9534 10.3039 16.0958 10.448 16.3094C11.9611 17.5915 13.6904 18.5173 15.6359 19.0159C15.8521 19.0871 16.1403 19.0871 16.3565 19.1583H17.077C17.4373 19.1583 17.8695 19.0159 18.1578 18.8735C18.3739 18.731 18.518 18.731 18.6621 18.5886L18.8063 18.4461C18.9504 18.3036 19.0945 18.2325 19.2386 18.0901C19.3827 17.9476 19.5268 17.8052 19.5989 17.6627C19.743 17.3778 19.815 17.0217 19.8871 16.6657V16.1671C19.8871 16.1671 19.815 16.0958 19.6709 16.0247V16.0247Z" fill="white"/>
</svg>
