<svg width="470" height="471" viewBox="0 0 470 471" fill="none" xmlns="http://www.w3.org/2000/svg">
<path d="M366.6 110.554C366.6 110.554 460.6 336.803 445.56 357.849C430.52 378.896 365.914 363.047 365.914 363.047L366.6 110.554Z" fill="#F5F5F5"/>
<path d="M367.766 107.659H361.74V366.657H367.766V107.659Z" fill="#FAFAFA"/>
<path d="M364.757 110.545C369.451 110.545 373.255 106.656 373.255 101.859C373.255 97.0621 369.451 93.1734 364.757 93.1734C360.064 93.1734 356.26 97.0621 356.26 101.859C356.26 106.656 360.064 110.545 364.757 110.545Z" fill="#FAFAFA"/>
<path d="M371.3 113.543H358.215C357.696 113.543 357.199 113.337 356.832 112.971C356.466 112.604 356.26 112.107 356.26 111.588V111.588C356.259 111.33 356.308 111.075 356.406 110.837C356.504 110.599 356.647 110.382 356.829 110.199C357.011 110.017 357.227 109.872 357.465 109.773C357.702 109.674 357.957 109.623 358.215 109.623H371.3C371.821 109.623 372.321 109.83 372.689 110.199C373.057 110.567 373.264 111.067 373.264 111.588V111.588C373.262 112.107 373.054 112.605 372.686 112.971C372.317 113.338 371.819 113.543 371.3 113.543V113.543Z" fill="#FAFAFA"/>
<path d="M407.838 215.571L410.949 224.2L402.207 221.418L394.969 227.039L394.913 217.874L387.327 212.723L396.032 209.837L398.579 201.029L404.022 208.417L405.225 208.671L407.838 215.571Z" fill="#FAFAFA"/>
<path d="M427.634 270.175L430.745 278.805L422.013 276.022L414.765 281.643L414.709 272.478L407.123 267.327L415.827 264.441L418.384 255.634L423.817 263.013L425.021 263.276L427.634 270.175Z" fill="#FAFAFA"/>
<path d="M309.4 62.4542C309.4 62.4542 419.239 326.914 401.708 351.514C384.177 376.113 308.648 357.586 308.648 357.586L309.4 62.4542Z" fill="#EBEBEB"/>
<path d="M310.736 59.0796H303.695V361.807H310.736V59.0796Z" fill="#F5F5F5"/>
<path d="M307.22 62.4542C312.707 62.4542 317.156 57.909 317.156 52.3022C317.156 46.6954 312.707 42.1502 307.22 42.1502C301.733 42.1502 297.284 46.6954 297.284 52.3022C297.284 57.909 301.733 62.4542 307.22 62.4542Z" fill="#F5F5F5"/>
<path d="M315.107 61.3732H299.324C298.197 61.3732 297.284 62.2865 297.284 63.413V63.9206C297.284 65.0472 298.197 65.9604 299.324 65.9604H315.107C316.233 65.9604 317.146 65.0472 317.146 63.9206V63.413C317.146 62.2865 316.233 61.3732 315.107 61.3732Z" fill="#F5F5F5"/>
<path d="M310.736 218.24C310.736 218.24 342.151 228.035 353.826 224.266C365.5 220.496 367.54 212.732 367.54 212.732L375.596 235.452C375.596 235.452 369.27 249.044 349.962 246.732C332.826 244.701 310.727 236.392 310.727 236.392L310.736 218.24Z" fill="#F5F5F5"/>
<path d="M357.576 185.209L361.204 195.295L350.996 192.043L342.536 198.613L342.461 187.897L333.597 181.881L343.767 178.507L346.757 168.214L353.111 176.843L354.521 177.153L357.576 185.209Z" fill="#F5F5F5"/>
<path d="M167.761 57.4534H53.2412V176.824H167.761V57.4534Z" fill="#E0E0E0"/>
<path d="M160.007 57.4534H45.4863V176.824H160.007V57.4534Z" fill="#EBEBEB"/>
<path d="M144.61 73.4992H60.8838V160.778H144.61V73.4992Z" fill="#FAFAFA"/>
<path d="M60.884 161.361C60.2627 162.213 59.5608 163.003 58.7878 163.72C57.4436 165.121 55.5636 167.029 53.458 169.097C51.3524 171.165 49.416 173.026 47.9966 174.352C47.2717 175.114 46.4682 175.798 45.5996 176.392C46.2197 175.55 46.9184 174.77 47.6864 174.06C49.0306 172.65 50.92 170.742 53.035 168.665C55.15 166.587 57.077 164.726 58.4964 163.41C59.2184 162.646 60.0187 161.959 60.884 161.361Z" fill="#E0E0E0"/>
<path d="M144.609 161.145C145.466 161.764 146.259 162.466 146.978 163.241C148.388 164.585 150.287 166.465 152.364 168.571C154.442 170.676 156.294 172.613 157.619 174.032C158.381 174.757 159.065 175.561 159.659 176.429C158.807 175.811 158.017 175.112 157.299 174.342C155.889 172.998 153.981 171.109 151.904 169.003C149.826 166.898 147.965 164.952 146.649 163.532C145.888 162.81 145.204 162.01 144.609 161.145V161.145Z" fill="#E0E0E0"/>
<path d="M144.384 73.7342C144.998 72.8762 145.697 72.0825 146.471 71.3654C147.815 69.9554 149.704 68.0566 151.81 65.9792C153.915 63.9018 155.842 62.05 157.271 60.734C157.999 59.9751 158.798 59.2888 159.659 58.6848C159.051 59.545 158.355 60.3389 157.581 61.0536C156.237 62.4542 154.348 64.3624 152.233 66.4398C150.118 68.5172 148.181 70.3784 146.762 71.7038C146.04 72.4592 145.243 73.1395 144.384 73.7342V73.7342Z" fill="#E0E0E0"/>
<path d="M60.649 73.9504C59.7925 73.3311 58.9991 72.629 58.2802 71.8542C56.8796 70.51 54.9714 68.63 52.894 66.5244C50.8166 64.4188 48.9648 62.4824 47.6488 61.063C46.8899 60.3355 46.2036 59.5359 45.5996 58.6754C46.4523 59.2817 47.237 59.9782 47.9402 60.7528C49.3408 62.097 51.249 63.9864 53.3358 66.1014C55.4226 68.2164 57.3402 70.1434 58.6186 71.6004C59.3712 72.3149 60.0513 73.1021 60.649 73.9504V73.9504Z" fill="#E0E0E0"/>
<path d="M144.384 160.778C144.384 160.778 144.384 160.637 144.384 160.365C144.384 160.092 144.384 159.669 144.384 159.143C144.384 158.062 144.384 156.482 144.384 154.443C144.384 150.316 144.384 144.3 144.308 136.658C144.308 121.373 144.233 99.5842 144.177 73.4992L144.449 73.7812H60.9586L61.1936 73.4804C61.1936 105.516 61.1936 135.52 61.1936 160.759L60.9304 160.496L121.401 160.628L138.377 160.703H142.87H144.026H144.431C144.305 160.711 144.18 160.711 144.055 160.703H142.927H138.49L121.57 160.778L60.921 160.91H60.6484V160.637C60.6484 135.37 60.6484 105.393 60.6484 73.3582V73.048H60.9774H144.468H144.741V73.4804C144.684 99.6406 144.637 121.486 144.6 136.818C144.6 144.432 144.543 150.419 144.525 154.537C144.525 156.558 144.525 158.118 144.525 159.19C144.525 159.697 144.525 160.13 144.525 160.374C144.525 160.618 144.384 160.778 144.384 160.778Z" fill="#E0E0E0"/>
<path d="M105.58 99.3398H102.149V114.662H105.58V99.3398Z" fill="#EBEBEB"/>
<path d="M128.094 96.8112H78.838C78.5587 96.8112 78.291 96.7003 78.0935 96.5028C77.8961 96.3054 77.7852 96.0376 77.7852 95.7584V95.7584C77.7852 95.4792 77.8961 95.2114 78.0935 95.014C78.291 94.8165 78.5587 94.7056 78.838 94.7056H128.094C128.373 94.7056 128.641 94.8165 128.838 95.014C129.036 95.2114 129.147 95.4792 129.147 95.7584V95.7584C129.147 96.0376 129.036 96.3054 128.838 96.5028C128.641 96.7003 128.373 96.8112 128.094 96.8112V96.8112Z" fill="#EBEBEB"/>
<path d="M120.16 123C120.197 122.837 120.244 122.677 120.301 122.52C120.414 122.144 120.574 121.665 120.771 121.073C121.204 119.747 121.815 117.905 122.576 115.611C124.165 110.911 126.336 104.331 128.921 96.736L129.147 96.0686L129.372 96.736C130.312 99.4244 131.252 102.282 132.296 105.196C134.514 111.682 136.582 117.754 138.34 122.896L138.434 123.178H138.18L125.02 123.065L121.401 123.009H120.461C120.361 123.018 120.26 123.018 120.16 123.009H120.517H121.457L125.133 122.953L138.095 122.84L137.889 123.112C136.121 117.98 134.025 111.917 131.788 105.44C130.782 102.489 129.795 99.6218 128.874 96.9804H129.325C126.712 104.435 124.447 110.921 122.811 115.592C121.993 117.895 121.335 119.747 120.856 121.082C120.64 121.693 120.461 122.182 120.32 122.567C120.273 122.714 120.219 122.858 120.16 123V123Z" fill="#E0E0E0"/>
<path d="M69.5597 123C69.5829 122.835 69.6271 122.674 69.6913 122.52C69.8135 122.144 69.9733 121.665 70.1613 121.073C70.6031 119.747 71.2141 117.905 71.9661 115.611L78.3205 96.736L78.5461 96.0686L78.7717 96.736C79.7117 99.4244 80.6517 102.282 81.6951 105.196C83.9041 111.682 85.9815 117.754 87.7299 122.896L87.8333 123.178H87.5325L74.3725 123.065L70.7535 123.009H69.8135C69.7135 123.018 69.6127 123.018 69.5127 123.009H69.8605H70.8005L74.4853 122.953L87.4385 122.84L87.2411 123.112C85.4739 117.98 83.3777 111.917 81.1405 105.44C80.1253 102.489 79.1477 99.6218 78.2265 96.9804H78.6777C76.0645 104.435 73.7991 110.921 72.1541 115.592L70.2083 121.082C69.9827 121.693 69.8041 122.182 69.6725 122.567C69.5409 122.953 69.5597 122.99 69.5597 123Z" fill="#E0E0E0"/>
<path d="M116.447 138.876V139.121C116.447 139.47 116.309 139.804 116.062 140.051C115.815 140.298 115.48 140.437 115.131 140.437H92.844C92.4941 140.437 92.1584 140.298 91.9101 140.052C91.6618 139.805 91.521 139.47 91.5186 139.121V139.121C91.521 138.77 91.6614 138.434 91.9095 138.186C92.1575 137.938 92.4932 137.798 92.844 137.795H115.404C115.543 137.798 115.681 137.828 115.809 137.883C115.937 137.939 116.053 138.019 116.15 138.12C116.246 138.22 116.323 138.338 116.374 138.468C116.425 138.598 116.45 138.737 116.447 138.876V138.876Z" fill="#E0E0E0"/>
<path d="M106.841 137.1C106.709 137.348 106.552 137.581 106.371 137.795H101.605C97.8447 133.368 101.605 115.545 101.605 115.545H106.371C106.371 115.545 109.83 131.76 106.841 137.1Z" fill="#EBEBEB"/>
<path d="M111.559 136.46C111.559 136.633 111.525 136.804 111.458 136.964C111.392 137.124 111.295 137.269 111.173 137.391C111.051 137.513 110.906 137.61 110.746 137.676C110.587 137.742 110.415 137.776 110.243 137.776H97.7594C97.5865 137.776 97.4154 137.742 97.2557 137.676C97.0961 137.61 96.951 137.513 96.8288 137.391C96.7066 137.269 96.6097 137.124 96.5435 136.964C96.4774 136.804 96.4434 136.633 96.4434 136.46V136.46C96.4434 136.111 96.5817 135.775 96.8282 135.527C97.0748 135.278 97.4095 135.137 97.7594 135.135H110.271C110.616 135.145 110.943 135.289 111.184 135.536C111.424 135.784 111.559 136.115 111.559 136.46V136.46Z" fill="#E0E0E0"/>
<path d="M87.7388 122.614C87.7965 122.615 87.8528 122.631 87.9016 122.662C87.9504 122.692 87.9896 122.736 88.015 122.788C88.0404 122.84 88.0509 122.897 88.0452 122.955C88.0396 123.012 88.0182 123.067 87.9832 123.112C86.7772 124.396 85.321 125.42 83.7043 126.119C82.0876 126.818 80.3448 127.179 78.5833 127.179C76.8217 127.179 75.0789 126.818 73.4622 126.119C71.8455 125.42 70.3893 124.396 69.1833 123.112C69.1455 123.067 69.1217 123.011 69.1146 122.952C69.1074 122.893 69.1173 122.834 69.143 122.78C69.1687 122.727 69.2092 122.682 69.2596 122.651C69.3101 122.62 69.3684 122.604 69.4277 122.605L87.7388 122.614Z" fill="#E0E0E0"/>
<path d="M138.565 123.112C137.395 124.443 135.946 125.499 134.321 126.204C132.696 126.909 130.935 127.246 129.165 127.192C127.703 127.199 126.249 126.97 124.859 126.515V126.515C122.871 125.901 121.104 124.722 119.774 123.122C119.737 123.077 119.713 123.022 119.706 122.964C119.698 122.906 119.707 122.847 119.732 122.794C119.756 122.741 119.795 122.696 119.845 122.664C119.894 122.632 119.951 122.615 120.009 122.614H138.339C138.395 122.618 138.449 122.637 138.495 122.669C138.541 122.701 138.578 122.745 138.601 122.796C138.624 122.847 138.633 122.903 138.627 122.959C138.62 123.015 138.599 123.068 138.565 123.112V123.112Z" fill="#E0E0E0"/>
<path d="M107.855 114.662C107.857 115.425 107.633 116.171 107.21 116.807C106.787 117.442 106.185 117.937 105.481 118.23C104.776 118.523 104 118.6 103.252 118.452C102.503 118.303 101.816 117.936 101.276 117.396C100.737 116.857 100.369 116.169 100.221 115.421C100.073 114.672 100.15 113.897 100.443 113.192C100.735 112.487 101.231 111.886 101.866 111.463C102.501 111.04 103.248 110.815 104.011 110.817C104.516 110.817 105.016 110.917 105.482 111.11C105.949 111.303 106.372 111.586 106.729 111.943C107.086 112.3 107.37 112.724 107.563 113.191C107.756 113.657 107.855 114.157 107.855 114.662V114.662Z" fill="#E0E0E0"/>
<path d="M109.98 96.266C109.982 97.4455 109.633 98.599 108.979 99.5805C108.325 100.562 107.394 101.327 106.305 101.78C105.216 102.232 104.017 102.351 102.86 102.121C101.703 101.891 100.64 101.324 99.8061 100.489C98.972 99.6554 98.4043 98.5927 98.1746 97.4358C97.945 96.2788 98.0638 95.0798 98.516 93.9904C98.9682 92.9011 99.7335 91.9704 100.715 91.3163C101.697 90.6621 102.85 90.3139 104.03 90.3158C105.608 90.3158 107.121 90.9427 108.237 92.0586C109.353 93.1745 109.98 94.6879 109.98 96.266V96.266Z" fill="#E0E0E0"/>
<path d="M118.28 140.549H89.3652V145.785H118.28V140.549Z" fill="#E0E0E0"/>
<path d="M265.851 108.26C258.331 105.967 250.491 112.697 242.774 111.184C238.074 110.244 234.558 106.484 230.384 104.19C224.152 100.712 215.344 100.148 208.971 103.382C202.598 106.615 198.509 110.065 197.644 117.153C191.844 113.825 182.181 121.12 178.891 128.16C175.601 135.201 176.419 142.467 178.29 150.006C181.511 163.027 187.26 175.288 195.21 186.092C195.915 187.032 197.033 188.104 198.105 187.606C198.442 187.371 198.72 187.059 198.914 186.696C199.108 186.334 199.214 185.93 199.223 185.519C200.323 178.629 199.449 171.588 198.857 164.632C198.265 157.676 197.917 150.532 200.163 143.868C202.41 137.203 207.552 131.187 214.404 129.833C219.462 128.837 224.744 130.482 229.219 133.011C233.693 135.539 237.679 138.914 241.956 141.79C246.233 144.667 251.055 147.082 256.206 147.308C261.357 147.534 266.894 145.099 269.084 140.437C271.274 135.774 268.821 129.157 263.773 128.057C266.115 127.847 268.311 126.831 269.985 125.181C271.66 123.531 272.71 121.351 272.956 119.013C273.201 116.675 272.626 114.325 271.33 112.363C270.035 110.402 268.098 108.952 265.851 108.26V108.26Z" fill="#263238"/>
<path d="M242.661 229.173L241.928 214.245C241.928 214.245 261.602 210.485 261.151 190.698C260.935 181.148 258.886 161.558 256.827 143.764C255.76 134.559 251.266 126.094 244.239 120.053C237.212 114.012 228.168 110.839 218.908 111.165L217.028 111.231C196.498 113.111 186.666 131.666 189.157 152.13L193.857 231.814C194.24 238.257 197.156 244.287 201.969 248.588C206.782 252.888 213.101 255.11 219.547 254.769V254.769C226.001 254.426 232.057 251.54 236.389 246.743C240.721 241.946 242.976 235.629 242.661 229.173V229.173Z" fill="#FFBE9D"/>
<path d="M241.956 214.236C241.956 214.236 229.492 215.693 215.918 207.816C215.918 207.816 222.498 221.831 242.182 219.359L241.956 214.236Z" fill="#EB996E"/>
<path d="M191.253 166.719C190.915 166.587 177.529 163.175 178.431 176.683C179.334 190.191 192.71 186.487 192.71 186.083C192.71 185.679 191.253 166.719 191.253 166.719Z" fill="#FFBE9D"/>
<path d="M188.235 181.261C188.179 181.261 188.01 181.439 187.624 181.646C187.085 181.926 186.457 181.984 185.876 181.806C184.409 181.374 183.056 179.193 182.83 176.758C182.718 175.603 182.866 174.437 183.263 173.346C183.366 172.924 183.569 172.532 183.855 172.205C184.142 171.878 184.503 171.624 184.908 171.466C185.173 171.377 185.462 171.382 185.724 171.481C185.986 171.581 186.206 171.768 186.346 172.011C186.553 172.378 186.477 172.65 186.553 172.669C186.628 172.688 186.825 172.425 186.684 171.88C186.584 171.548 186.376 171.26 186.092 171.062C185.699 170.811 185.225 170.72 184.767 170.808C184.221 170.955 183.721 171.24 183.316 171.635C182.912 172.03 182.615 172.522 182.454 173.064C181.959 174.275 181.766 175.588 181.89 176.89C182.163 179.606 183.723 182.05 185.716 182.53C186.086 182.609 186.468 182.604 186.836 182.516C187.203 182.428 187.546 182.26 187.84 182.022C188.235 181.58 188.292 181.28 188.235 181.261Z" fill="#EB996E"/>
<path d="M260.869 139.468C256.528 140.749 251.945 140.98 247.498 140.142C243.051 139.303 238.867 137.42 235.291 134.646C230.337 130.736 226.427 125.002 220.326 123.366C218.251 122.894 216.102 122.838 214.005 123.201C211.907 123.564 209.902 124.339 208.106 125.481C204.525 127.791 201.459 130.815 199.101 134.364C203.265 144.281 201.094 155.589 198.857 166.108C198.737 167.299 198.224 168.417 197.4 169.285C195.839 170.573 193.414 169.689 191.967 168.279C189.654 166.023 188.677 162.762 187.99 159.594C186.323 152.399 186.106 144.944 187.351 137.664C188.623 130.359 192.009 123.587 197.09 118.187C203.712 111.654 212.613 107.947 221.915 107.847C231.187 107.807 240.236 110.692 247.774 116.091C251.271 118.535 254.514 121.533 256.413 125.359" fill="#263238"/>
<path d="M271.66 112.829C271.714 113.222 271.689 113.621 271.585 114.004C271.292 115.107 270.665 116.092 269.789 116.824C268.366 117.962 266.619 118.621 264.798 118.704C263.677 118.807 262.547 118.775 261.433 118.61C260.155 118.444 258.946 117.934 257.936 117.134C257.367 116.687 256.907 116.115 256.591 115.464C256.275 114.813 256.111 114.098 256.112 113.374C256.187 112.581 256.485 111.826 256.973 111.197C257.461 110.568 258.118 110.09 258.867 109.821C259.628 109.495 260.457 109.36 261.282 109.426C262.145 109.498 262.966 109.825 263.642 110.366C264.318 110.94 264.862 111.653 265.238 112.455C265.615 113.258 265.814 114.132 265.823 115.019C265.857 116.89 265.155 118.699 263.867 120.057C262.554 121.447 260.897 122.465 259.064 123.009C255.351 124.175 251.196 123.601 247.464 122.154C243.857 120.671 240.432 118.778 237.256 116.514C234.323 114.436 231.223 112.606 227.988 111.043C225.056 109.648 221.831 108.984 218.588 109.106C215.777 109.295 213.043 110.1 210.579 111.466C207.007 113.496 204.017 116.409 201.893 119.926C201.303 120.874 200.763 121.853 200.276 122.859C200.12 123.216 199.944 123.564 199.75 123.902C199.75 123.902 199.75 123.808 199.835 123.62C199.919 123.432 199.994 123.159 200.154 122.802C200.592 121.767 201.097 120.762 201.668 119.794C203.737 116.163 206.731 113.144 210.344 111.043C212.865 109.614 215.67 108.76 218.559 108.542C221.882 108.379 225.195 109.024 228.213 110.422C231.495 111.985 234.64 113.821 237.613 115.912C240.753 118.151 244.137 120.027 247.699 121.505C251.347 122.915 255.332 123.451 258.857 122.351C260.581 121.847 262.14 120.897 263.379 119.597C264.561 118.365 265.213 116.717 265.193 115.01C265.193 114.21 265.021 113.421 264.688 112.694C264.356 111.967 263.871 111.321 263.266 110.798C262.68 110.336 261.978 110.043 261.236 109.954C260.495 109.864 259.743 109.981 259.064 110.291C258.408 110.514 257.829 110.921 257.396 111.462C256.963 112.003 256.694 112.657 256.62 113.346C256.619 113.994 256.764 114.633 257.044 115.217C257.323 115.802 257.731 116.315 258.237 116.72C259.179 117.475 260.305 117.965 261.499 118.14C262.577 118.308 263.672 118.352 264.76 118.271C266.513 118.232 268.21 117.644 269.611 116.589C270.473 115.892 271.11 114.957 271.444 113.9C271.536 113.548 271.608 113.19 271.66 112.829V112.829Z" fill="#455A64"/>
<path d="M176.89 139.882C178.243 140.331 179.638 140.646 181.054 140.822C182.585 140.911 184.118 140.697 185.566 140.192C187.343 139.563 189.02 138.683 190.548 137.579C193.312 135.521 195.329 132.616 196.291 129.307C196.633 127.918 196.884 126.508 197.043 125.086C197.146 125.469 197.184 125.866 197.156 126.261C197.146 127.33 197.01 128.393 196.752 129.429C195.883 132.911 193.829 135.982 190.943 138.115C189.364 139.27 187.613 140.168 185.754 140.775C184.241 141.275 182.639 141.451 181.054 141.292C179.984 141.176 178.938 140.897 177.952 140.465C177.564 140.34 177.203 140.142 176.89 139.882Z" fill="#455A64"/>
<path d="M177.82 149.62C177.82 149.498 179.428 149.79 181.975 149.555C185.292 149.28 188.474 148.119 191.188 146.192C193.902 144.266 196.048 141.645 197.401 138.604C198.453 136.272 198.688 134.674 198.811 134.703C198.837 135.082 198.802 135.463 198.707 135.831C198.515 136.844 198.222 137.836 197.833 138.792C196.567 141.997 194.4 144.767 191.595 146.769C188.789 148.77 185.465 149.917 182.022 150.072C180.992 150.127 179.959 150.077 178.939 149.921C178.552 149.884 178.174 149.783 177.82 149.62V149.62Z" fill="#455A64"/>
<path d="M190.096 227.64L192.916 220.064L217.224 246.271L242.52 218.551L249.297 227.885C249.297 227.885 256.761 264.338 256.084 265.024C255.407 265.71 219.941 287.584 219.941 287.584L190.5 286.55L170.647 248.725L190.096 227.64Z" fill="#EBEBEB"/>
<path d="M81.4415 360.575L81.1689 309.815C81.1689 309.815 110.713 265.457 116.231 259.939C124.033 252.137 129.297 246.722 132.813 243.959C133.828 243.168 135.078 242.738 136.366 242.738C137.653 242.738 138.904 243.168 139.919 243.959L190.566 226.343C190.566 226.343 182.821 239.08 194.524 254.929C202 265.202 208.729 275.999 214.658 287.236C214.658 287.236 226.634 267.647 231.268 263.736C235.902 259.826 251.882 233.591 248.188 225.798L290.187 244.025C290.187 244.025 292.208 240.988 294.746 242.248C297.284 243.508 316.272 251.385 323.623 265.316C330.974 279.246 367.803 332.836 367.803 332.836L327.646 368.067L81.4415 360.575Z" fill="#263238"/>
<path d="M159.8 290.263C159.8 290.263 159.659 290.16 159.433 289.925L158.493 288.891C158.08 288.449 157.553 287.894 157.036 287.208C156.519 286.522 155.833 285.789 155.203 284.896C154.574 284.003 153.822 283.016 153.126 281.982C152.43 280.948 151.678 279.745 150.926 278.494C149.356 275.774 147.977 272.947 146.8 270.034C145.641 267.105 144.699 264.096 143.98 261.029C143.679 259.61 143.388 258.266 143.218 256.987C143.049 255.709 142.88 254.515 142.767 253.425C142.654 252.334 142.626 251.347 142.57 250.482C142.513 249.618 142.513 248.866 142.523 248.255C142.532 247.644 142.523 247.221 142.523 246.845C142.507 246.682 142.507 246.518 142.523 246.356C142.565 246.515 142.584 246.68 142.579 246.845C142.579 247.221 142.626 247.681 142.654 248.245C142.683 248.809 142.654 249.599 142.777 250.464C142.899 251.328 142.889 252.344 143.049 253.396C143.209 254.449 143.312 255.662 143.557 256.921C143.801 258.181 144.046 259.516 144.356 260.926C145.093 263.96 146.036 266.94 147.176 269.846C148.347 272.752 149.706 275.578 151.246 278.306C151.979 279.547 152.665 280.732 153.389 281.794C154.113 282.856 154.771 283.843 155.401 284.727C156.031 285.61 156.651 286.381 157.177 287.077C157.704 287.772 158.174 288.346 158.569 288.806L159.452 289.897C159.58 290.007 159.696 290.13 159.8 290.263Z" fill="#263238"/>
<path d="M137.87 277.244C137.784 276.372 137.822 275.492 137.983 274.631C138.263 272.542 138.812 270.497 139.618 268.549C140.43 266.598 141.488 264.76 142.767 263.078C143.266 262.372 143.86 261.739 144.534 261.198C144.591 261.255 143.952 262.007 143.049 263.323C140.683 266.743 139.08 270.631 138.349 274.725C138.237 275.573 138.077 276.414 137.87 277.244V277.244Z" fill="#263238"/>
<path d="M131.242 321.556C131.134 321.314 131.05 321.062 130.989 320.804C130.848 320.306 130.622 319.563 130.378 318.614C129.879 316.734 129.212 313.914 128.554 310.445C126.857 301.389 126.117 292.18 126.345 282.969C126.363 277.885 126.924 272.818 128.018 267.854C128.949 263.787 130.691 259.95 133.141 256.574C134.807 254.314 136.895 252.399 139.289 250.934C139.936 250.537 140.612 250.189 141.31 249.89C141.551 249.78 141.799 249.686 142.052 249.608C141.829 249.754 141.593 249.879 141.347 249.984C140.671 250.317 140.015 250.691 139.383 251.103C137.059 252.618 135.038 254.553 133.423 256.809C131.039 260.168 129.351 263.972 128.46 267.995C127.397 272.938 126.852 277.978 126.834 283.035C126.62 292.189 127.309 301.342 128.892 310.36C129.503 313.829 130.124 316.611 130.566 318.538C130.782 319.478 130.96 320.202 131.083 320.747C131.155 321.013 131.208 321.283 131.242 321.556V321.556Z" fill="#263238"/>
<path d="M141.94 304.589C141.819 304.226 141.74 303.851 141.705 303.47C141.55 302.443 141.459 301.407 141.433 300.368C141.379 298.825 141.435 297.279 141.602 295.743C141.815 293.86 142.173 291.997 142.674 290.169C143.204 288.35 143.874 286.575 144.676 284.858C145.333 283.463 146.094 282.118 146.951 280.835C147.521 279.961 148.149 279.125 148.831 278.335C149.058 278.027 149.32 277.746 149.611 277.498C149.686 277.554 148.671 278.805 147.261 281.014C146.458 282.315 145.736 283.665 145.099 285.056C144.332 286.756 143.688 288.509 143.172 290.301C142.673 292.102 142.303 293.937 142.063 295.79C141.878 297.306 141.791 298.832 141.799 300.359C141.762 302.972 142.006 304.579 141.94 304.589Z" fill="#263238"/>
<path d="M147.289 316.837C147.188 316.415 147.135 315.983 147.129 315.549C147.054 314.722 146.988 313.519 146.941 312.034C146.735 304.275 147.471 296.52 149.131 288.938C149.451 287.49 149.742 286.325 149.968 285.526C150.061 285.104 150.193 284.691 150.363 284.294C150.335 284.723 150.266 285.148 150.156 285.563C149.968 286.503 149.742 287.631 149.47 289.013C148.906 291.918 148.248 295.969 147.825 300.472C147.402 304.974 147.289 309.063 147.289 312.024C147.289 313.434 147.289 314.619 147.289 315.54C147.324 315.971 147.324 316.405 147.289 316.837Z" fill="#263238"/>
<path d="M212.647 283.937C212.647 284.069 199.76 284.181 183.855 284.181C167.95 284.181 155.101 284.04 155.101 283.937C155.101 283.834 167.988 283.693 183.883 283.693C199.779 283.693 212.647 283.805 212.647 283.937Z" fill="#263238"/>
<path d="M165.083 363.123C164.951 363.123 164.96 346.127 165.083 325.156C165.205 304.185 165.468 287.189 165.6 287.189C165.731 287.189 165.722 304.185 165.6 325.156C165.477 346.127 165.224 363.123 165.083 363.123Z" fill="#263238"/>
<path d="M182.586 364.627C182.586 364.627 182.586 364.345 182.586 363.818C182.586 363.292 182.642 362.474 182.68 361.506C182.783 359.447 182.924 356.552 183.103 352.989C183.517 345.77 184.043 335.872 184.692 324.94C185.34 314.008 185.979 304.1 186.431 296.881C186.675 293.328 186.872 290.442 187.013 288.421C187.089 287.481 187.145 286.682 187.192 286.108C187.201 285.84 187.233 285.573 187.286 285.309C187.311 285.578 187.311 285.849 187.286 286.118C187.286 286.688 187.258 287.459 187.201 288.43C187.098 290.489 186.948 293.384 186.769 296.937C186.365 304.156 185.829 314.064 185.18 325.006C184.532 335.947 183.893 345.836 183.451 353.055C183.206 356.608 183.009 359.494 182.868 361.515C182.793 362.455 182.736 363.254 182.689 363.828C182.681 364.097 182.646 364.364 182.586 364.627V364.627Z" fill="#263238"/>
<path d="M207.233 360.829C207.101 360.829 208.389 343.815 210.109 322.853C211.829 301.891 213.333 284.905 213.465 284.915C213.597 284.924 212.309 301.929 210.589 322.891C208.868 343.853 207.364 360.838 207.233 360.829Z" fill="#263238"/>
<path d="M278.823 284.322C278.823 284.454 265.127 284.567 248.226 284.567C231.324 284.567 217.619 284.454 217.619 284.322C217.619 284.191 231.315 284.078 248.226 284.078C265.136 284.078 278.823 284.181 278.823 284.322Z" fill="#263238"/>
<path d="M232.452 361.788C232.405 361.54 232.377 361.288 232.368 361.036C232.368 360.5 232.283 359.776 232.217 358.874C232.086 356.994 231.954 354.258 231.86 350.884C231.663 344.144 231.71 334.8 232.396 324.564C233.082 314.327 234.276 305.021 235.413 298.366C235.968 295.038 236.457 292.35 236.842 290.498C237.021 289.615 237.171 288.9 237.284 288.374C237.32 288.123 237.383 287.877 237.472 287.641C237.462 287.893 237.431 288.145 237.378 288.393C237.293 288.928 237.171 289.643 237.03 290.536C236.701 292.416 236.259 295.085 235.761 298.422C234.746 305.087 233.58 314.327 232.885 324.592C232.189 334.857 232.095 344.172 232.208 350.912C232.255 354.287 232.33 357.013 232.405 358.902C232.405 359.842 232.405 360.528 232.471 361.073C232.483 361.312 232.477 361.55 232.452 361.788V361.788Z" fill="#263238"/>
<path d="M255.379 371.573C255.37 371.501 255.37 371.429 255.379 371.357C255.379 371.178 255.379 370.972 255.332 370.718C255.332 370.116 255.257 369.308 255.201 368.274C255.097 366.149 254.985 363.085 254.9 359.278C254.731 351.683 254.731 341.183 255.22 329.593C255.708 318.003 256.62 307.54 257.391 300.02C257.795 296.26 258.162 293.196 258.453 291.09C258.597 290.069 258.71 289.261 258.792 288.665C258.792 288.411 258.867 288.205 258.895 288.035C258.923 287.866 258.895 287.829 258.942 287.829C258.954 287.9 258.954 287.973 258.942 288.045C258.942 288.214 258.942 288.421 258.886 288.675C258.829 289.276 258.745 290.085 258.641 291.109C258.416 293.224 258.096 296.279 257.701 300.058C256.977 307.578 256.141 318.078 255.643 329.659C255.144 341.239 255.126 351.72 255.21 359.24C255.257 363 255.304 366.112 255.361 368.236C255.361 369.261 255.361 370.116 255.361 370.68V371.31C255.378 371.397 255.384 371.485 255.379 371.573Z" fill="#263238"/>
<path d="M278.052 284.322C278.191 283.802 278.377 283.296 278.606 282.809C279.029 281.775 279.546 280.412 280.251 278.758C281.624 275.327 283.429 270.542 285.28 265.222C287.132 259.901 288.777 255.135 289.98 251.563C290.601 249.824 291.118 248.414 291.484 247.456C291.657 246.947 291.865 246.451 292.105 245.97C292.007 246.496 291.862 247.012 291.672 247.512L290.309 251.676C289.153 255.192 287.574 260.052 285.713 265.381C283.852 270.711 281.953 275.486 280.543 278.889C279.81 280.591 279.199 281.954 278.757 282.884C278.558 283.381 278.322 283.861 278.052 284.322V284.322Z" fill="#263238"/>
<path d="M280.638 315.653C280.403 315.299 280.213 314.916 280.074 314.515C279.745 313.782 279.303 312.682 278.805 311.319C277.529 307.751 276.585 304.072 275.985 300.331C275.389 296.583 275.187 292.784 275.383 288.994C275.468 287.537 275.59 286.362 275.712 285.563C275.74 285.142 275.816 284.726 275.938 284.322C275.983 284.741 275.983 285.163 275.938 285.582C275.872 286.39 275.806 287.556 275.768 289.004C275.67 292.778 275.919 296.554 276.511 300.284C277.114 303.989 278.007 307.641 279.181 311.206C279.632 312.579 280.027 313.688 280.299 314.449C280.447 314.84 280.56 315.242 280.638 315.653V315.653Z" fill="#263238"/>
<path d="M289.897 338.09C289.814 337.92 289.745 337.744 289.69 337.564C289.549 337.169 289.38 336.671 289.163 336.051C288.74 334.725 288.158 332.798 287.481 330.411C286.137 325.617 284.454 318.943 282.828 311.517C281.202 304.091 280.008 297.313 279.369 292.369C279.058 289.897 278.889 287.885 278.823 286.494C278.823 285.836 278.823 285.309 278.823 284.886C278.809 284.702 278.809 284.516 278.823 284.332C278.874 284.512 278.9 284.699 278.899 284.886C278.899 285.3 278.964 285.826 279.011 286.484C279.134 287.866 279.35 289.868 279.707 292.322C280.412 297.247 281.7 303.997 283.307 311.413C284.915 318.83 286.56 325.513 287.819 330.317C288.449 332.667 288.975 334.603 289.351 335.957C289.521 336.586 289.671 337.094 289.784 337.498C289.851 337.689 289.889 337.888 289.897 338.09Z" fill="#263238"/>
<path d="M297.914 266.932C297.83 266.932 297.566 266.256 296.918 265.231C296.074 263.905 295.049 262.702 293.872 261.659C292.708 260.601 291.405 259.706 290 258.999C289.387 258.754 288.788 258.478 288.204 258.172C288.876 258.216 289.533 258.388 290.14 258.679C291.639 259.312 293.019 260.195 294.22 261.292C295.436 262.362 296.457 263.634 297.237 265.052C297.594 265.624 297.825 266.265 297.914 266.932Z" fill="#263238"/>
<path d="M300.254 260.023C300.179 260.023 299.85 259.394 299.126 258.463C298.165 257.262 297.031 256.21 295.761 255.342C293.93 254.148 291.94 253.217 289.849 252.579C290.508 252.551 291.165 252.653 291.785 252.879C293.301 253.336 294.736 254.031 296.034 254.938C297.35 255.831 298.493 256.955 299.408 258.256C299.813 258.778 300.101 259.381 300.254 260.023V260.023Z" fill="#263238"/>
<path d="M86.7903 307.202C83.5399 308.469 80.6048 310.429 78.1893 312.945C73.1509 318.632 63.6569 335.393 63.6569 335.393C63.6569 335.393 60.8369 368.49 61.8897 368.227C62.9425 367.964 112.292 368.227 112.292 368.227H172.114C172.114 368.227 159.189 339.388 136.949 334.077L121.185 330.975C121.185 330.975 119.841 324.16 118.055 323.896C116.269 323.633 86.7903 307.202 86.7903 307.202Z" fill="#263238"/>
<path d="M295.696 336.276C296.3 335.452 297.087 334.781 297.996 334.314C298.905 333.847 299.91 333.599 300.931 333.588C304.372 333.588 317.118 332.366 317.118 332.366C317.118 332.366 326.518 324.987 331.162 323.511C331.303 321.938 331.855 320.429 332.762 319.136C333.67 317.842 334.9 316.81 336.332 316.141C340.195 314.393 350.836 312.964 355.188 312.428C355.791 312.354 356.403 312.406 356.985 312.579C357.567 312.752 358.108 313.043 358.572 313.434C362.821 317.016 375.21 327.863 382.072 338.015C389.282 348.712 383.012 366.262 377.372 368.236H292.34L295.696 336.276Z" fill="#263238"/>
<g opacity="0.3">
<path opacity="0.3" d="M93.1162 310.718C100.768 311.15 107.696 311.864 114.05 316.141C116.08 317.504 117.885 319.234 120.122 320.212C122.36 321.189 124.822 321.377 127.163 322.176C131.252 323.596 134.401 326.876 137.381 329.969C138.321 330.909 144.901 336.398 144.365 336.821C143.829 337.244 136.845 333.804 136.225 333.71L126.702 332.262C124.324 331.905 121.683 331.388 120.282 329.442C119.54 328.408 119.258 327.092 118.571 326.021C117.631 324.489 115.892 323.596 114.276 322.778C106.577 318.858 100.815 314.637 93.1162 310.727" fill="black"/>
</g>
<g opacity="0.3">
<path opacity="0.3" d="M300.245 333.625C301.467 331.52 306.233 329.706 308.705 329.574C311.177 329.442 313.697 329.659 315.896 328.634C319.102 327.121 320.596 323.492 322.805 320.719C325.794 316.959 330.325 314.741 334.931 313.603C339.537 312.466 348.458 309.749 355.169 313.838C355.169 313.838 346.23 313.096 344.247 313.312C342.244 313.655 340.271 314.148 338.343 314.788C334.828 315.728 330.541 319.704 330.09 324.432V324.686C325.155 326.876 317.156 332.375 317.156 332.375C316.968 332.45 305.96 333.541 300.283 333.635" fill="black"/>
</g>
<g opacity="0.3">
<path opacity="0.3" d="M136.658 252.579C133.794 256.635 131.803 261.242 130.812 266.107C129.82 270.972 129.848 275.991 130.895 280.844C131.723 284.604 133.161 288.195 133.932 291.965C134.702 295.734 134.731 299.832 132.879 303.245C132.516 304.015 131.942 304.667 131.224 305.125C130.866 305.344 130.449 305.451 130.029 305.433C129.609 305.415 129.203 305.271 128.865 305.021C128.35 304.452 128.05 303.72 128.019 302.953C126.628 294.098 125.199 285.093 126.139 276.22C127.079 267.346 130.454 258.294 137.259 252.466" fill="black"/>
</g>
<g opacity="0.3">
<path opacity="0.3" d="M288.43 258.237C290.808 260.277 293.891 266.039 294.399 269.141C294.906 272.243 295.01 275.43 296.062 278.382C296.589 279.829 297.717 281.418 299.24 281.202C300.762 280.985 301.467 279.162 301.552 277.62C301.648 273.931 300.561 270.308 298.45 267.28C296.561 264.117 294.07 261.355 291.118 259.149" fill="black"/>
</g>
<g opacity="0.3">
<path opacity="0.3" d="M171.39 366.638C171.644 367.135 171.791 367.679 171.823 368.236L134.345 368.142C132.587 368.02 130.698 367.832 129.335 366.713C127.662 365.341 127.257 362.953 127.248 360.801C127.293 355.859 128.746 351.032 131.436 346.887C134.126 342.741 137.943 339.448 142.438 337.395C142.438 337.395 143.698 335.515 147.138 338.335C150.579 341.155 171.39 366.638 171.39 366.638Z" fill="black"/>
</g>
<path d="M143.669 336.803C143.479 336.735 143.293 336.653 143.115 336.558L141.564 335.797C139.673 334.846 137.684 334.105 135.632 333.588C133.029 332.949 129.842 332.723 126.298 332.225C125.394 332.05 124.503 331.818 123.629 331.529C122.702 331.254 121.802 330.895 120.94 330.458C120.131 329.809 119.511 328.956 119.145 327.985C118.778 327.066 118.311 326.19 117.754 325.372V325.372L117.81 325.419L99.7151 314.797L94.2537 311.535L92.7779 310.595C92.602 310.499 92.438 310.382 92.2891 310.248C92.4803 310.314 92.6633 310.402 92.8343 310.511L94.3477 311.338L99.8843 314.468L118.064 324.977C118.659 325.825 119.151 326.74 119.53 327.703C119.852 328.587 120.404 329.369 121.128 329.969C121.958 330.39 122.823 330.74 123.713 331.012C124.571 331.293 125.443 331.525 126.326 331.708C129.814 332.225 133.038 332.488 135.661 333.174C137.724 333.729 139.715 334.524 141.592 335.543C142.259 335.9 142.767 336.192 143.105 336.398C143.312 336.505 143.502 336.641 143.669 336.803V336.803Z" fill="#263238"/>
<path d="M118.835 295.32C118.874 295.786 118.874 296.255 118.835 296.721V300.537C118.835 303.752 119.004 308.198 119.455 313.077C119.907 317.956 120.602 322.355 121.176 325.523C121.467 327.036 121.702 328.343 121.881 329.283C122.003 329.734 122.075 330.197 122.097 330.664C121.928 330.228 121.796 329.778 121.702 329.32C121.467 328.455 121.166 327.186 120.837 325.607C119.142 317.368 118.354 308.967 118.487 300.556C118.487 298.939 118.581 297.633 118.647 296.74C118.664 296.262 118.727 295.786 118.835 295.32Z" fill="#263238"/>
<g opacity="0.3">
<path opacity="0.3" d="M304.438 368.499C305.206 367.495 305.853 366.404 306.365 365.247C307.464 362.596 307.239 359.607 306.788 356.74C305.547 349.292 301.487 342.607 295.451 338.072L292.34 368.236L304.438 368.499Z" fill="black"/>
</g>
<path d="M110.76 321.095C110.639 320.749 110.56 320.389 110.525 320.024C110.403 319.234 110.243 318.256 110.055 317.091C109.557 313.873 108.637 310.735 107.32 307.757C106.015 304.781 104.009 302.165 101.473 300.133C100.381 299.342 99.2233 298.644 98.0137 298.046C98.3786 298.11 98.7329 298.224 99.0665 298.385C99.989 298.776 100.865 299.267 101.68 299.851C104.338 301.853 106.433 304.508 107.761 307.559C109.108 310.571 109.995 313.769 110.393 317.044C110.563 318.294 110.657 319.3 110.722 320.005C110.774 320.366 110.787 320.731 110.76 321.095V321.095Z" fill="#263238"/>
<path d="M342.536 322.58C342.536 322.58 341.765 322.58 340.383 322.58C338.432 322.653 336.492 322.921 334.593 323.379C331.782 324.053 329.095 325.167 326.631 326.679C325.231 327.515 323.868 328.559 322.392 329.583C320.883 330.688 319.22 331.565 317.457 332.187C313.781 333.409 310.087 333.343 306.826 333.466C303.93 333.437 301.045 333.83 298.262 334.631C296.396 335.182 294.677 336.146 293.233 337.451C292.237 338.391 291.842 339.087 291.795 339.049C291.872 338.877 291.967 338.714 292.077 338.56C292.376 338.114 292.719 337.698 293.102 337.32C294.523 335.926 296.257 334.892 298.159 334.302C300.96 333.439 303.876 333.005 306.807 333.014C310.078 332.864 313.744 332.911 317.306 331.727C320.869 330.542 323.548 327.967 326.396 326.293C328.912 324.782 331.654 323.684 334.518 323.041C336.443 322.609 338.41 322.392 340.383 322.392C340.917 322.39 341.45 322.415 341.981 322.468C342.171 322.477 342.358 322.515 342.536 322.58V322.58Z" fill="#263238"/>
<path d="M355.799 313.923C355.39 313.933 354.981 313.905 354.577 313.838C353.797 313.763 352.697 313.641 351.278 313.528C347.669 313.137 344.02 313.382 340.496 314.252C336.99 315.204 333.925 317.348 331.829 320.315C331.03 321.585 330.431 322.971 330.053 324.423C330.053 324.423 330.053 324.31 330.053 324.103C330.084 323.802 330.137 323.503 330.213 323.21C330.482 322.118 330.927 321.077 331.529 320.127C333.606 317.014 336.742 314.76 340.355 313.782C343.934 312.886 347.651 312.685 351.306 313.19C352.697 313.34 353.825 313.519 354.596 313.65C355.006 313.696 355.41 313.787 355.799 313.923V313.923Z" fill="#263238"/>
<path d="M325.889 326.745C325.679 326.348 325.506 325.932 325.372 325.504L324.112 322.082C323.04 319.196 321.508 315.22 319.685 310.896C317.861 306.572 316.075 302.699 314.75 299.917L313.18 296.618C312.967 296.224 312.79 295.812 312.653 295.386C312.919 295.747 313.152 296.131 313.349 296.533C313.772 297.285 314.364 298.413 315.06 299.767C316.47 302.511 318.303 306.347 320.136 310.699C321.969 315.051 323.445 319.046 324.432 321.979C324.93 323.436 325.315 324.63 325.55 325.457C325.704 325.874 325.817 326.305 325.889 326.745V326.745Z" fill="#263238"/>
<path d="M192.926 220.055C193.089 220.177 193.24 220.316 193.377 220.468L194.599 221.7L199.026 226.315L213.512 241.665L217.018 245.425L217.403 245.839H216.839C213.927 245.82 211.047 246.455 208.413 247.698C205.779 248.941 203.458 250.76 201.621 253.02C200.535 254.364 199.623 255.839 198.904 257.41C198.406 258.51 198.199 259.149 198.162 259.14C198.186 258.976 198.227 258.816 198.284 258.66C198.415 258.213 198.572 257.774 198.754 257.344C199.411 255.723 200.291 254.202 201.367 252.823C202.994 250.736 205.032 249.005 207.355 247.738C210.26 246.14 213.524 245.305 216.839 245.312L216.67 245.717L213.155 241.957L198.773 226.503L194.458 221.803L193.302 220.506C193.164 220.366 193.038 220.215 192.926 220.055V220.055Z" fill="#263238"/>
<path d="M202.721 251.545L209.197 264.235H221.163L228.072 254.835C228.072 254.835 223.372 247.813 221.314 246.685L212.647 246.055C212.337 245.604 204.441 248.696 202.721 251.545Z" fill="#263238"/>
<path d="M209.197 264.235L206.17 271.82C206.17 271.82 214.461 288.064 214.903 287.33C215.344 286.597 225.243 271.2 225.243 271.2L221.144 264.253L209.197 264.235Z" fill="#263238"/>
<g opacity="0.3">
<path opacity="0.3" d="M202.721 251.545L209.197 264.235H221.163L228.072 254.835C228.072 254.835 223.372 247.813 221.314 246.685L212.647 246.055C212.337 245.604 204.441 248.696 202.721 251.545Z" fill="black"/>
</g>
<g opacity="0.3">
<path opacity="0.3" d="M209.197 264.235L206.17 271.82C206.17 271.82 214.461 288.064 214.903 287.33C215.344 286.597 225.243 271.2 225.243 271.2L221.144 264.253L209.197 264.235Z" fill="black"/>
</g>
<path d="M220.778 264.855C218.863 264.484 216.931 264.212 214.988 264.037C213.038 264.039 211.089 264.143 209.15 264.347C209.675 264.085 210.241 263.916 210.824 263.849C212.205 263.59 213.612 263.49 215.016 263.548C216.419 263.611 217.81 263.835 219.161 264.216C219.733 264.333 220.281 264.549 220.778 264.855V264.855Z" fill="#263238"/>
<path d="M223.72 249.345C223.72 249.345 223.598 249.599 223.297 250.012C222.877 250.594 222.422 251.15 221.934 251.676C218.709 255.201 214.585 257.781 210.005 259.14C209.321 259.349 208.624 259.515 207.919 259.638C207.661 259.704 207.395 259.733 207.129 259.723C207.129 259.638 208.201 259.394 209.902 258.783C214.343 257.261 218.376 254.74 221.69 251.413C222.968 250.2 223.72 249.26 223.72 249.345Z" fill="#263238"/>
<path d="M215.739 273.973C215.138 270.575 215.138 267.097 215.739 263.699C215.834 265.408 215.834 267.122 215.739 268.831C215.833 270.544 215.833 272.26 215.739 273.973V273.973Z" fill="#263238"/>
<path d="M217.807 276.267C217.666 276.267 217.563 273.578 217.29 270.288C217.017 266.998 216.707 264.319 216.839 264.3C217.385 266.237 217.701 268.231 217.779 270.241C218.023 272.242 218.032 274.264 217.807 276.267V276.267Z" fill="#263238"/>
<path d="M242.52 218.551C242.52 218.551 242.52 218.607 242.417 218.701L242.059 219.115L240.678 220.684L235.442 226.522L217.413 246.44L217.168 246.055C218.187 245.711 219.283 245.665 220.327 245.923C221.351 246.323 222.261 246.969 222.977 247.803C224.581 249.31 225.981 251.02 227.142 252.889C228.906 255.769 230.046 258.987 230.488 262.336L230.093 262.195C234.016 258.574 237.55 254.554 240.64 250.2C241.955 248.338 243.151 246.395 244.221 244.382C245.132 242.641 245.932 240.846 246.618 239.005C247.608 236.368 248.353 233.647 248.846 230.874C249.034 229.934 249.1 229.144 249.194 228.637C249.194 228.402 249.26 228.204 249.288 228.054C249.284 227.988 249.284 227.922 249.288 227.857C249.288 227.857 249.288 227.922 249.288 228.054C249.288 228.186 249.288 228.402 249.241 228.646C249.175 229.154 249.138 229.925 248.978 230.902C248.546 233.702 247.844 236.454 246.882 239.118C246.204 240.979 245.412 242.796 244.513 244.56C243.446 246.592 242.256 248.558 240.95 250.445C237.855 254.811 234.31 258.84 230.375 262.467L230.037 262.787L229.971 262.326C229.526 259.046 228.406 255.893 226.681 253.067C225.538 251.235 224.164 249.557 222.592 248.076C221.927 247.306 221.085 246.709 220.139 246.337C219.184 246.105 218.184 246.147 217.253 246.459L216.444 246.694L217.008 246.074L235.216 226.334L240.546 220.6L241.994 219.077L242.37 218.692C242.52 218.588 242.52 218.541 242.52 218.551Z" fill="#263238"/>
<path d="M240.64 251.761C240.64 251.761 240.64 251.827 240.546 251.958L240.217 252.513C239.926 252.992 239.475 253.707 238.864 254.6C237.107 257.14 235.208 259.578 233.177 261.903C232.537 262.646 231.851 263.417 231.109 264.206C230.328 265.008 229.597 265.855 228.918 266.744C227.49 268.624 226.098 270.645 224.547 272.826C221.549 277.197 218.296 282.113 214.884 287.396L214.659 287.735L214.471 287.377C212.75 284.163 210.974 280.797 209.066 277.47C207.157 274.142 205.306 270.946 203.256 267.966C201.207 264.987 199.102 262.251 197.165 259.553C195.291 257.029 193.582 254.385 192.052 251.639C190.714 249.235 189.7 246.665 189.034 243.996C188.069 240.129 187.947 236.099 188.677 232.181C188.929 230.748 189.323 229.343 189.852 227.988C189.845 228.084 189.827 228.179 189.796 228.27L189.561 229.079C189.275 230.109 189.043 231.154 188.865 232.209C188.218 236.106 188.391 240.095 189.373 243.921C190.055 246.549 191.076 249.076 192.409 251.441C193.948 254.16 195.659 256.779 197.532 259.281C199.478 261.96 201.602 264.705 203.651 267.694C205.7 270.683 207.599 273.888 209.489 277.216C211.378 280.544 213.173 283.928 214.894 287.142H214.48C217.902 281.869 221.173 276.962 224.209 272.601C225.732 270.42 227.179 268.371 228.627 266.528C229.319 265.637 230.067 264.789 230.864 263.99C231.607 263.21 232.293 262.439 232.951 261.706C235.545 258.764 237.463 256.263 238.723 254.506C239.362 253.631 239.832 252.945 240.151 252.475L240.509 251.939L240.64 251.761Z" fill="#263238"/>
<path d="M168.43 333.86L167.17 302.135L168.11 295.02C168.11 295.02 178.027 297.717 206.171 297.717C227.539 297.544 248.841 295.309 269.78 291.043L272.751 296.918L262.834 371.573H172.425L168.43 333.86Z" fill="white"/>
<path d="M143.294 336.859L156.313 338.335L161.248 331.482L168.006 327.346L168.429 333.879C171.275 335.03 174.188 336.007 177.152 336.803C180.433 337.479 184.381 337.799 186.317 339.275C187.737 340.365 187.718 343.749 185.772 344.351L180.988 345.394C180.988 345.394 197.466 346.212 198.848 346.334C202.203 346.541 203.801 348.609 202.805 351.034C202.203 352.538 199.835 353.036 199.045 353.337L198.293 353.638C198.293 353.638 201.78 354.305 201.884 356.458C202.015 358.883 200.587 359.569 199.064 359.88C198.124 360.077 197.701 360.086 194.26 360.538C190.82 360.989 185.735 361.13 185.735 361.13C185.938 361.298 186.106 361.507 186.226 361.742C186.347 361.978 186.418 362.235 186.436 362.499C186.453 362.763 186.417 363.028 186.329 363.277C186.24 363.527 186.102 363.756 185.923 363.95C184.701 365.426 175.432 365.952 175.432 365.952L167.602 367.559C162.91 368.528 158.054 368.367 153.436 367.089V367.089L147.025 363.997L127.21 362.577C127.21 362.577 127.088 355.875 129.212 351.119C134.213 339.961 143.294 336.859 143.294 336.859Z" fill="#FFBE9D"/>
<path d="M183.958 344.661C182.257 345.135 180.506 345.407 178.741 345.469C176.985 345.702 175.206 345.702 173.449 345.469C175.188 345.213 176.939 345.05 178.694 344.981C180.44 344.759 182.199 344.652 183.958 344.661Z" fill="#EB996E"/>
<path d="M198.34 353.6C197.284 353.702 196.222 353.724 195.162 353.666C193.207 353.666 190.462 353.582 187.511 353.478C184.559 353.375 181.814 353.262 179.85 353.149C178.791 353.143 177.734 353.045 176.691 352.858C177.747 352.757 178.81 352.738 179.869 352.801C181.824 352.801 184.569 352.886 187.52 352.989C190.472 353.093 193.217 353.206 195.181 353.318C196.24 353.331 197.296 353.425 198.34 353.6V353.6Z" fill="#EB996E"/>
<path d="M188.47 360.998C187.609 361.135 186.736 361.176 185.866 361.12C184.259 361.12 182.031 361.045 179.587 360.904L173.317 360.547C172.448 360.542 171.581 360.469 170.723 360.331C171.583 360.194 172.456 360.15 173.326 360.199C174.934 360.199 177.162 360.284 179.615 360.415L185.875 360.782C186.745 360.775 187.613 360.848 188.47 360.998V360.998Z" fill="#EB996E"/>
<path d="M251.582 344.37C251.582 344.37 250.087 340.506 253.302 339.388L267.9 334.246L268.117 331.304L274.809 331.999C276.311 331.071 277.934 330.353 279.632 329.865C281.718 329.424 283.006 329.583 284.933 332.319C286.948 334.835 289.147 337.198 291.513 339.388L297.764 340.027C297.764 340.027 304.636 346.127 306.177 354.033C306.638 356.692 306.908 359.381 306.986 362.079C306.046 364.016 302.483 364.749 297.933 364.899L292.632 365.04C292.591 365.821 292.271 366.561 291.732 367.127C291.192 367.692 290.467 368.046 289.69 368.123C287.556 368.443 281.681 367.766 280.017 368.208C278.284 368.349 276.542 368.349 274.809 368.208C270.42 367.456 258.049 366.328 257.767 361.694L244.41 361.966C243.563 361.998 242.725 361.789 241.993 361.363C241.261 360.937 240.665 360.311 240.274 359.56C240.126 359.312 240.031 359.037 239.994 358.75C239.956 358.464 239.978 358.174 240.058 357.896C240.193 357.529 240.387 357.187 240.631 356.881C240.984 356.469 241.416 356.132 241.903 355.892C242.389 355.651 242.919 355.511 243.46 355.48L261.32 353.488C261.5 353.354 261.631 353.165 261.692 352.95C261.753 352.735 261.742 352.506 261.659 352.298C261.577 352.09 261.428 351.915 261.236 351.8C261.043 351.686 260.819 351.638 260.597 351.664C254.308 352.482 242.577 353.92 241.402 353.488C239.794 352.886 239.127 350.668 239.127 349.577C239.127 347.876 242.041 346.475 245.021 345.892C248.771 345.14 251.582 344.37 251.582 344.37Z" fill="#FFBE9D"/>
<path d="M269.921 340.083C268.898 340.455 267.849 340.747 266.781 340.957L259.149 342.781L251.516 344.595C250.47 344.891 249.405 345.114 248.329 345.263C248.587 345.121 248.862 345.014 249.147 344.943C249.673 344.764 250.454 344.529 251.422 344.257C253.358 343.712 256.047 343.016 259.036 342.311C262.025 341.606 264.732 341.014 266.706 340.619C267.762 340.358 268.837 340.179 269.921 340.083V340.083Z" fill="#EB996E"/>
<path d="M275.42 361.12C272.487 361.46 269.537 361.639 266.584 361.656C263.632 361.838 260.673 361.856 257.72 361.713C260.656 361.367 263.609 361.185 266.565 361.167C269.514 360.986 272.47 360.97 275.42 361.12V361.12Z" fill="#EB996E"/>
<path d="M276.792 331.332C273.459 332.81 269.998 333.98 266.452 334.829C269.789 333.361 273.249 332.191 276.792 331.332V331.332Z" fill="#EB996E"/>
<path d="M304.438 368.499C304.627 368.082 304.853 367.682 305.114 367.306C305.34 366.93 305.622 366.478 305.904 365.933C306.205 365.307 306.42 364.643 306.543 363.959C307.22 360.923 306.891 356.486 305.312 351.993C303.962 348.145 301.848 344.609 299.098 341.597C296.993 339.284 295.385 338.166 295.442 338.09C295.846 338.305 296.227 338.56 296.579 338.852C297.562 339.622 298.489 340.46 299.352 341.362C302.22 344.35 304.41 347.922 305.772 351.833C307.38 356.402 307.652 360.932 306.882 364.053C306.731 364.757 306.485 365.437 306.148 366.074C305.829 366.629 305.519 367.071 305.274 367.437C305.027 367.815 304.747 368.17 304.438 368.499Z" fill="#263238"/>
<path d="M267.9 334.246C267.9 334.246 267.9 334.011 267.956 333.56C268.013 333.108 268.088 332.432 268.182 331.586C268.398 329.828 268.699 327.28 269.122 324.066C269.94 317.533 271.105 308.208 272.515 296.918L272.76 297.135C265.823 298.592 258.077 300.067 249.749 301.477C245.575 302.182 241.289 302.85 236.824 303.451C232.359 304.053 227.809 304.579 223.128 304.833C217.77 305.106 212.525 304.984 207.449 304.833C202.373 304.683 197.456 304.41 192.738 304.138C183.338 303.555 174.69 302.887 167.226 302.258L167.433 302.06C167.762 311.846 168.034 319.817 168.222 325.363C168.298 328.108 168.363 330.251 168.41 331.736C168.41 332.45 168.41 332.996 168.41 333.4C168.41 333.804 168.41 333.964 168.41 333.964C168.41 333.964 168.41 333.776 168.354 333.4C168.298 333.024 168.307 332.46 168.269 331.736C168.204 330.251 168.11 328.108 167.978 325.372C167.752 319.826 167.433 311.855 167.038 302.079V301.863H167.254C174.708 302.502 183.328 303.151 192.756 303.743C197.456 304.015 202.382 304.26 207.458 304.42C212.534 304.579 217.798 304.692 223.09 304.42C227.79 304.166 232.312 303.639 236.748 303.047C241.185 302.455 245.49 301.788 249.655 301.092C257.983 299.701 265.729 298.272 272.666 296.824L272.948 296.768V297.041C271.463 308.321 270.241 317.645 269.376 324.169C268.943 327.403 268.596 329.95 268.361 331.689L268.079 333.663C267.966 334.02 267.9 334.246 267.9 334.246Z" fill="#263238"/>
<path d="M272.478 295.725L272.215 295.8L271.435 295.978L268.427 296.627C265.813 297.2 262.006 297.924 257.297 298.742C254.938 299.127 252.353 299.569 249.57 299.955C246.788 300.34 243.808 300.735 240.668 301.111C234.38 301.816 227.452 302.417 220.158 302.737C212.863 303.057 205.907 303.047 199.581 302.878C196.423 302.765 193.415 302.662 190.613 302.464C187.812 302.267 185.19 302.088 182.811 301.891C180.433 301.694 178.281 301.449 176.391 301.261C174.502 301.073 172.876 300.866 171.55 300.688L168.505 300.274L167.706 300.152C167.616 300.146 167.527 300.127 167.442 300.096H167.715L168.514 300.171L171.569 300.49C172.904 300.631 174.521 300.819 176.419 300.979C178.318 301.139 180.452 301.383 182.84 301.543C185.227 301.703 187.831 301.929 190.632 302.051C193.433 302.173 196.441 302.314 199.6 302.417C205.907 302.558 212.854 302.54 220.139 302.239C227.424 301.938 234.342 301.299 240.621 300.65C243.752 300.293 246.731 299.945 249.514 299.541C252.296 299.137 254.881 298.751 257.241 298.385C261.941 297.623 265.766 296.947 268.389 296.439L271.416 295.875L272.205 295.743C272.295 295.725 272.387 295.718 272.478 295.725V295.725Z" fill="#263238"/>
<path d="M272.506 292.839C272.427 292.885 272.346 292.925 272.262 292.961L271.529 293.271C270.88 293.553 269.912 293.92 268.643 294.362C265.06 295.56 261.385 296.462 257.654 297.059C252.124 297.919 246.551 298.481 240.96 298.742C234.652 299.099 227.725 299.475 220.449 299.757C208.011 300.324 195.552 300.176 183.131 299.315C178.365 298.968 174.53 298.526 171.851 298.197L168.805 297.774L168.016 297.652L167.743 297.595C167.833 297.581 167.925 297.581 168.016 297.595L168.815 297.661L171.87 297.999C174.521 298.263 178.365 298.657 183.15 298.939C195.559 299.701 208.001 299.802 220.421 299.24C227.696 298.958 234.624 298.601 240.922 298.3C246.492 298.059 252.045 297.532 257.56 296.721C261.281 296.151 264.954 295.302 268.549 294.183C269.818 293.769 270.795 293.431 271.453 293.177L272.205 292.914C272.299 292.868 272.402 292.842 272.506 292.839V292.839Z" fill="#263238"/>
<path d="M129.438 368.236C129.342 368.147 129.256 368.046 129.185 367.935C128.961 367.635 128.757 367.322 128.574 366.995C127.873 365.793 127.392 364.475 127.154 363.104C126.814 361.07 126.84 358.991 127.229 356.966C127.712 354.5 128.488 352.102 129.542 349.822C131.505 345.673 134.547 342.127 138.35 339.557C139.479 338.766 140.667 338.062 141.903 337.451C142.335 337.226 142.692 337.085 142.927 336.981C143.162 336.878 143.285 336.84 143.294 336.859C142.877 337.137 142.443 337.391 141.997 337.62C140.806 338.295 139.655 339.035 138.547 339.839C134.87 342.445 131.922 345.95 129.984 350.019C128.949 352.267 128.176 354.626 127.681 357.05C127.278 359.024 127.214 361.052 127.493 363.047C127.7 364.39 128.119 365.69 128.733 366.901C129.175 367.757 129.476 368.208 129.438 368.236Z" fill="#263238"/>
<path d="M431.873 363.696H374.401V368.227H431.873V363.696Z" fill="#263238"/>
<path d="M429.712 363.696H376.827C376.826 363.043 376.953 362.397 377.202 361.794C377.451 361.191 377.817 360.642 378.278 360.18C378.739 359.719 379.286 359.352 379.889 359.102C380.492 358.852 381.138 358.723 381.79 358.723H424.739C426.058 358.723 427.323 359.247 428.255 360.18C429.188 361.112 429.712 362.377 429.712 363.696V363.696Z" fill="#455A64"/>
<path d="M389.743 364.204C388.986 364.165 388.227 364.2 387.477 364.307C385.676 364.656 383.931 365.247 382.288 366.065C380.635 366.907 378.882 367.539 377.071 367.945C376.519 368.045 375.959 368.093 375.398 368.086C375.201 368.086 375.05 368.086 374.947 368.086H374.787C374.991 368.074 375.195 368.074 375.398 368.086C375.954 368.068 376.508 368.002 377.053 367.888C378.836 367.46 380.564 366.829 382.204 366.008C383.863 365.185 385.633 364.606 387.458 364.288C388.209 364.126 388.982 364.097 389.743 364.204V364.204Z" fill="#455A64"/>
<path d="M384.056 368.255C384.377 367.952 384.719 367.673 385.08 367.418C386.057 366.707 387.118 366.12 388.239 365.67C389.903 364.996 391.671 364.612 393.465 364.533C395.087 364.457 396.712 364.638 398.278 365.068C398.561 365.138 398.838 365.233 399.105 365.35C399.253 365.41 399.385 365.504 399.49 365.625C399.595 365.746 399.669 365.891 399.707 366.046C399.71 366.212 399.659 366.374 399.56 366.506C399.461 366.639 399.321 366.735 399.161 366.779C398.892 366.884 398.616 366.969 398.334 367.033C397.783 367.183 397.238 367.315 396.699 367.428C395.664 367.645 394.62 367.808 393.568 367.917C391.79 368.084 389.999 368.084 388.22 367.917C388.03 367.926 387.84 367.881 387.674 367.788C387.508 367.695 387.371 367.557 387.28 367.39C387.245 367.304 387.233 367.209 387.246 367.117C387.259 367.024 387.297 366.937 387.355 366.864C387.456 366.735 387.581 366.627 387.722 366.544C388.172 366.276 388.665 366.086 389.179 365.98C389.608 365.871 390.055 365.843 390.495 365.896H390.156C389.84 365.911 389.525 365.955 389.216 366.027C388.719 366.154 388.244 366.353 387.806 366.619C387.562 366.76 387.289 367.024 387.421 367.324C387.51 367.468 387.637 367.585 387.788 367.663C387.938 367.741 388.107 367.777 388.276 367.766C390.049 367.886 391.829 367.855 393.597 367.672C394.642 367.561 395.68 367.394 396.708 367.174C397.244 367.061 397.78 366.93 398.325 366.779C398.599 366.713 398.869 366.632 399.133 366.535C399.378 366.441 399.594 366.243 399.556 365.999C399.519 365.755 399.293 365.576 399.058 365.454C398.803 365.344 398.539 365.256 398.268 365.191C397.737 365.04 397.197 364.921 396.652 364.833C395.618 364.661 394.569 364.598 393.521 364.645C391.747 364.718 389.997 365.083 388.342 365.726C387.224 366.161 386.16 366.725 385.174 367.409C384.817 367.635 384.563 367.86 384.385 367.992L384.056 368.255Z" fill="#455A64"/>
<path d="M411.522 363.658C411.522 363.705 410.817 363.658 409.642 363.828C408.184 364.069 406.793 364.617 405.563 365.435C404.396 366.365 403.136 367.171 401.803 367.841C401.383 368.019 400.939 368.136 400.486 368.189C400.321 368.211 400.154 368.211 399.988 368.189C400.593 368.098 401.184 367.931 401.746 367.691C403.055 366.993 404.298 366.179 405.459 365.256C406.712 364.419 408.139 363.879 409.633 363.677C410.084 363.616 410.54 363.591 410.996 363.602C411.173 363.601 411.349 363.62 411.522 363.658Z" fill="#455A64"/>
<path d="M431.751 365.407C431.465 365.584 431.145 365.699 430.811 365.745C429.936 365.878 429.042 365.807 428.198 365.538C426.973 365.157 425.714 364.895 424.438 364.758C422.991 364.617 421.383 364.608 419.738 364.561C418.168 364.509 416.596 364.587 415.038 364.796C413.761 364.97 412.516 365.331 411.344 365.867C410.556 366.229 409.819 366.693 409.154 367.249C408.684 367.653 408.458 367.907 408.439 367.898C408.641 367.644 408.864 367.408 409.107 367.193C409.759 366.606 410.494 366.118 411.288 365.745C412.476 365.179 413.744 364.799 415.048 364.617C416.623 364.395 418.214 364.31 419.804 364.363C421.496 364.41 423.103 364.429 424.56 364.58C425.855 364.721 427.131 364.999 428.367 365.407C429.19 365.684 430.063 365.774 430.924 365.67C431.206 365.602 431.482 365.514 431.751 365.407V365.407Z" fill="#455A64"/>
<path d="M431.685 367.503C431.467 367.574 431.244 367.627 431.018 367.663C430.396 367.761 429.766 367.792 429.138 367.757C427.096 367.548 425.076 367.158 423.103 366.591C422.011 366.323 420.891 366.185 419.766 366.178C418.854 366.179 417.949 366.331 417.087 366.629C416.293 366.919 415.562 367.359 414.935 367.926C415.076 367.746 415.237 367.582 415.414 367.437C415.901 367.037 416.45 366.719 417.04 366.497C417.913 366.172 418.835 366.001 419.766 365.99C420.903 365.996 422.035 366.132 423.141 366.394C425.108 366.96 427.116 367.372 429.147 367.625C429.773 367.679 430.402 367.679 431.027 367.625C431.244 367.571 431.464 367.531 431.685 367.503V367.503Z" fill="#455A64"/>
<path d="M330.1 365.548C330.504 366.605 331.31 367.461 332.341 367.929C333.372 368.397 334.545 368.44 335.608 368.048L408.148 341.183L404.51 334.011L332.656 359.964C332.119 360.159 331.625 360.458 331.205 360.846C330.784 361.233 330.445 361.7 330.207 362.22C329.969 362.74 329.837 363.302 329.819 363.873C329.8 364.444 329.896 365.014 330.1 365.548Z" fill="#455A64"/>
<path d="M398.87 322.242L401.605 331.153L429.485 321.64L427.041 312.682C426.828 311.9 426.435 311.178 425.896 310.573C425.356 309.968 424.683 309.496 423.93 309.195C420.978 308.01 416.551 307.315 409.83 309.373C405.291 310.781 401.491 313.922 399.255 318.115C398.909 318.739 398.696 319.428 398.63 320.138C398.563 320.849 398.645 321.565 398.87 322.242Z" fill="#455A64"/>
<path d="M429.448 321.208C430.445 324.028 425.011 328.474 417.322 331.219C409.633 333.964 402.592 333.936 401.605 331.153C400.618 328.371 406.033 323.887 413.722 321.142C421.411 318.397 428.452 318.426 429.448 321.208Z" fill="#263238"/>
<path d="M429.993 325.306C429.993 325.306 426.816 319.384 414.953 323.426C405.309 326.745 404.434 331.651 404.444 333.353C404.44 333.561 404.456 333.768 404.491 333.973L406.747 340.328C407.047 341.172 407.574 341.916 408.27 342.48L408.721 342.847C409.414 343.41 410.248 343.773 411.133 343.898C412.017 344.022 412.919 343.902 413.74 343.552L429.579 336.793C430.46 336.417 431.21 335.79 431.738 334.992C432.266 334.193 432.548 333.257 432.55 332.3V332.3C432.548 331.634 432.411 330.975 432.146 330.364L429.993 325.306Z" fill="#455A64"/>
<path d="M410.629 355.565L407.217 345.789C407.217 345.789 405.732 338.147 419.437 333.87C433.142 329.593 436.16 338.748 436.16 338.748L438.98 346.955L410.629 355.565Z" fill="#455A64"/>
<path d="M438.81 346.607C439.92 350.104 434.515 354.935 426.731 357.417C418.948 359.898 411.691 359.062 410.629 355.537C409.567 352.012 414.925 347.208 422.708 344.736C430.491 342.264 437.701 343.119 438.81 346.607Z" fill="#263238"/>
<path d="M432.747 334.584C431.39 333.863 429.923 333.371 428.405 333.127C425.585 332.676 421.608 333.212 417.482 334.565C415.548 335.2 413.728 336.136 412.086 337.338C410.757 338.333 409.636 339.578 408.787 341.004C408.024 342.336 407.535 343.806 407.349 345.328C407.349 345.328 407.349 345.216 407.349 344.999C407.353 344.685 407.375 344.371 407.414 344.059C407.585 342.917 407.961 341.816 408.524 340.807C409.357 339.311 410.49 338.002 411.851 336.962C413.518 335.704 415.383 334.732 417.369 334.086C421.552 332.704 425.622 332.206 428.499 332.77C429.632 332.953 430.728 333.322 431.742 333.86C432.018 334.005 432.282 334.171 432.531 334.359C432.672 334.5 432.757 334.565 432.747 334.584Z" fill="#263238"/>
<path d="M407.377 341.38C406.663 340.238 406.088 339.013 405.666 337.733C405.094 336.513 404.668 335.228 404.397 333.907C405.1 335.043 405.665 336.258 406.08 337.526C406.675 338.751 407.111 340.046 407.377 341.38V341.38Z" fill="#263238"/>
<path d="M349.37 354.089C349.37 354.089 349.088 354.24 348.59 354.503C347.877 354.873 347.198 355.304 346.559 355.791C344.519 357.478 342.609 359.316 340.844 361.29C339.052 363.278 336.844 364.847 334.377 365.886C333.618 366.17 332.824 366.347 332.017 366.413C331.723 366.433 331.428 366.433 331.134 366.413C331.134 366.413 331.453 366.413 332.008 366.328C332.803 366.232 333.584 366.037 334.33 365.745C336.758 364.68 338.933 363.114 340.712 361.149C342.475 359.159 344.406 357.326 346.484 355.668C347.363 355.003 348.335 354.47 349.37 354.089V354.089Z" fill="#263238"/>
<path d="M366.675 352.971C366.675 352.971 366.422 353.046 365.942 353.159C365.463 353.271 364.758 353.459 363.865 353.713C361.319 354.417 358.823 355.286 356.392 356.317C356.201 356.396 356.027 356.512 355.882 356.659C355.737 356.806 355.622 356.98 355.546 357.172C355.506 357.267 355.486 357.368 355.487 357.47C355.487 357.572 355.508 357.673 355.549 357.767C355.589 357.861 355.648 357.946 355.722 358.016C355.795 358.087 355.883 358.142 355.978 358.178C356.424 358.263 356.884 358.23 357.313 358.084L358.723 357.755C360.603 357.285 362.652 356.693 364.739 355.969C366.921 355.206 369.061 354.328 371.15 353.337C372.24 352.817 373.331 352.262 374.421 351.673C374.969 351.389 375.464 351.014 375.887 350.564C376.107 350.358 376.267 350.096 376.35 349.807C376.433 349.517 376.435 349.21 376.357 348.919C376.246 348.638 376.068 348.387 375.839 348.189C375.61 347.991 375.336 347.851 375.041 347.782C374.445 347.641 373.824 347.641 373.227 347.782C372.024 348.064 370.83 348.383 369.674 348.722C367.343 349.342 365.115 350 363.028 350.733C359.307 351.966 355.79 353.746 352.594 356.016C350.443 357.557 348.541 359.417 346.954 361.534C346.4 362.286 346.014 362.897 345.76 363.32C345.507 363.743 345.375 363.969 345.375 363.969C345.8 363.105 346.297 362.278 346.86 361.496C348.438 359.353 350.341 357.469 352.5 355.913C355.702 353.621 359.228 351.822 362.962 350.574C365.049 349.831 367.286 349.173 369.608 348.543C370.774 348.233 371.958 347.913 373.171 347.603C373.789 347.457 374.433 347.457 375.051 347.603C375.377 347.681 375.68 347.836 375.933 348.055C376.187 348.274 376.384 348.551 376.508 348.863C376.603 349.193 376.606 349.542 376.516 349.874C376.427 350.205 376.248 350.506 376 350.743C375.56 351.207 375.045 351.595 374.477 351.89C373.378 352.482 372.287 353.036 371.197 353.553C369.1 354.548 366.951 355.427 364.758 356.185C362.778 356.877 360.763 357.467 358.723 357.953L357.313 358.282C356.855 358.431 356.366 358.46 355.894 358.366C355.774 358.328 355.665 358.263 355.574 358.177C355.483 358.091 355.412 357.985 355.367 357.868C355.288 357.643 355.288 357.397 355.367 357.172C355.45 356.959 355.576 356.765 355.738 356.603C355.9 356.441 356.094 356.315 356.307 356.232C358.752 355.209 361.265 354.354 363.827 353.676C365.66 353.159 366.675 352.971 366.675 352.971Z" fill="#263238"/>
<path d="M388.135 339.782C387.568 340.233 387.048 340.74 386.584 341.296C385.534 342.705 384.656 344.236 383.971 345.855C383.278 347.487 382.301 348.983 381.085 350.273C380.573 350.803 379.959 351.225 379.28 351.514C379.898 351.133 380.471 350.685 380.991 350.179C382.164 348.869 383.117 347.377 383.811 345.761C384.506 344.136 385.406 342.607 386.49 341.211C386.948 340.639 387.505 340.155 388.135 339.782V339.782Z" fill="#263238"/>
<path d="M386.34 349.154C386.34 349.154 386.979 348.75 387.9 347.97C390.305 345.903 391.895 343.047 392.384 339.914C392.563 338.72 392.525 337.968 392.572 337.968C392.584 338.143 392.584 338.319 392.572 338.495C392.584 338.976 392.556 339.457 392.487 339.933C392.072 343.125 390.451 346.038 387.957 348.073C387.59 348.383 387.197 348.659 386.782 348.9C386.643 348.999 386.495 349.084 386.34 349.154V349.154Z" fill="#263238"/>
<path d="M404.839 338.26C404.626 338.311 404.409 338.342 404.191 338.354C403.606 338.42 403.025 338.52 402.452 338.654C398.622 339.525 395.236 341.752 392.92 344.924C392.578 345.4 392.264 345.896 391.98 346.409C391.877 346.6 391.764 346.785 391.642 346.964C391.964 346.219 392.364 345.51 392.835 344.849C395.119 341.614 398.546 339.366 402.423 338.56C403.216 338.378 404.026 338.277 404.839 338.26V338.26Z" fill="#263238"/>
<path d="M421.543 329.659C421.543 329.659 421.383 329.706 421.082 329.762L419.738 330.025L417.623 330.429L416.307 330.674C415.811 330.738 415.323 330.852 414.85 331.012C414.38 331.172 413.863 331.586 414.004 332.14C414.11 332.405 414.3 332.628 414.544 332.775C414.788 332.923 415.074 332.987 415.357 332.958C416.674 332.915 417.984 332.767 419.277 332.516C420.712 332.249 422.123 331.869 423.498 331.379C424.184 331.134 425.011 330.89 425.303 330.185C425.408 329.822 425.394 329.434 425.264 329.079C425.134 328.724 424.894 328.42 424.579 328.211C423.912 327.81 423.136 327.626 422.36 327.685C421.58 327.685 420.809 327.779 420.048 327.854C418.597 327.983 417.158 328.222 415.743 328.568C413.331 329.116 411.089 330.242 409.21 331.849C407.954 332.944 406.964 334.31 406.314 335.844C406.149 336.267 406.011 336.7 405.901 337.141C405.835 337.442 405.788 337.602 405.788 337.602C405.863 336.99 406.015 336.39 406.239 335.816C406.868 334.253 407.853 332.859 409.116 331.745C411.002 330.108 413.261 328.959 415.696 328.399C417.119 328.039 418.567 327.791 420.029 327.656C420.79 327.591 421.561 327.515 422.351 327.497C423.174 327.43 423.997 327.628 424.701 328.061C425.05 328.295 425.314 328.635 425.456 329.031C425.598 329.427 425.61 329.857 425.49 330.26C425.313 330.638 425.011 330.943 424.635 331.125C424.289 331.298 423.931 331.445 423.564 331.567C422.178 332.052 420.758 332.429 419.315 332.695C418.009 332.94 416.686 333.082 415.357 333.118C415.04 333.146 414.721 333.07 414.451 332.9C414.181 332.73 413.975 332.476 413.863 332.178C413.827 332.028 413.829 331.871 413.869 331.722C413.908 331.573 413.983 331.435 414.088 331.322C414.29 331.123 414.534 330.972 414.803 330.881C415.283 330.722 415.777 330.612 416.278 330.552L417.604 330.317L419.728 329.95L421.073 329.724L421.543 329.659Z" fill="#263238"/>
<path d="M430.567 326.557C430.354 326.439 430.146 326.311 429.947 326.171C429.386 325.818 428.802 325.504 428.198 325.231C426.192 324.384 424.049 323.906 421.872 323.821C419.692 323.749 417.51 323.863 415.349 324.16L413.375 324.395L412.839 324.46H412.66C412.66 324.46 412.717 324.46 412.839 324.46L413.375 324.357L415.339 324.056C417.515 323.72 419.718 323.588 421.919 323.661C424.119 323.743 426.283 324.247 428.292 325.147C429.111 325.511 429.877 325.985 430.567 326.557V326.557Z" fill="#263238"/>
<path d="M427.784 316.828C427.784 316.828 427.503 316.499 426.892 316.019C426.017 315.35 425.011 314.873 423.94 314.619C422.35 314.25 420.698 314.25 419.108 314.619C417.153 315.085 415.259 315.783 413.468 316.696C411.679 317.607 409.84 318.416 407.96 319.121C406.408 319.694 404.764 319.978 403.11 319.958C401.997 319.948 400.897 319.728 399.867 319.309C399.489 319.163 399.129 318.974 398.795 318.745L399.077 318.877C399.342 319.015 399.615 319.137 399.895 319.243C400.926 319.626 402.018 319.821 403.119 319.817C404.75 319.817 406.367 319.524 407.894 318.952C409.767 318.242 411.6 317.429 413.384 316.517C415.175 315.604 417.068 314.906 419.024 314.44C420.638 314.075 422.314 314.091 423.921 314.487C425.007 314.752 426.021 315.253 426.892 315.953C427.226 316.205 427.526 316.499 427.784 316.828V316.828Z" fill="#263238"/>
<path d="M418.563 308.744C417.959 309.491 417.289 310.183 416.561 310.812C413.048 313.899 408.635 315.774 403.974 316.16C403.017 316.244 402.055 316.244 401.098 316.16C401.166 316.147 401.236 316.147 401.304 316.16H401.868C402.569 316.16 403.268 316.122 403.965 316.047C408.579 315.592 412.944 313.739 416.476 310.736C417.143 310.163 417.67 309.665 418.008 309.308L418.412 308.903C418.506 308.781 418.553 308.734 418.563 308.744Z" fill="#263238"/>
<path d="M427.333 318.726C427.333 318.726 426.985 318.501 426.327 318.162C425.392 317.692 424.4 317.344 423.375 317.128C421.853 316.826 420.295 316.75 418.751 316.903C416.862 317.108 415.002 317.521 413.204 318.134C411.277 318.764 409.492 319.488 407.846 320.108C406.201 320.729 404.697 321.246 403.41 321.603C402.4 321.891 401.374 322.114 400.336 322.27C399.953 322.328 399.567 322.363 399.18 322.374H399.471L400.317 322.242C401.349 322.062 402.369 321.82 403.372 321.518C404.65 321.152 406.136 320.578 407.781 319.986C409.426 319.394 411.212 318.632 413.148 317.993C414.974 317.367 416.867 316.957 418.788 316.771C420.359 316.618 421.945 316.71 423.488 317.044C424.523 317.267 425.52 317.637 426.449 318.144C426.759 318.313 427.055 318.508 427.333 318.726V318.726Z" fill="#263238"/>
<path d="M436.46 339.782L435.99 339.435C435.537 339.1 435.056 338.804 434.552 338.551C432.681 337.669 430.583 337.386 428.545 337.743C425.531 338.322 422.706 339.636 420.32 341.568C418.895 342.679 417.527 343.862 416.222 345.112L414.135 347.086C413.439 347.806 412.604 348.378 411.682 348.769C411.209 348.961 410.7 349.046 410.19 349.015C409.681 348.984 409.185 348.839 408.74 348.59C408.329 348.308 408 347.922 407.787 347.471C407.574 347.02 407.484 346.521 407.527 346.024C407.569 345.084 407.83 344.167 408.288 343.345C409.491 341.076 411.505 339.344 413.928 338.495C414.285 338.349 414.67 338.284 415.055 338.303C415.44 338.323 415.816 338.427 416.156 338.607C416.307 338.716 416.431 338.857 416.521 339.019C416.61 339.182 416.662 339.362 416.673 339.547C416.679 339.897 416.598 340.242 416.438 340.553C415.354 342.354 413.644 343.693 411.635 344.313C411.336 344.431 411.009 344.457 410.695 344.388C410.576 344.352 410.471 344.279 410.397 344.179C410.322 344.079 410.282 343.958 410.281 343.834C410.274 343.758 410.285 343.681 410.315 343.61C410.344 343.54 410.391 343.478 410.45 343.43C410.493 343.403 410.541 343.387 410.591 343.383C410.498 343.411 410.419 343.473 410.369 343.556C410.318 343.639 410.301 343.738 410.319 343.834C410.323 343.948 410.363 344.058 410.434 344.148C410.505 344.237 410.603 344.302 410.714 344.332C411.029 344.398 411.357 344.365 411.654 344.238C412.496 343.963 413.292 343.56 414.013 343.044C414.974 342.377 415.773 341.503 416.354 340.487C416.509 340.199 416.583 339.874 416.57 339.547C416.564 339.383 416.519 339.222 416.439 339.079C416.359 338.935 416.246 338.812 416.109 338.72C415.79 338.557 415.438 338.464 415.08 338.45C414.721 338.435 414.364 338.499 414.032 338.636C412.49 339.179 411.103 340.089 409.99 341.286C408.711 342.542 407.909 344.204 407.724 345.986C407.686 346.448 407.771 346.912 407.969 347.331C408.167 347.75 408.471 348.11 408.852 348.374C409.271 348.609 409.737 348.745 410.216 348.773C410.695 348.8 411.173 348.719 411.616 348.534C412.516 348.153 413.331 347.597 414.013 346.898L416.1 344.924C417.41 343.669 418.787 342.486 420.226 341.38C422.636 339.442 425.487 338.128 428.527 337.555C430.593 337.209 432.716 337.518 434.599 338.438C435.098 338.71 435.573 339.025 436.018 339.378C436.31 339.641 436.46 339.782 436.46 339.782Z" fill="#263238"/>
<path d="M436.742 342.179H436.564L436.056 342.01C435.443 341.799 434.815 341.636 434.176 341.521C433.247 341.341 432.303 341.246 431.356 341.239C430.191 341.248 429.029 341.37 427.888 341.606C426.749 341.872 425.641 342.253 424.579 342.743C423.715 343.153 422.891 343.64 422.116 344.2C421.593 344.576 421.097 344.988 420.631 345.432L420.245 345.798L420.104 345.911C420.657 345.231 421.288 344.619 421.984 344.088C422.753 343.506 423.578 343.002 424.447 342.584C426.587 341.544 428.94 341.022 431.319 341.061C432.283 341.071 433.244 341.181 434.186 341.39C435.066 341.552 435.924 341.817 436.742 342.179V342.179Z" fill="#263238"/>
<path d="M417.05 334.744C417.259 334.761 417.467 334.795 417.67 334.847C418.056 334.923 418.61 335.026 419.334 335.139C423.025 335.754 426.795 335.715 430.473 335.026C431.178 334.904 431.742 334.791 432.137 334.697C432.338 334.645 432.542 334.607 432.748 334.584C432.554 334.658 432.356 334.721 432.156 334.772C431.77 334.885 431.216 335.017 430.492 335.167C428.644 335.538 426.765 335.73 424.88 335.74C423.005 335.756 421.132 335.596 419.287 335.261C418.582 335.129 418.009 335.007 417.623 334.904C417.429 334.863 417.237 334.81 417.05 334.744V334.744Z" fill="#263238"/>
</svg>
