<svg width="457" height="456" viewBox="0 0 457 456" fill="none" xmlns="http://www.w3.org/2000/svg">
<path d="M441.35 111.316H378.504V176.682H441.35V111.316Z" fill="#E0E0E0"/>
<path d="M437.091 111.316H374.245V176.682H437.091V111.316Z" fill="#FAFAFA"/>
<path d="M437.109 176.7H374.227V111.298H437.109V176.7ZM374.263 176.7H437.072V111.335H374.263V176.7Z" fill="#E0E0E0"/>
<path d="M428.646 120.107H382.699V167.9H428.646V120.107Z" fill="white"/>
<path d="M382.7 168.21C382.374 168.693 381.992 169.136 381.56 169.529C380.83 170.303 379.8 171.349 378.642 172.478C377.483 173.606 376.425 174.625 375.641 175.344C375.242 175.765 374.795 176.137 374.31 176.454C374.632 175.973 375.012 175.533 375.44 175.144C376.17 174.37 377.21 173.324 378.368 172.177C379.526 171.031 380.593 170.03 381.378 169.311C381.772 168.892 382.216 168.522 382.7 168.21Z" fill="#E0E0E0"/>
<path d="M428.646 168.1C429.125 168.43 429.565 168.812 429.96 169.238C430.735 169.966 431.784 170.994 432.924 172.15C434.064 173.306 435.076 174.361 435.797 175.144C436.221 175.537 436.592 175.984 436.9 176.472C436.425 176.156 435.984 175.79 435.587 175.38C434.812 174.643 433.763 173.615 432.623 172.459C431.483 171.304 430.461 170.239 429.741 169.456C429.319 169.053 428.952 168.597 428.646 168.1V168.1Z" fill="#E0E0E0"/>
<path d="M428.519 120.234C428.848 119.767 429.231 119.34 429.659 118.96C430.397 118.187 431.428 117.14 432.577 116.003C433.726 114.865 434.802 113.855 435.587 113.136C435.982 112.719 436.426 112.349 436.909 112.035C436.586 112.513 436.209 112.952 435.787 113.346C435.049 114.119 434.018 115.166 432.86 116.303C431.701 117.441 430.634 118.46 429.85 119.179C429.447 119.579 429 119.933 428.519 120.234V120.234Z" fill="#E0E0E0"/>
<path d="M382.572 120.344C382.086 120.024 381.642 119.645 381.25 119.215C380.475 118.487 379.426 117.459 378.295 116.303C377.164 115.148 376.134 114.092 375.422 113.309C375.003 112.909 374.63 112.463 374.31 111.981C374.792 112.302 375.233 112.681 375.623 113.109C376.398 113.837 377.447 114.875 378.587 116.03C379.727 117.186 380.748 118.251 381.469 119.024C381.885 119.421 382.255 119.864 382.572 120.344Z" fill="#E0E0E0"/>
<path d="M428.518 167.891C428.509 167.816 428.509 167.739 428.518 167.664C428.518 167.5 428.518 167.281 428.518 166.99C428.518 166.399 428.518 165.534 428.518 164.415C428.518 162.149 428.518 158.855 428.473 154.678C428.473 146.306 428.473 134.376 428.382 120.098L428.564 120.271H382.745L382.946 120.071C382.946 137.606 382.946 154.014 382.946 167.855L382.773 167.682L415.942 167.773H425.263H427.734H425.299L416.024 167.818L382.736 167.9H382.554V167.727C382.554 153.886 382.554 137.479 382.554 119.943V119.87H382.763H428.582H428.756V120.052C428.756 134.376 428.692 146.333 428.664 154.732C428.664 158.9 428.664 162.176 428.664 164.433C428.664 165.534 428.664 166.39 428.664 166.981C428.664 167.254 428.664 167.472 428.664 167.627C428.625 167.72 428.576 167.808 428.518 167.891Z" fill="#E0E0E0"/>
<path d="M405.572 147.17L399.188 147.252L398.003 150.11L394.729 150.155L400.711 136.805H403.867L410.251 149.991L406.895 150.037L405.572 147.17ZM404.533 144.85L402.298 139.799L400.173 144.914L404.533 144.85Z" fill="#E0E0E0"/>
<path d="M417.665 145.35L417.729 150.028H416.343V148.999C416.033 149.393 415.63 149.704 415.17 149.904C414.71 150.104 414.207 150.187 413.707 150.146C411.883 150.146 410.716 149.236 410.698 147.907C410.679 146.579 411.509 145.632 413.908 145.596H416.224V145.35C416.224 144.167 415.486 143.53 414.035 143.53C413.115 143.529 412.22 143.833 411.491 144.395L410.871 143.348C411.835 142.651 413 142.287 414.191 142.311C416.379 142.247 417.638 143.257 417.665 145.35ZM416.233 147.68V146.624H413.972C412.531 146.624 412.148 147.189 412.148 147.844C412.148 148.499 412.832 149.09 413.972 149.081C414.443 149.105 414.911 148.987 415.315 148.742C415.718 148.497 416.038 148.136 416.233 147.707V147.68Z" fill="#E0E0E0"/>
<path d="M432.54 190.45H380.948V244.113H432.54V190.45Z" fill="#E0E0E0"/>
<path d="M429.047 190.45H377.455V244.113H429.047V190.45Z" fill="#FAFAFA"/>
<path d="M429.066 244.131H377.438V190.441H429.066V244.131ZM377.474 244.131H429.029V190.459H377.474V244.131Z" fill="#E0E0E0"/>
<path d="M422.116 197.657H384.396V236.896H422.116V197.657Z" fill="white"/>
<path d="M384.396 237.16C384.134 237.552 383.828 237.913 383.484 238.234C382.873 238.871 382.034 239.727 381.085 240.664C380.137 241.601 379.261 242.429 378.614 243.021C378.288 243.365 377.924 243.67 377.528 243.931C377.789 243.538 378.095 243.178 378.44 242.857C379.042 242.22 379.9 241.365 380.848 240.427C381.796 239.49 382.672 238.662 383.32 238.07C383.636 237.721 383.998 237.415 384.396 237.16V237.16Z" fill="#E0E0E0"/>
<path d="M422.116 237.06C422.509 237.321 422.87 237.626 423.192 237.97C423.831 238.571 424.688 239.417 425.627 240.363C426.567 241.31 427.397 242.183 427.99 242.82C428.336 243.147 428.642 243.513 428.902 243.913C428.513 243.646 428.152 243.341 427.825 243.003C427.187 242.402 426.33 241.556 425.39 240.609C424.451 239.663 423.621 238.789 423.028 238.143C422.68 237.822 422.373 237.458 422.116 237.06V237.06Z" fill="#E0E0E0"/>
<path d="M422.007 197.766C422.269 197.372 422.575 197.009 422.919 196.684C423.53 196.056 424.369 195.191 425.317 194.263C426.266 193.335 427.141 192.498 427.789 191.906C428.111 191.558 428.475 191.253 428.874 190.996C428.614 191.388 428.307 191.749 427.962 192.07C427.36 192.698 426.512 193.562 425.555 194.5C424.597 195.437 423.731 196.265 423.083 196.856C422.766 197.206 422.404 197.512 422.007 197.766V197.766Z" fill="#E0E0E0"/>
<path d="M384.286 197.866C383.893 197.607 383.531 197.301 383.21 196.956C382.572 196.356 381.714 195.519 380.775 194.572C379.836 193.626 379.006 192.752 378.413 192.106C378.068 191.782 377.762 191.418 377.501 191.023C377.894 191.283 378.256 191.589 378.577 191.933C379.216 192.534 380.073 193.38 381.012 194.336C381.952 195.291 382.781 196.156 383.374 196.802C383.724 197.115 384.031 197.473 384.286 197.866V197.866Z" fill="#E0E0E0"/>
<path d="M422.007 236.896V236.705C422.007 236.569 422.007 236.396 422.007 236.159C422.007 235.668 422.007 234.958 422.007 234.039C422.007 232.219 422.007 229.489 422.007 226.04C422.007 219.17 421.962 209.387 421.925 197.657L422.071 197.803H384.46L384.624 197.63C384.624 212.035 384.624 225.503 384.624 236.869L384.487 236.724L411.72 236.796H419.371H421.396H419.399H411.774L384.414 236.869H384.269V236.724C384.269 225.358 384.269 211.89 384.269 197.484V197.32H384.442H422.053H422.199V197.466C422.199 209.232 422.144 219.051 422.126 225.949C422.126 229.362 422.126 232.055 422.126 233.912C422.126 234.822 422.126 235.513 422.126 235.996C422.126 236.223 422.126 236.405 422.126 236.532C422.126 236.66 422.016 236.896 422.007 236.896Z" fill="#E0E0E0"/>
<path d="M406.092 219.206C406.092 221.09 404.578 222.2 401.605 222.245L395.741 222.318L395.595 211.398L401.131 211.325C403.967 211.325 405.444 212.408 405.463 214.101C405.478 214.603 405.346 215.098 405.084 215.526C404.821 215.954 404.44 216.297 403.985 216.512C404.591 216.655 405.13 217 405.513 217.49C405.896 217.979 406.1 218.585 406.092 219.206V219.206ZM398.23 213.291V215.857H400.839C402.125 215.857 402.809 215.393 402.8 214.538C402.79 213.682 402.088 213.273 400.811 213.291H398.23ZM403.456 218.978C403.456 218.068 402.708 217.632 401.349 217.65L398.285 217.695V220.425L401.34 220.38C402.745 220.325 403.465 219.916 403.456 218.978V218.978Z" fill="#E0E0E0"/>
<path d="M414.72 219.06C414.741 219.498 414.67 219.936 414.511 220.345C414.353 220.754 414.11 221.126 413.799 221.436C413.488 221.746 413.116 221.988 412.706 222.146C412.296 222.304 411.858 222.375 411.418 222.355C410.967 222.38 410.516 222.298 410.102 222.117C409.689 221.935 409.324 221.658 409.038 221.308V222.309H407.889L407.771 213.418H408.965L409.011 216.922C409.289 216.584 409.64 216.314 410.038 216.133C410.437 215.952 410.871 215.864 411.309 215.875C411.748 215.838 412.189 215.894 412.605 216.038C413.021 216.182 413.402 216.411 413.724 216.711C414.045 217.012 414.3 217.376 414.472 217.78C414.643 218.185 414.728 218.621 414.72 219.06V219.06ZM413.507 219.06C413.5 218.62 413.362 218.191 413.111 217.829C412.86 217.467 412.507 217.187 412.096 217.024C411.686 216.862 411.236 216.825 410.805 216.917C410.373 217.009 409.978 217.227 409.671 217.543C409.363 217.859 409.156 218.259 409.076 218.692C408.995 219.125 409.046 219.572 409.22 219.977C409.394 220.382 409.685 220.726 410.055 220.966C410.425 221.206 410.858 221.332 411.3 221.326C411.598 221.337 411.895 221.285 412.172 221.174C412.449 221.064 412.7 220.896 412.908 220.682C413.116 220.469 413.277 220.214 413.38 219.935C413.483 219.655 413.526 219.358 413.507 219.06V219.06Z" fill="#E0E0E0"/>
<path d="M360.411 90.1225H94.3711V279.712H360.411V90.1225Z" fill="#E0E0E0"/>
<path d="M352.184 97.6937H100.69V272.423H352.184V97.6937Z" fill="#F5F5F5"/>
<path d="M375.03 279.712H85.707V287.256H375.03V279.712Z" fill="#EBEBEB"/>
<path d="M94.4619 90.2954C96.979 92.5249 99.3776 94.8454 101.667 97.3388Z" fill="#EBEBEB"/>
<path d="M101.666 97.3388C100.374 96.2752 99.1556 95.126 98.0184 93.899C96.7632 92.7671 95.5871 91.5509 94.498 90.259C95.9111 91.189 97.2064 92.286 98.3558 93.5259C99.6098 94.6586 100.721 95.9389 101.666 97.3388Z" fill="#EBEBEB"/>
<path d="M352.385 98.2488L360.429 90.4683Z" fill="#EBEBEB"/>
<path d="M360.419 90.4683C359.256 91.9287 357.968 93.2866 356.571 94.5269C355.286 95.8861 353.885 97.1314 352.385 98.2488C353.552 96.7911 354.839 95.4335 356.233 94.1902C357.521 92.8341 358.921 91.589 360.419 90.4683V90.4683Z" fill="#EBEBEB"/>
<path d="M352.832 272.386C355.568 274.852 360.976 279.666 360.411 279.666Z" fill="#EBEBEB"/>
<path d="M360.411 279.712C359.206 278.452 357.936 277.255 356.608 276.126C355.246 274.987 353.983 273.736 352.832 272.386C354.306 273.381 355.677 274.518 356.927 275.781C358.012 276.773 358.961 277.71 359.608 278.42C359.871 278.707 360.114 279.011 360.338 279.33C360.4 279.423 360.449 279.524 360.484 279.63C360.511 279.73 360.392 279.739 360.411 279.712Z" fill="#EBEBEB"/>
<path d="M225.653 276.864H198.074V279.857H225.653V276.864Z" fill="#FAFAFA"/>
<path d="M113.514 245.023V279.83H173.478L113.514 245.023ZM122.716 259.037L147.641 273.761H122.716V259.037Z" fill="#EBEBEB"/>
<path d="M119.269 248.362C119.066 249.141 118.709 249.871 118.22 250.51C117.857 251.227 117.362 251.869 116.761 252.403C116.967 251.624 117.327 250.894 117.819 250.255C118.512 249.145 119.159 248.29 119.269 248.362Z" fill="#E0E0E0"/>
<path d="M128.169 253.468C127.965 254.229 127.608 254.941 127.121 255.56C126.437 256.643 125.789 257.462 125.68 257.38C125.884 256.624 126.238 255.916 126.719 255.297C127.413 254.223 128.06 253.395 128.169 253.468Z" fill="#E0E0E0"/>
<path d="M137.062 258.573C136.781 259.305 136.356 259.973 135.812 260.538C135.01 261.548 134.28 262.294 134.18 262.213C134.464 261.48 134.892 260.812 135.438 260.247C136.232 259.246 136.961 258.491 137.062 258.573Z" fill="#E0E0E0"/>
<path d="M145.798 263.878C145.907 263.96 145.342 264.843 144.548 265.853C143.755 266.863 143.016 267.6 142.916 267.518C143.204 266.788 143.632 266.12 144.175 265.552C144.968 264.56 145.698 263.805 145.798 263.878Z" fill="#E0E0E0"/>
<path d="M154.937 269.11C154.691 269.877 154.298 270.588 153.779 271.203C153.04 272.295 152.347 273.114 152.237 273.023C152.482 272.258 152.872 271.548 153.386 270.93C154.134 269.847 154.827 269.028 154.937 269.11Z" fill="#E0E0E0"/>
<path d="M164.421 274.57C164.219 275.299 163.869 275.977 163.39 276.563C162.716 277.592 162.077 278.383 161.968 278.301C162.166 277.572 162.518 276.893 162.998 276.308C163.673 275.298 164.312 274.57 164.421 274.57Z" fill="#E0E0E0"/>
<path d="M122.05 250C122.159 250.073 121.968 250.574 121.621 251.129C121.274 251.684 120.91 252.084 120.791 252.039C120.673 251.993 120.873 251.466 121.22 250.91C121.566 250.355 121.931 249.9 122.05 250Z" fill="#E0E0E0"/>
<path d="M124.959 251.593C125.077 251.666 124.886 252.175 124.539 252.73C124.193 253.285 123.819 253.64 123.709 253.64C123.6 253.64 123.792 253.067 124.138 252.512C124.485 251.957 124.849 251.529 124.959 251.593Z" fill="#E0E0E0"/>
<path d="M131.434 255.397C131.544 255.469 131.352 255.979 131.006 256.534C130.659 257.089 130.294 257.444 130.185 257.444C130.076 257.444 130.258 256.871 130.605 256.316C130.951 255.761 131.334 255.333 131.434 255.397Z" fill="#E0E0E0"/>
<path d="M134.362 257.026C134.48 257.089 134.289 257.599 133.942 258.154C133.596 258.709 133.231 259.064 133.112 259.064C132.994 259.064 133.194 258.491 133.541 257.936C133.888 257.381 134.252 256.953 134.362 257.026Z" fill="#E0E0E0"/>
<path d="M140.227 260.647C140.336 260.72 140.154 261.221 139.807 261.776C139.461 262.331 139.087 262.731 138.977 262.686C138.868 262.64 139.059 262.113 139.397 261.557C139.734 261.002 140.117 260.584 140.227 260.647Z" fill="#E0E0E0"/>
<path d="M143.008 262.276C143.117 262.34 142.935 262.85 142.588 263.405C142.242 263.96 141.868 264.315 141.758 264.315C141.649 264.315 141.84 263.732 142.187 263.177C142.534 262.622 142.898 262.203 143.008 262.276Z" fill="#E0E0E0"/>
<path d="M149.017 265.734C149.127 265.798 148.935 266.308 148.589 266.863C148.242 267.418 147.877 267.773 147.759 267.773C147.64 267.773 147.841 267.19 148.187 266.635C148.534 266.08 148.899 265.662 149.017 265.734Z" fill="#E0E0E0"/>
<path d="M152.237 267.627C152.347 267.7 152.164 268.2 151.818 268.755C151.471 269.311 151.097 269.711 150.988 269.665C150.878 269.62 151.07 269.092 151.407 268.537C151.745 267.982 152.128 267.554 152.237 267.627Z" fill="#E0E0E0"/>
<path d="M158.037 271.012C158.146 271.085 157.955 271.595 157.617 272.15C157.28 272.705 156.897 273.06 156.788 273.06C156.678 273.06 156.86 272.487 157.207 271.931C157.554 271.376 157.928 270.93 158.037 271.012Z" fill="#E0E0E0"/>
<path d="M161.385 272.932C161.494 272.996 161.312 273.506 160.965 274.061C160.619 274.616 160.245 274.971 160.135 274.971C160.026 274.971 160.217 274.388 160.555 273.833C160.892 273.278 161.275 272.86 161.385 272.932Z" fill="#E0E0E0"/>
<path d="M403.138 347.662C407.825 345.25 413.352 344.932 418.55 345.796C421.35 346.26 424.269 347.088 426.175 349.19C428.081 351.293 428.436 354.978 426.248 356.78C424.953 357.854 423.138 358.017 421.451 357.99C417.374 357.945 412.85 357.226 409.595 359.674C407.771 361.075 406.494 363.396 404.278 364.078C403.166 364.336 402.001 364.226 400.958 363.765C399.914 363.304 399.05 362.516 398.495 361.521C397.44 359.479 397.208 357.112 397.848 354.905C398.112 353.373 398.726 351.922 399.644 350.666C400.561 349.41 401.757 348.381 403.138 347.662V347.662Z" fill="#EBEBEB"/>
<path d="M392.385 326.968C395.258 331.054 400.831 329.698 403.411 327.205C405.992 324.711 407.059 321.099 408.09 317.65C410.361 309.769 412.65 301.506 410.963 293.48C410.553 291.049 409.484 288.777 407.871 286.91C407.052 285.99 406.005 285.301 404.835 284.913C403.665 284.525 402.412 284.451 401.204 284.699C398.395 285.436 396.644 288.184 395.386 290.796C391.669 298.513 389.718 306.958 389.677 315.52C389.677 319.506 390.133 323.71 392.413 326.968" fill="#EBEBEB"/>
<path d="M384.514 332.81C387.624 329.17 388.217 323.71 386.831 319.16C385.445 314.61 382.271 310.615 378.705 307.403C374.459 303.634 369.519 300.725 364.159 298.84C362.084 298.005 359.854 297.627 357.62 297.73C356.506 297.796 355.426 298.133 354.473 298.71C353.519 299.287 352.721 300.088 352.148 301.042C350.615 303.963 352.084 307.494 353.671 310.379C356.469 315.46 359.665 320.314 363.228 324.893C366.092 328.579 369.366 332.173 373.735 333.875C378.103 335.577 382.636 335.349 384.943 332.328" fill="#EBEBEB"/>
<path d="M392.193 388.621C392.341 388.025 392.427 387.415 392.449 386.801C392.585 385.454 392.749 383.752 392.95 381.732C393.203 379.236 393.584 376.755 394.09 374.297C394.764 371.304 395.679 368.371 396.826 365.525C397.939 362.682 399.45 360.01 401.313 357.59C402.834 355.618 404.775 354.008 406.995 352.876C408.498 352.129 410.112 351.628 411.774 351.393C412.39 351.364 413.001 351.273 413.598 351.12C412.973 351.055 412.344 351.055 411.719 351.12C409.993 351.253 408.304 351.69 406.73 352.412C404.395 353.517 402.346 355.142 400.739 357.162C398.796 359.618 397.229 362.347 396.087 365.261C394.932 368.153 394.031 371.14 393.397 374.188C392.916 376.675 392.584 379.188 392.403 381.714C392.248 383.861 392.184 385.609 392.157 386.81C392.105 387.413 392.117 388.02 392.193 388.621V388.621Z" fill="#E0E0E0"/>
<path d="M392.54 384.726C392.593 384.441 392.611 384.151 392.594 383.861C392.594 383.215 392.594 382.396 392.594 381.395C392.594 379.257 392.594 376.163 392.704 372.341C392.895 364.697 393.552 356.47 394.829 344.877C396.033 333.957 397.656 321.272 399.389 313.027C399.753 311.143 400.127 309.46 400.474 307.977C400.821 306.493 401.085 305.247 401.386 304.182L401.97 301.789C402.052 301.513 402.101 301.229 402.116 300.942C401.983 301.199 401.882 301.471 401.815 301.752C401.632 302.371 401.395 303.154 401.103 304.109C400.811 305.065 400.456 306.402 400.082 307.876C399.708 309.351 399.288 311.034 398.887 312.909C396.762 322.669 395.16 332.535 394.09 342.466C392.813 354.086 392.266 364.67 392.193 372.332C392.147 376.163 392.193 379.266 392.321 381.432C392.385 382.433 392.439 383.252 392.476 383.898C392.473 384.175 392.495 384.452 392.54 384.726V384.726Z" fill="#E0E0E0"/>
<path d="M392.595 364.315C392.664 363.458 392.664 362.596 392.595 361.739C392.451 359.404 392.186 357.077 391.801 354.769C391.238 351.352 390.48 347.971 389.531 344.64C388.424 340.527 387 336.505 385.272 332.61C382.319 325.431 378.082 318.848 372.768 313.182C371.841 312.214 370.858 311.302 369.822 310.452C369.375 310.069 368.974 309.696 368.564 309.396L367.424 308.604C366.74 308.085 366.014 307.622 365.253 307.221C365.135 307.385 368.336 309.269 372.376 313.591C377.512 319.309 381.636 325.857 384.569 332.956C386.262 336.826 387.691 340.806 388.847 344.868C389.823 348.18 390.633 351.539 391.272 354.933C391.801 357.826 392.112 360.201 392.294 361.839C392.331 362.671 392.432 363.498 392.595 364.315V364.315Z" fill="#E0E0E0"/>
<path d="M372.822 400.314L374.874 428.333H410.944L412.996 400.314H372.822Z" fill="#E0E0E0"/>
<path d="M417.301 389.276H369.339V400.323H417.301V389.276Z" fill="#E0E0E0"/>
<path d="M369.339 427.268V430.326H371.592H416.508V427.268H369.339Z" fill="#EBEBEB"/>
<path d="M373.799 435.713L371.592 430.326H414.793L412.212 435.713H373.799Z" fill="#E0E0E0"/>
<path d="M412.331 409.478C412.281 409.568 412.223 409.653 412.157 409.733C412.021 409.924 411.838 410.16 411.619 410.443L409.522 413.127L409.431 413.245L409.339 413.127L404.168 406.002H404.469L399.389 413.182L399.225 413.409L399.052 413.191L393.024 406.038H393.37L393.033 406.457L387.643 413.2L387.47 413.427L387.296 413.191L382.235 406.002H382.527C380.019 408.85 377.894 411.262 376.27 413.118L376.152 413.245L376.07 413.1L374.109 409.815L373.607 408.905C373.546 408.807 373.494 408.703 373.452 408.595C373.452 408.595 373.534 408.677 373.662 408.868L374.218 409.715L376.279 412.936H376.079L382.244 405.729L382.399 405.547L382.545 405.738L387.67 412.89H387.324L392.704 406.138L393.033 405.729L393.206 405.51L393.379 405.72L399.399 412.89H399.061L404.187 405.738L404.342 405.529L404.488 405.738L409.54 412.945H409.358L411.546 410.333L412.13 409.66C412.264 409.533 412.331 409.472 412.331 409.478Z" fill="#F5F5F5"/>
<path d="M413.498 400.15C413.498 400.278 404.46 400.378 393.315 400.378C382.17 400.378 373.114 400.26 373.114 400.15C373.114 400.041 382.152 399.923 393.306 399.923C404.46 399.923 413.498 400.005 413.498 400.15Z" fill="#F5F5F5"/>
<path d="M415.322 430.626C415.322 430.754 405.499 430.854 393.379 430.854C381.258 430.854 371.445 430.754 371.445 430.626C371.445 430.499 381.268 430.408 393.379 430.408C405.49 430.408 415.322 430.508 415.322 430.626Z" fill="#F5F5F5"/>
<path d="M72.8106 235.067H21.2188V288.73H72.8106V235.067Z" fill="#E0E0E0"/>
<path d="M69.3184 235.067H17.7266V288.73H69.3184V235.067Z" fill="#FAFAFA"/>
<path d="M69.3363 288.748H17.708V235.058H69.3363V288.748ZM17.7445 288.748H69.2999V235.085H17.7445V288.748Z" fill="#E0E0E0"/>
<path d="M62.3776 242.284H24.6572V281.523H62.3776V242.284Z" fill="white"/>
<path d="M24.6571 281.778C24.3984 282.174 24.0922 282.538 23.7451 282.86C23.1431 283.497 22.295 284.353 21.3465 285.29C20.398 286.228 19.5225 287.046 18.8841 287.638C18.5567 287.98 18.1927 288.285 17.7988 288.548C18.0539 288.151 18.3605 287.79 18.7108 287.474C19.3127 286.837 20.1609 285.973 21.1185 285.045C22.0761 284.116 22.9425 283.27 23.5809 282.678C23.9061 282.34 24.2669 282.038 24.6571 281.778V281.778Z" fill="#E0E0E0"/>
<path d="M62.3779 281.687C62.7755 281.945 63.14 282.25 63.4632 282.597C64.1016 283.197 64.9589 284.044 65.8982 284.99C66.8376 285.936 67.6584 286.81 68.2512 287.447C68.5939 287.774 68.8997 288.137 69.1632 288.53C68.7657 288.275 68.4038 287.969 68.087 287.62C67.4486 287.019 66.5823 286.173 65.652 285.217C64.7218 284.262 63.828 283.397 63.2808 282.76C62.9454 282.433 62.643 282.073 62.3779 281.687V281.687Z" fill="#E0E0E0"/>
<path d="M62.2773 242.393C62.5396 241.999 62.8455 241.636 63.1893 241.31C63.7913 240.673 64.6394 239.818 65.5879 238.88C66.5364 237.943 67.4119 237.124 68.0503 236.532C68.3795 236.189 68.7467 235.884 69.1447 235.622C68.8835 236.014 68.5774 236.375 68.2327 236.696C67.6308 237.333 66.7826 238.198 65.8341 239.126C64.8857 240.054 64.0101 240.9 63.3626 241.492C63.0338 241.83 62.67 242.132 62.2773 242.393Z" fill="#E0E0E0"/>
<path d="M24.5568 242.484C24.1619 242.222 23.7978 241.917 23.4715 241.574C22.8422 240.973 21.9758 240.127 21.0456 239.18C20.1153 238.234 19.2763 237.36 18.6835 236.723C18.3331 236.401 18.0265 236.034 17.7715 235.631C18.1601 235.898 18.5207 236.203 18.8476 236.541C19.4769 237.142 20.3433 237.988 21.2827 238.935C22.222 239.881 23.052 240.755 23.6448 241.401C23.9907 241.724 24.2968 242.088 24.5568 242.484V242.484Z" fill="#E0E0E0"/>
<path d="M62.2773 281.523C62.2773 281.523 62.2773 281.45 62.2773 281.332C62.2773 281.213 62.2773 281.013 62.2773 280.786C62.2773 280.285 62.2773 279.584 62.2773 278.665C62.2773 276.845 62.2773 274.115 62.2773 270.666C62.2773 263.796 62.2773 254.004 62.2043 242.284L62.3502 242.429H24.7394L24.9126 242.265C24.9126 256.671 24.9126 270.139 24.9126 281.505L24.7667 281.359L52.0082 281.432H59.6598H61.6845H59.6872H52.072L24.712 281.505H24.5752V281.368C24.5752 270.002 24.5752 256.534 24.5752 242.129V241.965H24.7485H62.3594H62.5053V242.111C62.5053 253.868 62.4506 263.696 62.4323 270.585C62.4323 274.006 62.4323 276.7 62.4323 278.547C62.4323 279.457 62.4323 280.158 62.4323 280.64C62.4323 280.868 62.4323 281.04 62.4323 281.168C62.3992 281.293 62.3469 281.413 62.2773 281.523V281.523Z" fill="#E0E0E0"/>
<path d="M50.4216 261.976C50.4216 263.173 50.0659 264.343 49.3995 265.338C48.7331 266.333 47.7859 267.109 46.6777 267.567C45.5695 268.025 44.3501 268.145 43.1736 267.911C41.9972 267.678 40.9165 267.101 40.0683 266.255C39.2202 265.409 38.6425 264.331 38.4085 263.157C38.1745 261.983 38.2946 260.766 38.7537 259.66C39.2127 258.554 39.99 257.609 40.9874 256.944C41.9847 256.279 43.1573 255.925 44.3568 255.925C45.1536 255.923 45.9428 256.079 46.6791 256.383C47.4155 256.686 48.0845 257.132 48.6479 257.694C49.2113 258.257 49.658 258.924 49.9624 259.659C50.2667 260.394 50.4228 261.181 50.4216 261.976Z" fill="#E0E0E0"/>
<path d="M341.933 86.0457C336.28 86.0445 330.731 87.57 325.876 90.4604C321.021 93.3508 317.04 97.4984 314.356 102.463C311.671 107.428 310.384 113.025 310.629 118.661C310.875 124.297 312.644 129.762 315.75 134.476L311.19 145.933L323.046 142.293C327.012 145.281 331.634 147.286 336.529 148.14C341.425 148.995 346.454 148.676 351.201 147.208C355.949 145.741 360.278 143.168 363.833 139.702C367.387 136.236 370.064 131.976 371.643 127.274C373.222 122.572 373.657 117.563 372.913 112.66C372.169 107.757 370.267 103.1 367.364 99.0755C364.461 95.0505 360.64 91.7723 356.216 89.5115C351.793 87.2507 346.894 86.0721 341.924 86.073L341.933 86.0457Z" fill="#FAFAFA"/>
<path d="M349.768 123.101H345.436C345.443 123.595 345.35 124.086 345.162 124.543C344.973 125 344.693 125.414 344.339 125.76C343.985 126.106 343.564 126.376 343.102 126.554C342.64 126.732 342.146 126.814 341.651 126.795C340.922 126.823 340.203 126.621 339.594 126.22C338.986 125.818 338.519 125.237 338.258 124.557C338.028 123.99 337.936 123.377 337.99 122.768C338.044 122.159 338.242 121.571 338.568 121.053C339.298 119.852 340.912 118.751 343.83 119.233V109.505H339.544V115.22C337.781 115.739 336.237 116.821 335.151 118.301C334.065 119.781 333.497 121.576 333.534 123.41C333.534 129.735 339.216 131.209 341.651 131.209C343.511 131.182 349.85 130.727 349.768 123.101Z" fill="#6A6DB4"/>
<path d="M339.49 107.494H343.84V103.436H339.49V107.494Z" fill="#6A6DB4"/>
<path d="M373.516 117.313C373.532 117.129 373.532 116.943 373.516 116.758C373.516 116.367 373.516 115.848 373.47 115.157C373.47 114.802 373.47 114.401 373.416 113.964C373.361 113.528 373.288 113.054 373.215 112.545C373.142 112.035 373.06 111.48 372.978 110.889C372.896 110.297 372.677 109.697 372.522 109.069C371.717 105.886 370.392 102.858 368.6 100.105C366.006 96.0222 362.508 92.5869 358.375 90.0629C354.242 87.5389 349.585 85.9935 344.761 85.5452C343.317 85.422 341.867 85.3946 340.419 85.4633C339.681 85.4633 338.933 85.4633 338.194 85.5998L335.951 85.9365C332.877 86.4979 329.903 87.5066 327.123 88.9304C321.085 92.0026 316.199 96.9322 313.187 102.99C311.561 106.157 310.509 109.586 310.077 113.118C309.94 114.022 309.864 114.934 309.849 115.848C309.781 116.757 309.763 117.668 309.795 118.578C309.876 120.414 310.108 122.24 310.488 124.038C311.311 127.93 312.858 131.634 315.048 134.958V134.631C313.525 138.398 312.038 142.102 310.588 145.714L310.323 146.37L311.007 146.178L322.863 142.921L322.572 142.866C326.566 145.876 331.215 147.902 336.142 148.781C338.436 149.205 340.772 149.352 343.101 149.218C344.22 149.191 345.335 149.084 346.439 148.899L348.062 148.645C348.591 148.544 349.111 148.39 349.631 148.262C356.933 146.405 363.339 142.023 367.707 135.895C369.335 133.632 370.642 131.154 371.592 128.534L372.194 126.877C372.33 126.331 372.458 125.804 372.586 125.303L372.951 123.856C373.033 123.401 373.087 122.946 373.151 122.537C373.252 121.699 373.397 120.962 373.434 120.316C373.47 119.67 373.434 119.142 373.489 118.687C373.543 118.232 373.489 117.95 373.489 117.695C373.499 117.584 373.499 117.471 373.489 117.359C373.46 117.466 373.444 117.576 373.443 117.686C373.443 117.941 373.397 118.269 373.361 118.678C373.324 119.088 373.297 119.67 373.251 120.298C373.206 120.926 373.042 121.672 372.923 122.5C371.877 128.513 369.107 134.095 364.947 138.569C360.787 143.043 355.416 146.217 349.485 147.707C348.974 147.826 348.463 147.98 347.934 148.08L346.338 148.317C345.256 148.497 344.161 148.595 343.064 148.608C340.781 148.734 338.49 148.584 336.243 148.162C331.422 147.283 326.876 145.285 322.973 142.329L322.836 142.229H322.681L310.825 145.46L311.235 145.933L315.713 134.849L315.777 134.676L315.677 134.521C312.536 129.757 310.751 124.231 310.515 118.533C310.483 117.644 310.501 116.753 310.57 115.866C310.578 114.983 310.652 114.101 310.789 113.227C311.214 109.774 312.245 106.423 313.835 103.327C315.346 100.332 317.312 97.5875 319.662 95.1912C321.968 92.9438 324.585 91.0377 327.433 89.531C330.156 88.1207 333.072 87.1181 336.087 86.5553L338.276 86.2095C339.006 86.1094 339.735 86.1185 340.456 86.0639C341.879 85.9983 343.304 86.0195 344.724 86.1276C349.47 86.5527 354.057 88.0492 358.139 90.5039C362.22 92.9586 365.688 96.3071 368.281 100.296C370.077 103.002 371.423 105.98 372.267 109.114C372.44 109.76 372.604 110.37 372.75 110.934C372.896 111.498 372.941 112.063 373.023 112.572C373.106 113.082 373.188 113.546 373.251 113.974C373.315 114.401 373.315 114.802 373.343 115.157C373.388 115.83 373.434 116.358 373.461 116.758C373.464 116.944 373.482 117.13 373.516 117.313V117.313Z" fill="#263238"/>
<path d="M216.004 293.253C215.466 295.073 213.049 374.243 227.76 436.769L300.966 436.933C301.942 394.217 318.294 327.796 294.628 291.06L216.004 293.253Z" fill="#263238"/>
<path d="M289.903 142.129C292.32 150.901 295.977 157.927 299.543 161.457C303.109 164.988 306.921 169.12 306.793 174.125C306.738 176.09 306.082 178.174 306.948 179.949C308.061 182.242 311.043 182.742 313.278 183.998C314.899 184.998 316.219 186.416 317.1 188.103C317.982 189.789 318.391 191.681 318.284 193.58C318.016 197.384 316.339 200.953 313.578 203.59C310.842 206.375 306.41 208.322 302.963 206.42C300.883 205.274 299.698 203.035 298.649 200.906C293.22 189.883 288.307 178.629 283.911 167.145" fill="#263238"/>
<path d="M267.687 104.573C264.609 101.162 260.563 98.7677 256.087 97.7082C251.611 96.6487 246.917 96.9746 242.632 98.6425C238.346 100.31 234.671 103.241 232.095 107.045C229.52 110.848 228.167 115.344 228.216 119.934C228.28 125.804 230.578 131.964 228.216 137.352C226.575 141.174 222.744 144.058 222.243 148.18C221.631 152.958 225.735 157.28 225.517 162.113C225.38 165.261 223.401 168.037 221.13 170.221C218.859 172.405 216.214 174.197 214.126 176.591C208.335 183.161 207.97 193.535 212.302 201.106C216.634 208.677 225.134 213.446 233.834 214.474C242.535 215.502 251.417 213.109 259.124 208.932C264.14 206.202 268.855 202.635 271.837 197.775C274.819 192.916 275.85 186.619 273.488 181.395" fill="#263238"/>
<path d="M240.071 101.033C241.372 101.009 242.673 101.07 243.966 101.215C247.062 101.779 250.099 102.626 253.04 103.745C256.027 104.867 259.197 105.426 262.388 105.392C263.353 105.346 264.309 105.181 265.233 104.901C265.577 104.808 265.907 104.673 266.218 104.501C264.961 104.822 263.675 105.017 262.379 105.083C259.233 105.027 256.121 104.433 253.177 103.327C250.213 102.197 247.138 101.386 244.002 100.906C243.04 100.818 242.073 100.818 241.111 100.906C240.76 100.899 240.41 100.942 240.071 101.033Z" fill="#455A64"/>
<path d="M313.743 209.433C313.668 208.308 313.519 207.189 313.296 206.084C312.334 201.581 310.288 197.379 307.334 193.842C304.38 190.304 300.607 187.538 296.342 185.782L274.317 176.509L249.146 177.155C249.146 177.155 230.441 185.682 226.674 190.122C226.391 190.45 223.883 192.925 223.719 193.89L204.777 250L180.563 265.061L187.203 273.506L222.899 270.13L227.221 263.113C224.859 268.401 215.438 289.849 215.438 296.419C215.438 296.419 270.532 308.186 292.466 305.984C302.115 305.01 304.404 304.109 304.404 304.109L297.965 280.03C303.3 279.666 308.754 276.39 310.943 271.84C314.746 263.951 314.427 220.025 313.743 209.433Z" fill="#6A6DB4"/>
<path d="M141.776 217.795H137.982L143.181 266.763L188.051 263.687L182.99 221.526L141.776 217.795Z" fill="#E0E0E0"/>
<path d="M141.776 215.375L145.744 265.043L234.335 262.194L223.419 215.375L183.592 219.215L141.776 215.375Z" fill="#FAFAFA"/>
<path d="M141.776 215.42L142.488 215.475L144.631 215.657L152.93 216.367L183.61 219.097L223.437 215.22H223.628V215.402C226.994 229.78 230.687 245.605 234.572 262.222L234.636 262.504H234.344L230.167 262.631L145.762 265.288H145.579V265.106C144.403 249.855 143.445 237.424 142.77 228.788C142.451 224.502 142.196 221.163 142.032 218.869C141.947 217.753 141.883 216.898 141.84 216.303C141.84 215.721 141.84 215.393 141.84 215.393C141.84 215.393 141.84 215.712 141.922 216.303C142.004 216.895 142.059 217.777 142.15 218.906C142.351 221.208 142.634 224.557 142.998 228.861C143.71 237.47 144.731 249.855 145.99 265.043L145.798 264.879L230.204 262.149L234.39 262.021L234.162 262.304C230.295 245.696 226.62 229.871 223.273 215.484L223.501 215.648L183.674 219.434L153.131 216.54L144.804 215.739L142.625 215.521L141.776 215.42Z" fill="#263238"/>
<path d="M190.814 262.995C190.747 262.86 190.698 262.716 190.668 262.567C190.586 262.231 190.477 261.821 190.358 261.33C190.094 260.247 189.738 258.682 189.319 256.78C188.47 252.894 187.413 247.516 186.409 241.537C185.406 235.559 184.667 230.126 184.202 226.186C183.974 224.211 183.801 222.618 183.701 221.508C183.655 220.999 183.619 220.598 183.591 220.234C183.567 220.087 183.567 219.936 183.591 219.788C183.638 219.931 183.672 220.077 183.692 220.225C183.692 220.571 183.801 220.98 183.883 221.49C184.047 222.655 184.266 224.22 184.54 226.14C185.087 230.071 185.889 235.495 186.884 241.465C187.878 247.434 188.89 252.821 189.62 256.716C189.984 258.609 190.285 260.165 190.532 261.321C190.623 261.83 190.705 262.231 190.76 262.586C190.794 262.72 190.812 262.857 190.814 262.995V262.995Z" fill="#263238"/>
<path d="M167.559 232.301L168.416 249.591L164.403 249.791L163.701 235.686L160.226 235.859L160.071 232.71L167.559 232.301Z" fill="#6A6DB4"/>
<path d="M215.567 244.386L215.895 247.634L202.826 248.945L202.571 246.36L208.608 239.408C209.994 237.797 210.177 236.887 210.095 236.041C209.958 234.694 208.936 233.994 207.112 234.176C206.417 234.221 205.743 234.434 205.149 234.797C204.555 235.16 204.058 235.662 203.701 236.259L200.601 234.685C201.285 233.547 202.242 232.596 203.384 231.917C204.527 231.237 205.82 230.85 207.149 230.79C210.997 230.399 213.77 232.119 214.08 235.249C214.253 236.924 213.934 238.498 211.736 240.982L208.143 245.132L215.567 244.386Z" fill="#6A6DB4"/>
<path d="M178.548 274.843L170.34 268.837L170.787 255.187C171.706 255.386 172.541 255.863 173.178 256.554C173.815 257.245 174.222 258.115 174.344 259.046C174.681 262.249 174.964 265.288 174.964 265.288L177.545 266.062L177.189 264.287L183.464 255.369C183.464 255.369 185.844 257.126 184.85 259.437C185.99 258.327 187.796 259.246 187.586 260.274L188.024 257.845C188.024 257.845 190.878 256.998 190.76 259.883C190.755 261.038 190.642 262.189 190.422 263.323H200.39C200.39 263.323 197.508 268.182 195.83 269.502C194.152 270.821 179.022 274.916 179.022 274.916" fill="#FFBE9D"/>
<path d="M179.305 272.223C177.915 269.842 177.188 267.134 177.198 264.378C177.344 264.378 177.609 266.198 178.192 268.319C178.776 270.439 179.433 272.159 179.305 272.223Z" fill="#EB996E"/>
<path d="M182.625 270.111C182.142 268.347 181.81 266.545 181.631 264.724V264.642V264.57L181.786 264.306C182.672 262.59 183.697 260.95 184.85 259.401C184.104 261.182 183.216 262.901 182.196 264.542L182.041 264.806V264.66C182.387 266.458 182.582 268.281 182.625 270.111Z" fill="#EB996E"/>
<path d="M186.692 268.537C186.434 267.476 186.302 266.389 186.3 265.298V265.243C186.418 264.724 186.528 264.187 186.655 263.632C186.937 262.02 187.374 260.438 187.96 258.909C187.831 260.543 187.547 262.161 187.111 263.741L186.738 265.334V265.279C186.843 266.364 186.827 267.456 186.692 268.537Z" fill="#EB996E"/>
<path d="M278.85 112.081V116.549L279.762 183.379C279.871 191.132 273.277 197.411 264.951 197.466C256.542 197.521 249.529 191.214 249.292 183.379C249.036 175.189 248.626 166.499 248.626 166.499C248.626 166.499 237.956 165.034 235.375 151.274C234.089 144.431 234.125 133.147 234.463 123.92C234.524 121.942 234.988 119.998 235.827 118.206C236.666 116.413 237.863 114.81 239.344 113.494C240.824 112.179 242.558 111.178 244.44 110.553C246.321 109.928 248.31 109.693 250.286 109.86L278.85 112.081Z" fill="#FFBE9D"/>
<path d="M248.699 166.499C255.225 166.414 261.6 164.524 267.113 161.039C267.113 161.039 262.872 170.658 248.973 169.748L248.699 166.499Z" fill="#EB996E"/>
<path d="M261.431 107.704C257.728 112.618 261.577 119.534 265.845 124.011C270.113 128.488 275.311 133.593 274.144 139.626C272.794 146.624 263.2 151.102 264.632 158.081C265.152 160.629 267.167 162.804 267.176 165.361C267.176 170.057 261.103 172.332 259.351 176.691C256.953 182.66 263.556 188.612 263.656 195.045C263.711 198.685 261.631 202.107 261.522 205.756C261.294 213.236 270.168 218.715 277.436 216.876C284.705 215.038 289.685 207.958 291.271 200.642C292.858 193.326 290.451 183.043 289.274 175.653L301.869 178.565C304.222 176.336 301.012 173.961 300.483 170.767C299.16 162.768 293.889 155.997 291.363 148.281C289.165 141.537 289.156 134.321 288.198 127.296C287.24 120.271 285.052 112.954 279.68 108.322C274.308 103.691 265.006 103.117 260.656 108.723" fill="#263238"/>
<path d="M269.593 235.832L265.763 230.636L270.97 219.06L272.794 191.951C272.794 191.951 269.019 190.96 268.636 195.218C268.408 197.721 268.207 199.959 268.207 199.959L263.921 198.585L257.819 200.405C257.819 200.405 258.093 203.499 260.555 202.89C262.006 202.524 263.502 202.37 264.997 202.435L267.332 205.856V207.085L264.231 204.873H258.102L254.308 208.14C254.308 208.14 255.594 211.171 257.582 210.252C257.582 210.252 254.272 219.188 253.934 220.871C253.934 220.871 250.56 229.58 253.934 234.621C256.241 237.946 258.895 241.018 261.85 243.785L269.593 235.832Z" fill="#FFBE9D"/>
<path d="M271.126 209.351C271.34 208.933 271.429 208.462 271.381 207.995C271.048 206.885 270.602 205.811 270.05 204.792C269.299 203.295 268.688 201.732 268.226 200.123C269.125 201.539 269.891 203.035 270.515 204.591C270.788 205.21 271.053 205.802 271.299 206.411C271.55 206.908 271.702 207.449 271.746 208.004C271.77 208.389 271.671 208.771 271.463 209.096C271.281 209.296 271.144 209.369 271.126 209.351Z" fill="#EB996E"/>
<path d="M269.53 208.65C268.517 208.223 267.571 207.653 266.721 206.957C265.243 205.911 264.122 204.937 264.231 204.81C265.197 205.31 266.113 205.901 266.967 206.575C267.916 207.142 268.779 207.841 269.53 208.65V208.65Z" fill="#EB996E"/>
<path d="M266.784 213.764C266.26 213.376 265.822 212.884 265.499 212.317C265.103 211.746 264.767 211.136 264.495 210.497C264.332 210.117 264.189 209.728 264.067 209.333C264.052 209.255 264.021 209.181 263.975 209.117C263.93 209.053 263.871 208.999 263.802 208.959C263.616 208.896 263.423 208.856 263.228 208.841C261.978 208.677 260.793 208.468 259.844 208.377H259.908C259.566 208.572 259.258 208.821 258.996 209.114C258.731 209.387 258.503 209.624 258.303 209.806C257.902 210.188 257.591 210.334 257.573 210.288C257.555 210.243 257.792 210.07 258.13 209.651L258.759 208.896C259.032 208.524 259.38 208.214 259.78 207.986H259.844C260.875 208.04 262.024 208.222 263.282 208.386C263.53 208.403 263.773 208.458 264.003 208.55C264.125 208.617 264.232 208.709 264.318 208.818C264.404 208.927 264.467 209.053 264.504 209.187C264.632 209.615 264.742 209.979 264.887 210.343C265.141 210.973 265.446 211.582 265.799 212.163C266.41 213.145 266.839 213.71 266.784 213.764Z" fill="#EB996E"/>
<path d="M261.084 214.51C261.051 213.5 261.174 212.49 261.449 211.516C261.568 210.51 261.852 209.529 262.288 208.614C262.321 209.625 262.195 210.635 261.914 211.607C261.794 212.613 261.514 213.593 261.084 214.51V214.51Z" fill="#EB996E"/>
<path d="M265.699 219.625C265.756 219.316 265.715 218.998 265.58 218.715C265.409 218.416 265.147 218.18 264.832 218.041C264.408 217.89 263.944 217.89 263.519 218.041C262.981 218.234 262.475 218.504 262.014 218.842C261.461 219.244 260.844 219.551 260.19 219.752C259.786 219.868 259.356 219.862 258.954 219.734C258.553 219.606 258.199 219.362 257.938 219.033C257.813 218.838 257.733 218.617 257.705 218.387C257.677 218.157 257.7 217.924 257.773 217.704C257.921 217.292 258.147 216.912 258.439 216.585C259.46 215.402 260.614 214.339 261.878 213.418C262.449 212.992 263.121 212.719 263.829 212.627C264.466 212.573 265.104 212.719 265.653 213.045C266.395 213.502 267.019 214.125 267.477 214.865C267.676 215.111 267.833 215.388 267.942 215.684C267.714 215.47 267.509 215.232 267.331 214.974C266.84 214.312 266.219 213.755 265.507 213.337C265.018 213.076 264.463 212.965 263.911 213.018C263.277 213.121 262.678 213.38 262.169 213.773C260.957 214.696 259.845 215.742 258.85 216.895C258.33 217.477 257.992 218.232 258.366 218.778C258.577 219.029 258.856 219.215 259.17 219.314C259.483 219.412 259.818 219.419 260.136 219.333C261.422 218.988 262.37 217.941 263.501 217.686C264.003 217.53 264.544 217.562 265.024 217.777C265.377 217.958 265.657 218.253 265.817 218.614C265.991 219.306 265.699 219.652 265.699 219.625Z" fill="#EB996E"/>
<path d="M305.626 276.263C305.379 276.592 305.101 276.897 304.796 277.173C303.94 277.956 302.956 278.587 301.887 279.039C300.189 279.764 298.362 280.138 296.515 280.14C294.072 280.137 291.657 279.619 289.429 278.62C286.747 277.402 284.239 275.835 281.969 273.961C279.497 271.977 276.926 269.802 274.281 267.436C271.495 264.968 268.909 262.284 266.547 259.41C264.063 256.284 261.825 252.971 259.853 249.5C259.424 248.745 259.005 247.989 258.576 247.252L258.494 247.098L258.622 246.97L272.612 232.574L272.73 232.447L272.886 232.538C282.006 238.18 289.703 243.212 295.157 246.679L301.541 250.738L303.228 251.82L303.666 252.103L303.802 252.212C303.802 252.212 303.748 252.212 303.638 252.139L303.191 251.884L301.468 250.856C299.963 249.946 297.82 248.617 295.029 246.906C289.557 243.494 281.841 238.525 272.667 232.911H272.94L258.996 247.27V246.988C259.415 247.735 259.844 248.481 260.263 249.236C262.234 252.691 264.469 255.989 266.948 259.1C269.289 261.962 271.854 264.634 274.618 267.09C279.917 271.749 284.65 276.19 289.602 278.292C291.783 279.295 294.151 279.828 296.552 279.858C298.367 279.874 300.167 279.534 301.851 278.857C302.913 278.427 303.899 277.827 304.769 277.082C305.362 276.563 305.626 276.245 305.626 276.263Z" fill="#263238"/>
<path d="M290.615 218.569C290.644 218.893 290.644 219.219 290.615 219.543C290.615 220.271 290.57 221.153 290.542 222.182C290.46 224.539 290.351 227.56 290.232 230.909C290.114 234.257 289.968 237.397 289.84 239.626L289.676 242.265C289.674 242.591 289.631 242.915 289.548 243.23C289.483 242.91 289.465 242.582 289.493 242.256C289.493 241.628 289.493 240.727 289.493 239.608C289.493 237.379 289.621 234.294 289.749 230.89C289.876 227.487 290.041 224.402 290.196 222.173C290.208 220.96 290.349 219.752 290.615 218.569V218.569Z" fill="#263238"/>
<path d="M302.161 194.618C302.161 194.7 301.176 195.036 299.707 195.901C298.849 196.404 298.037 196.983 297.282 197.63C295.434 199.22 293.945 201.183 292.913 203.39C292.491 204.289 292.152 205.224 291.901 206.184C291.463 207.831 291.417 208.914 291.326 208.914C291.279 208.667 291.279 208.414 291.326 208.168C291.355 207.484 291.447 206.805 291.6 206.138C291.804 205.142 292.11 204.17 292.512 203.235C293.527 200.945 295.063 198.923 296.999 197.33C297.786 196.679 298.639 196.112 299.543 195.637C300.146 195.31 300.778 195.038 301.431 194.827C301.662 194.72 301.908 194.65 302.161 194.618V194.618Z" fill="#263238"/>
<path d="M230.979 245.323C230.721 244.862 230.502 244.381 230.322 243.885C229.93 242.975 229.364 241.583 228.744 239.872C227.522 236.469 225.853 231.6 225.835 225.976C225.834 224.614 225.947 223.253 226.172 221.909C226.412 220.662 226.717 219.429 227.084 218.214C227.759 215.903 228.398 213.846 228.744 212.072C229.043 210.676 229.156 209.247 229.082 207.822C229.027 206.821 228.89 206.266 228.945 206.257C228.998 206.383 229.037 206.514 229.063 206.648C229.16 207.031 229.227 207.42 229.264 207.813C229.409 209.252 229.348 210.704 229.082 212.126C228.772 213.946 228.17 216.021 227.504 218.332C227.194 219.488 226.875 220.708 226.656 221.972C226.442 223.293 226.335 224.629 226.337 225.967C226.337 231.491 227.951 236.332 229.073 239.754C229.647 241.474 230.167 242.857 230.504 243.812C230.704 244.302 230.862 244.807 230.979 245.323V245.323Z" fill="#263238"/>
<path d="M275.631 282.296C275.504 282.378 275.366 282.439 275.22 282.478L274.035 282.915C273.004 283.288 271.481 283.761 269.584 284.28C267.687 284.799 265.398 285.318 262.835 285.782C260.273 286.246 257.436 286.582 254.436 286.792C251.435 287.001 248.572 286.992 245.973 286.901C243.373 286.81 241.039 286.573 239.087 286.3C237.135 286.027 235.567 285.772 234.527 285.536L233.296 285.263C233.148 285.238 233.004 285.195 232.867 285.135C233.015 285.112 233.166 285.112 233.314 285.135L234.563 285.327C235.649 285.509 237.217 285.727 239.123 285.936C241.03 286.146 243.401 286.337 245.991 286.437C248.581 286.537 251.463 286.482 254.409 286.291C257.354 286.1 260.209 285.727 262.763 285.317C265.316 284.908 267.605 284.407 269.502 283.925C271.399 283.443 272.931 283.015 273.98 282.706L275.193 282.36C275.335 282.318 275.483 282.296 275.631 282.296V282.296Z" fill="#263238"/>
<path d="M227.76 261.903C227.691 262.382 227.563 262.849 227.377 263.296C227.076 264.206 226.601 265.434 226.018 266.981C224.832 270.084 223.163 274.343 221.403 279.084C219.643 283.825 218.129 288.184 217.107 291.296L215.913 295.036C215.794 295.504 215.635 295.961 215.438 296.401C215.498 295.923 215.599 295.452 215.739 294.991C215.949 294.081 216.314 292.798 216.779 291.196C217.691 288.02 219.187 283.67 220.956 278.92C222.725 274.17 224.44 269.929 225.698 266.854L227.203 263.214C227.559 262.376 227.732 261.894 227.76 261.903Z" fill="#263238"/>
<path d="M291.572 436.596C291.561 436.484 291.561 436.371 291.572 436.259C291.572 436.013 291.572 435.695 291.572 435.276C291.572 434.366 291.517 433.129 291.481 431.509C291.426 428.233 291.39 423.501 291.399 417.641C291.399 405.929 291.563 389.758 291.399 371.895C291.235 354.032 290.669 337.861 289.575 326.204C289.283 323.292 289.082 320.653 288.745 318.36C288.599 317.207 288.462 316.133 288.335 315.138C288.271 314.647 288.216 314.174 288.161 313.728C288.107 313.282 288.006 312.818 287.933 312.454C287.669 310.861 287.459 309.615 287.304 308.732C287.24 308.331 287.195 308.004 287.158 307.767C287.144 307.655 287.144 307.542 287.158 307.43C287.197 307.537 287.224 307.646 287.24 307.758L287.441 308.668C287.605 309.578 287.851 310.788 288.152 312.372C288.234 312.781 288.316 313.2 288.398 313.646C288.481 314.092 288.526 314.556 288.599 315.065C288.736 316.057 288.882 317.122 289.046 318.278C289.411 320.58 289.639 323.219 289.958 326.131C291.134 337.788 291.782 353.977 291.919 371.849C292.056 389.722 291.846 405.893 291.764 417.595C291.764 423.428 291.709 428.16 291.7 431.464V435.231C291.7 435.64 291.7 435.968 291.7 436.214C291.676 436.347 291.633 436.475 291.572 436.596V436.596Z" fill="#455A64"/>
<path d="M281.367 110.77C281.224 109.576 281.463 108.367 282.052 107.318C282.64 106.268 283.546 105.431 284.641 104.928C285.752 104.46 286.956 104.256 288.16 104.333C289.363 104.411 290.531 104.767 291.572 105.374C292.892 106.101 294.017 107.135 294.852 108.387C295.687 109.639 296.209 111.073 296.372 112.568C296.536 114.063 296.337 115.576 295.792 116.978C295.247 118.38 294.372 119.631 293.241 120.626C291.985 121.809 290.318 122.462 288.59 122.446C287.1 122.228 285.653 121.777 284.304 121.108C282.89 120.571 281.276 120.198 279.917 120.871" fill="#263238"/>
<path d="M287.587 122.437C286.958 120.108 286.115 117.841 285.07 115.666C283.874 113.571 282.482 111.593 280.911 109.76C281.515 110.153 282.054 110.638 282.507 111.198C284.856 113.775 286.507 116.907 287.304 120.298C287.508 120.992 287.603 121.714 287.587 122.437V122.437Z" fill="#6A6DB4"/>
<path d="M285.334 116.776C285.024 117.035 284.688 117.261 284.331 117.45C283.37 117.992 282.363 118.448 281.321 118.815C277.859 120.031 274.142 120.344 270.523 119.725C268.532 119.385 266.602 118.753 264.796 117.85C263.292 117.133 262.004 116.031 261.066 114.656C260.447 113.714 260.109 112.616 260.09 111.489C260.082 111.183 260.113 110.878 260.181 110.579C260.227 110.379 260.263 110.279 260.282 110.279C260.3 110.279 260.218 110.716 260.282 111.471C260.369 112.546 260.74 113.579 261.358 114.465C262.853 116.776 266.511 118.524 270.605 119.252C274.154 119.848 277.795 119.585 281.221 118.487C282.625 117.999 283.999 117.428 285.334 116.776V116.776Z" fill="#455A64"/>
<path d="M286.292 121.69C286.292 121.69 286.164 121.918 285.872 122.282C285.452 122.783 284.991 123.249 284.495 123.674C281.193 126.561 276.938 128.13 272.548 128.079C271.894 128.081 271.24 128.027 270.596 127.915C270.131 127.833 269.885 127.778 269.894 127.742C269.903 127.705 270.915 127.796 272.548 127.742C274.672 127.669 276.771 127.26 278.768 126.532C280.746 125.788 282.593 124.734 284.24 123.41C285.562 122.364 286.228 121.599 286.292 121.69Z" fill="#455A64"/>
<path d="M294.91 111.68C295.022 112.268 294.959 112.876 294.728 113.428C294.298 114.822 293.377 116.015 292.135 116.786C290.893 117.557 289.414 117.854 287.97 117.623C287.374 117.575 286.803 117.364 286.319 117.013C286.319 116.94 286.967 117.204 288.007 117.286C289.36 117.415 290.718 117.097 291.871 116.38C293.025 115.663 293.91 114.587 294.391 113.318C294.801 112.381 294.837 111.68 294.91 111.68Z" fill="#455A64"/>
<path d="M391.838 403.235H48.8527L47.959 414.137H114.462V436.933H120.892V414.137H364.952V437.033H371.372V414.137H391.838V403.235Z" fill="#455A64"/>
<path d="M320.556 319.479C320.556 318.987 313.534 287.802 312.996 285.445L318.933 276.7C318.933 276.7 321.103 274.643 320.428 273.724C319.753 272.805 318.604 272.687 317.318 273.524C316.507 274.061 312.248 276.309 312.248 276.309C312.248 276.309 310.633 263.65 310.296 262.74C309.959 261.83 309.074 261.394 308.472 262.058C307.87 262.722 308.034 271.304 308.034 271.304C308.034 271.304 304.614 260.729 303.885 260.311C303.709 260.203 303.511 260.137 303.305 260.117C303.1 260.097 302.893 260.124 302.699 260.196C302.506 260.268 302.331 260.383 302.189 260.532C302.047 260.681 301.941 260.861 301.878 261.057C301.878 261.476 304.222 272.814 304.222 272.814C304.222 272.814 298.75 262.477 297.838 262.804C297.484 262.893 297.169 263.096 296.942 263.383C296.716 263.669 296.592 264.023 296.589 264.388C296.507 265.134 300.237 276.045 300.237 276.045C300.237 276.045 296.06 268.046 295.312 268.3C294.941 268.504 294.646 268.82 294.468 269.203C294.291 269.587 294.241 270.017 294.327 270.43C294.436 271.158 299.635 286.928 300.601 289.831L302.809 327.141L317.829 359.501L331.372 340.591C331.372 340.591 320.556 319.998 320.556 319.479Z" fill="#FFBE9D"/>
<path d="M339.918 328.979C339.918 328.979 338.094 355.369 341.633 359.501C345.171 363.632 352.394 362.558 352.394 362.558L357.082 340.09L339.918 328.979Z" fill="#FFBE9D"/>
<path d="M331.91 340.7L338.769 350.346L354.273 358.463L389.53 376.909C391.343 377.858 392.769 379.407 393.562 381.289C394.356 383.172 394.469 385.272 393.881 387.228L392.659 391.296L379.435 423.929L380.11 437.033L309.73 436.933C309.73 436.933 325.554 385.6 326.055 382.333C326.557 379.066 323.52 374.725 323.52 374.725C323.52 374.725 314.4 368.355 314.4 367.618C314.4 366.881 315.658 341.974 331.91 340.7Z" fill="#6A6DB4"/>
<path d="M330.251 395.227C330.16 395.227 330.251 393.971 330.105 391.979C330.003 390.809 329.82 389.647 329.558 388.502C329.228 387.103 328.808 385.726 328.299 384.38C327.337 381.954 326.158 379.618 324.779 377.4C323.721 375.69 323.001 374.67 323.064 374.67C323.286 374.863 323.482 375.083 323.648 375.326C324.013 375.762 324.496 376.427 325.062 377.273C326.536 379.469 327.76 381.822 328.71 384.289C329.232 385.654 329.649 387.056 329.959 388.484C330.204 389.653 330.357 390.84 330.415 392.033C330.415 392.543 330.415 393.007 330.415 393.407C330.418 393.754 330.4 394.1 330.361 394.445C330.36 394.709 330.323 394.973 330.251 395.227Z" fill="#263238"/>
<path d="M370.324 420.289C369.887 420.499 369.432 420.669 368.965 420.798C368.053 421.099 366.794 421.508 365.198 421.999C362.016 422.991 357.592 424.284 352.677 425.639C347.761 426.995 343.292 428.087 340.045 428.843C338.422 429.225 337.1 429.516 336.188 429.707C335.719 429.835 335.24 429.917 334.756 429.953C335.207 429.777 335.67 429.634 336.142 429.525L339.963 428.515L352.558 425.175L365.107 421.699L368.91 420.644C369.371 420.488 369.844 420.37 370.324 420.289V420.289Z" fill="#263238"/>
<g opacity="0.3">
<path opacity="0.3" d="M368.555 361.33C361.706 358.327 354.017 357.99 346.785 354.66L338.331 350.237C339.152 351.529 341.468 352.603 342.025 354.559C342.437 356.562 342.517 358.619 342.262 360.647C341.98 366.088 342.452 371.542 343.666 376.854C344.423 380.158 345.864 383.834 349.084 384.944C351.227 385.681 353.589 385.044 355.769 384.407C365.49 381.55 377.1 378.465 386.822 375.608C383.922 368.719 375.395 364.324 368.555 361.33Z" fill="black"/>
</g>
<path d="M390.708 330.08C389.65 324.993 388.117 319.797 384.688 315.884C380.703 311.334 374.547 309.05 368.482 308.668C363.284 308.34 362.253 305.793 356.945 306.657C354.902 307.012 352.947 307.76 351.191 308.859C343.758 313.409 339.599 320.889 337.428 329.689C336.617 332.983 336.58 337.087 339.335 339.071C341.332 340.509 344.159 340.318 346.175 341.728C348.409 343.303 348.984 346.433 348.518 349.127C348.053 351.82 346.776 354.295 346.02 356.916C344.196 363.286 345.518 370.057 346.859 376.536L385.6 375.417C387.096 375.371 388.728 375.271 389.814 374.243C390.645 373.28 391.15 372.079 391.255 370.812C393.691 357.325 393.506 343.497 390.708 330.08V330.08Z" fill="#263238"/>
<path d="M340.328 330.881C340.313 330.524 340.344 330.166 340.419 329.817C340.465 329.403 340.535 328.993 340.629 328.588C340.738 328.106 340.829 327.56 341.012 326.968C341.391 325.573 341.879 324.21 342.471 322.891C343.202 321.281 344.072 319.738 345.07 318.278C346.092 316.827 347.233 315.463 348.481 314.201C349.506 313.182 350.61 312.245 351.782 311.398C352.266 311.025 352.749 310.734 353.16 310.488C353.507 310.257 353.866 310.045 354.236 309.851C354.539 309.662 354.863 309.509 355.202 309.396C355.248 309.469 353.907 310.197 351.983 311.689C350.855 312.561 349.788 313.51 348.791 314.529C347.582 315.787 346.469 317.135 345.462 318.56C344.48 320.008 343.611 321.529 342.863 323.11C342.264 324.403 341.752 325.734 341.331 327.096C340.62 329.389 340.419 330.899 340.328 330.881Z" fill="#455A64"/>
<path d="M344.943 336.35C344.869 335.489 344.896 334.621 345.025 333.766C345.225 331.69 345.588 329.633 346.11 327.614C346.632 325.597 347.309 323.622 348.135 321.708C348.44 320.898 348.838 320.126 349.32 319.406C349.075 320.234 348.77 321.043 348.408 321.827C346.948 325.699 345.911 329.717 345.317 333.811C345.254 334.666 345.129 335.514 344.943 336.35V336.35Z" fill="#455A64"/>
<path d="M382.827 368.482C382.748 368.283 382.69 368.075 382.654 367.864C382.545 367.454 382.426 366.835 382.28 366.044C381.929 363.795 381.749 361.522 381.742 359.246C381.742 356.37 381.934 352.94 382.244 349.154C382.65 345.063 382.839 340.953 382.809 336.842C382.793 332.74 382.052 328.674 380.62 324.83C379.399 321.712 377.509 318.898 375.085 316.585C373.442 315.033 371.512 313.815 369.403 313C368.826 312.787 368.238 312.605 367.643 312.454C367.43 312.411 367.222 312.347 367.022 312.263C367.238 312.28 367.451 312.313 367.661 312.363C368.281 312.467 368.891 312.622 369.485 312.827C371.654 313.585 373.644 314.781 375.331 316.339C377.833 318.656 379.787 321.501 381.049 324.666C382.522 328.555 383.285 332.675 383.302 336.833C383.335 340.96 383.134 345.086 382.7 349.19C382.362 352.976 382.116 356.379 382.098 359.246C382.07 361.509 382.201 363.771 382.49 366.016C382.599 366.808 382.691 367.427 382.764 367.836C382.81 368.048 382.831 368.265 382.827 368.482V368.482Z" fill="#455A64"/>
<path d="M379.207 367.909C379.022 366.949 378.918 365.975 378.897 364.997C378.787 363.177 378.714 360.702 378.76 357.935C378.806 355.169 378.997 352.685 379.179 350.892C379.23 349.913 379.374 348.941 379.608 347.989C379.64 348.964 379.61 349.94 379.517 350.91C379.417 352.73 379.298 355.196 379.234 357.945C379.17 360.693 379.234 363.186 379.234 364.988C379.3 365.961 379.29 366.938 379.207 367.909V367.909Z" fill="#455A64"/>
<path d="M204.668 342.484C205.045 347.483 205.416 352.475 205.781 357.462C202.005 358.154 198.084 358.582 194.354 357.69C190.624 356.798 187.058 354.368 185.735 350.774C185.439 350.092 185.35 349.339 185.48 348.608C185.559 348.249 185.744 347.922 186.013 347.67C186.282 347.418 186.62 347.253 186.985 347.197" fill="#FFBE9D"/>
<path d="M214.782 326.513C215.374 324.693 217.873 323.565 217.892 321.645C217.91 319.725 215.274 318.551 214.499 316.685C213.332 313.873 216.788 310.888 215.986 307.976C215.074 304.482 209.018 304.109 207.896 300.696C207.431 299.268 207.896 297.475 206.729 296.447C205.215 295.1 202.57 296.447 200.664 295.637C198.904 294.872 198.448 292.534 196.688 291.751C194.927 290.969 192.757 292.279 190.988 293.289C190.459 293.598 189.793 293.99 189.109 294.345C186.108 293.362 181.33 293.498 179.278 295.1C176.861 296.975 175.018 299.486 172.328 301.006C169.966 302.353 167.02 302.89 165.132 304.791C161.776 308.177 163.582 313.728 161.867 318.05C161.284 319.524 160.29 320.835 159.66 322.291C159.031 323.747 158.84 325.53 159.806 326.841C160.773 328.151 162.798 328.879 162.834 330.481C162.871 332.082 160.837 333.156 161.01 334.685C161.183 336.214 163.682 336.742 164.749 338.088C166.145 339.836 164.749 342.566 165.953 344.458C167.276 346.469 170.458 346.042 172.912 346.624C177.189 347.634 180.363 352.284 184.704 351.584C186.364 351.311 187.796 350.255 189.455 349.991C191.699 349.636 193.879 350.765 196.131 351.038C200.199 351.538 204.002 349.272 207.376 347.097C209.109 345.987 210.97 344.695 211.416 342.784C211.827 341.055 210.988 339.144 211.918 337.551C212.848 335.959 214.909 335.604 215.675 334.112C216.879 331.682 213.988 328.979 214.782 326.513Z" fill="#263238"/>
<path d="M171.398 308.604C171.339 308.496 171.296 308.379 171.27 308.259C171.193 307.915 171.163 307.563 171.179 307.212C171.266 305.899 171.842 304.666 172.793 303.754C174.21 302.426 176.003 301.567 177.928 301.297C179.095 301.104 180.292 301.372 181.266 302.043C181.763 302.441 182.146 302.962 182.378 303.554C182.616 304.178 182.616 304.868 182.378 305.492C182.259 305.814 182.06 306.1 181.8 306.324C181.54 306.548 181.228 306.703 180.892 306.775C180.543 306.853 180.178 306.805 179.861 306.639C179.554 306.463 179.325 306.177 179.223 305.838C179.146 305.529 179.135 305.207 179.192 304.893C179.248 304.579 179.371 304.281 179.551 304.018C179.888 303.534 180.357 303.155 180.901 302.926C181.822 302.547 182.847 302.502 183.798 302.798C184.749 303.093 185.566 303.712 186.109 304.546C186.807 305.66 187.088 306.985 186.902 308.286C186.867 308.633 186.793 308.974 186.683 309.305C186.601 309.533 186.555 309.642 186.537 309.642C186.519 309.642 186.665 309.15 186.72 308.268C186.818 307.022 186.497 305.78 185.808 304.737C185.34 304.032 184.65 303.504 183.847 303.235C182.936 302.913 181.937 302.942 181.047 303.317C180.593 303.515 180.2 303.829 179.907 304.227C179.766 304.436 179.669 304.671 179.624 304.919C179.578 305.166 179.585 305.42 179.642 305.665C179.712 305.893 179.869 306.085 180.078 306.199C180.288 306.313 180.534 306.34 180.764 306.275C181.024 306.219 181.265 306.099 181.466 305.926C181.667 305.753 181.821 305.531 181.913 305.283C182.061 304.755 182.046 304.195 181.871 303.675C181.695 303.156 181.367 302.701 180.928 302.371C180.051 301.764 178.972 301.523 177.919 301.697C176.083 301.942 174.362 302.728 172.976 303.954C172.049 304.8 171.456 305.949 171.307 307.194C171.303 307.666 171.334 308.137 171.398 308.604V308.604Z" fill="#455A64"/>
<path d="M167.003 326.195C166.811 325.922 166.681 325.612 166.62 325.285C166.333 324.172 166.375 323.001 166.739 321.912C167.103 320.822 167.774 319.861 168.672 319.142C169.353 318.611 170.138 318.227 170.977 318.016C171.816 317.804 172.689 317.769 173.542 317.914L173.268 318.187C173.168 317.523 173.168 316.848 173.268 316.185C173.409 315.216 173.746 314.287 174.259 313.453C174.771 312.619 175.449 311.898 176.25 311.334C177.366 310.604 178.668 310.209 180.002 310.196C181.336 310.183 182.645 310.553 183.774 311.262C184.016 311.42 184.244 311.596 184.458 311.789C184.595 311.926 184.668 311.999 184.659 312.008C184.323 311.832 183.998 311.637 183.683 311.425C182.783 310.935 181.788 310.644 180.765 310.57C179.257 310.444 177.752 310.843 176.506 311.698C175.769 312.237 175.148 312.917 174.678 313.698C174.208 314.479 173.899 315.346 173.77 316.248C173.674 316.867 173.674 317.496 173.77 318.114L173.815 318.441L173.496 318.378C172.701 318.238 171.886 318.264 171.101 318.453C170.316 318.643 169.579 318.992 168.936 319.479C167.895 320.267 167.162 321.394 166.866 322.664C166.66 323.511 166.639 324.392 166.802 325.248C166.912 325.858 167.003 326.177 167.003 326.195Z" fill="#455A64"/>
<path d="M198.64 301.252C198.64 301.324 198.002 301.133 196.998 301.088C195.69 301.006 194.383 301.271 193.209 301.854C192.036 302.437 191.037 303.318 190.313 304.409C189.748 305.237 189.529 305.847 189.456 305.82C189.511 305.249 189.709 304.702 190.031 304.227C190.721 303.022 191.754 302.049 193 301.43C194.245 300.812 195.646 300.575 197.026 300.751C197.598 300.776 198.154 300.949 198.64 301.252V301.252Z" fill="#455A64"/>
<path d="M211.855 325.321C211.855 325.321 212.028 324.984 212.274 324.411C212.603 323.541 212.73 322.608 212.648 321.681C212.555 320.32 211.965 319.041 210.988 318.087C210.379 317.527 209.657 317.104 208.871 316.845C208.084 316.586 207.252 316.498 206.428 316.585C205.655 316.67 204.907 316.912 204.23 317.295L203.747 317.586L203.893 317.04C204.051 316.381 204.051 315.693 203.893 315.034C203.734 314.374 203.422 313.761 202.981 313.245C202.622 312.833 202.183 312.498 201.691 312.259C201.199 312.019 200.664 311.881 200.117 311.853C199.379 311.809 198.641 311.944 197.965 312.244C197.728 312.375 197.485 312.494 197.235 312.599C197.414 312.383 197.638 312.209 197.892 312.09C198.576 311.715 199.347 311.53 200.126 311.553C200.722 311.557 201.311 311.685 201.855 311.93C202.398 312.174 202.884 312.529 203.282 312.972C203.782 313.534 204.14 314.208 204.324 314.936C204.508 315.665 204.513 316.427 204.34 317.158L203.993 316.894C204.726 316.47 205.54 316.203 206.383 316.112C207.272 316.018 208.171 316.118 209.018 316.403C209.865 316.689 210.64 317.155 211.289 317.768C212.137 318.637 212.701 319.743 212.906 320.939C213.111 322.135 212.948 323.364 212.438 324.466C212.329 324.701 212.194 324.923 212.037 325.13C211.928 325.257 211.873 325.33 211.855 325.321Z" fill="#455A64"/>
<path d="M162.981 409.687C162.981 409.687 151.717 411.953 150.03 410.752C148.343 409.551 142.096 405.474 143.053 399.95C144.011 394.426 155.566 355.078 157.965 352.193C160.363 349.309 162.78 346.433 167.586 346.679C172.392 346.924 203.902 353.631 203.902 353.631C203.902 353.631 216.889 352.912 219.534 354.832C222.178 356.752 228.198 360.356 228.198 367.072C228.198 373.788 226.866 419.852 226.866 419.852L230.368 436.769H161.056L162.99 409.687" fill="#6A6DB4"/>
<path d="M162.981 409.687C162.844 409.687 162.014 400.587 161.157 389.258C160.3 377.928 159.652 368.792 159.78 368.783C159.907 368.773 160.746 377.883 161.604 389.221C162.461 400.56 163.109 409.678 162.981 409.687Z" fill="#263238"/>
<path d="M60.709 357.835C60.481 352.476 55.8298 342.82 53.9146 333.329C52.9387 328.479 52.355 324.165 55.4923 320.325C58.1462 317.077 61.8763 314.865 65.5243 312.809C71.352 309.505 77.508 306.257 84.193 305.893C88.5523 305.656 93.2582 306.875 96.049 310.224C98.3381 312.954 98.9856 316.703 99.4325 320.234C100.188 326.136 100.611 332.076 100.7 338.025C100.865 341.117 100.557 344.216 99.7882 347.216C99.3965 348.714 98.7113 350.12 97.7721 351.352C96.8329 352.584 95.6583 353.619 94.3162 354.396C91.945 355.624 89.1178 355.733 86.7466 356.962C84.3754 358.19 82.6243 361.512 84.3845 363.477L68.6981 367.754L60.709 357.835Z" fill="#A36957"/>
<path d="M57.435 350.018C58.2416 351.698 59.3795 353.198 60.7804 354.428C62.1813 355.659 63.8165 356.595 65.5883 357.18C67.3741 357.734 69.2755 357.802 71.0966 357.378C72.9177 356.954 74.5926 356.054 75.9486 354.769C77.4899 353.194 78.4019 351.129 79.4507 349.19C80.4995 347.252 81.7945 345.305 83.7735 344.313C85.7526 343.321 88.5706 343.63 89.665 345.55C90.0298 346.151 90.2579 346.915 90.8871 347.234C91.3069 347.377 91.7662 347.349 92.1656 347.157C92.565 346.964 92.8723 346.622 93.0212 346.206C93.2843 345.358 93.3064 344.454 93.085 343.594C92.4033 340.361 92.0459 337.069 92.018 333.766C92.1457 330.472 93.1033 327.077 95.3742 324.666C97.1161 322.846 99.4782 321.699 101.558 320.252C103.637 318.805 105.589 316.74 105.762 314.21C105.917 311.953 104.594 309.815 102.916 308.286C99.2684 304.955 84.8679 302.389 80.2715 304.255C80.2715 304.255 60.9553 312.636 60.0068 313.309C59.0583 313.982 52.0906 316.43 52.2548 324.921C52.419 333.411 57.435 350.018 57.435 350.018Z" fill="#263238"/>
<path d="M60.709 357.835C60.481 352.476 55.8298 342.82 53.9146 333.329C52.9387 328.479 52.355 324.165 55.4923 320.325C58.1462 317.077 61.8763 314.865 65.5243 312.809C71.352 309.505 77.508 306.257 84.193 305.893C88.5523 305.656 93.2582 306.875 96.049 310.224C98.3381 312.954 98.9856 316.703 99.4325 320.234C100.188 326.136 100.611 332.076 100.7 338.025C100.865 341.117 100.557 344.216 99.7882 347.216C99.3965 348.714 98.7113 350.12 97.7721 351.352C96.8329 352.584 95.6583 353.619 94.3162 354.396C91.945 355.624 89.1178 355.733 86.7466 356.962C84.3754 358.19 82.6243 361.512 84.3845 363.477L68.6981 367.754L60.709 357.835Z" fill="#A36957"/>
<path d="M106.081 307.758C105.854 307.529 105.583 307.35 105.283 307.231C104.984 307.113 104.663 307.057 104.341 307.068C104.018 307.079 103.702 307.157 103.412 307.296C103.121 307.435 102.862 307.633 102.652 307.876C103.275 307.047 103.542 306.005 103.395 304.98C103.248 303.954 102.699 303.029 101.868 302.407C101.037 301.786 99.9926 301.519 98.9647 301.666C97.9368 301.813 97.0094 302.361 96.3865 303.19C96.7749 302.346 96.8543 301.393 96.611 300.497C96.3677 299.601 95.8171 298.818 95.055 298.285C94.2764 297.778 93.3953 297.45 92.4746 297.322C91.5539 297.195 90.6163 297.272 89.7289 297.548C87.9555 298.113 86.2927 298.978 84.8133 300.105C84.7956 299.489 84.6106 298.889 84.2781 298.37C83.9456 297.851 83.4781 297.432 82.9254 297.157C81.8129 296.616 80.5735 296.39 79.3413 296.501C76.9442 296.629 74.6174 297.353 72.5734 298.609C70.5293 299.865 68.8333 301.612 67.6403 303.69C66.4296 303.205 65.1038 303.079 63.8233 303.33C62.5427 303.581 61.3625 304.196 60.4254 305.102C59.4883 306.008 58.8346 307.166 58.5435 308.435C58.2523 309.705 58.3361 311.031 58.7848 312.254C57.5067 312.517 56.3602 313.216 55.5417 314.23C54.7231 315.245 54.2834 316.511 54.2977 317.814C52.8451 319.898 52.1266 322.404 52.2549 324.939C52.4555 333.447 57.435 350.037 57.435 350.037C58.2417 351.716 59.3795 353.216 60.7804 354.446C62.1813 355.677 63.8166 356.613 65.5883 357.198C67.3741 357.752 69.2755 357.82 71.0966 357.396C72.9177 356.973 74.5926 356.072 75.9486 354.787C77.4899 353.213 78.4019 351.147 79.4507 349.209C80.4995 347.27 81.8037 345.323 83.7736 344.331C85.7435 343.339 88.0144 344.022 90.1576 344.64C92.0819 345.196 92.0819 343.949 92.2005 342.484L92.0363 333.757C92.164 330.463 93.1216 327.068 95.3925 324.657C97.1344 322.837 99.4965 321.69 101.576 320.243C103.655 318.796 105.607 316.731 105.78 314.201C105.803 313.833 105.785 313.464 105.725 313.1C106.147 312.598 106.48 312.029 106.71 311.416C106.956 310.808 107.028 310.144 106.916 309.498C106.805 308.852 106.516 308.249 106.081 307.758V307.758Z" fill="#263238"/>
<path d="M80.2262 322.118C80.2073 322.433 80.13 322.741 79.9982 323.028C79.5817 324.065 78.8665 324.956 77.9428 325.588C77.0192 326.219 75.9286 326.564 74.8089 326.577C73.9613 326.584 73.1221 326.408 72.3492 326.061C71.5762 325.714 70.8877 325.204 70.331 324.566H70.7049C70.311 325.145 69.8278 325.658 69.2731 326.086C68.5032 326.675 67.6203 327.1 66.679 327.335C65.7378 327.57 64.7582 327.609 63.801 327.451C62.2505 327.153 60.857 326.314 59.8703 325.085C59.2045 324.28 58.7417 323.329 58.5206 322.309C58.4588 322.034 58.4221 321.754 58.4111 321.472C58.4111 321.281 58.4111 321.181 58.4111 321.181C58.4111 321.181 58.4841 321.572 58.6756 322.264C58.9633 323.225 59.4512 324.115 60.1075 324.875C61.0946 326.016 62.455 326.77 63.947 327.005C64.837 327.135 65.7443 327.086 66.6151 326.861C67.486 326.636 68.3029 326.239 69.0177 325.694C69.5279 325.297 69.9712 324.821 70.331 324.284L70.5043 324.029L70.7049 324.266C71.215 324.853 71.8432 325.326 72.5487 325.656C73.2541 325.985 74.0211 326.162 74.7998 326.177C76.0697 326.196 77.3039 325.756 78.2745 324.939C78.9299 324.403 79.4619 323.733 79.834 322.973C80.1076 322.427 80.1897 322.109 80.2262 322.118Z" fill="#455A64"/>
<path d="M92.7662 316.358C92.9117 316.585 93.0029 316.843 93.033 317.111C93.063 317.379 93.031 317.651 92.9395 317.905C92.8022 318.477 92.5123 319.002 92.1005 319.424C91.5942 319.92 90.9645 320.272 90.2765 320.444C89.0205 320.706 87.7137 320.573 86.5373 320.061C86.0415 319.91 85.5821 319.66 85.1875 319.324C85.6876 319.411 86.1769 319.551 86.6467 319.743C87.776 320.128 88.987 320.21 90.1579 319.979C90.7841 319.826 91.3594 319.513 91.8269 319.069C92.2091 318.716 92.4947 318.271 92.6568 317.777C92.7608 317.312 92.7976 316.834 92.7662 316.358V316.358Z" fill="#455A64"/>
<path d="M101.704 313.245C101.787 313.768 101.701 314.304 101.458 314.774C100.989 315.98 100.067 316.956 98.8889 317.495C97.7105 318.033 96.3679 318.092 95.1466 317.659C94.6323 317.532 94.1702 317.249 93.8242 316.849C93.8242 316.776 94.3532 317.113 95.2378 317.34C96.3854 317.634 97.5983 317.538 98.6852 317.067C99.7564 316.557 100.624 315.701 101.148 314.638C101.558 313.828 101.631 313.236 101.704 313.245Z" fill="#455A64"/>
<path d="M90.8506 307.13C90.0192 306.583 89.0904 306.2 88.1146 306.002C86.9594 305.786 85.7651 305.956 84.7165 306.486C83.668 307.015 82.8236 307.875 82.3143 308.932C81.9855 309.575 81.7901 310.278 81.7397 310.998L81.2746 310.97C81.2651 310.49 81.0861 310.029 80.7691 309.668C80.4521 309.307 80.0174 309.069 79.5418 308.996C78.748 308.865 77.934 309.037 77.2618 309.478C76.6533 309.923 76.0688 310.4 75.5107 310.907C75.5107 310.907 75.6019 310.697 75.8573 310.388C76.2141 309.946 76.6317 309.557 77.0976 309.232C77.4574 308.965 77.8669 308.772 78.3021 308.664C78.7374 308.557 79.1898 308.536 79.633 308.604C80.1734 308.71 80.6729 308.965 81.0739 309.342C81.3034 309.553 81.4823 309.813 81.5975 310.103C81.7127 310.393 81.7613 310.705 81.7397 311.016L81.2746 310.97C81.3491 309.875 81.7306 308.822 82.3755 307.932C83.0205 307.043 83.9031 306.352 84.9226 305.938C85.9781 305.522 87.134 305.43 88.2423 305.674C88.9836 305.828 89.6833 306.138 90.2943 306.584C90.6864 306.885 90.8688 307.112 90.8506 307.13Z" fill="#455A64"/>
<path d="M82.2873 300.533C82.2873 300.605 81.8587 300.624 81.2203 300.833C80.3952 301.097 79.668 301.601 79.1318 302.28C78.5905 302.966 78.2723 303.801 78.2198 304.673C78.243 305.043 78.243 305.414 78.2198 305.783C78.1742 305.783 77.9462 305.401 77.9006 304.673C77.8395 303.71 78.13 302.757 78.7185 301.991C79.3069 301.225 80.1535 300.697 81.1017 300.505C81.8495 300.369 82.2964 300.478 82.2873 300.533Z" fill="#455A64"/>
<path d="M64.5397 311.161C64.4941 311.161 64.64 310.479 65.4517 309.842C65.9485 309.476 66.528 309.239 67.1389 309.15C67.8749 309.05 68.6241 309.122 69.3277 309.36C70.562 309.818 71.6689 310.564 72.5562 311.535C73.2493 312.253 73.6141 312.736 73.5685 312.781C73.1184 312.496 72.7022 312.16 72.3282 311.78C71.4195 310.925 70.3502 310.257 69.1818 309.815C68.5466 309.596 67.8712 309.518 67.2027 309.587C66.6596 309.65 66.1366 309.83 65.6706 310.115C64.8589 310.615 64.6127 311.207 64.5397 311.161Z" fill="#455A64"/>
<path d="M73.7695 318.469C73.396 317.666 73.3156 316.758 73.5421 315.902C73.7686 315.046 74.2878 314.296 75.0098 313.782C74.6179 314.501 74.2825 315.25 74.0067 316.021C73.8714 316.83 73.7922 317.648 73.7695 318.469V318.469Z" fill="#455A64"/>
<path d="M124.932 353.604L111.708 357.89L114.243 382.151L113.331 383.971L103.509 400.05C103.336 400.332 113.477 402.707 117.298 403.526C122.068 404.546 134.626 403.527 132.802 387.765C131.434 376.636 124.932 353.604 124.932 353.604Z" fill="#A36957"/>
<path d="M110.678 336.196C109.631 336.713 108.742 337.499 108.101 338.473C107.459 339.447 107.09 340.574 107.03 341.737C107 342.052 107.063 342.369 107.212 342.647C107.399 342.881 107.662 343.042 107.955 343.102C108.248 343.162 108.554 343.117 108.817 342.975C109.34 342.68 109.782 342.262 110.103 341.756" fill="#A36957"/>
<path d="M110.131 341.774C110.131 341.774 110.131 341.938 109.93 342.183C109.699 342.552 109.387 342.863 109.018 343.093C108.744 343.259 108.427 343.341 108.106 343.33C107.911 343.333 107.718 343.292 107.541 343.21C107.364 343.128 107.208 343.007 107.085 342.857C106.859 342.513 106.762 342.1 106.811 341.692C106.826 341.29 106.881 340.891 106.975 340.5C107.3 339.129 108.065 337.901 109.155 337.005C109.572 336.602 110.093 336.322 110.66 336.196C110.66 336.268 110.113 336.55 109.374 337.251C108.422 338.166 107.749 339.33 107.431 340.609C107.349 340.971 107.297 341.339 107.276 341.71C107.228 342.023 107.286 342.344 107.441 342.62C107.623 342.801 107.859 342.918 108.114 342.954C108.369 342.99 108.628 342.943 108.854 342.82C109.197 342.627 109.506 342.378 109.766 342.083C109.985 341.91 110.113 341.747 110.131 341.774Z" fill="#7C3B29"/>
<path d="M118.43 336.25C118.43 336.25 111.918 338.844 111.134 340.937C110.35 343.03 108.872 350.837 108.872 350.837L111.763 358.39L124.714 355.806C124.714 355.806 126.702 340.409 126.838 339.954C126.838 339.954 131.398 327.059 131.344 325.876C131.344 324.284 130.076 323.756 128.507 325.621C126.939 327.487 123.455 334.594 123.455 334.594L118.43 336.25Z" fill="#A36957"/>
<path d="M117.217 333.156C115.903 332.979 114.565 333.155 113.341 333.666C112.229 334.303 111.386 335.322 110.97 336.532C110.568 337.735 110.311 338.982 110.204 340.245C110.085 341.155 110.049 342.329 110.815 342.902C111.006 343.038 111.227 343.123 111.46 343.152C111.692 343.18 111.928 343.151 112.146 343.066C112.362 342.972 112.55 342.825 112.694 342.639C112.837 342.453 112.931 342.234 112.967 342.001" fill="#A36957"/>
<path d="M112.967 342.001C112.967 342.001 113.031 342.274 112.775 342.675C112.619 342.918 112.389 343.106 112.119 343.212C111.753 343.357 111.345 343.357 110.979 343.212C110.76 343.113 110.565 342.969 110.408 342.788C110.25 342.608 110.134 342.395 110.067 342.165C109.928 341.668 109.884 341.149 109.939 340.636C110.019 339.51 110.196 338.393 110.468 337.297C110.747 336.166 111.323 335.129 112.137 334.294C112.826 333.627 113.712 333.2 114.663 333.074C115.269 333.001 115.881 333.001 116.487 333.074C116.718 333.071 116.947 333.111 117.162 333.193C117.162 333.293 116.177 333.193 114.672 333.429C113.809 333.58 113.015 333.997 112.401 334.621C111.664 335.418 111.143 336.389 110.887 337.442C110.62 338.51 110.431 339.596 110.322 340.691C110.261 341.15 110.286 341.615 110.395 342.065C110.439 342.248 110.523 342.418 110.639 342.566C110.756 342.714 110.903 342.834 111.07 342.92C111.32 343.046 111.605 343.082 111.878 343.025C112.152 342.967 112.397 342.818 112.575 342.602C112.722 342.413 112.854 342.212 112.967 342.001V342.001Z" fill="#7C3B29"/>
<path d="M123.227 334.412C122.471 333.495 121.468 332.813 120.336 332.446C119.701 332.348 119.052 332.4 118.44 332.598C117.829 332.795 117.272 333.133 116.816 333.584C115.91 334.494 115.184 335.565 114.672 336.742C114.207 337.697 113.76 338.671 113.368 339.663C113.129 340.185 112.969 340.74 112.894 341.31C112.856 341.594 112.876 341.884 112.952 342.161C113.029 342.438 113.161 342.696 113.341 342.92C113.648 343.228 114.047 343.428 114.478 343.49C114.909 343.552 115.348 343.474 115.73 343.266C116.491 342.833 117.059 342.127 117.317 341.292" fill="#A36957"/>
<path d="M117.335 341.292C117.298 341.599 117.192 341.895 117.025 342.156C116.836 342.547 116.556 342.887 116.209 343.148C115.861 343.409 115.457 343.584 115.028 343.658C114.719 343.706 114.403 343.684 114.103 343.594C113.803 343.505 113.527 343.349 113.295 343.139C113.05 342.874 112.87 342.557 112.769 342.211C112.667 341.865 112.648 341.501 112.712 341.146C112.839 340.418 113.072 339.713 113.405 339.053C113.715 338.361 114.034 337.652 114.317 336.915C114.883 335.488 115.776 334.213 116.925 333.193C117.419 332.767 118.008 332.466 118.643 332.316C119.278 332.165 119.94 332.17 120.573 332.328C121.376 332.61 122.096 333.085 122.671 333.711C123.081 334.139 123.282 334.394 123.254 334.412C122.999 334.249 122.76 334.059 122.543 333.848C121.952 333.304 121.248 332.897 120.482 332.656C119.908 332.544 119.317 332.568 118.754 332.726C118.192 332.884 117.675 333.172 117.244 333.566C116.168 334.563 115.33 335.788 114.791 337.151L113.879 339.253C113.558 339.88 113.325 340.547 113.186 341.237C113.13 341.526 113.14 341.824 113.214 342.109C113.288 342.394 113.425 342.658 113.614 342.884C113.803 343.061 114.028 343.194 114.274 343.275C114.52 343.355 114.78 343.38 115.037 343.348C115.424 343.288 115.793 343.144 116.118 342.925C116.443 342.706 116.715 342.419 116.916 342.083C117.189 341.583 117.299 341.273 117.335 341.292Z" fill="#7C3B29"/>
<path d="M118.667 346.206L117.819 341.774C116.18 341.512 114.632 340.85 113.314 339.845C112.867 338.671 113.487 337.934 115.138 337.479C116.788 337.024 121.941 337.77 122.507 338.079C124.486 339.144 124.723 341.91 125.005 344.14" fill="#A36957"/>
<path d="M124.987 344.14C124.877 343.799 124.801 343.449 124.759 343.093C124.624 342.144 124.392 341.211 124.066 340.309C123.845 339.704 123.489 339.156 123.027 338.707C122.769 338.464 122.456 338.286 122.115 338.189C121.759 338.098 121.376 338.025 120.975 337.961C119.253 337.662 117.505 337.543 115.758 337.606C115.107 337.673 114.481 337.894 113.934 338.252C113.692 338.408 113.516 338.648 113.442 338.926C113.396 339.208 113.427 339.497 113.533 339.763L113.46 339.663C114.747 340.651 116.255 341.313 117.856 341.592H117.983V341.71C118.202 343.002 118.385 344.094 118.531 344.968C118.621 345.365 118.663 345.771 118.658 346.178C118.513 345.799 118.406 345.405 118.339 345.004C118.147 344.14 117.91 343.057 117.637 341.774L117.783 341.92C116.103 341.674 114.513 341.011 113.159 339.99V339.99V339.927C113.017 339.581 112.976 339.202 113.04 338.835C113.147 338.462 113.383 338.139 113.706 337.925C114.329 337.5 115.052 337.243 115.804 337.178C117.588 337.114 119.375 337.249 121.13 337.579C121.529 337.641 121.925 337.726 122.315 337.834C122.701 337.959 123.051 338.174 123.337 338.461C123.829 338.961 124.204 339.564 124.431 340.227C124.733 341.162 124.92 342.131 124.987 343.112C125.03 343.453 125.03 343.798 124.987 344.14V344.14Z" fill="#7C3B29"/>
<path d="M117.326 344.64C116.926 344.721 116.521 344.77 116.113 344.786C115.161 344.915 114.252 345.265 113.46 345.809C112.667 346.353 112.015 347.075 111.553 347.916C111.188 348.563 111.052 349.018 110.979 348.999C110.906 348.981 110.979 348.499 111.252 347.771C111.659 346.821 112.327 346.005 113.179 345.419C114.032 344.832 115.033 344.499 116.068 344.458C116.843 344.449 117.344 344.64 117.326 344.64Z" fill="#7C3B29"/>
<path d="M122.197 386.173C120.791 385.699 119.417 385.137 118.083 384.489C116.688 383.988 115.326 383.399 114.007 382.724C115.484 382.958 116.918 383.405 118.266 384.052C119.675 384.559 121 385.274 122.197 386.173V386.173Z" fill="#7C3B29"/>
<path d="M77.6269 360.465C78.466 360.183 91.5714 362.54 95.3836 364.233C97.5359 365.188 115.785 379.958 115.785 379.958L102.379 401.898L93.5869 398.704L93.4866 437.078L38.7666 436.933L39.9522 375.644C39.9522 375.644 43.8829 359.583 50.5679 357.635C57.2528 355.688 77.6269 360.465 77.6269 360.465Z" fill="#6A6DB4"/>
<path d="M92.3827 399.24C92.2316 399.24 92.0812 399.218 91.9359 399.177C91.5078 399.101 91.0845 399.001 90.6682 398.876C89.1316 398.413 87.6719 397.726 86.3362 396.838C84.339 395.54 82.6188 393.861 81.2746 391.897C79.5818 389.494 78.5618 386.684 78.3197 383.757C78.0777 380.83 78.6223 377.891 79.8974 375.244C80.8931 373.079 82.3063 371.131 84.0562 369.511C85.2217 368.405 86.5504 367.484 87.996 366.781C88.3824 366.585 88.7816 366.414 89.1907 366.271C89.3274 366.208 89.4714 366.162 89.6194 366.135C87.6638 367.067 85.8643 368.295 84.2842 369.775C82.6267 371.391 81.2954 373.309 80.3626 375.426C79.1411 378.012 78.622 380.873 78.8572 383.722C79.0925 386.571 80.0739 389.309 81.7032 391.66C82.9974 393.601 84.6502 395.278 86.5733 396.601C88.3623 397.774 90.3218 398.664 92.3827 399.24V399.24Z" fill="#263238"/>
<path d="M83.0988 434.339C82.9712 434.339 83.2995 426.677 83.8284 417.24C84.3574 407.803 84.9228 400.15 85.0049 400.15C85.087 400.15 84.8134 407.813 84.2753 417.258C83.7372 426.704 83.2083 434.348 83.0988 434.339Z" fill="#263238"/>
<path d="M69.2002 411.607C68.9723 411.902 68.7123 412.171 68.425 412.408C67.9143 412.909 67.1482 413.6 66.1906 414.437C64.2663 416.121 61.5394 418.36 58.4204 420.689C55.3014 423.019 52.3556 424.984 50.2124 426.349C49.1362 427.032 48.2516 427.56 47.6314 427.915C47.3229 428.12 46.9926 428.291 46.6465 428.424C46.9244 428.169 47.2304 427.946 47.5585 427.76L50.0574 426.067C52.1732 424.639 55.0642 422.637 58.1742 420.316C61.2841 417.996 64.0383 415.766 66.0174 414.183L68.3521 412.272C68.615 412.026 68.8988 411.804 69.2002 411.607V411.607Z" fill="#263238"/>
</svg>
