<svg width="565" height="347" viewBox="0 0 565 347" fill="none" xmlns="http://www.w3.org/2000/svg">
<g opacity="0.5">
<path d="M106.512 291.342C106.512 291.342 110.033 272.108 95.0011 269.974C95.0011 269.974 84.8308 269.79 78.9178 273.742C78.9178 273.742 96.0786 283.28 94.1076 286.362C92.1366 289.445 75.738 274.348 75.738 274.348C75.738 274.348 57.6574 282.674 53.6891 288.523C53.6891 288.523 75.2912 292.001 72.6106 294.504C69.9564 297.007 47.3031 294.451 47.3031 294.451C47.3031 294.451 32.9543 306.466 39.4454 315.714C45.9366 324.962 53.1898 324.777 55.4499 323.091C57.7099 321.431 68.695 307.783 70.1403 309.601C71.5857 311.393 66.8554 322.828 61.1001 326.595C61.1001 326.595 79.5223 332.471 84.9097 324.514C90.297 316.583 87.6428 310.523 91.0591 305.675C94.4755 300.827 98.4438 298.509 97.7868 301.802C97.1298 305.096 89.9291 312.13 90.0079 318.401C90.0868 324.672 89.5349 329.256 96.5779 323.565C103.621 317.901 112.898 304.911 109.665 298.113C106.512 291.342 106.512 291.342 106.512 291.342Z" fill="#82B378"/>
<path d="M47.4873 311.419C47.4873 311.419 89.7717 284.518 106.538 291.342C106.538 291.342 112.346 296.454 122.175 298.43L124.803 300.616C124.803 300.616 112.714 297.06 109.744 298.14C109.718 298.14 105.014 280.329 47.4873 311.419Z" fill="#82B378"/>
<path d="M122.174 298.43C122.174 298.43 135.446 299.905 143.251 311.814L141.648 312.947C141.648 312.947 131.293 301.96 123.041 300.116C114.79 298.272 122.174 298.43 122.174 298.43Z" fill="#82B378"/>
</g>
<path opacity="0.5" d="M121.438 86.4364C121.438 86.4364 120.413 110.992 115.867 110.518C111.321 110.044 118.994 83.2483 118.994 83.2483C118.994 83.2483 99.626 67.6505 90.8748 66.4912C90.8748 66.4912 99.0741 92.6017 94.7905 91.0209C90.5069 89.44 80.7045 62.6444 80.7045 62.6444C80.7045 62.6444 59.3126 53.291 52.6375 65.7271C45.9625 78.1896 50.2198 86.1729 53.3471 87.7801C56.4744 89.3873 77.7874 94.0509 76.6048 96.6856C75.4222 99.3204 60.0222 100.401 52.6113 96.0533C52.6113 96.0533 56.3693 119.977 68.2215 121.558C80.0738 123.139 85.3297 116.789 92.6355 117.895C99.9413 119.002 104.751 122.164 100.703 123.27C96.6564 124.377 84.8304 120.24 77.8662 123.824C70.9283 127.407 65.5147 129.357 75.7901 134.099C86.0393 138.816 105.697 141.925 111.478 134.521C111.741 134.205 111.978 133.889 112.214 133.599C111.82 134.231 111.478 134.521 111.478 134.521C113.186 136.154 114.895 142.372 115.972 147.115C116.103 147.906 116.34 149.012 116.708 150.54C116.839 151.225 116.944 151.779 117.023 152.174C118.626 162.581 112.792 178.548 112.792 178.548L114.947 179.707C123.882 164.32 118.101 148.643 118.101 148.643C114.816 136.497 117.26 127.144 117.26 127.144C117.26 127.144 140.649 120.346 134.657 102.324C134.631 102.35 129.138 90.8628 121.438 86.4364Z" fill="#AEC3FF"/>
<path opacity="0.5" d="M495.402 216.409C495.402 216.409 460.739 230.242 463.708 236.539C466.678 242.836 501.236 218.333 501.236 218.333C501.236 218.333 533.324 238.41 539.368 250.424C539.368 250.424 497.82 251.715 502.235 257.117C506.65 262.492 549.959 263.15 549.959 263.15C549.959 263.15 574.11 289.261 559.63 305.122C545.15 320.983 531.537 318.849 527.674 315.161C523.81 311.472 506.413 283.095 503.233 286.152C500.053 289.208 506.229 311.893 516.189 320.404C516.189 320.404 480.028 326.991 471.776 310.734C463.551 294.451 470.015 283.701 464.733 273.742C459.451 263.783 452.513 258.46 452.986 264.836C453.433 271.213 465.311 286.204 463.656 298.008C462 309.812 461.921 318.559 449.99 306.176C438.085 293.766 423.737 267.05 431.437 254.982C431.778 254.455 432.094 253.955 432.409 253.481C431.699 254.35 431.437 254.982 431.437 254.982C428.257 253.323 418.454 254.008 411.148 254.824C409.94 255.035 408.231 255.272 405.866 255.483C404.815 255.615 403.974 255.746 403.37 255.826C387.654 258.75 367.708 275.165 367.708 275.165L364.975 272.635C382.53 252.031 407.916 252.479 407.916 252.479C426.969 251.136 439.137 242.889 439.137 242.889C439.137 242.889 437.139 205.765 465.968 205.37C465.968 205.422 485.179 207.557 495.402 216.409Z" fill="#8CACF4"/>
<path d="M122.174 345.618H393.593L418.244 47.837L131.53 48.1005C129.033 48.1005 117.943 47.837 117.313 58.0336L106.17 323.038C105.723 335.343 113.003 345.618 122.174 345.618Z" fill="#6C7AFF"/>
<g opacity="0.5">
<path opacity="0.5" d="M319.773 69.4158C319.773 69.4158 324.819 26.9697 346.526 1.64954C349.417 -1.72296 354.936 0.437547 354.831 4.86396C354.831 4.943 354.831 5.02204 354.831 5.10109C354.515 12.6629 330.233 44.5962 319.773 69.4158Z" fill="#AEC3FF"/>
<path opacity="0.5" d="M317.119 81.562C317.119 81.562 338.721 28.5242 375.644 5.07473C377.905 3.65196 380.953 4.15257 382.451 6.36577C383.423 7.78854 383.87 10.0281 382.766 13.5323C379.849 22.8594 338.669 54.2658 317.119 81.562Z" fill="#AEC3FF"/>
</g>
<g opacity="0.5">
<path d="M98.181 246.419C98.181 246.419 124.803 231.48 112.372 211.193C112.372 211.193 102.438 198.73 91.795 195.542C91.795 195.542 97.4714 225.789 91.795 226.501C86.1185 227.212 87.8793 192.354 87.8793 192.354C87.8793 192.354 59.8386 178.838 48.8274 179.892C48.8274 179.892 66.2246 209.427 60.5482 208.716C54.8717 208.005 35.3458 178.126 35.3458 178.126C35.3458 178.126 6.62183 172.751 1.99657 189.825C-2.6287 206.898 4.83479 215.435 9.09214 216.515C13.3495 217.595 40.6806 217.226 39.971 220.783C39.2615 224.34 20.813 230.031 10.5113 226.843C10.5113 226.843 21.8642 254.956 36.7649 253.533C51.6656 252.11 56.2908 242.862 65.5151 242.151C74.7393 241.44 81.4933 243.943 76.868 246.419C72.2427 248.922 56.6325 247.236 49.1953 253.586C41.7318 259.936 35.7137 263.862 49.5632 266.707C63.4127 269.553 88.2472 267.787 93.2141 257.09C98.181 246.419 98.181 246.419 98.181 246.419Z" fill="#A8D29F"/>
<path d="M15.1367 195.173C15.1367 195.173 89.6665 219.36 98.1812 246.419C98.1812 246.419 97.8133 258.513 105.277 272.398V277.747C105.277 277.747 97.4717 259.593 93.2143 257.117C93.2143 257.09 109.902 233.588 15.1367 195.173Z" fill="#82B378"/>
<path d="M105.276 272.372C105.276 272.372 116.761 289.867 110.217 311.182L107.247 310.392C107.247 310.392 110.112 286.942 104.094 275.138C98.1018 263.335 105.276 272.372 105.276 272.372Z" fill="#82B378"/>
</g>
<path d="M467.413 345.46L179.228 345.724C173.84 345.724 169.084 340.77 168.111 334.157L135.524 111.651L133.527 98.082L128.402 63.0396C127.246 55.1353 131.898 48.1532 138.31 48.1532L426.495 47.8897C431.883 47.8897 436.639 52.8431 437.612 59.4563L443.262 98.082L445.207 111.388L477.321 330.6C478.503 338.452 473.825 345.434 467.413 345.46Z" fill="#CCDBFD"/>
<path d="M443.288 98.0557H133.553L128.429 63.0133C127.273 55.109 131.924 48.1268 138.336 48.1268L426.522 47.8633C431.909 47.8633 436.666 52.8167 437.638 59.43L443.288 98.0557Z" fill="#739AF0"/>
<path d="M306.738 83.3276C306.081 79.6917 308.393 76.7144 312.414 76.7144C314.858 76.7144 316.488 77.5311 317.986 78.6904L316.777 80.3503C315.542 79.4018 314.28 78.7695 312.756 78.7695C310.207 78.7695 308.735 80.7983 309.182 83.3276C309.629 85.8307 311.836 87.8595 314.385 87.8595C316.015 87.8595 316.961 87.2008 317.907 86.1995L319.667 87.6487C318.537 89.0451 317.171 89.9146 314.674 89.9146C310.811 89.9146 307.395 87.0163 306.738 83.3276Z" fill="#F0F5FF"/>
<path d="M321.823 83.2746C321.192 79.6914 323.531 76.6614 327.631 76.6614C331.73 76.6614 335.094 79.6123 335.751 83.2483C336.382 86.8316 334.043 89.8616 329.943 89.8616C325.844 89.8879 322.453 86.9106 321.823 83.2746ZM333.281 83.2483C332.834 80.7716 330.6 78.7165 327.946 78.7165C325.292 78.7165 323.82 80.7453 324.267 83.2746C324.713 85.7513 326.947 87.8064 329.602 87.8064C332.256 87.8064 333.727 85.7777 333.281 83.2483Z" fill="#F0F5FF"/>
<path d="M338.853 76.8458H341.008L349.706 85.6722L348.129 76.8458H350.442L352.728 89.6244H350.757L341.796 80.5608L343.425 89.6507H341.113L338.853 76.8458Z" fill="#F0F5FF"/>
<path d="M358.929 78.8746H354.698L354.33 76.7931L365.131 76.7668L365.499 78.8482H361.268L363.186 89.5454H360.821L358.929 78.8746Z" fill="#F0F5FF"/>
<path d="M369.048 76.7668L378.903 76.7404L379.271 78.7428L371.755 78.7692L372.359 82.089L379.034 82.0627L379.402 84.0651L372.727 84.0914L373.331 87.5166L380.953 87.4903L381.321 89.4927L371.36 89.5191L369.048 76.7668Z" fill="#F0F5FF"/>
<path d="M383.186 76.7404H385.34L394.039 85.5669L392.462 76.7404H394.775L397.061 89.519H395.09L386.129 80.4554L387.758 89.5454H385.446L383.186 76.7404Z" fill="#F0F5FF"/>
<path d="M403.29 78.7692H399.059L398.691 76.6877L409.492 76.6614L409.86 78.7428H405.629L407.548 89.44H405.183L403.29 78.7692Z" fill="#F0F5FF"/>
<path opacity="0.3" d="M233.076 299.326H201.382C198.728 299.326 196.231 297.165 195.837 294.504L190.923 262.729C190.502 260.068 192.316 257.907 194.996 257.907H226.69C229.344 257.907 231.841 260.068 232.235 262.729L237.149 294.504C237.543 297.165 235.73 299.326 233.076 299.326Z" fill="#739AF0"/>
<path opacity="0.3" d="M286.214 299.326H254.52C251.866 299.326 249.369 297.165 248.975 294.504L244.061 262.729C243.64 260.068 245.453 257.907 248.134 257.907H279.827C282.482 257.907 284.978 260.068 285.373 262.729L290.287 294.504C290.681 297.165 288.868 299.326 286.214 299.326Z" fill="#739AF0"/>
<path opacity="0.3" d="M223.957 239.674H192.263C189.609 239.674 187.112 237.514 186.718 234.853L181.804 203.078C181.383 200.416 183.197 198.256 185.877 198.256H217.571C220.225 198.256 222.722 200.416 223.116 203.078L228.03 234.853C228.424 237.514 226.611 239.674 223.957 239.674Z" fill="#739AF0"/>
<path d="M208.845 212.115L218.49 213.406L212.866 219.94L216.125 229.109L206.927 224.814L199.305 229.188L199.253 220.019L191.29 213.538L200.435 212.167L203.142 203.789L208.845 212.115Z" fill="#F77D48"/>
<path opacity="0.3" d="M427.442 181.736H395.748C393.094 181.736 390.597 179.575 390.203 176.914L385.263 145.139C384.842 142.478 386.656 140.317 389.336 140.317H421.03C423.684 140.317 426.18 142.478 426.575 145.139L431.489 176.914C431.909 179.575 430.096 181.736 427.442 181.736Z" fill="#739AF0"/>
<path d="M200.567 289.972L207.847 271.344L217.439 281.699L220.566 277.536L230.973 289.946L200.567 289.972Z" fill="#6C7AFF"/>
<path d="M212.42 268.657C212.157 267.181 213.182 265.969 214.68 265.969C216.178 265.969 217.623 267.155 217.886 268.63C218.149 270.106 217.124 271.318 215.626 271.318C214.102 271.344 212.657 270.132 212.42 268.657Z" fill="#6C7AFF"/>
<path opacity="0.3" d="M339.379 299.326H307.685C305.031 299.326 302.534 297.165 302.14 294.504L297.226 262.729C296.805 260.068 298.618 257.907 301.299 257.907H332.993C335.647 257.907 338.144 260.068 338.538 262.729L343.452 294.504C343.846 297.165 342.033 299.326 339.379 299.326Z" fill="#739AF0"/>
<path d="M307.053 289.972L314.332 271.344L323.898 281.699L327.052 277.536L337.459 289.946L307.053 289.972Z" fill="#6C7AFF"/>
<path d="M318.878 268.657C318.615 267.181 319.64 265.969 321.138 265.969C322.636 265.969 324.081 267.155 324.344 268.63C324.607 270.106 323.582 271.318 322.084 271.318C320.586 271.344 319.141 270.132 318.878 268.657Z" fill="#6C7AFF"/>
<path opacity="0.3" d="M383.397 239.674H351.704C349.049 239.674 346.553 237.514 346.158 234.853L341.244 203.078C340.824 200.416 342.637 198.256 345.318 198.256H377.011C379.665 198.256 382.162 200.416 382.556 203.078L387.47 234.853C387.865 237.514 386.051 239.674 383.397 239.674Z" fill="#739AF0"/>
<path d="M349.627 228.503L356.907 209.849L366.499 220.204L369.626 216.067L380.033 228.477L349.627 228.503Z" fill="#6C7AFF"/>
<path d="M361.48 207.188C361.217 205.712 362.242 204.5 363.74 204.5C365.238 204.5 366.683 205.686 366.946 207.161C367.209 208.637 366.184 209.849 364.686 209.849C363.162 209.849 361.716 208.663 361.48 207.188Z" fill="#6C7AFF"/>
<path opacity="0.3" d="M267.975 181.736H236.282C233.627 181.736 231.131 179.575 230.737 176.914L225.796 145.139C225.375 142.478 227.189 140.317 229.869 140.317H261.563C264.217 140.317 266.714 142.478 267.108 145.139L272.022 176.914C272.469 179.575 270.629 181.736 267.975 181.736Z" fill="#739AF0"/>
<path d="M238.778 148.749L243.088 173.305L259.986 161L238.778 148.749Z" fill="#F77D48"/>
<path d="M330.259 239.674H298.566C295.912 239.674 293.415 237.514 293.021 234.853L288.08 203.078C287.66 200.416 289.473 198.256 292.153 198.256H323.821C326.475 198.256 328.972 200.416 329.366 203.078L334.28 234.853C334.727 237.514 332.914 239.674 330.259 239.674Z" fill="#F77D48"/>
<path d="M302.087 206.687L306.397 231.243L323.295 218.939L302.087 206.687Z" fill="#FFE6C2"/>
<path opacity="0.3" d="M436.561 239.674H404.868C402.213 239.674 399.717 237.514 399.323 234.853L394.408 203.078C393.988 200.416 395.801 198.256 398.482 198.256H430.175C432.83 198.256 435.326 200.416 435.72 203.078L440.635 234.853C441.029 237.514 439.216 239.674 436.561 239.674Z" fill="#739AF0"/>
<path opacity="0.3" d="M392.515 299.326H360.822C358.167 299.326 355.671 297.165 355.277 294.504L350.362 262.729C349.942 260.068 351.755 257.907 354.436 257.907H386.103C388.757 257.907 391.254 260.068 391.648 262.729L396.562 294.504C396.983 297.165 395.17 299.326 392.515 299.326Z" fill="#739AF0"/>
<path opacity="0.3" d="M321.139 181.736H289.446C286.791 181.736 284.295 179.575 283.901 176.914L278.96 145.139C278.539 142.478 280.353 140.317 283.033 140.317H314.727C317.381 140.317 319.878 142.478 320.272 145.139L325.186 176.914C325.607 179.575 323.794 181.736 321.139 181.736Z" fill="#739AF0"/>
<path d="M311.784 155.309L290.681 155.336C290.261 155.336 289.919 155.046 289.84 154.624C289.735 154.097 290.156 153.623 290.681 153.623L311.784 153.597C312.205 153.597 312.546 153.886 312.625 154.308C312.704 154.809 312.31 155.309 311.784 155.309Z" fill="#6C7AFF"/>
<path d="M312.625 160.131L291.522 160.157C291.102 160.157 290.76 159.867 290.681 159.446C290.576 158.919 290.997 158.445 291.522 158.445L312.625 158.418C313.045 158.418 313.387 158.708 313.466 159.13C313.571 159.657 313.151 160.131 312.625 160.131Z" fill="#6C7AFF"/>
<path d="M313.492 164.979L292.389 165.005C291.969 165.005 291.627 164.715 291.548 164.294C291.443 163.767 291.864 163.293 292.389 163.293L313.492 163.266C313.913 163.266 314.254 163.556 314.333 163.978C314.412 164.505 314.018 164.979 313.492 164.979Z" fill="#6C7AFF"/>
<path d="M427.18 213.248L406.077 213.274C405.656 213.274 405.315 212.984 405.236 212.563C405.131 212.036 405.551 211.561 406.077 211.561L427.18 211.535C427.6 211.535 427.942 211.825 428.021 212.247C428.126 212.747 427.731 213.248 427.18 213.248Z" fill="#6C7AFF"/>
<path d="M428.047 218.096L406.944 218.122C406.524 218.122 406.182 217.832 406.103 217.411C405.998 216.884 406.419 216.409 406.944 216.409L428.047 216.383C428.467 216.383 428.809 216.673 428.888 217.094C428.967 217.595 428.572 218.069 428.047 218.096Z" fill="#6C7AFF"/>
<path d="M428.889 222.917L407.786 222.944C407.365 222.944 407.024 222.654 406.945 222.232C406.84 221.705 407.26 221.231 407.786 221.231L428.889 221.205C429.309 221.205 429.651 221.495 429.729 221.916C429.835 222.443 429.44 222.917 428.889 222.917Z" fill="#6C7AFF"/>
<path d="M276.858 274.638L255.756 274.664C255.335 274.664 254.993 274.374 254.915 273.953C254.81 273.426 255.23 272.951 255.756 272.951L276.858 272.925C277.279 272.925 277.62 273.215 277.699 273.636C277.804 274.137 277.384 274.638 276.858 274.638Z" fill="#6C7AFF"/>
<path d="M277.699 279.459L256.596 279.486C256.176 279.486 255.834 279.196 255.755 278.774C255.65 278.247 256.071 277.773 256.596 277.773L277.699 277.747C278.12 277.747 278.461 278.037 278.54 278.458C278.645 278.985 278.251 279.459 277.699 279.459Z" fill="#6C7AFF"/>
<path d="M278.567 284.307L257.465 284.334C257.044 284.334 256.702 284.044 256.624 283.622C256.519 283.095 256.939 282.621 257.465 282.621L278.567 282.595C278.988 282.595 279.329 282.885 279.408 283.306C279.487 283.833 279.093 284.307 278.567 284.307Z" fill="#6C7AFF"/>
<path d="M383.16 274.638L362.057 274.664C361.637 274.664 361.295 274.374 361.216 273.953C361.111 273.426 361.532 272.951 362.057 272.951L383.16 272.925C383.581 272.925 383.922 273.215 384.001 273.636C384.08 274.137 383.686 274.638 383.16 274.638Z" fill="#6C7AFF"/>
<path d="M384.001 279.459L362.898 279.486C362.478 279.486 362.136 279.196 362.057 278.774C361.952 278.247 362.373 277.773 362.898 277.773L384.001 277.747C384.421 277.747 384.763 278.037 384.842 278.458C384.947 278.985 384.553 279.459 384.001 279.459Z" fill="#6C7AFF"/>
<path d="M384.868 284.307L363.765 284.334C363.345 284.334 363.003 284.044 362.924 283.622C362.819 283.095 363.24 282.621 363.765 282.621L384.868 282.595C385.289 282.595 385.63 282.885 385.709 283.306C385.788 283.833 385.394 284.307 384.868 284.307Z" fill="#6C7AFF"/>
<path opacity="0.3" d="M277.094 239.674H245.401C242.747 239.674 240.25 237.514 239.856 234.853L234.941 203.078C234.521 200.416 236.334 198.256 239.015 198.256H270.708C273.363 198.256 275.859 200.416 276.253 203.078L281.168 234.853C281.562 237.514 279.749 239.674 277.094 239.674Z" fill="#739AF0"/>
<path d="M258.857 230.927C258.83 230.927 258.804 230.927 258.778 230.927C258.2 230.901 257.543 230.558 257.175 230.031C253.785 225.526 249.685 221.284 245.007 217.463C244.298 216.884 244.087 216.041 244.56 215.593C245.007 215.145 245.953 215.224 246.663 215.803C250.631 219.044 254.231 222.575 257.332 226.316C259.067 218.017 263.061 210.613 269.001 204.711C269.447 204.263 270.394 204.369 271.103 204.948C271.813 205.528 271.997 206.371 271.55 206.819C265.243 213.09 261.222 221.178 259.882 230.163C259.803 230.637 259.409 230.927 258.857 230.927Z" fill="#F77D48"/>
<path d="M203.589 124.667H172.106C170.161 124.667 168.295 123.112 167.927 121.215C167.559 119.292 168.821 117.764 170.765 117.764H202.249C204.193 117.764 206.059 119.318 206.427 121.215C206.769 123.112 205.507 124.667 203.589 124.667Z" fill="#F99746"/>
<path d="M255.177 124.667H223.693C221.749 124.667 219.883 123.112 219.515 121.215C219.147 119.292 220.408 117.764 222.353 117.764H253.836C255.781 117.764 257.647 119.318 258.015 121.215C258.357 123.112 257.095 124.667 255.177 124.667Z" fill="#F99746"/>
<path d="M311.074 124.667H279.591C277.646 124.667 275.78 123.112 275.412 121.215C275.044 119.292 276.306 117.764 278.251 117.764H309.734C311.679 117.764 313.544 119.318 313.912 121.215C314.254 123.112 312.993 124.667 311.074 124.667Z" fill="#F99746"/>
<path d="M364.633 124.667H333.149C331.205 124.667 329.339 123.112 328.971 121.215C328.603 119.292 329.864 117.764 331.809 117.764H363.293C365.237 117.764 367.103 119.318 367.471 121.215C367.839 123.112 366.578 124.667 364.633 124.667Z" fill="#F99746"/>
<path d="M418.27 124.667H386.787C384.842 124.667 382.977 123.112 382.609 121.215C382.241 119.292 383.502 117.764 385.447 117.764H416.93C418.875 117.764 420.741 119.318 421.109 121.215C421.477 123.112 420.215 124.667 418.27 124.667Z" fill="#F99746"/>
<path d="M374.277 181.736H342.583C339.929 181.736 337.433 179.575 337.038 176.914L332.098 145.139C331.677 142.478 333.491 140.317 336.171 140.317H367.865C370.519 140.317 373.016 142.478 373.41 145.139L378.324 176.914C378.745 179.575 376.931 181.736 374.277 181.736Z" fill="#F77D48"/>
<path d="M356.039 173.147C356.013 173.147 355.987 173.147 355.961 173.147C355.382 173.12 354.725 172.778 354.357 172.251C350.967 167.745 346.868 163.503 342.19 159.683C341.48 159.103 341.27 158.26 341.743 157.812C342.19 157.364 343.136 157.443 343.845 158.023C347.814 161.264 351.414 164.794 354.515 168.536C356.25 160.263 360.244 152.833 366.157 146.931C366.604 146.483 367.55 146.588 368.259 147.168C368.969 147.747 369.153 148.591 368.706 149.038C362.399 155.309 358.378 163.398 357.038 172.382C356.985 172.83 356.591 173.12 356.039 173.147Z" fill="#FFE6C2"/>
<path d="M507.767 204.079C507.767 204.079 509.974 210.929 509.79 212.484C509.606 214.038 508.214 219.387 507.215 220.757C506.216 222.127 505.743 215.197 504.955 214.144C504.166 213.09 504.797 216.752 504.245 217.094C503.693 217.437 502.537 214.407 502.038 213.327C501.538 212.247 503.247 208.321 503.247 205.581C503.247 202.84 507.767 204.079 507.767 204.079Z" fill="#CB8E6D"/>
<path d="M455.68 149.75C455.076 141.898 463.564 136.523 470.265 140.607C470.397 140.686 470.528 140.765 470.686 140.871C480.725 147.352 502.406 177.599 503.903 180.629C505.401 183.659 509.79 207.767 509.79 207.767C509.79 207.767 504.35 209.77 501.801 207.688C501.801 207.688 492.971 184.819 491.683 183.686C490.369 182.553 456.39 163.424 456.1 156.258C456.022 154.361 455.864 152.068 455.68 149.75Z" fill="#575C91"/>
<path d="M371.18 150.47L373.937 158.408L428.24 139.453L425.483 131.515L371.18 150.47Z" fill="#F99746"/>
<path d="M359.916 158.866L373.923 158.418L371.164 150.488L359.916 158.866Z" fill="#F9DDBF"/>
<path d="M432.869 132.439L433.395 133.968C434.025 135.786 433.079 137.762 431.266 138.42L428.244 139.474L425.484 131.544L428.717 130.411C430.399 129.805 432.291 130.727 432.869 132.439Z" fill="#F9DDBF"/>
<path d="M439.097 108.832C434.787 118.185 435.47 127.565 437.704 133.941C439.071 137.867 443.512 139.817 447.296 138.078C448.637 137.472 450.003 136.497 451.238 135.021C451.238 135.021 452.447 134.152 451.291 141.635L457.73 142.188L470.475 137.735C470.475 137.735 467.768 134.126 463.196 130.7C462.591 130.253 462.933 129.225 463.012 128.487C462.302 128.698 461.698 128.724 461.488 128.461C461.041 127.881 462.933 126.485 463.353 123.771C463.459 123.191 463.853 120.557 462.407 119.081C460.594 117.263 457.73 119.187 455.864 117.21C454.918 116.209 455.233 115.234 453.998 114.391C452.71 113.522 451.422 113.97 451.186 113.469C451.002 113.021 451.606 112.046 454.918 109.728L454.812 107.251L440.779 107.857C440.358 107.857 439.991 107.752 439.649 107.567C439.491 107.989 439.307 108.384 439.097 108.832Z" fill="#CB8E6D"/>
<path d="M454.865 107.304L454.944 109.78H462.408V106.961L454.865 107.304Z" fill="#CB8E6D"/>
<path d="M438.677 104.985C438.335 106.039 438.834 107.119 439.702 107.594C440.017 107.778 440.411 107.883 440.832 107.883L454.865 107.277L462.434 106.961V109.78H454.97C451.659 112.099 451.055 113.074 451.239 113.522C451.475 114.049 452.737 113.574 454.051 114.444C455.286 115.261 454.97 116.236 455.916 117.263C457.756 119.239 460.647 117.316 462.46 119.134C463.906 120.583 463.485 123.244 463.38 123.824C462.959 126.538 461.067 127.934 461.514 128.514C461.698 128.777 462.329 128.751 463.038 128.54C463.774 128.356 464.615 127.96 465.272 127.565C470.002 124.72 473.235 115.603 469.95 107.91C467.269 101.639 460.568 97.6078 453.157 97.6078C443.46 97.6078 439.597 102.245 438.677 104.985Z" fill="#312730"/>
<path d="M516.334 326.806C516.334 326.806 520.381 330.521 519.593 333.156C518.804 335.791 515.151 337.556 514.652 340.77C514.153 343.985 512.182 345.75 510.395 345.75C508.608 345.75 501.906 345.75 501.906 345.75C501.906 345.75 500.592 343.484 503.746 342.799C506.899 342.114 508.108 338.346 507.898 334.816C507.688 331.312 508.187 326.622 508.187 326.622L514.915 325.067L516.334 326.806Z" fill="#12323A"/>
<path d="M466.639 336.37C466.639 336.37 467.375 344.802 465.588 345.671L442.829 345.618C442.829 345.618 442.829 342.984 446.482 342.404C450.135 341.824 456.547 339.664 457.651 334.895C458.755 330.152 466.639 336.37 466.639 336.37Z" fill="#12323A"/>
<path d="M447.429 217.253C447.429 217.253 448.638 232.034 450.03 249.818C451.949 273.953 454.262 303.62 454.472 309.232C454.866 318.981 456.443 334.579 456.443 334.579C456.443 334.579 460.201 338.294 467.717 336.713C467.717 336.713 474.418 314.449 476.31 290.868C476.337 290.473 476.363 290.104 476.389 289.709C478.176 265.732 480.936 215.197 480.936 215.197L447.429 217.253Z" fill="#64A5CC"/>
<path d="M447.429 217.253C447.429 217.253 448.638 232.034 450.03 249.818L476.31 290.894C476.337 290.499 476.363 290.13 476.389 289.735C478.176 265.759 480.936 215.224 480.936 215.224L447.429 217.253Z" fill="#4E84AD"/>
<path d="M452.921 219.018C452.921 219.018 474.549 272.556 488.767 297.718C502.984 322.88 507.425 329.889 507.425 329.889C507.425 329.889 515.572 326.675 516.308 324.488C516.308 324.488 510.868 275.903 501.355 264.072C495.967 257.38 489.66 237.303 489.345 230.295C489.056 223.286 487.426 209.375 487.426 209.375L452.921 219.018Z" fill="#64A5CC"/>
<path d="M485.954 213.59C480.094 217.147 474.575 219.808 468.084 221.31C460.436 223.128 451.028 222.601 447.901 223.075C447.585 223.128 447.27 223.023 446.981 222.838C446.744 222.707 445.352 213.353 443.959 201.549C443.906 201.075 443.827 200.601 443.801 200.127L443.775 199.968C443.223 195.358 442.75 190.51 442.356 185.635C442.014 181.868 441.751 178.126 441.541 174.596C441.304 170.196 441.199 166.164 441.304 162.845C441.357 161.316 441.436 159.973 441.567 158.787C442.408 151.884 445.667 146.957 448.768 143.295L451.343 140.37C454.313 140.554 457.335 140.001 460.2 138.104C463.327 136.049 466.717 133.809 467.348 134.178C472.157 136.813 476.046 143.637 478.832 152.622C480.435 157.812 481.67 163.688 482.432 169.906C482.695 171.829 482.905 173.832 483.063 175.808C483.089 176.177 483.116 176.545 483.142 176.888C483.51 182.289 484.141 187.348 484.824 191.853C485.744 197.94 486.795 203.051 487.531 206.634C487.899 208.452 488.188 209.875 488.345 210.903C488.529 211.825 486.742 213.09 485.954 213.59Z" fill="#6A6DB4"/>
<path d="M465.876 163.635C465.876 163.635 454.076 172.646 441.541 174.622C441.304 170.222 441.199 166.191 441.304 162.871L465.876 163.635Z" fill="#575C91"/>
<path d="M393.344 151.989C393.16 151.779 390.742 143.716 386.59 144.296C383.883 144.691 379.442 146.246 380.598 149.855C381.071 151.278 389.349 156.126 389.349 156.126L393.344 151.989Z" fill="#CB8E6D"/>
<path d="M467.349 146.219C474.076 150.25 473.524 160.315 466.324 163.451C466.166 163.503 466.035 163.582 465.877 163.635C454.787 168.088 417.653 168.299 414.316 167.772C410.978 167.245 388.824 156.89 388.824 156.89C388.824 156.89 390.348 151.278 393.502 150.409C393.502 150.409 417.207 156.442 418.888 156.021C420.57 155.625 455.812 138.895 461.804 142.82C463.407 143.822 465.351 145.007 467.349 146.219Z" fill="#6A6DB4"/>
<path d="M171.85 171.961C171.85 171.961 173.164 169.8 173.952 168.615C174.74 167.429 176.343 165.927 176.738 166.323C177.132 166.718 175.529 168.272 175.581 168.799C175.66 169.326 178.367 167.561 178.682 167.166C179.261 166.375 180.837 165.506 181.021 166.507C181.205 167.508 180.049 170.67 179.523 171.566C178.998 172.462 176.79 173.911 175.581 174.332C174.372 174.754 172.296 175.755 172.296 175.755L171.85 171.961Z" fill="#D9A777"/>
<path d="M135.294 173.884C135.294 173.884 136.66 176.572 139.131 179.681C142.1 183.422 146.673 187.717 152.428 188.586C155.188 188.982 157.868 188.402 160.339 187.295C167.329 184.186 172.585 177.046 172.585 177.046C173.82 173.674 172.086 171.566 172.086 171.566C172.086 171.566 157.684 174.569 156.344 173.884C155.004 173.199 147.172 150.567 145.307 147.721C143.441 144.875 137.081 143.4 137.081 143.4L135.294 173.884Z" fill="black"/>
<path d="M139.105 179.681C142.074 183.422 146.647 187.717 152.402 188.586C155.162 188.982 157.842 188.402 160.313 187.295C160.05 187.322 153.059 188.191 150.274 183.211C147.435 178.126 144.361 170.038 140.156 172.725C138.343 173.884 138.421 176.783 139.105 179.681Z" fill="black"/>
<path d="M82.6559 326.569C82.6559 326.569 78.346 330.495 79.1869 333.314C80.0279 336.107 83.9173 337.978 84.4429 341.403C84.9685 344.828 87.0709 346.699 88.963 346.699C90.8552 346.699 97.9771 346.699 97.9771 346.699C97.9771 346.699 99.3699 344.301 96.0061 343.563C92.6422 342.826 91.3808 338.821 91.591 335.079C91.8013 331.338 91.2757 326.385 91.2757 326.385L84.1276 324.725L82.6559 326.569Z" fill="#252D2D"/>
<path d="M114.717 126.59C114.901 127.539 115.007 128.25 115.007 128.619C115.007 130.542 115.374 137.445 114.402 140.344L109.619 143.11C111.038 147.431 112.116 159.867 120.446 150.883L125.913 155.968L130.433 151.357C130.591 151.357 129.644 147.932 129.776 147.985L138.474 143.848C138.474 143.848 126.78 140.95 126.78 139.975C126.78 139 125.597 135.417 127.542 136.392C129.46 137.366 137.187 143.163 140.078 137.366C140.078 137.366 144.887 123.824 140.078 108.358C139.841 107.594 139.552 106.882 139.237 106.25C138.58 109.807 135.295 114.022 131.405 115.103C126.701 116.42 122.549 112.731 119.842 115.103C118.922 115.893 119.238 116.473 117.924 119.924C116.978 122.269 115.9 125.088 114.717 126.59Z" fill="#D9A777"/>
<path d="M119.08 328.229C119.08 328.229 117.53 344.907 119.422 345.855L143.6 345.803C143.6 345.803 143.6 343.01 139.71 342.378C135.821 341.745 128.988 339.479 127.858 334.394C126.728 329.309 119.08 328.229 119.08 328.229Z" fill="#252D2D"/>
<path d="M100.473 162.634C100.473 162.634 100.105 167.719 100.473 173.832C100.71 177.889 104.809 183.317 105.387 184.66C106.833 188.033 108.488 188.586 108.488 188.586L121.182 191.695L125.649 192.802L139.735 188.586C139.735 188.586 146.148 170.644 143.572 160.526C140.997 150.435 137.055 143.4 137.055 143.4C137.055 143.4 125.57 154.677 110.617 142.452L100.473 162.634Z" fill="black"/>
<path d="M138.842 191.3C138.842 191.3 145.806 213.063 146.253 220.467C146.7 227.871 132.929 325.726 132.377 329.125C131.852 332.339 127.857 334.394 127.857 334.394C127.857 334.394 126.018 335.475 123.416 334.737C119.789 333.709 118.633 332.471 118.633 332.471C118.633 332.471 113.193 262.702 116.557 237.777C119.921 212.853 119.947 191.3 119.947 191.3H138.842Z" fill="#2B2B2B"/>
<path d="M109.304 190.641C109.304 190.641 98.6607 204.948 97.6883 214.618C96.6897 224.287 96.1378 258.276 94.0092 267.682C91.9068 277.114 84.1279 295.268 84.1279 324.672C84.1279 324.672 84.9426 326.358 87.4129 327.254C88.2013 327.544 89.2788 327.807 90.3037 328.071C92.3535 328.545 94.4559 327.544 95.402 325.647C100.658 315.055 117.372 280.882 118.213 273.795C118.817 268.789 124.1 235.564 135.61 216.067C138.37 211.377 133.902 192.776 133.902 192.776L109.304 190.641Z" fill="#434444"/>
<path d="M139.947 187.954C139.947 187.954 137.135 190.167 131.59 190.299C124.941 190.431 108.49 188.613 108.49 188.613C108.49 188.613 107.754 190.668 107.78 192.828C107.78 192.828 127.884 197.913 139.526 193.566C139.552 193.54 141.05 190.694 139.947 187.954Z" fill="#2B2B2B"/>
<path d="M130.143 192.565C130.143 190.668 131.509 189.113 133.165 189.113C134.847 189.113 136.187 190.668 136.187 192.565C136.187 194.462 134.82 196.016 133.165 196.016C131.509 196.016 130.143 194.462 130.143 192.565ZM131.168 192.565C131.168 193.909 132.087 194.989 133.191 194.989C134.321 194.989 135.215 193.909 135.215 192.565C135.215 191.221 134.295 190.141 133.191 190.141C132.061 190.141 131.168 191.221 131.168 192.565Z" fill="white"/>
<path d="M86.8559 191.861L107.449 209.839L131.99 181.581L111.397 163.604L86.8559 191.861Z" fill="#F77D48"/>
<path d="M113.141 191.932C113.141 191.932 121.156 193.171 121.13 194.962C121.104 196.754 119.474 199.995 117.845 200.258C115.795 200.574 111.695 195.279 111.695 195.279L113.141 191.932Z" fill="#D9A777"/>
<path d="M113.299 192.38C113.299 192.38 115.979 191.405 117.95 191.801C119.921 192.196 121.735 191.906 121.288 192.617C120.841 193.329 118.187 193.065 117.766 193.355C117.346 193.645 117.346 193.461 117.346 193.461L113.299 192.38Z" fill="#D9A777"/>
<path d="M110.618 142.452C110.618 142.452 100.553 143.163 96.6894 152.569C92.8262 161.975 85.4941 177.784 85.4941 180.445C85.4941 183.106 89.5938 191.3 111.564 196.016C111.564 196.016 113.85 193.619 113.692 191.722C113.692 191.722 99.9743 179.918 100.001 178.521C100.079 175.913 102.261 172.461 114.297 160.368C117.582 157.101 110.618 142.452 110.618 142.452Z" fill="black"/>
<path d="M221.125 179.18L189.405 189.535C186.751 190.404 183.808 188.982 182.835 186.347L171.193 154.993C170.221 152.358 171.587 149.539 174.242 148.67L205.935 138.289C208.59 137.419 211.533 138.842 212.505 141.477L224.147 172.83C225.146 175.465 223.779 178.311 221.125 179.18Z" fill="#F77D48"/>
<path d="M186.356 179.259L189.694 157.549L201.467 165.163L203.727 159.841L216.736 169.3L186.356 179.259Z" fill="#FFE6C2"/>
<path d="M193.688 153.28C193.11 151.831 193.872 150.25 195.397 149.776C196.895 149.276 198.603 150.066 199.155 151.515C199.733 152.964 198.971 154.545 197.446 155.019C195.948 155.494 194.24 154.73 193.688 153.28Z" fill="#FFE6C2"/>
<path d="M173.926 168.615C173.926 168.615 175.213 166.691 176.711 166.323C178.209 165.954 179.681 165.321 179.681 165.321C180.312 166.006 177.658 167.245 177.631 168.404C177.605 169.563 178.025 171.434 176.317 171.671C174.635 171.856 173.926 168.615 173.926 168.615Z" fill="#D9A777"/>
<path d="M98.6083 90.9155C94.0882 95.7371 95.3759 103.483 99.5807 107.356C102.839 110.36 107.097 110.307 108.253 110.255C107.833 112.125 107.097 116.763 109.225 121.848C109.882 123.428 111.223 127.67 113.089 127.644C113.667 127.644 114.192 127.223 114.718 126.59C115.901 125.115 117.004 122.296 117.898 119.924C119.212 116.473 118.896 115.893 119.816 115.103C122.523 112.731 126.675 116.42 131.379 115.103C135.269 114.022 138.554 109.807 139.211 106.25C139.395 105.275 139.368 104.326 139.106 103.51C137.739 99.3994 129.461 96.87 118.844 99.6365C118.818 98.8198 118.529 93.3131 114.035 89.9669C109.725 86.7262 102.761 86.4627 98.6083 90.9155Z" fill="#8A8A9F"/>
<path d="M551.569 347.436H40.547C40.2204 347.436 39.9707 347.067 39.9707 346.646V346.382C39.9707 345.934 40.2396 345.592 40.547 345.592H551.569C551.896 345.592 552.145 345.961 552.145 346.382V346.646C552.145 347.094 551.896 347.436 551.569 347.436Z" fill="#233862"/>
<path d="M231.263 80.6662L272.89 88.1753L245.795 68.1774L244.166 74.211L233.917 75.6865L231.263 80.6662Z" fill="#9EC3F6"/>
<path d="M272.889 88.1753L238.726 68.8888L204.641 65.9379L272.889 88.1753Z" fill="white"/>
<path d="M245.795 68.1774L272.89 88.1753L252.47 57.7437L245.795 68.1774Z" fill="white"/>
<path d="M134.946 334.157C134.946 334.631 134.973 335.079 135.025 335.553C135.209 337.003 135.656 338.373 136.313 339.611C136.838 340.586 137.495 341.455 138.258 342.219C140.307 344.275 143.146 345.566 146.299 345.566H306.212C312.493 345.566 317.592 340.454 317.592 334.157C317.592 330.995 316.33 328.15 314.254 326.095C312.204 324.04 309.366 322.749 306.212 322.749H146.325C140.045 322.775 134.946 327.86 134.946 334.157Z" fill="#F78248"/>
<path d="M147.141 320.693H201.961C202.933 320.693 203.695 319.903 203.695 318.954C203.695 317.98 202.907 317.216 201.961 317.216H147.141C146.168 317.216 145.406 318.006 145.406 318.954C145.406 319.929 146.195 320.693 147.141 320.693Z" fill="#F78248"/>
<path d="M150.167 322.778H156.106V320.723H150.167V322.778Z" fill="#EA642F"/>
<path d="M136.339 339.611C136.864 340.586 137.521 341.455 138.284 342.219C140.333 344.275 143.172 345.566 146.325 345.566H180.2V339.611H136.339Z" fill="#EA642F"/>
<path d="M338.747 330.837V337.503C338.747 338.241 338.642 338.952 338.458 339.611C337.538 343.036 334.411 345.566 330.705 345.566H164.143C160.438 345.566 157.31 343.036 156.391 339.611C156.207 338.926 156.102 338.241 156.102 337.503V330.837C156.102 326.385 159.702 322.775 164.143 322.775H330.705C335.147 322.775 338.747 326.385 338.747 330.837Z" fill="#F99746"/>
<path d="M338.458 339.611C337.538 343.036 334.411 345.566 330.705 345.566H164.143C160.438 345.566 157.31 343.036 156.391 339.611H338.458Z" fill="#EF873A"/>
<path d="M322.217 334.21C322.217 337.74 323.505 340.902 325.528 343.01C325.581 343.063 325.607 343.115 325.659 343.142C327.236 344.696 329.207 345.645 331.362 345.645C334.726 345.645 343.083 340.533 348.26 337.161C350.836 335.474 352.623 334.21 352.623 334.21C352.623 334.21 350.836 332.945 348.26 331.259C343.083 327.86 334.726 322.775 331.362 322.775C330.39 322.775 329.444 322.959 328.55 323.328C327.052 323.934 325.738 324.988 324.687 326.384C323.531 327.913 322.716 329.836 322.374 331.97C322.374 331.997 322.374 332.023 322.374 332.049C322.269 332.708 322.217 333.446 322.217 334.21Z" fill="#6C7AFF"/>
<path opacity="0.7" d="M322.217 334.21C322.217 337.74 323.505 340.902 325.528 343.01L351.151 334.157L322.374 331.997C322.269 332.708 322.217 333.446 322.217 334.21Z" fill="#739AF0"/>
<path d="M324.688 326.358L350.258 333.367L328.551 323.302C327.079 323.908 325.739 324.962 324.688 326.358Z" fill="#ABC3EF"/>
<path d="M346.604 334.21C346.604 335.58 347.288 336.739 348.286 337.161C350.862 335.474 352.649 334.21 352.649 334.21C352.649 334.21 350.862 332.945 348.286 331.259C347.288 331.68 346.604 332.84 346.604 334.21Z" fill="#F99746"/>
<path d="M367.707 158.866L370.335 156.916C370.335 156.916 371.176 157.68 371.255 158.866H367.707Z" fill="#2B478B"/>
</svg>
