<svg width="610" height="433" viewBox="0 0 610 433" fill="none" xmlns="http://www.w3.org/2000/svg">
<g style="mix-blend-mode:multiply" opacity="0.55">
<g style="mix-blend-mode:multiply" opacity="0.55">
<g style="mix-blend-mode:multiply" opacity="0.55">
<path d="M480.945 383.691C480.945 388.304 406.482 392.049 314.62 392.049C222.758 392.049 148.284 388.304 148.284 383.691C148.284 379.078 222.758 375.333 314.62 375.333C406.482 375.333 480.945 379.078 480.945 383.691Z" fill="#D9E8FF"/>
</g>
</g>
</g>
<g style="mix-blend-mode:multiply" opacity="0.55">
<g style="mix-blend-mode:multiply" opacity="0.55">
<g style="mix-blend-mode:multiply" opacity="0.55">
<path d="M190.411 334.531C190.411 339.144 149.804 342.878 99.7099 342.878C49.6159 342.878 8.99805 339.144 8.99805 334.531C8.99805 329.917 49.6051 326.173 99.7099 326.173C149.815 326.173 190.411 329.917 190.411 334.531Z" fill="#D9E8FF"/>
</g>
</g>
</g>
<path opacity="0.36" d="M73.7241 330.319H7.96698C-4.86314 330.319 -2.77907 315.123 32.9325 321.874C24.1837 317.88 24.1295 312.517 24.8676 311.085C25.6057 309.652 28.0588 308.914 29.5351 309.055C34.0723 309.446 37.5132 312.224 41.4751 314.482C37.8905 312.095 34.9678 308.839 32.9789 305.019C30.99 301.199 29.9995 296.938 30.0995 292.632C30.1755 290.266 30.6856 287.736 32.4224 286.119C33.451 285.166 34.676 284.449 36.0111 284.02C37.3463 283.59 38.7593 283.458 40.1509 283.633C44.9703 284.589 53.8276 292.632 57.3554 296.051C39.3693 279.509 32.5201 253.436 44.0368 247.488C63.4231 237.48 78.066 294.162 78.066 294.162C78.066 294.162 68.4271 251.547 84.5787 251.298C100.73 251.048 87.6071 300.805 87.6071 300.805" fill="#ACC9F9"/>
<path opacity="0.36" d="M67.9169 299.611C69.9731 299.613 72.0154 299.95 73.9629 300.61C74.078 292.837 77.2762 285.429 82.8538 280.014C88.4315 274.599 95.9317 271.622 103.704 271.737C111.477 271.852 118.886 275.05 124.301 280.628C129.716 286.205 132.693 293.706 132.578 301.478C132.578 302.216 132.578 302.944 132.491 303.649C134.322 300.616 137.094 298.263 140.384 296.947C143.674 295.632 147.304 295.425 150.722 296.36C154.14 297.294 157.16 299.318 159.324 302.124C161.487 304.931 162.676 308.366 162.71 311.91C162.705 313.152 162.559 314.39 162.276 315.6C163.83 314.737 165.562 314.241 167.338 314.15C169.114 314.059 170.888 314.377 172.522 315.078C174.156 315.779 175.609 316.844 176.767 318.194C177.926 319.543 178.76 321.139 179.206 322.861C179.652 324.582 179.698 326.383 179.34 328.125C178.983 329.867 178.231 331.504 177.142 332.91C176.054 334.317 174.658 335.455 173.061 336.238C171.464 337.022 169.709 337.429 167.931 337.429H67.9169C65.3935 337.489 62.8835 337.044 60.5345 336.12C58.1856 335.197 56.0451 333.812 54.239 332.049C52.433 330.286 50.9978 328.179 50.0179 325.853C49.038 323.527 48.5332 321.028 48.5332 318.504C48.5332 315.98 49.038 313.481 50.0179 311.155C50.9978 308.829 52.433 306.722 54.239 304.959C56.0451 303.195 58.1856 301.811 60.5345 300.887C62.8835 299.963 65.3935 299.518 67.9169 299.579" fill="white"/>
<path d="M499.55 342.769C502.282 342.769 504.902 343.855 506.834 345.786C508.766 347.718 509.851 350.338 509.851 353.07V107.149C509.851 104.417 508.766 101.796 506.834 99.8647C504.902 97.9329 502.282 96.8476 499.55 96.8476H196.707V342.769H499.55Z" fill="#95BAEF"/>
<path d="M499.538 115.474C500.889 115.474 502.227 115.208 503.475 114.69C504.722 114.173 505.856 113.415 506.811 112.459C507.765 111.504 508.522 110.369 509.038 109.121C509.554 107.872 509.819 106.535 509.818 105.184V351.16C509.819 352.511 509.554 353.849 509.038 355.098C508.523 356.347 507.766 357.483 506.811 358.439C505.857 359.396 504.723 360.155 503.475 360.673C502.227 361.192 500.89 361.459 499.538 361.461H169.363V115.474H499.538Z" fill="#ACC9F9"/>
<path d="M170.276 360.549C168.923 360.549 167.584 360.816 166.335 361.333C165.086 361.851 163.951 362.61 162.995 363.567C162.04 364.523 161.282 365.659 160.766 366.909C160.249 368.159 159.984 369.498 159.985 370.85V124.863C159.984 123.512 160.249 122.173 160.766 120.924C161.282 119.675 162.04 118.54 162.996 117.584C163.952 116.628 165.087 115.87 166.336 115.353C167.585 114.837 168.924 114.572 170.276 114.573H500.798V360.549H170.276Z" fill="#ACC9F9"/>
<path d="M170.276 136.141C168.923 136.141 167.584 135.875 166.335 135.357C165.086 134.839 163.951 134.08 162.995 133.123C162.04 132.167 161.282 131.031 160.766 129.781C160.249 128.532 159.984 127.192 159.985 125.84V371.035C159.984 372.387 160.249 373.726 160.766 374.976C161.282 376.226 162.04 377.361 162.995 378.318C163.951 379.275 165.086 380.033 166.335 380.551C167.584 381.069 168.923 381.336 170.276 381.336H491.105V136.141H170.276Z" fill="white"/>
<path d="M170.764 116.994H500.798V114.573H170.764C167.963 114.662 165.306 115.837 163.357 117.85C161.407 119.863 160.316 122.555 160.316 125.357C160.316 128.159 161.407 130.852 163.357 132.865C165.306 134.877 167.963 136.052 170.764 136.141H491.104V133.721H170.764C168.598 133.643 166.546 132.727 165.042 131.167C163.537 129.607 162.696 127.525 162.696 125.357C162.696 123.19 163.537 121.107 165.042 119.547C166.546 117.987 168.598 117.072 170.764 116.994Z" fill="#92A7F4"/>
<path d="M499.072 97.8787H196.848V95.4582H499.072C501.873 95.5471 504.53 96.7222 506.479 98.7349C508.429 100.748 509.519 103.44 509.519 106.242C509.519 109.045 508.429 111.737 506.479 113.75C504.53 115.762 501.873 116.937 499.072 117.026H178.731V114.606H499.072C501.238 114.528 503.289 113.612 504.794 112.052C506.299 110.492 507.14 108.41 507.14 106.242C507.14 104.075 506.299 101.992 504.794 100.432C503.289 98.8721 501.238 97.9568 499.072 97.8787Z" fill="#92A7F4"/>
<path d="M343.504 209.388H181.021V214.24H343.504V209.388Z" fill="#E2F0FB"/>
<path d="M343.504 218.517H181.021V223.369H343.504V218.517Z" fill="#E2F0FB"/>
<path d="M343.504 227.645H181.021V232.487H343.504V227.645Z" fill="#E2F0FB"/>
<path d="M343.504 236.763H181.021V241.615H343.504V236.763Z" fill="#E2F0FB"/>
<path d="M343.504 245.892H181.021V250.744H343.504V245.892Z" fill="#E2F0FB"/>
<path d="M343.504 255.021H181.021V259.862H343.504V255.021Z" fill="#E2F0FB"/>
<path d="M343.504 264.149H181.021V268.991H343.504V264.149Z" fill="#E2F0FB"/>
<path d="M343.504 273.278H181.021V278.13H343.504V273.278Z" fill="#E2F0FB"/>
<path d="M343.504 292.719H181.021V297.56H343.504V292.719Z" fill="#E2F0FB"/>
<path d="M343.504 301.847H181.021V306.699H343.504V301.847Z" fill="#E2F0FB"/>
<path d="M343.504 310.976H181.021V359.876H343.504V310.976Z" fill="#E2F0FB"/>
<path d="M343.504 365.738H181.021V370.579H343.504V365.738Z" fill="#E2F0FB"/>
<path d="M466.953 292.719H359.102V297.56H466.953V292.719Z" fill="#E2F0FB"/>
<path d="M466.953 301.847H359.102V306.699H466.953V301.847Z" fill="#E2F0FB"/>
<path d="M466.953 274.83H359.102V279.671H466.953V274.83Z" fill="#E2F0FB"/>
<path d="M466.953 265.832H359.102V270.673H466.953V265.832Z" fill="#E2F0FB"/>
<path d="M466.953 310.976H359.102V315.817H466.953V310.976Z" fill="#E2F0FB"/>
<path d="M466.953 320.105H359.102V324.946H466.953V320.105Z" fill="#E2F0FB"/>
<path d="M466.953 329.234H359.102V334.086H466.953V329.234Z" fill="#E2F0FB"/>
<path d="M466.953 338.362H359.102V343.214H466.953V338.362Z" fill="#E2F0FB"/>
<path d="M466.953 347.48H359.102V352.321H466.953V347.48Z" fill="#E2F0FB"/>
<path d="M466.953 356.62H359.102V361.461H466.953V356.62Z" fill="#E2F0FB"/>
<path d="M466.953 365.738H359.102V370.579H466.953V365.738Z" fill="#E2F0FB"/>
<path d="M213.424 149.377V185.707H204.964L188.927 166.348V185.707H178.859V149.377H187.318L203.355 168.736V149.377H213.424ZM249.84 177.766V185.707H220.673V149.377H249.166V157.318H230.845V163.442H246.986V171.123H230.845V177.766H249.84ZM312.022 149.377L300.241 185.707H289.238L282.284 163.598L275.018 185.707H264.015L252.233 149.377H262.821L270.139 172.576L277.82 149.377H287.266L294.584 172.784L302.213 149.377H312.022ZM328.472 186.434C325.531 186.434 322.676 186.07 319.908 185.344C317.14 184.617 314.891 183.648 313.161 182.437L316.535 174.86C318.161 175.933 320.047 176.798 322.192 177.455C324.337 178.112 326.448 178.441 328.524 178.441C332.468 178.441 334.44 177.455 334.44 175.483C334.44 174.445 333.869 173.684 332.727 173.199C331.62 172.68 329.821 172.144 327.33 171.59C324.596 171.002 322.313 170.379 320.479 169.722C318.645 169.03 317.071 167.94 315.756 166.452C314.441 164.964 313.784 162.958 313.784 160.432C313.784 158.217 314.389 156.228 315.6 154.463C316.811 152.664 318.611 151.246 320.998 150.208C323.42 149.17 326.378 148.651 329.873 148.651C332.26 148.651 334.613 148.927 336.931 149.481C339.25 150 341.291 150.778 343.056 151.816L339.89 159.446C336.43 157.577 333.073 156.643 329.821 156.643C327.78 156.643 326.292 156.955 325.358 157.577C324.423 158.166 323.956 158.944 323.956 159.913C323.956 160.882 324.51 161.608 325.617 162.093C326.724 162.577 328.506 163.079 330.963 163.598C333.731 164.186 336.014 164.826 337.814 165.518C339.647 166.175 341.222 167.248 342.537 168.736C343.886 170.189 344.561 172.179 344.561 174.704C344.561 176.884 343.955 178.856 342.744 180.621C341.533 182.386 339.717 183.804 337.295 184.877C334.873 185.915 331.932 186.434 328.472 186.434Z" fill="#92A7F4"/>
<path d="M466.955 209.388H359.104V261.772H466.955V209.388Z" fill="#E2F0FB"/>
<path d="M466.955 148.146H379.195V196.71H466.955V148.146Z" fill="#DEEBFF"/>
<path d="M181.022 201.887H466.954" stroke="#A0D0D8" stroke-width="1.15" stroke-miterlimit="10"/>
<path d="M406.396 172.841C406.396 169.176 407.483 165.594 409.519 162.547C411.555 159.499 414.449 157.125 417.835 155.722C421.22 154.32 424.946 153.953 428.54 154.668C432.134 155.383 435.436 157.147 438.027 159.739C440.618 162.33 442.383 165.632 443.098 169.226C443.813 172.82 443.446 176.546 442.044 179.931C440.641 183.317 438.266 186.211 435.219 188.247C432.172 190.283 428.59 191.369 424.925 191.369C420.012 191.366 415.301 189.413 411.827 185.939C408.352 182.465 406.399 177.754 406.396 172.841ZM408.285 172.841C408.285 176.132 409.261 179.349 411.09 182.085C412.918 184.822 415.517 186.955 418.557 188.214C421.598 189.473 424.944 189.803 428.172 189.161C431.399 188.519 434.364 186.934 436.692 184.607C439.019 182.28 440.604 179.315 441.246 176.087C441.888 172.859 441.558 169.513 440.299 166.473C439.039 163.432 436.906 160.833 434.17 159.005C431.434 157.176 428.216 156.2 424.925 156.2C420.513 156.203 416.282 157.957 413.162 161.077C410.042 164.197 408.288 168.428 408.285 172.841Z" fill="white"/>
<path d="M416.633 172.841C416.633 162.453 420.28 154.323 424.926 154.323C429.572 154.323 433.219 162.453 433.219 172.841C433.219 183.228 429.572 191.369 424.926 191.369C420.28 191.369 416.633 183.228 416.633 172.841ZM418.522 172.841C418.522 182.61 421.897 189.481 424.926 189.481C427.954 189.481 431.33 182.653 431.33 172.841C431.33 163.028 427.954 156.2 424.926 156.2C421.897 156.2 418.522 163.039 418.522 172.841Z" fill="white"/>
<path d="M442.499 171.907H407.341V173.785H442.499V171.907Z" fill="white"/>
<path d="M424.925 165.959C435.128 165.959 438.71 162.377 438.862 162.225L437.473 160.911L438.157 161.574L437.484 160.911C437.484 160.911 434.227 164.07 424.892 164.07C415.557 164.07 412.334 160.944 412.301 160.911L410.955 162.225C411.107 162.377 414.689 165.959 424.892 165.959" fill="white"/>
<path d="M437.473 184.781L438.819 183.467C438.667 183.315 435.085 179.733 424.882 179.733C414.678 179.733 411.096 183.315 410.944 183.467L412.301 184.77C412.301 184.77 415.558 181.611 424.882 181.611C434.206 181.611 437.44 184.748 437.473 184.781Z" fill="white"/>
<path d="M453.484 256.823H364.899V213.849" stroke="#9999EF" stroke-width="0.52" stroke-miterlimit="10"/>
<g opacity="0.24">
<g opacity="0.24">
<g opacity="0.24">
<g opacity="0.24">
<path opacity="0.24" d="M439.373 219.114H364.899V256.779H439.373V219.114Z" fill="url(#paint0_linear)"/>
</g>
</g>
</g>
</g>
<g opacity="0.24">
<g opacity="0.24">
<g opacity="0.24">
<g opacity="0.24">
<path opacity="0.24" d="M427.758 220.112H364.899V256.779H427.758V220.112Z" fill="url(#paint1_linear)"/>
</g>
</g>
</g>
</g>
<path d="M449.75 213.133H462.417" stroke="#9999EF" stroke-width="0.72" stroke-miterlimit="10"/>
<path d="M449.75 215.217H462.417" stroke="#9999EF" stroke-width="0.72" stroke-miterlimit="10"/>
<path d="M449.75 217.312H462.417" stroke="#9999EF" stroke-width="0.72" stroke-miterlimit="10"/>
<path d="M441.544 213.133H447.286" stroke="#9999EF" stroke-width="0.72" stroke-miterlimit="10"/>
<path d="M441.544 215.217H447.286" stroke="#9999EF" stroke-width="0.72" stroke-miterlimit="10"/>
<path d="M441.544 217.312H447.286" stroke="#9999EF" stroke-width="0.72" stroke-miterlimit="10"/>
<path d="M368.666 232.085C371.597 233.322 373.431 235.884 374.81 238.424C376.188 240.964 377.328 243.656 379.521 245.729C381.713 247.802 385.35 249.116 388.324 247.9C390.951 246.869 392.21 244.34 393.154 242.006C395.894 235.268 397.949 228.271 399.287 221.122C399.41 220.044 399.742 219.001 400.264 218.05C400.572 217.541 401 217.116 401.511 216.811C402.022 216.506 402.6 216.332 403.195 216.302C403.895 216.363 404.575 216.566 405.193 216.9C405.811 217.235 406.354 217.692 406.787 218.245C413.018 224.758 415.721 233.149 421.007 240.215C422.092 241.594 423.417 243.048 425.349 243.222C426.865 243.231 428.344 242.755 429.571 241.865C433.231 239.672 436.505 236.892 439.264 233.637" stroke="white" stroke-width="0.56" stroke-miterlimit="10"/>
<path d="M369.154 231.868C369.154 231.965 369.125 232.059 369.071 232.139C369.018 232.22 368.941 232.282 368.852 232.319C368.763 232.356 368.665 232.366 368.57 232.347C368.475 232.328 368.388 232.282 368.32 232.213C368.252 232.145 368.205 232.058 368.186 231.963C368.167 231.868 368.177 231.77 368.214 231.681C368.251 231.592 368.314 231.515 368.394 231.462C368.474 231.408 368.569 231.379 368.665 231.379C368.795 231.379 368.919 231.431 369.011 231.522C369.102 231.614 369.154 231.738 369.154 231.868Z" fill="#9999EF"/>
<path d="M369.154 231.868C369.154 231.965 369.125 232.059 369.071 232.139C369.018 232.22 368.941 232.282 368.852 232.319C368.763 232.356 368.665 232.366 368.57 232.347C368.475 232.328 368.388 232.282 368.32 232.213C368.252 232.145 368.205 232.058 368.186 231.963C368.167 231.868 368.177 231.77 368.214 231.681C368.251 231.592 368.314 231.515 368.394 231.462C368.474 231.408 368.569 231.379 368.665 231.379C368.795 231.379 368.919 231.431 369.011 231.522C369.102 231.614 369.154 231.738 369.154 231.868V231.868Z" stroke="#9999EF" stroke-miterlimit="10"/>
<path d="M386.543 248.323C386.543 248.42 386.515 248.514 386.461 248.595C386.407 248.675 386.331 248.738 386.242 248.775C386.153 248.812 386.054 248.821 385.96 248.802C385.865 248.784 385.778 248.737 385.709 248.669C385.641 248.601 385.595 248.513 385.576 248.419C385.557 248.324 385.567 248.226 385.604 248.137C385.641 248.047 385.703 247.971 385.783 247.917C385.864 247.864 385.958 247.835 386.055 247.835C386.184 247.835 386.309 247.886 386.4 247.978C386.492 248.07 386.543 248.194 386.543 248.323Z" fill="#9999EF"/>
<path d="M386.543 248.323C386.543 248.42 386.515 248.514 386.461 248.595C386.407 248.675 386.331 248.738 386.242 248.775C386.153 248.812 386.054 248.821 385.96 248.802C385.865 248.784 385.778 248.737 385.709 248.669C385.641 248.601 385.595 248.513 385.576 248.419C385.557 248.324 385.567 248.226 385.604 248.137C385.641 248.047 385.703 247.971 385.783 247.917C385.864 247.864 385.958 247.835 386.055 247.835C386.184 247.835 386.309 247.886 386.4 247.978C386.492 248.07 386.543 248.194 386.543 248.323V248.323Z" stroke="#9999EF" stroke-miterlimit="10"/>
<path d="M439.286 234.028C439.286 234.158 439.234 234.282 439.142 234.373C439.051 234.465 438.927 234.516 438.797 234.516C438.668 234.516 438.543 234.465 438.452 234.373C438.36 234.282 438.309 234.158 438.309 234.028C438.309 233.898 438.36 233.774 438.452 233.683C438.543 233.591 438.668 233.539 438.797 233.539C438.927 233.539 439.051 233.591 439.142 233.683C439.234 233.774 439.286 233.898 439.286 234.028Z" fill="#9999EF"/>
<path d="M439.286 234.028C439.286 234.158 439.234 234.282 439.142 234.373C439.051 234.465 438.927 234.516 438.797 234.516C438.668 234.516 438.543 234.465 438.452 234.373C438.36 234.282 438.309 234.158 438.309 234.028C438.309 233.898 438.36 233.774 438.452 233.683C438.543 233.591 438.668 233.539 438.797 233.539C438.927 233.539 439.051 233.591 439.142 233.683C439.234 233.774 439.286 233.898 439.286 234.028Z" stroke="#9999EF" stroke-miterlimit="10"/>
<path d="M425.837 243.341C425.837 243.471 425.786 243.595 425.694 243.687C425.603 243.778 425.478 243.83 425.349 243.83C425.219 243.83 425.095 243.778 425.003 243.687C424.912 243.595 424.86 243.471 424.86 243.341C424.863 243.213 424.915 243.09 425.006 242.999C425.097 242.908 425.22 242.855 425.349 242.853C425.478 242.853 425.603 242.904 425.694 242.996C425.786 243.087 425.837 243.212 425.837 243.341Z" fill="#9999EF"/>
<path d="M425.837 243.341C425.837 243.471 425.786 243.595 425.694 243.687C425.603 243.778 425.478 243.83 425.349 243.83C425.219 243.83 425.095 243.778 425.003 243.687C424.912 243.595 424.86 243.471 424.86 243.341C424.863 243.213 424.915 243.09 425.006 242.999C425.097 242.908 425.22 242.855 425.349 242.853C425.478 242.853 425.603 242.904 425.694 242.996C425.786 243.087 425.837 243.212 425.837 243.341V243.341Z" stroke="#9999EF" stroke-miterlimit="10"/>
<path d="M403.173 216.476C403.173 216.606 403.122 216.73 403.03 216.821C402.939 216.913 402.814 216.964 402.685 216.964C402.555 216.964 402.431 216.913 402.339 216.821C402.248 216.73 402.196 216.606 402.196 216.476C402.196 216.346 402.248 216.222 402.339 216.131C402.431 216.039 402.555 215.988 402.685 215.988C402.814 215.988 402.939 216.039 403.03 216.131C403.122 216.222 403.173 216.346 403.173 216.476Z" fill="#9999EF"/>
<path d="M403.173 216.476C403.173 216.606 403.122 216.73 403.03 216.821C402.939 216.913 402.814 216.964 402.685 216.964C402.555 216.964 402.431 216.913 402.339 216.821C402.248 216.73 402.196 216.606 402.196 216.476C402.196 216.346 402.248 216.222 402.339 216.131C402.431 216.039 402.555 215.988 402.685 215.988C402.814 215.988 402.939 216.039 403.03 216.131C403.122 216.222 403.173 216.346 403.173 216.476V216.476Z" stroke="#9999EF" stroke-miterlimit="10"/>
<g opacity="0.3">
<g opacity="0.3">
<path opacity="0.3" d="M309.758 39.7307C309.758 40.3748 309.567 41.0044 309.209 41.5399C308.851 42.0754 308.343 42.4928 307.748 42.7392C307.153 42.9857 306.498 43.0502 305.866 42.9245C305.235 42.7989 304.654 42.4888 304.199 42.0334C303.743 41.5779 303.433 40.9977 303.308 40.366C303.182 39.7343 303.247 39.0796 303.493 38.4846C303.739 37.8895 304.157 37.381 304.692 37.0232C305.228 36.6653 305.857 36.4744 306.501 36.4744C307.365 36.4744 308.193 36.8174 308.804 37.4281C309.415 38.0388 309.758 38.8671 309.758 39.7307Z" fill="#9999EF"/>
</g>
</g>
<g opacity="0.3">
<g opacity="0.3">
<path opacity="0.3" d="M229.119 44.0726C229.121 45.66 228.652 47.2124 227.772 48.5332C226.891 49.854 225.639 50.8838 224.172 51.4923C222.706 52.1008 221.092 52.2605 219.535 51.9514C217.978 51.6422 216.548 50.878 215.426 49.7555C214.303 48.633 213.539 47.2027 213.23 45.6457C212.921 44.0887 213.08 42.4749 213.689 41.0087C214.297 39.5425 215.327 38.2898 216.648 37.4092C217.969 36.5287 219.521 36.0598 221.109 36.0619C223.233 36.0619 225.271 36.9059 226.773 38.4082C228.275 39.9105 229.119 41.948 229.119 44.0726Z" fill="#9999EF"/>
</g>
</g>
<g opacity="0.3">
<g opacity="0.3">
<path opacity="0.3" d="M110.229 415.169C110.229 416.754 109.76 418.303 108.879 419.62C107.999 420.937 106.748 421.964 105.284 422.57C103.82 423.177 102.21 423.335 100.656 423.026C99.102 422.717 97.6746 421.954 96.5543 420.834C95.434 419.714 94.671 418.286 94.3619 416.732C94.0528 415.178 94.2115 413.568 94.8178 412.104C95.4241 410.64 96.4508 409.389 97.7682 408.509C99.0855 407.629 100.634 407.159 102.219 407.159C104.343 407.159 106.381 408.003 107.883 409.505C109.385 411.007 110.229 413.045 110.229 415.169Z" fill="#9999EF"/>
</g>
</g>
<g opacity="0.3">
<g opacity="0.3">
<path opacity="0.3" d="M404.551 42.8786C404.551 43.9091 404.246 44.9164 403.673 45.7732C403.101 46.63 402.287 47.2979 401.335 47.6922C400.383 48.0865 399.335 48.1897 398.325 47.9887C397.314 47.7877 396.386 47.2914 395.657 46.5628C394.928 45.8341 394.432 44.9057 394.231 43.8951C394.03 42.8844 394.133 41.8368 394.527 40.8847C394.922 39.9327 395.59 39.119 396.446 38.5465C397.303 37.974 398.311 37.6684 399.341 37.6684C400.723 37.6684 402.048 38.2173 403.025 39.1944C404.002 40.1715 404.551 41.4968 404.551 42.8786Z" fill="#9999EF"/>
</g>
</g>
<g opacity="0.43">
<g opacity="0.43">
<path opacity="0.43" d="M120.834 9.76121C120.546 9.76121 120.27 9.64685 120.066 9.44328C119.862 9.23972 119.748 8.96363 119.748 8.67575V1.33805C119.814 1.11258 119.951 0.914524 120.139 0.773607C120.327 0.63269 120.555 0.556519 120.79 0.556519C121.025 0.556519 121.253 0.63269 121.441 0.773607C121.629 0.914524 121.766 1.11258 121.832 1.33805V8.67575C121.832 8.96363 121.718 9.23972 121.514 9.44328C121.311 9.64685 121.035 9.76121 120.747 9.76121" fill="#9999EF"/>
<path opacity="0.43" d="M124.514 6.09234H117.165C116.94 6.02658 116.742 5.88946 116.601 5.70157C116.46 5.51368 116.384 5.28517 116.384 5.05031C116.384 4.81545 116.46 4.58691 116.601 4.39902C116.742 4.21114 116.94 4.07402 117.165 4.00826H124.514C124.676 3.96108 124.846 3.95221 125.012 3.98235C125.178 4.0125 125.334 4.08083 125.469 4.18194C125.604 4.28304 125.713 4.41415 125.789 4.56487C125.864 4.71559 125.903 4.88179 125.903 5.05031C125.903 5.21882 125.864 5.38501 125.789 5.53573C125.713 5.68645 125.604 5.81757 125.469 5.91868C125.334 6.01978 125.178 6.08811 125.012 6.11826C124.846 6.1484 124.676 6.13952 124.514 6.09234Z" fill="#9999EF"/>
</g>
</g>
<g opacity="0.3">
<g opacity="0.3">
<path opacity="0.3" d="M26.1386 169.335C25.8508 169.335 25.5747 169.22 25.3711 169.017C25.1675 168.813 25.0532 168.537 25.0532 168.249V160.911C25.006 160.75 24.9971 160.579 25.0273 160.413C25.0574 160.248 25.1257 160.091 25.2269 159.956C25.328 159.821 25.4591 159.712 25.6098 159.637C25.7605 159.561 25.9267 159.522 26.0952 159.522C26.2637 159.522 26.4299 159.561 26.5807 159.637C26.7314 159.712 26.8625 159.821 26.9636 159.956C27.0647 160.091 27.133 160.248 27.1632 160.413C27.1933 160.579 27.1844 160.75 27.1373 160.911V168.249C27.1373 168.537 27.0229 168.813 26.8193 169.017C26.6158 169.22 26.3397 169.335 26.0518 169.335" fill="#9999EF"/>
<path opacity="0.3" d="M29.8068 165.666H22.4583C22.2328 165.6 22.0348 165.463 21.8938 165.275C21.7529 165.087 21.6768 164.859 21.6768 164.624C21.6768 164.389 21.7529 164.16 21.8938 163.972C22.0348 163.785 22.2328 163.647 22.4583 163.582H29.8068C29.9686 163.534 30.1392 163.526 30.3049 163.556C30.4707 163.586 30.6272 163.654 30.762 163.755C30.8969 163.856 31.0063 163.988 31.0816 164.138C31.157 164.289 31.1962 164.455 31.1962 164.624C31.1962 164.792 31.157 164.958 31.0816 165.109C31.0063 165.26 30.8969 165.391 30.762 165.492C30.6272 165.593 30.4707 165.661 30.3049 165.692C30.1392 165.722 29.9686 165.713 29.8068 165.666Z" fill="#9999EF"/>
</g>
</g>
<path d="M115.371 64.9704L115.176 64.7642C113.233 62.7235 112.473 60.4875 109.249 60.3355C105.439 60.1727 99.2305 61.1496 97.6565 56.5256C96.7122 53.7576 97.6565 50.5121 95.6267 48.0807C94.871 47.2693 93.9412 46.6397 92.9072 46.2392C91.8732 45.8388 90.7618 45.6779 89.6567 45.7687C85.8685 45.9423 82.7858 48.58 79.0843 49.0793C74.7425 49.6763 72.6801 45.5407 69.1741 43.8148C62.987 40.7538 57.6791 43.4566 54.5095 45.9857C51.0153 48.7976 48.7218 52.8335 48.0945 57.2745C47.3021 62.5824 52.1975 67.7492 57.4077 70.0721C60.0361 71.1172 62.8519 71.6087 65.6789 71.5158C69.0004 71.5158 72.3219 71.4289 75.6217 71.3529C81.8414 71.2118 132.576 71.646 132.576 70.0721C132.576 69.0626 125.195 68.1183 124.153 67.8143C121.168 66.9568 117.727 67.2824 115.371 65.0247" fill="#D9E8FF"/>
<g opacity="0.7">
<g opacity="0.7">
<path opacity="0.7" d="M120.344 105.368L118.238 106.671C118.027 106.798 117.774 106.837 117.534 106.78C117.295 106.723 117.087 106.574 116.955 106.366C116.823 106.158 116.778 105.906 116.829 105.665C116.88 105.424 117.024 105.212 117.229 105.075L119.4 103.686C119.613 103.552 119.87 103.508 120.115 103.564C120.237 103.592 120.352 103.643 120.453 103.716C120.555 103.788 120.641 103.879 120.708 103.985C120.774 104.09 120.819 104.208 120.84 104.33C120.861 104.453 120.857 104.579 120.829 104.7C120.802 104.822 120.75 104.937 120.678 105.038C120.606 105.14 120.515 105.226 120.409 105.293L120.344 105.368Z" fill="#B8E2FF"/>
<path opacity="0.7" d="M115.189 108.896C113.864 109.982 112.605 111.067 111.379 112.229C111.292 112.312 111.19 112.378 111.079 112.422C110.967 112.466 110.848 112.487 110.728 112.485C110.608 112.483 110.49 112.458 110.38 112.41C110.27 112.362 110.17 112.293 110.087 112.207C110.003 112.121 109.938 112.019 109.894 111.907C109.85 111.796 109.828 111.676 109.83 111.557C109.832 111.437 109.858 111.318 109.906 111.208C109.953 111.098 110.022 110.999 110.109 110.915C111.353 109.699 112.659 108.542 114.027 107.442C114.222 107.31 114.459 107.256 114.691 107.291C114.923 107.327 115.134 107.448 115.281 107.632C115.427 107.815 115.499 108.048 115.482 108.282C115.465 108.516 115.36 108.736 115.189 108.896Z" fill="#B8E2FF"/>
<path opacity="0.7" d="M108.731 114.953C107.595 116.198 106.509 117.489 105.475 118.828C105.331 119.014 105.119 119.135 104.886 119.164C104.653 119.194 104.417 119.129 104.232 118.986C104.046 118.842 103.925 118.63 103.896 118.397C103.866 118.164 103.93 117.928 104.074 117.743C105.131 116.353 106.238 115.011 107.396 113.716C107.556 113.539 107.779 113.433 108.017 113.421C108.255 113.409 108.489 113.491 108.666 113.65C108.844 113.809 108.952 114.032 108.966 114.27C108.981 114.508 108.9 114.742 108.742 114.92L108.731 114.953Z" fill="#B8E2FF"/>
<path opacity="0.7" d="M103.249 121.922C102.301 123.318 101.425 124.766 100.622 126.264C100.512 126.462 100.328 126.608 100.111 126.671C99.8931 126.734 99.6594 126.709 99.4606 126.6C99.3618 126.548 99.2745 126.476 99.2038 126.39C99.1332 126.303 99.0806 126.203 99.0492 126.096C99.0178 125.989 99.0083 125.876 99.0212 125.765C99.034 125.654 99.069 125.547 99.1241 125.449C99.949 123.919 100.839 122.421 101.805 120.977C101.932 120.784 102.13 120.65 102.356 120.603C102.582 120.556 102.817 120.601 103.01 120.728C103.203 120.854 103.338 121.052 103.384 121.278C103.431 121.504 103.386 121.74 103.26 121.933L103.249 121.922Z" fill="#B8E2FF"/>
<path opacity="0.7" d="M98.9292 129.639C98.2277 131.17 97.6223 132.744 97.1165 134.35C97.0503 134.559 96.9038 134.733 96.7094 134.834C96.515 134.934 96.2886 134.954 96.0799 134.888C95.8711 134.821 95.6973 134.675 95.5965 134.481C95.4958 134.286 95.4763 134.06 95.5426 133.851C96.0638 132.185 96.6799 130.551 97.3878 128.955C97.4771 128.751 97.6439 128.591 97.8515 128.509C98.0591 128.428 98.2906 128.432 98.495 128.521C98.6994 128.611 98.86 128.777 98.9414 128.985C99.0228 129.193 99.0184 129.424 98.9292 129.628V129.639Z" fill="#B8E2FF"/>
<path opacity="0.7" d="M96.1607 137.997C95.8175 139.634 95.6142 141.297 95.5529 142.969C95.5444 143.18 95.453 143.379 95.2986 143.523C95.1442 143.668 94.9392 143.745 94.7279 143.739C94.5197 143.731 94.3231 143.641 94.1809 143.488C94.0387 143.336 93.9622 143.134 93.9681 142.925C94.0197 141.164 94.2194 139.41 94.5651 137.683C94.6152 137.479 94.7417 137.303 94.9182 137.191C95.0947 137.079 95.3077 137.038 95.5131 137.079C95.7184 137.119 95.9002 137.237 96.0208 137.408C96.1414 137.579 96.1915 137.79 96.1607 137.997Z" fill="#B8E2FF"/>
<path opacity="0.7" d="M95.7048 146.692C95.8925 148.341 96.2751 149.963 96.8445 151.522C96.8788 151.616 96.8941 151.716 96.8897 151.816C96.8853 151.916 96.8613 152.014 96.8189 152.105C96.7766 152.196 96.7168 152.277 96.643 152.345C96.5692 152.412 96.4827 152.465 96.3887 152.499C96.2946 152.533 96.1947 152.549 96.0947 152.544C95.9947 152.54 95.8965 152.516 95.8058 152.473C95.7151 152.431 95.6336 152.371 95.566 152.298C95.4984 152.224 95.4459 152.137 95.4117 152.043C94.7927 150.379 94.3701 148.649 94.1526 146.887C94.1398 146.785 94.1471 146.682 94.1743 146.583C94.2014 146.484 94.2478 146.391 94.3108 146.31C94.3738 146.229 94.4522 146.161 94.5415 146.11C94.6307 146.059 94.7291 146.026 94.831 146.013C94.9329 146.001 95.0364 146.008 95.1354 146.035C95.2345 146.062 95.3273 146.109 95.4084 146.172C95.4896 146.235 95.5575 146.313 95.6083 146.402C95.6592 146.492 95.692 146.59 95.7048 146.692Z" fill="#B8E2FF"/>
<path opacity="0.7" d="M98.4402 154.909C99.2922 156.333 100.305 157.655 101.458 158.849C101.534 158.917 101.596 159.001 101.637 159.094C101.679 159.188 101.701 159.289 101.701 159.392C101.701 159.494 101.679 159.596 101.637 159.689C101.596 159.783 101.534 159.866 101.458 159.935C101.389 160.01 101.305 160.069 101.211 160.11C101.118 160.151 101.017 160.172 100.915 160.172C100.813 160.172 100.712 160.151 100.619 160.11C100.525 160.069 100.441 160.01 100.372 159.935C99.1275 158.669 98.0346 157.263 97.116 155.745C97.0138 155.573 96.9838 155.368 97.0327 155.175C97.0815 154.982 97.2052 154.816 97.3765 154.713C97.5478 154.611 97.7527 154.581 97.946 154.63C98.1394 154.679 98.3055 154.803 98.4077 154.974L98.4402 154.909Z" fill="#B8E2FF"/>
<path opacity="0.7" d="M104.237 161.28C105.572 162.295 106.988 163.199 108.47 163.983C108.551 164.026 108.624 164.084 108.682 164.155C108.741 164.226 108.785 164.307 108.812 164.395C108.84 164.482 108.849 164.575 108.841 164.666C108.832 164.757 108.806 164.846 108.763 164.928C108.721 165.009 108.662 165.081 108.592 165.14C108.521 165.198 108.44 165.243 108.352 165.27C108.264 165.297 108.172 165.307 108.081 165.298C107.989 165.29 107.9 165.263 107.819 165.221C106.26 164.418 104.771 163.485 103.369 162.431C103.216 162.316 103.115 162.145 103.089 161.956C103.063 161.766 103.112 161.574 103.227 161.422C103.343 161.269 103.514 161.168 103.703 161.142C103.892 161.115 104.084 161.165 104.237 161.28Z" fill="#B8E2FF"/>
<path opacity="0.7" d="M111.933 165.579C113.497 166.199 115.104 166.703 116.742 167.088C116.828 167.107 116.909 167.143 116.981 167.194C117.053 167.245 117.114 167.31 117.16 167.384C117.207 167.459 117.238 167.543 117.252 167.63C117.266 167.716 117.262 167.805 117.241 167.891C117.2 168.063 117.092 168.212 116.942 168.305C116.792 168.399 116.61 168.429 116.438 168.39C114.734 168.006 113.061 167.494 111.434 166.86C111.349 166.827 111.272 166.779 111.207 166.716C111.142 166.654 111.089 166.579 111.053 166.496C111.016 166.413 110.997 166.324 110.995 166.234C110.994 166.144 111.01 166.054 111.043 165.97C111.109 165.799 111.239 165.661 111.406 165.586C111.572 165.511 111.762 165.504 111.933 165.568V165.579Z" fill="#B8E2FF"/>
<path opacity="0.7" d="M120.518 167.75C122.189 167.954 123.872 168.034 125.555 167.989C125.709 168.009 125.85 168.084 125.953 168.201C126.056 168.318 126.112 168.468 126.112 168.624C126.112 168.779 126.056 168.929 125.953 169.046C125.85 169.163 125.709 169.238 125.555 169.259C123.805 169.326 122.052 169.257 120.312 169.052C120.226 169.044 120.142 169.019 120.066 168.978C119.989 168.936 119.922 168.88 119.869 168.812C119.815 168.744 119.775 168.666 119.753 168.582C119.73 168.498 119.725 168.411 119.737 168.325C119.759 168.153 119.847 167.997 119.983 167.889C120.119 167.781 120.292 167.731 120.464 167.75H120.518Z" fill="#B8E2FF"/>
<path opacity="0.7" d="M129.278 167.663C130.947 167.431 132.594 167.068 134.206 166.578C134.359 166.534 134.523 166.552 134.662 166.628C134.802 166.704 134.906 166.831 134.953 166.983C135 167.135 134.986 167.299 134.913 167.44C134.84 167.582 134.715 167.689 134.564 167.739C132.896 168.259 131.19 168.651 129.462 168.911C129.3 168.936 129.134 168.895 129.002 168.797C128.869 168.699 128.781 168.553 128.757 168.39C128.732 168.228 128.774 168.062 128.871 167.93C128.969 167.797 129.115 167.709 129.278 167.685V167.663Z" fill="#B8E2FF"/>
<path opacity="0.7" d="M137.745 165.242C139.273 164.568 140.728 163.739 142.086 162.768C142.21 162.678 142.364 162.642 142.515 162.666C142.666 162.691 142.8 162.774 142.89 162.898C142.979 163.022 143.015 163.176 142.991 163.326C142.966 163.477 142.883 163.612 142.759 163.701C141.336 164.731 139.808 165.607 138.2 166.317C138.13 166.35 138.054 166.368 137.976 166.371C137.899 166.374 137.821 166.361 137.748 166.334C137.676 166.307 137.609 166.265 137.553 166.212C137.496 166.159 137.451 166.095 137.419 166.024C137.356 165.881 137.351 165.719 137.406 165.573C137.461 165.427 137.571 165.309 137.712 165.242H137.745Z" fill="#B8E2FF"/>
<path opacity="0.7" d="M144.898 160.336C145.996 159.116 146.815 157.672 147.297 156.103C147.317 156.032 147.35 155.965 147.396 155.907C147.442 155.849 147.499 155.8 147.563 155.764C147.628 155.727 147.699 155.704 147.772 155.695C147.846 155.686 147.92 155.692 147.991 155.712C148.063 155.732 148.129 155.766 148.188 155.812C148.246 155.857 148.294 155.914 148.331 155.979C148.367 156.043 148.39 156.114 148.399 156.188C148.408 156.261 148.402 156.336 148.382 156.407C147.87 158.134 146.985 159.728 145.788 161.074C145.74 161.131 145.681 161.177 145.615 161.211C145.549 161.244 145.477 161.264 145.403 161.269C145.329 161.274 145.255 161.264 145.185 161.24C145.115 161.216 145.051 161.178 144.996 161.129C144.882 161.032 144.812 160.894 144.8 160.746C144.788 160.597 144.835 160.45 144.93 160.336H144.898Z" fill="#B8E2FF"/>
<path opacity="0.7" d="M147.655 152.434C147.513 150.786 147.091 149.175 146.406 147.669C146.351 147.543 146.348 147.401 146.396 147.273C146.445 147.146 146.542 147.042 146.667 146.985C146.79 146.932 146.928 146.929 147.053 146.975C147.179 147.022 147.281 147.115 147.34 147.235C147.711 148.041 148.016 148.876 148.252 149.731C148.495 150.593 148.651 151.476 148.718 152.369C148.723 152.44 148.714 152.512 148.692 152.579C148.669 152.647 148.633 152.71 148.586 152.764C148.492 152.873 148.358 152.94 148.214 152.95C148.07 152.96 147.928 152.912 147.819 152.818C147.71 152.723 147.643 152.589 147.633 152.445L147.655 152.434Z" fill="#B8E2FF"/>
<path opacity="0.7" d="M144.3 144.706C143.082 143.599 141.627 142.785 140.045 142.328C139.985 142.311 139.928 142.281 139.879 142.241C139.83 142.202 139.789 142.153 139.759 142.097C139.729 142.042 139.71 141.981 139.703 141.918C139.696 141.855 139.702 141.792 139.72 141.731C139.738 141.671 139.767 141.614 139.807 141.565C139.846 141.516 139.895 141.475 139.951 141.445C140.006 141.415 140.067 141.396 140.13 141.389C140.193 141.382 140.256 141.388 140.317 141.406C142.048 141.888 143.643 142.769 144.973 143.978C145.031 144.019 145.079 144.073 145.115 144.134C145.15 144.195 145.172 144.263 145.179 144.334C145.186 144.404 145.178 144.475 145.156 144.542C145.134 144.61 145.097 144.671 145.049 144.723C145.001 144.775 144.942 144.816 144.877 144.844C144.812 144.871 144.741 144.885 144.671 144.883C144.6 144.882 144.53 144.865 144.466 144.834C144.403 144.804 144.346 144.76 144.3 144.706Z" fill="#B8E2FF"/>
<path opacity="0.7" d="M136.354 141.699C134.676 141.625 132.995 141.73 131.34 142.014C131.281 142.024 131.221 142.024 131.163 142.011C131.105 141.998 131.05 141.974 131.001 141.939C130.953 141.905 130.911 141.861 130.88 141.81C130.849 141.76 130.828 141.703 130.819 141.645C130.799 141.528 130.826 141.409 130.893 141.312C130.96 141.215 131.061 141.147 131.177 141.124C132.903 140.814 134.657 140.694 136.409 140.765C136.533 140.765 136.651 140.815 136.739 140.902C136.826 140.99 136.875 141.108 136.875 141.232C136.875 141.356 136.826 141.475 136.739 141.562C136.651 141.65 136.533 141.699 136.409 141.699H136.354Z" fill="#B8E2FF"/>
<path opacity="0.7" d="M127.639 142.893C126.016 143.382 124.431 143.988 122.895 144.706C122.793 144.751 122.677 144.754 122.572 144.716C122.467 144.677 122.38 144.6 122.331 144.499C122.286 144.398 122.283 144.284 122.322 144.181C122.36 144.077 122.437 143.993 122.537 143.946C124.106 143.203 125.723 142.568 127.378 142.046C127.491 142.015 127.61 142.028 127.713 142.083C127.816 142.137 127.895 142.229 127.932 142.339C127.963 142.452 127.95 142.571 127.896 142.674C127.841 142.777 127.749 142.855 127.639 142.893Z" fill="#B8E2FF"/>
<path opacity="0.7" d="M119.51 146.475C118.045 147.334 116.634 148.284 115.287 149.319C115.203 149.38 115.098 149.407 114.995 149.393C114.892 149.379 114.798 149.325 114.734 149.243C114.702 149.203 114.679 149.156 114.665 149.107C114.652 149.057 114.649 149.006 114.656 148.955C114.663 148.904 114.68 148.856 114.707 148.812C114.733 148.768 114.768 148.73 114.81 148.7C116.178 147.637 117.61 146.658 119.097 145.769C119.19 145.717 119.299 145.702 119.402 145.728C119.506 145.755 119.595 145.82 119.651 145.91C119.707 146.004 119.723 146.116 119.697 146.222C119.67 146.327 119.603 146.419 119.51 146.475Z" fill="#B8E2FF"/>
<path opacity="0.7" d="M112.356 151.772C111.104 152.923 109.926 154.152 108.828 155.452C108.795 155.485 108.755 155.512 108.712 155.531C108.668 155.549 108.621 155.558 108.573 155.558C108.526 155.558 108.479 155.549 108.435 155.531C108.391 155.512 108.351 155.485 108.318 155.452C108.252 155.383 108.216 155.292 108.216 155.196C108.216 155.101 108.252 155.01 108.318 154.941C109.413 153.63 110.588 152.386 111.835 151.218C111.91 151.166 112.002 151.142 112.094 151.152C112.185 151.162 112.269 151.205 112.332 151.272C112.394 151.34 112.43 151.428 112.432 151.52C112.435 151.611 112.404 151.701 112.345 151.772H112.356Z" fill="#B8E2FF"/>
<path opacity="0.7" d="M106.516 158.491C105.557 159.894 104.697 161.363 103.943 162.887C103.897 162.953 103.829 163 103.752 163.02C103.674 163.04 103.591 163.032 103.519 162.996C103.447 162.961 103.39 162.901 103.358 162.827C103.327 162.753 103.322 162.671 103.346 162.594C104.107 161.038 104.974 159.537 105.941 158.1C105.993 158.026 106.072 157.976 106.162 157.959C106.251 157.943 106.343 157.962 106.418 158.013C106.457 158.037 106.49 158.069 106.516 158.107C106.542 158.144 106.56 158.186 106.569 158.231C106.579 158.276 106.579 158.322 106.569 158.366C106.56 158.411 106.542 158.453 106.516 158.491Z" fill="#B8E2FF"/>
<path opacity="0.7" d="M102.446 166.404C101.86 168 101.403 169.641 101.078 171.31C101.071 171.348 101.056 171.384 101.034 171.416C101.012 171.448 100.984 171.475 100.952 171.496C100.92 171.517 100.884 171.532 100.846 171.539C100.808 171.546 100.769 171.546 100.731 171.538C100.654 171.522 100.586 171.477 100.542 171.413C100.497 171.348 100.48 171.268 100.492 171.191C100.819 169.491 101.273 167.819 101.849 166.187C101.863 166.147 101.884 166.111 101.911 166.08C101.939 166.049 101.972 166.024 102.009 166.005C102.047 165.987 102.087 165.977 102.129 165.974C102.17 165.972 102.212 165.978 102.251 165.991C102.328 166.021 102.392 166.079 102.428 166.153C102.465 166.228 102.471 166.314 102.446 166.393V166.404Z" fill="#B8E2FF"/>
<path opacity="0.7" d="M100.568 175.098C100.438 176.796 100.438 178.502 100.568 180.2C100.576 180.239 100.575 180.28 100.565 180.319C100.556 180.358 100.538 180.395 100.512 180.426C100.487 180.457 100.455 180.482 100.418 180.499C100.382 180.517 100.342 180.525 100.302 180.525C100.262 180.525 100.222 180.517 100.186 180.499C100.149 180.482 100.117 180.457 100.092 180.426C100.066 180.395 100.048 180.358 100.039 180.319C100.029 180.28 100.028 180.239 100.036 180.2C99.9112 178.476 99.9112 176.746 100.036 175.022C100.044 174.949 100.08 174.881 100.137 174.832C100.193 174.784 100.266 174.759 100.34 174.762C100.378 174.763 100.415 174.772 100.45 174.788C100.484 174.805 100.515 174.828 100.54 174.856C100.566 174.884 100.585 174.918 100.597 174.954C100.61 174.99 100.614 175.028 100.611 175.066L100.568 175.098Z" fill="#B8E2FF"/>
<path opacity="0.7" d="M100.98 183.999C101.278 185.677 101.684 187.334 102.196 188.96C102.206 188.99 102.209 189.021 102.206 189.053C102.204 189.084 102.194 189.114 102.179 189.142C102.163 189.169 102.143 189.193 102.118 189.213C102.093 189.232 102.064 189.245 102.033 189.253C102.004 189.263 101.973 189.267 101.942 189.264C101.911 189.262 101.881 189.254 101.854 189.24C101.827 189.225 101.802 189.206 101.783 189.182C101.763 189.158 101.749 189.13 101.74 189.101C101.217 187.457 100.797 185.782 100.481 184.086C100.475 184.053 100.475 184.019 100.482 183.987C100.489 183.954 100.503 183.923 100.522 183.896C100.541 183.868 100.566 183.845 100.594 183.828C100.623 183.81 100.654 183.798 100.687 183.793C100.753 183.783 100.82 183.799 100.875 183.838C100.929 183.876 100.967 183.934 100.98 183.999Z" fill="#B8E2FF"/>
<path opacity="0.7" d="M103.53 192.574C104.179 194.154 104.926 195.691 105.766 197.177C105.78 197.2 105.789 197.226 105.792 197.253C105.796 197.28 105.794 197.307 105.787 197.333C105.78 197.36 105.768 197.384 105.751 197.406C105.735 197.427 105.714 197.445 105.69 197.459C105.641 197.484 105.583 197.491 105.529 197.477C105.475 197.463 105.428 197.429 105.397 197.383C104.542 195.887 103.781 194.339 103.118 192.748C103.096 192.693 103.096 192.632 103.118 192.577C103.141 192.523 103.183 192.479 103.237 192.455C103.264 192.442 103.293 192.436 103.323 192.435C103.353 192.435 103.382 192.44 103.41 192.451C103.437 192.462 103.462 192.479 103.483 192.5C103.503 192.521 103.52 192.547 103.53 192.574Z" fill="#B8E2FF"/>
<path opacity="0.7" d="M107.851 200.39C108.866 201.759 110.003 203.034 111.248 204.2C111.283 204.234 111.302 204.281 111.302 204.33C111.302 204.379 111.283 204.426 111.248 204.46C111.232 204.479 111.212 204.493 111.189 204.504C111.167 204.514 111.142 204.519 111.118 204.519C111.093 204.519 111.069 204.514 111.046 204.504C111.024 204.493 111.004 204.479 110.988 204.46C109.719 203.29 108.564 202.003 107.536 200.618C107.517 200.599 107.502 200.577 107.491 200.553C107.481 200.529 107.476 200.503 107.476 200.476C107.476 200.45 107.481 200.424 107.491 200.4C107.502 200.376 107.517 200.354 107.536 200.335C107.572 200.3 107.621 200.281 107.672 200.281C107.722 200.281 107.771 200.3 107.807 200.335L107.851 200.39Z" fill="#B8E2FF"/>
<path opacity="0.7" d="M114.233 206.588C115.645 207.548 117.151 208.362 118.727 209.019C118.765 209.036 118.795 209.066 118.811 209.105C118.828 209.143 118.828 209.186 118.814 209.225C118.807 209.245 118.796 209.263 118.781 209.278C118.767 209.294 118.749 209.306 118.73 209.314C118.71 209.322 118.689 209.326 118.668 209.326C118.647 209.325 118.627 209.321 118.608 209.312C117.004 208.662 115.473 207.847 114.038 206.881C114.007 206.848 113.99 206.806 113.99 206.761C113.99 206.717 114.007 206.674 114.038 206.642C114.049 206.621 114.064 206.604 114.083 206.59C114.101 206.576 114.122 206.566 114.145 206.561C114.167 206.555 114.191 206.555 114.214 206.56C114.236 206.564 114.258 206.574 114.277 206.588H114.233Z" fill="#B8E2FF"/>
<path opacity="0.7" d="M122.364 210.267C124.021 210.689 125.709 210.976 127.411 211.125C127.429 211.124 127.447 211.128 127.463 211.135C127.479 211.143 127.493 211.154 127.505 211.167C127.516 211.181 127.524 211.196 127.529 211.213C127.533 211.231 127.534 211.249 127.531 211.266C127.531 211.284 127.527 211.302 127.52 211.318C127.513 211.335 127.502 211.35 127.489 211.362C127.476 211.374 127.46 211.384 127.443 211.39C127.426 211.395 127.408 211.398 127.39 211.396C125.669 211.259 123.963 210.979 122.288 210.56C122.249 210.55 122.216 210.525 122.196 210.49C122.175 210.456 122.17 210.415 122.18 210.376C122.192 210.338 122.218 210.307 122.251 210.287C122.285 210.267 122.325 210.26 122.364 210.267Z" fill="#B8E2FF"/>
<path opacity="0.7" d="M131.254 211.212C132.963 211.186 134.67 211.063 136.366 210.843C136.39 210.85 136.412 210.865 136.427 210.886C136.442 210.906 136.45 210.931 136.45 210.957C136.45 210.982 136.442 211.007 136.427 211.027C136.412 211.048 136.39 211.063 136.366 211.071C134.66 211.302 132.942 211.436 131.221 211.472C131.187 211.472 131.153 211.458 131.129 211.434C131.105 211.41 131.091 211.376 131.091 211.342C131.091 211.307 131.105 211.274 131.129 211.25C131.153 211.225 131.187 211.212 131.221 211.212H131.254Z" fill="#B8E2FF"/>
<path opacity="0.7" d="M140.165 210.267C141.848 209.942 143.509 209.54 145.158 209.073C145.17 209.07 145.182 209.069 145.194 209.071C145.205 209.072 145.217 209.076 145.227 209.082C145.237 209.088 145.246 209.097 145.253 209.106C145.26 209.116 145.264 209.127 145.267 209.138C145.272 209.149 145.275 209.161 145.275 209.172C145.275 209.184 145.272 209.196 145.267 209.206C145.262 209.217 145.254 209.226 145.245 209.233C145.235 209.24 145.224 209.245 145.213 209.247C143.563 209.714 141.891 210.126 140.209 210.473C140.196 210.477 140.183 210.477 140.169 210.475C140.156 210.473 140.144 210.468 140.133 210.461C140.122 210.454 140.112 210.445 140.105 210.434C140.097 210.423 140.092 210.41 140.089 210.397C140.085 210.37 140.09 210.343 140.104 210.319C140.118 210.295 140.14 210.277 140.165 210.267Z" fill="#B8E2FF"/>
<path opacity="0.7" d="M148.849 207.901C150.477 207.358 152.087 206.772 153.679 206.143H153.755C153.755 206.143 153.755 206.208 153.755 206.229C152.156 206.866 150.546 207.463 148.925 208.02C148.911 208.03 148.894 208.035 148.876 208.035C148.859 208.035 148.842 208.03 148.827 208.02C148.815 208.002 148.81 207.979 148.814 207.956C148.818 207.934 148.831 207.914 148.849 207.901Z" fill="#B8E2FF"/>
<path opacity="0.7" d="M157.229 204.645L161.886 202.474C161.886 202.474 161.886 202.474 161.886 202.528L157.229 204.699C157.229 204.699 157.175 204.699 157.164 204.699V204.623L157.229 204.645Z" fill="#B8E2FF"/>
<path opacity="0.7" d="M165.315 200.694L169.798 198.175L165.326 200.715L165.315 200.694Z" fill="#B8E2FF"/>
<path opacity="0.7" d="M173.109 196.156L175.226 194.756L173.109 196.156H173.099H173.109Z" fill="#B8E2FF"/>
</g>
</g>
<path d="M195.533 44.7484C195.642 44.477 181.77 53.0847 181.77 53.0847L185.373 76.4546L192.179 58.9679L210.111 55.5487L235.663 31.5275L195.533 44.7484Z" fill="#BDD5FF"/>
<path d="M235.661 31.5166L185.372 76.4546L192.178 58.9679L235.661 31.5166Z" fill="#8ABAFF"/>
<path d="M235.662 31.5166L169.134 45.6493L181.769 53.0847L235.662 31.5166L192.178 58.9679L213.67 72.243L235.662 31.5166Z" fill="#DEEBFF"/>
<g opacity="0.5">
<g opacity="0.5">
<g opacity="0.5">
<g style="mix-blend-mode:multiply" opacity="0.2">
<g style="mix-blend-mode:multiply" opacity="0.2">
<g style="mix-blend-mode:multiply" opacity="0.2">
<path d="M574.447 359.637C571.32 359.643 568.214 360.16 565.253 361.168C564.889 349.471 559.942 338.387 551.48 330.304C543.017 322.221 531.718 317.788 520.017 317.961C508.316 318.133 497.151 322.897 488.931 331.225C480.71 339.554 476.092 350.779 476.072 362.481C476.072 363.567 476.126 364.717 476.213 365.824C473.461 361.155 469.25 357.52 464.228 355.481C459.206 353.442 453.653 353.112 448.425 354.542C443.197 355.971 438.584 359.081 435.299 363.392C432.013 367.702 430.237 372.974 430.244 378.394C430.253 380.284 430.475 382.166 430.906 384.006C428.542 382.694 425.91 381.941 423.21 381.804C420.511 381.666 417.816 382.149 415.331 383.214C412.847 384.279 410.639 385.898 408.877 387.948C407.115 389.998 405.845 392.423 405.165 395.04C404.485 397.656 404.413 400.393 404.954 403.041C405.495 405.69 406.635 408.179 408.287 410.319C409.938 412.459 412.058 414.192 414.483 415.387C416.907 416.581 419.574 417.205 422.277 417.21H574.447C581.883 416.921 588.917 413.764 594.076 408.401C599.234 403.039 602.116 395.887 602.116 388.445C602.116 381.004 599.234 373.852 594.076 368.49C588.917 363.127 581.883 359.97 574.447 359.681" fill="#5275A0"/>
</g>
</g>
</g>
</g>
</g>
</g>
<g style="mix-blend-mode:multiply" opacity="0.55">
<g style="mix-blend-mode:multiply" opacity="0.55">
<g style="mix-blend-mode:multiply" opacity="0.55">
<path d="M609.606 422.941C609.606 427.555 562.28 431.288 503.915 431.288C445.55 431.288 398.224 427.555 398.224 422.941C398.224 418.328 445.539 414.583 503.915 414.583C562.291 414.583 609.606 418.328 609.606 422.941Z" fill="#D9E8FF"/>
</g>
</g>
</g>
<path opacity="0.36" d="M535.967 356.37C530.149 336.343 534.469 314.754 541.329 295.063C542.99 290.331 544.879 285.5 548.406 281.94C550.219 280.127 552.748 278.684 555.234 279.151C558.925 279.899 560.466 284.285 560.889 288.03C563.505 311.627 547.961 333.272 544.021 356.696" fill="#BDD0FF"/>
<path d="M519.403 346.319C518.414 340.338 516.545 334.537 513.857 329.103C511.153 323.621 506.86 319.082 501.537 316.078C499.16 314.83 495.99 314.07 493.939 315.861C491.768 317.815 492.441 321.429 493.743 324.078C500.885 338.579 519.143 345.07 526.09 359.67" fill="#BDD0FF"/>
<path opacity="0.36" d="M527.826 358.139C523.3 349.684 518.926 341.054 516.429 331.795C513.932 322.536 513.401 312.507 516.527 303.443C517.482 300.643 519.881 297.441 522.681 298.407C523.685 298.851 524.538 299.579 525.134 300.502C530.345 307.362 532.342 316.121 533.286 324.686C534.231 333.25 534.263 341.934 536.141 350.346C536.326 351.621 536.847 352.823 537.65 353.83C538.067 354.319 538.646 354.643 539.281 354.742C539.916 354.842 540.565 354.711 541.112 354.373C541.653 353.882 542.031 353.238 542.198 352.528C543.392 348.783 561.975 310.195 578.8 307.514C580.154 307.247 581.543 307.195 582.913 307.362C604.015 310.879 556.482 354.97 556.124 361.526C573.318 346.786 576.965 344.072 584.791 342.661C590.826 341.575 601.345 346.916 597.882 354.297C595.494 359.399 589.524 361.678 583.999 362.785C577.953 363.99 571.755 364.37 565.828 366.042C559.902 367.713 554.084 370.97 551.066 376.332" fill="#BDD0FF"/>
<path opacity="0.36" d="M575.326 365.369C572.199 365.374 569.095 365.888 566.132 366.888C565.898 355.101 561.006 343.887 552.527 335.696C544.048 327.505 532.671 323.004 520.883 323.178C509.095 323.352 497.855 328.185 489.621 336.622C481.386 345.059 476.827 356.413 476.94 368.202C476.94 369.287 476.94 370.449 477.081 371.556C474.095 366.45 469.373 362.587 463.777 360.67C458.181 358.754 452.083 358.912 446.594 361.115C441.104 363.319 436.589 367.421 433.871 372.675C431.153 377.928 430.412 383.983 431.785 389.737C429.421 388.425 426.787 387.672 424.087 387.535C421.386 387.398 418.69 387.881 416.205 388.947C413.72 390.013 411.512 391.634 409.75 393.685C407.989 395.736 406.72 398.164 406.041 400.781C405.363 403.399 405.293 406.137 405.836 408.786C406.379 411.435 407.522 413.924 409.176 416.063C410.83 418.202 412.952 419.934 415.379 421.126C417.806 422.319 420.473 422.939 423.177 422.941H575.326C582.762 422.652 589.796 419.495 594.955 414.133C600.113 408.77 602.995 401.618 602.995 394.177C602.995 386.736 600.113 379.584 594.955 374.221C589.796 368.858 582.762 365.701 575.326 365.412" fill="white"/>
<path d="M453.647 312.669C453.647 312.669 448.632 313.961 445.44 312.995C442.249 312.029 436.757 313.614 435.867 314.775C434.977 315.937 435.313 316.403 436.887 316.805C438.461 317.207 444.062 319.595 447.742 318.216C450.482 317.327 453.338 316.844 456.219 316.783L453.647 312.669Z" fill="#D68C67"/>
<path d="M497.043 269.056C497.043 269.056 491.399 309.142 482.064 312.735C477.451 314.504 457.099 318.52 451.063 318.922C451.063 318.922 449.587 317.728 449.978 312.854C449.978 312.854 471.318 305.017 474.346 300.762C478.862 294.423 471.546 274.863 477.212 268.904C482.878 262.945 492.409 260.394 497.076 269.056" fill="#575C91"/>
<path d="M496.316 423.506V414.768H510.08C510.258 414.768 510.43 414.697 510.556 414.571C510.682 414.445 510.753 414.273 510.753 414.095V412.695C510.753 412.516 510.682 412.345 510.556 412.219C510.43 412.093 510.258 412.022 510.08 412.022H496.316V362.232C496.313 361.561 496.046 360.918 495.573 360.443C495.1 359.967 494.458 359.697 493.787 359.692H491.063C490.727 359.689 490.394 359.752 490.082 359.879C489.771 360.005 489.488 360.191 489.249 360.427C489.01 360.663 488.82 360.944 488.689 361.254C488.559 361.563 488.492 361.896 488.49 362.232V411.989H474.759C474.581 411.989 474.409 412.06 474.283 412.186C474.157 412.312 474.086 412.484 474.086 412.662V414.062C474.086 414.241 474.157 414.412 474.283 414.538C474.409 414.664 474.581 414.735 474.759 414.735H488.49V423.473C478.536 424.233 470.558 427.815 468.322 432.45H516.495C514.259 427.815 506.281 424.233 496.316 423.473" fill="#D0E0E2"/>
<path d="M449.5 422.93C449.5 422.93 448.914 432.374 447.08 432.515C446.841 432.515 437.81 432.515 437.81 432.515L426.282 432.439C426.373 431.563 426.769 430.747 427.399 430.132C428.03 429.517 428.856 429.143 429.734 429.074C433.099 428.488 438.743 426.122 440.784 421.671C442.955 416.993 449.468 422.909 449.468 422.909" fill="#12323A"/>
<path d="M476.007 395.935C476.007 395.935 483.974 401.058 483.204 402.719C483.095 402.936 478.699 410.817 478.699 410.817L473.022 420.846C472.298 420.345 471.774 419.604 471.544 418.753C471.314 417.903 471.391 416.999 471.763 416.201C472.848 412.944 473.576 406.898 470.677 402.947C467.638 398.79 476.007 395.935 476.007 395.935Z" fill="#12323A"/>
<path d="M495.143 353.548C493.487 356.301 491.645 358.937 489.629 361.439C483.572 369.037 476.973 375.398 475.822 381.357C475.552 382.655 475.19 383.932 474.737 385.178C474.248 386.546 473.651 387.979 472.978 389.466C470.013 395.569 466.58 401.433 462.71 407.007C456.078 416.841 449.836 425.058 449.836 425.058L438.385 424.569C438.841 423.419 443.812 409.84 450.52 393.232C453.223 386.492 456.11 379.328 458.9 372.413L459.985 369.656C460.832 367.55 461.668 365.466 462.493 363.436C468.756 347.849 473.76 335.432 473.76 335.432C473.76 335.432 498.834 325.934 501.428 332.088C503.599 337.168 501.83 342.14 495.1 353.548" fill="#4E84AD"/>
<path d="M469.82 236.449C466.949 242.631 466.56 249.679 468.734 256.139C468.988 256.875 469.392 257.55 469.922 258.12C470.452 258.691 471.096 259.144 471.812 259.451C472.527 259.757 473.299 259.911 474.078 259.901C474.856 259.892 475.624 259.719 476.332 259.395C477.534 258.839 478.596 258.019 479.437 256.996C479.437 256.996 480.718 256.171 479.817 262.044L484.538 262.619L494.09 259.938C494.09 259.938 489.629 256.475 488.837 253.621C488.677 253.053 488.629 252.459 488.696 251.873C488.142 252.036 487.61 252.057 487.502 251.873C487.165 251.428 488.641 250.332 488.978 248.204C489.043 247.748 489.369 245.675 488.24 244.535C486.829 243.124 484.56 244.611 483.106 243.07C482.357 242.277 482.606 241.518 481.629 240.899C480.652 240.28 479.621 240.584 479.458 240.172C479.296 239.759 479.784 239.086 482.389 237.23L482.313 235.287L471.285 235.765C470.974 235.764 470.668 235.686 470.395 235.537C470.243 235.83 470.08 236.156 469.917 236.503" fill="#D68C67"/>
<path d="M465.239 330.884C465.239 330.884 433.761 350.487 430.255 363.654C426.749 376.82 472.11 404.901 472.11 404.901C472.11 404.901 477.092 400.505 477.972 397.303C477.972 397.303 457.456 372.728 453.006 367.225C450.281 363.838 493.407 355.513 498.682 347.317C503.957 339.122 502.058 332.219 502.058 332.219L465.239 330.884Z" fill="#64A5CC"/>
<path d="M524.625 356.055H460.268C459.647 356.055 459.05 356.302 458.611 356.742C458.171 357.182 457.924 357.778 457.924 358.4V371.273C457.924 371.895 458.171 372.492 458.611 372.931C459.05 373.371 459.647 373.618 460.268 373.618H524.669C525.291 373.618 525.887 373.371 526.327 372.931C526.766 372.492 527.013 371.895 527.013 371.273V358.4C527.013 357.778 526.766 357.182 526.327 356.742C525.887 356.302 525.291 356.055 524.669 356.055" fill="#E8F6F7"/>
<path d="M502.98 297.755C501.895 312.279 503.708 334.357 502.492 338.178C501.406 341.434 488.989 339.524 484.18 338.428C482.4 338.015 480.24 337.44 478.015 336.745C471.806 334.824 464.989 332.078 464.316 330.037C464.285 329.964 464.263 329.887 464.251 329.809C464.186 329.527 464.186 329.234 464.251 328.951C464.49 327.866 465.423 326.781 465.532 324.219C465.662 321.342 465.641 317.956 465.749 314.319C465.746 313.899 465.764 313.479 465.803 313.06V312.908C465.798 312.832 465.798 312.756 465.803 312.68C465.901 308.621 466.118 304.355 466.357 300.122C466.52 297.473 466.693 294.835 466.911 292.317C467.245 286.952 467.992 281.622 469.147 276.372C470.542 271.404 473.41 266.976 477.374 263.672L479.665 261.707C482.481 262.251 485.397 261.87 487.979 260.622C490.943 259.211 491.963 258.201 492.473 258.581C499.312 263.856 504.229 280.019 502.959 297.777" fill="#6A6DB4"/>
<path d="M478.058 336.778C471.838 334.856 465.032 332.11 464.348 330.069C464.322 329.991 464.3 329.912 464.283 329.831C464.283 329.548 464.283 329.266 464.283 328.984C464.522 327.898 465.456 326.813 465.575 324.24C465.694 321.375 465.673 317.988 465.781 314.352C465.781 313.94 465.781 313.494 465.781 313.093V312.702L489.238 302.065C489.238 302.065 490.584 320.973 477.982 336.799" fill="#575C91"/>
<path d="M420.274 294.403L419.19 294.755L428.401 323.069L429.485 322.716L420.274 294.403Z" fill="#4A75CB"/>
<path d="M459.564 320.551L428.332 321.216L428.372 323.083L459.604 322.417L459.564 320.551Z" fill="#4A75CB"/>
<path d="M456.23 318.813C456.23 318.813 451.389 320.648 448.111 320.04C444.832 319.432 439.546 321.614 438.797 322.873C438.048 324.132 438.417 324.544 440.035 324.772C441.652 325 447.459 326.748 450.965 324.979C453.588 323.79 456.371 322.993 459.226 322.612L456.23 318.813Z" fill="#D68C67"/>
<path d="M494.557 270.706C494.557 270.706 493.363 311.161 484.484 315.763C480.142 318.032 460.3 324.273 454.351 325.337C454.351 325.337 452.756 324.306 452.571 319.421C452.571 319.421 472.913 309.283 475.464 304.713C479.241 297.918 469.819 279.281 474.791 272.735C479.762 266.19 488.902 262.597 494.557 270.706Z" fill="#6A6DB4"/>
<path d="M482.216 235.233L482.292 237.176H488.164V234.983L482.216 235.233Z" fill="#D68C67"/>
<path d="M469.494 233.42C469.366 233.805 469.377 234.222 469.526 234.599C469.675 234.976 469.952 235.289 470.308 235.482C470.576 235.633 470.879 235.711 471.187 235.71L482.215 235.233L488.164 234.983V237.154H482.291C479.686 238.978 479.209 239.748 479.361 240.096C479.513 240.443 480.544 240.15 481.532 240.823C482.519 241.496 482.248 242.234 482.997 242.994C484.451 244.535 486.709 243.048 488.131 244.459C489.217 245.599 488.934 247.716 488.869 248.128C488.533 250.299 487.056 251.384 487.393 251.797C487.556 252.003 488.023 251.981 488.587 251.797C489.2 251.624 489.787 251.373 490.335 251.048C494.047 248.812 496.587 241.659 494.003 235.634C491.833 230.717 486.622 227.569 480.793 227.569C473.195 227.569 470.188 231.195 469.461 233.344" fill="#332631"/>
<path d="M65.3457 377.493C65.3457 379.957 85.4376 381.954 110.229 381.954C135.021 381.954 155.113 379.957 155.113 377.493C155.113 375.029 135.021 373.086 110.229 373.086C85.4376 373.086 65.3457 375.083 65.3457 377.547" fill="#D9E8FF"/>
<path d="M50.2031 290.005C49.7147 291.915 51.8856 292.578 53.1773 292.176C56.1189 291.188 57.8231 287.606 60.5041 286.836C62.6751 286.217 64.1296 290.418 65.7903 288.833C67.4511 287.248 64.1404 285.305 64.2815 283.471C64.4226 281.636 66.1594 279.91 66.6153 278.119C66.6153 278.011 66.409 278.043 66.2788 278.011L61.3725 276.925C60.6887 276.784 60.515 276.437 59.918 276.231C58.4526 277.761 57.2369 280.41 56.0755 281.94C53.9045 284.773 51.0498 286.716 50.2031 290.048" fill="#E2A66F"/>
<path d="M60.3086 274.309C59.7116 275.59 60.0481 274.993 60.1132 275.905C60.1784 276.817 60.6234 276.643 61.3181 276.871C62.892 277.381 64.6396 277.631 66.2678 278.043C66.4112 278.07 66.5585 278.07 66.702 278.043C67.1298 278.014 67.5404 277.863 67.8862 277.61C68.232 277.356 68.4988 277.01 68.6558 276.61C72.9976 268.003 76.482 256.399 83.6677 249.952C91.8412 242.603 91.6675 239.032 84.5903 254.554C77.5131 270.076 70.6422 296.203 70.6856 315.34C76.5254 317.109 81.3991 316.349 87.6839 316.306C93.9687 316.262 101.502 315.98 108.025 315.893C110.522 307.622 112.812 299.416 115.189 291.058C114.907 283.319 113.105 273.897 112.454 266.559C110.804 248.106 108.275 230.956 105.757 213.003C105.703 212.644 105.757 212.72 105.681 212.558C105.495 212.114 105.197 211.725 104.817 211.431C104.436 211.136 103.986 210.944 103.51 210.875C103.405 210.866 103.3 210.866 103.195 210.875C102.758 210.881 102.323 210.921 101.893 210.994C82.973 229.61 71.4997 250.679 60.3303 274.266" fill="black"/>
<path d="M76.016 372.077C76.016 374.182 76.016 376.277 76.092 378.372C76.092 379.056 76.613 379.338 77.1774 379.545H77.4379C84.2221 379.545 94.4471 379.762 100.341 379.545C106.235 379.328 102.697 379.707 104.781 376.636C105.638 375.366 104.053 374.845 102.61 374.627C96.8724 373.933 91.3344 372.087 86.3279 369.2C85.5572 369.428 84.374 370.025 83.701 370.177C81.519 370.625 79.2714 370.651 77.0797 370.253C77.0797 370.253 77.1991 370.188 77.0797 370.253C76.0703 370.449 75.9943 371.23 75.8857 372.131" fill="#252D2D"/>
<path d="M77.198 370.242C77.198 370.242 77.1981 370.307 77.1221 370.34C79.3188 370.731 81.57 370.697 83.7542 370.242C84.4164 370.09 85.6104 369.504 86.3376 369.254C87.1843 367.713 87.9441 366.161 88.7256 364.609C85.936 364.609 83.0812 364.609 80.3133 364.609C79.9226 364.609 79.7597 364.218 79.4666 364.544C79.1736 364.869 79.4667 364.37 79.141 365.39C78.8154 366.411 78.1858 369.059 77.2849 370.101" fill="#D18E61"/>
<path d="M77.6976 360.929C77.6464 361.595 77.7732 362.263 78.065 362.863C78.3569 363.464 78.8032 363.977 79.3584 364.348C79.608 364.544 79.8902 364.489 80.2593 364.5C82.9078 364.5 85.6866 364.5 88.3568 364.5H90.5277C97.2866 348.636 103.182 332.417 108.188 315.915C101.104 316.081 94.0157 316.251 86.924 316.425C84.7392 331.402 81.6728 346.237 77.741 360.853" fill="#434444"/>
<path d="M95.6075 181.351C93.1327 183.825 93.4366 187.549 95.3253 190.23C96.7798 192.335 98.4948 191.977 100.503 192.9C100.053 195.23 100.053 197.625 100.503 199.955C100.698 200.867 101.198 202.615 102.468 202.886C102.858 202.973 103.206 202.615 103.445 202.3C104.201 201.212 104.869 200.065 105.442 198.87C105.898 197.882 106.104 196.558 106.907 196.167C109.295 194.995 111.455 196.308 113.854 195.581C116.253 194.854 117.621 193.139 118.684 190.924C118.967 190.327 119.281 189.839 118.619 189.307C115.168 186.517 111.64 186.398 107.363 186.941C106.278 184.64 106.56 182.599 104.042 181.003C101.523 179.408 98.039 178.832 95.5641 181.351" fill="#8B8BA2"/>
<path d="M103.455 202.365C103.51 202.776 103.542 203.189 103.553 203.603C103.553 206.034 103.553 208.487 103.455 210.908C103.455 210.908 103.553 210.908 103.574 210.908C104.372 211.286 105.087 211.817 105.68 212.471C107.124 212.34 108.6 212.232 110.022 212.145C110.163 212.145 110.185 212.145 110.293 212.145C110.402 212.145 110.293 212.199 110.293 212.069C109.859 210.984 108.123 209.952 108.752 208.585C109.382 207.217 109.718 207.445 111.368 208.216C113.018 208.986 116.046 209.942 117.751 208.053C119.113 202.858 119.591 197.471 119.162 192.118C119.09 191.743 118.969 191.378 118.803 191.033C117.501 193.063 116.242 194.919 113.843 195.624C111.444 196.33 109.284 195.038 106.896 196.2C106.082 196.59 105.876 197.926 105.431 198.902C104.868 200.088 104.207 201.224 103.455 202.3" fill="#E2A66F"/>
<path d="M110.859 212.688C110.859 212.46 110.566 212.286 110.414 212.21C110.305 212.15 110.179 212.127 110.055 212.145C108.97 212.21 107.201 212.297 106.245 212.427C105.29 212.558 105.876 212.319 105.746 212.536C105.616 212.753 105.746 212.666 105.746 213.024C108.047 230.468 111.087 247.9 112.107 265.55C115.811 265.698 119.512 265.206 123.048 264.095C123.615 263.814 124.163 263.494 124.687 263.14C125.065 262.923 125.428 262.68 125.773 262.413C128.617 259.471 131.2 255.542 130.017 251.645C128.834 247.748 127.434 246.152 125.588 242.625C124.123 239.846 125.501 242.234 122.332 237.784C119.162 233.333 110.392 221.502 111.119 213.372C111.119 213.296 110.739 212.547 110.869 212.731C111 212.916 110.869 212.731 110.869 212.731" fill="white"/>
<path d="M107.646 315.958C109.339 315.958 108.579 315.958 110.728 315.958L120.497 315.72C118.511 307.687 116.535 299.666 115.276 291.46C112.801 299.622 110.511 307.839 108.101 316.024" fill="black"/>
<path d="M120.768 315.633L108.937 315.937C113.886 331.698 117.989 347.621 121.441 363.773L124.035 363.654L130.472 363.36L133.207 363.241C133.349 329.375 131.395 295.747 125.989 262.293L124.741 263.107C124.152 263.5 123.543 263.862 122.917 264.193C120.334 273.256 118.065 282.396 115.243 291.405C116.563 299.595 118.408 307.691 120.768 315.644" fill="#2B2B2B"/>
<path d="M110.902 212.764C110.896 212.803 110.896 212.844 110.902 212.883C113.192 224.346 119.292 233.084 125.219 242.766C128.562 242.864 123.949 243.157 129.246 243.385C134.543 243.613 146.722 236.655 151.932 231.868C152.681 231.184 153.506 231.021 153.473 230.196C153.473 230.088 153.636 229.947 153.473 230.196C153.397 227.863 153.039 226.072 153.017 223.814C153.017 223.662 153.017 223.694 152.876 223.477C152.79 223.327 152.659 223.206 152.502 223.132C152.344 223.059 152.168 223.035 151.997 223.065C133.327 226.256 124.492 229.512 110.902 212.764Z" fill="black"/>
<path d="M112.129 265.55C113.507 274.136 114.56 282.722 115.244 291.394C118.056 282.396 120.324 273.256 122.897 264.193C119.405 265.229 115.768 265.687 112.129 265.55Z" fill="#434444"/>
<path d="M121.604 372.424C121.539 374.595 121.474 376.668 121.55 378.796C121.55 379.458 122.038 379.762 122.635 379.957H122.907C129.669 379.957 139.872 380.218 145.701 379.957C151.53 379.697 148.089 380.142 150.152 377.07C151.02 375.767 149.468 375.279 147.981 375.007C142.228 373.922 136.356 372.088 131.373 368.571C131.21 368.809 131.373 369.265 131.156 369.45C129.105 370.98 126.076 370.872 123.905 370.72C121.734 370.568 122.505 371.1 121.354 372.315" fill="#252D2D"/>
<path d="M123.081 363.567C123.081 364.337 123.081 363.458 123.081 364.652C123.081 365.846 123.178 368.994 123.232 370.59C125.962 371.069 128.773 370.741 131.319 369.645V363.382C128.562 363.447 125.794 363.664 123.037 363.599" fill="#D18E61"/>
<path d="M153.43 229.469C153.43 229.968 153.539 229.968 153.55 229.958C154.928 229.361 156.806 227.711 157.978 227.048C159.791 226.028 164.198 226.842 165.262 226.386C169.332 224.66 165.045 225.377 164.86 224.085C164.459 221.198 172.068 220.373 167.878 217.735C166.38 216.78 160.28 220.894 158.011 221.947C156.991 222.424 154.071 222.142 153.05 223.488C152.974 223.586 153.05 223.727 153.05 223.857C153.105 225.583 153.354 227.982 153.463 229.469" fill="#E2A66F"/>
<defs>
<linearGradient id="paint0_linear" x1="364.899" y1="236.326" x2="439.373" y2="236.326" gradientUnits="userSpaceOnUse">
<stop stop-color="white"/>
<stop offset="1" stop-color="white"/>
</linearGradient>
<linearGradient id="paint1_linear" x1="620475" y1="13033.9" x2="620475" y2="14746.2" gradientUnits="userSpaceOnUse">
<stop stop-color="white"/>
<stop offset="1" stop-color="white"/>
</linearGradient>
</defs>
</svg>
