<svg width="481" height="382" viewBox="0 0 481 382" fill="none" xmlns="http://www.w3.org/2000/svg">
<path d="M480.482 0H262.214V329.576H480.482V0Z" fill="#D2E4FF"/>
<path d="M459.037 18.429H283.301V214.528H459.037V18.429Z" fill="#F3F9FF"/>
<path d="M340.985 299.571C353.329 287.213 353.329 267.175 340.985 254.816C328.641 242.457 308.628 242.457 296.284 254.816C283.94 267.175 283.94 287.213 296.284 299.571C308.628 311.93 328.641 311.93 340.985 299.571Z" fill="#F3F9FF"/>
<path d="M345.357 277.196C345.357 262.435 333.406 250.447 318.641 250.447C303.875 250.447 291.924 262.413 291.924 277.196C291.924 291.957 303.875 303.945 318.641 303.945C324.739 303.945 330.346 301.91 334.836 298.465L318.641 277.196L343.615 286.746C344.732 283.771 345.357 280.551 345.357 277.196Z" fill="#EE9849"/>
<path d="M457.082 284.508C461.094 267.498 450.573 250.453 433.584 246.437C416.595 242.42 399.57 252.953 395.559 269.963C391.547 286.973 402.067 304.018 419.057 308.034C436.046 312.051 453.07 301.518 457.082 284.508Z" fill="#F3F9FF"/>
<path d="M426.311 250.447C411.546 250.447 399.595 262.413 399.595 277.196C399.595 284.51 402.521 291.13 407.279 295.961L426.311 277.196L451.286 286.746C452.425 283.794 453.028 280.573 453.028 277.196C453.028 262.435 441.077 250.447 426.311 250.447Z" fill="#EE9849"/>
<path d="M422.403 263.62H411.033C410.586 263.62 410.229 263.978 410.229 264.425C410.229 264.873 410.586 265.231 411.033 265.231H422.403C422.85 265.231 423.207 264.873 423.207 264.425C423.229 263.978 422.85 263.62 422.403 263.62Z" fill="#DD7C2C"/>
<path d="M422.403 266.192H411.033C410.586 266.192 410.229 266.55 410.229 266.997C410.229 267.445 410.586 267.803 411.033 267.803H422.403C422.85 267.803 423.207 267.445 423.207 266.997C423.207 266.55 422.85 266.192 422.403 266.192Z" fill="#DD7C2C"/>
<path d="M415.746 268.764H411.055C410.608 268.764 410.251 269.122 410.251 269.569C410.251 270.017 410.608 270.375 411.055 270.375H415.746C416.193 270.375 416.551 270.017 416.551 269.569C416.551 269.122 416.193 268.764 415.746 268.764Z" fill="#DD7C2C"/>
<path d="M314.508 263.62H303.138C302.691 263.62 302.334 263.978 302.334 264.425C302.334 264.873 302.691 265.231 303.138 265.231H314.508C314.955 265.231 315.313 264.873 315.313 264.425C315.335 263.978 314.955 263.62 314.508 263.62Z" fill="#DD7C2C"/>
<path d="M314.508 266.192H303.138C302.691 266.192 302.334 266.55 302.334 266.997C302.334 267.445 302.691 267.803 303.138 267.803H314.508C314.955 267.803 315.313 267.445 315.313 266.997C315.313 266.55 314.955 266.192 314.508 266.192Z" fill="#DD7C2C"/>
<path d="M307.829 268.764H303.138C302.691 268.764 302.334 269.122 302.334 269.569C302.334 270.017 302.691 270.375 303.138 270.375H307.829C308.276 270.375 308.633 270.017 308.633 269.569C308.633 269.122 308.276 268.764 307.829 268.764Z" fill="#DD7C2C"/>
<path d="M317.478 88.5221H298.938V204.173H317.478V88.5221Z" fill="#A6C7F9"/>
<path d="M347.858 56.2712H329.317V204.173H347.858V56.2712Z" fill="#A6C7F9"/>
<path d="M381.009 116.479H362.468V204.173H381.009V116.479Z" fill="#A6C7F9"/>
<path d="M413.265 76.0198H394.725V204.173H413.265V76.0198Z" fill="#A6C7F9"/>
<path d="M445.701 133.655H427.16V204.173H445.701V133.655Z" fill="#A6C7F9"/>
<path d="M412.394 59.3576H396.69C395.797 59.3576 395.06 60.0957 395.06 60.9903C395.06 61.8849 395.797 62.623 396.69 62.623H412.394C413.288 62.623 414.025 61.8849 414.025 60.9903C414.025 60.0957 413.288 59.3576 412.394 59.3576Z" fill="#A6C7F9"/>
<path d="M400.264 65.2621H396.69C395.797 65.2621 395.06 66.0001 395.06 66.8947C395.06 67.7893 395.797 68.5274 396.69 68.5274H400.264C401.158 68.5274 401.895 67.7893 401.895 66.8947C401.895 66.0001 401.158 65.2621 400.264 65.2621Z" fill="#A6C7F9"/>
<path d="M347.68 34.1742H331.976C331.083 34.1742 330.346 34.9123 330.346 35.8069C330.346 36.7015 331.083 37.4396 331.976 37.4396H347.68C348.574 37.4396 349.311 36.7015 349.311 35.8069C349.311 34.9123 348.574 34.1742 347.68 34.1742Z" fill="#A6C7F9"/>
<path d="M335.551 40.0787H331.976C331.083 40.0787 330.346 40.8168 330.346 41.7114C330.346 42.606 331.083 43.3441 331.976 43.3441H335.551C336.444 43.3441 337.181 42.606 337.181 41.7114C337.181 40.8168 336.444 40.0787 335.551 40.0787Z" fill="#A6C7F9"/>
<path d="M379.601 99.235H363.897C363.004 99.235 362.267 99.9731 362.267 100.868C362.267 101.762 363.004 102.5 363.897 102.5H379.601C380.495 102.5 381.232 101.762 381.232 100.868C381.232 99.9731 380.495 99.235 379.601 99.235Z" fill="#A6C7F9"/>
<path d="M367.471 105.139H363.897C363.004 105.139 362.267 105.877 362.267 106.772C362.267 107.667 363.004 108.405 363.897 108.405H367.471C368.365 108.405 369.102 107.667 369.102 106.772C369.102 105.877 368.365 105.139 367.471 105.139Z" fill="#A6C7F9"/>
<path d="M444.271 116.479H428.567C427.674 116.479 426.937 117.217 426.937 118.111C426.937 119.006 427.674 119.744 428.567 119.744H444.271C445.165 119.744 445.902 119.006 445.902 118.111C445.902 117.217 445.165 116.479 444.271 116.479Z" fill="#A6C7F9"/>
<path d="M432.141 122.406H428.567C427.674 122.406 426.937 123.144 426.937 124.038C426.937 124.933 427.674 125.671 428.567 125.671H432.141C433.035 125.671 433.772 124.933 433.772 124.038C433.772 123.144 433.035 122.406 432.141 122.406Z" fill="#A6C7F9"/>
<path d="M232.75 124.933H73.2314V214.841H232.75V124.933Z" fill="#AED3FF"/>
<path d="M237.932 124.933H78.4141V214.841H237.932V124.933Z" fill="#D2E4FF"/>
<path d="M142.435 188.273C153.697 176.997 153.697 158.715 142.435 147.44C131.172 136.164 112.913 136.164 101.651 147.44C90.3886 158.715 90.3886 176.997 101.651 188.273C112.913 199.549 131.172 199.548 142.435 188.273Z" fill="#F3F9FF"/>
<path d="M220.017 151.726H172.236C170.493 151.726 169.086 153.135 169.086 154.88C169.086 156.624 170.493 158.033 172.236 158.033H220.017C221.76 158.033 223.167 156.624 223.167 154.88C223.167 153.135 221.737 151.726 220.017 151.726Z" fill="#F3F9FF"/>
<path d="M220.017 164.698H172.236C170.493 164.698 169.086 166.107 169.086 167.852C169.086 169.596 170.493 171.005 172.236 171.005H220.017C221.76 171.005 223.167 169.596 223.167 167.852C223.167 166.107 221.737 164.698 220.017 164.698Z" fill="#F3F9FF"/>
<path d="M220.017 177.67H172.236C170.493 177.67 169.086 179.079 169.086 180.824C169.086 182.568 170.493 183.977 172.236 183.977H220.017C221.76 183.977 223.167 182.568 223.167 180.824C223.167 179.102 221.737 177.67 220.017 177.67Z" fill="#F3F9FF"/>
<path d="M95.6367 167.427H122.041V140.991C107.454 140.991 95.6367 152.822 95.6367 167.427Z" fill="#A8D29F"/>
<path d="M148.467 168.277H122.041H95.6367C95.6367 182.881 107.454 194.713 122.041 194.713C136.628 194.713 148.467 182.881 148.467 168.277Z" fill="#F1A34F"/>
<path d="M117.484 153.829H103.142C102.316 153.829 101.668 154.5 101.668 155.305C101.668 156.132 102.338 156.781 103.142 156.781H117.484C118.31 156.781 118.958 156.11 118.958 155.305C118.98 154.5 118.31 153.829 117.484 153.829Z" fill="#82B378"/>
<path d="M106.426 159.241H103.165C102.338 159.241 101.69 159.912 101.69 160.717C101.69 161.522 102.361 162.193 103.165 162.193H106.426C107.253 162.193 107.9 161.522 107.9 160.717C107.9 159.912 107.23 159.241 106.426 159.241Z" fill="#82B378"/>
<path d="M138.773 174.74H124.431C123.605 174.74 122.957 175.411 122.957 176.217C122.957 177.044 123.627 177.693 124.431 177.693H138.773C139.599 177.693 140.247 177.022 140.247 176.217C140.247 175.411 139.577 174.74 138.773 174.74Z" fill="#DD8936"/>
<path d="M127.693 180.153H124.431C123.605 180.153 122.957 180.824 122.957 181.629C122.957 182.456 123.627 183.105 124.431 183.105H127.693C128.519 183.105 129.167 182.434 129.167 181.629C129.189 180.824 128.519 180.153 127.693 180.153Z" fill="#DD8936"/>
<path d="M61.9951 230.945V322.888H221.513V230.945H61.9951Z" fill="#AED3FF"/>
<path d="M67.1777 230.945V322.888H226.696V230.945H67.1777Z" fill="#D2E4FF"/>
<path d="M110.805 302.961C126.732 302.961 139.644 290.034 139.644 274.087C139.644 258.141 126.732 245.214 110.805 245.214C94.8774 245.214 81.9658 258.141 81.9658 274.087C81.9658 290.034 94.8774 302.961 110.805 302.961Z" fill="#F3F9FF"/>
<path d="M160.999 264.246H208.781C210.523 264.246 211.931 262.837 211.931 261.093C211.931 259.348 210.523 257.939 208.781 257.939H160.999C159.257 257.939 157.85 259.348 157.85 261.093C157.85 262.837 159.257 264.246 160.999 264.246Z" fill="#F3F9FF"/>
<path d="M208.781 270.934H160.999C159.257 270.934 157.85 272.343 157.85 274.087C157.85 275.832 159.257 277.241 160.999 277.241H208.781C210.523 277.241 211.931 275.832 211.931 274.087C211.931 272.343 210.501 270.934 208.781 270.934Z" fill="#F3F9FF"/>
<path d="M208.781 283.906H160.999C159.257 283.906 157.85 285.315 157.85 287.059C157.85 288.804 159.257 290.213 160.999 290.213H208.781C210.523 290.213 211.931 288.804 211.931 287.059C211.931 285.315 210.501 283.906 208.781 283.906Z" fill="#F3F9FF"/>
<path d="M110.804 274.557L84.4004 274.221C84.4004 274.333 84.4004 274.445 84.4004 274.557C84.4004 289.161 96.2174 300.993 110.804 300.993C116.009 300.993 120.879 299.472 124.967 296.855L110.804 274.557Z" fill="#F1A34F"/>
<path d="M111.787 282.877H97.446C96.6195 282.877 95.9717 283.548 95.9717 284.353C95.9717 285.18 96.6418 285.829 97.446 285.829H111.787C112.614 285.829 113.262 285.158 113.262 284.353C113.262 283.548 112.591 282.877 111.787 282.877Z" fill="#DD8936"/>
<path d="M100.707 288.267H97.446C96.6195 288.267 95.9717 288.938 95.9717 289.743C95.9717 290.57 96.6418 291.219 97.446 291.219H100.707C101.534 291.219 102.182 290.548 102.182 289.743C102.204 288.938 101.534 288.267 100.707 288.267Z" fill="#DD8936"/>
<path d="M221.513 26.8608H61.9951V110.194H221.513V26.8608Z" fill="#AED3FF"/>
<path d="M226.696 26.8608H67.1777V110.194H226.696V26.8608Z" fill="#D2E4FF"/>
<path d="M131.202 90.1771C142.464 78.9014 142.464 60.6197 131.202 49.344C119.94 38.0682 101.68 38.0682 90.4183 49.344C79.1562 60.6198 79.1562 78.9014 90.4183 90.1771C101.68 101.453 119.94 101.453 131.202 90.1771Z" fill="#F3F9FF"/>
<path d="M110.804 43.3217C96.2174 43.3217 84.4004 55.153 84.4004 69.7575C84.4004 79.7548 89.9403 88.4773 98.1385 92.9504C102.36 85.1002 110.804 69.7575 110.804 69.7575L123.314 93.0399C131.601 88.5668 137.208 79.8219 137.208 69.7575C137.208 55.153 125.391 43.3217 110.804 43.3217Z" fill="#A8D29F"/>
<path d="M208.781 53.6097H160.999C159.257 53.6097 157.85 55.0188 157.85 56.7633C157.85 58.5078 159.257 59.9168 160.999 59.9168H208.781C210.523 59.9168 211.931 58.5078 211.931 56.7633C211.931 55.0411 210.501 53.6097 208.781 53.6097Z" fill="#F3F9FF"/>
<path d="M208.781 66.604H160.999C159.257 66.604 157.85 68.013 157.85 69.7575C157.85 71.502 159.257 72.911 160.999 72.911H208.781C210.523 72.911 211.931 71.502 211.931 69.7575C211.931 68.013 210.501 66.604 208.781 66.604Z" fill="#F3F9FF"/>
<path d="M208.781 79.5759H160.999C159.257 79.5759 157.85 80.9849 157.85 82.7294C157.85 84.4739 159.257 85.8829 160.999 85.8829H208.781C210.523 85.8829 211.931 84.4739 211.931 82.7294C211.931 81.0073 210.501 79.5759 208.781 79.5759Z" fill="#F3F9FF"/>
<path d="M111.787 57.1211H97.446C96.6195 57.1211 95.9717 57.7921 95.9717 58.5972C95.9717 59.4247 96.6418 60.0733 97.446 60.0733H111.787C112.614 60.0733 113.262 59.4024 113.262 58.5972C113.262 57.7921 112.591 57.1211 111.787 57.1211Z" fill="#82B378"/>
<path d="M100.707 62.5335H97.446C96.6195 62.5335 95.9717 63.2045 95.9717 64.0096C95.9717 64.8371 96.6418 65.4857 97.446 65.4857H100.707C101.534 65.4857 102.182 64.8148 102.182 64.0096C102.204 63.1821 101.534 62.5335 100.707 62.5335Z" fill="#82B378"/>
<path d="M19.4402 136.854C15.598 140.946 16.6926 147.522 20.2668 150.809C23.0367 153.359 26.6555 153.314 27.6384 153.27C27.281 154.858 26.6555 158.794 28.4649 163.11C29.0234 164.452 30.1627 168.053 31.7487 168.031C32.2401 168.031 32.6869 167.673 33.1337 167.136C34.1389 165.884 35.0771 163.491 35.8366 161.478C36.9535 158.548 36.6855 158.056 37.4673 157.385C39.7682 155.372 43.2976 158.503 47.2962 157.385C50.6023 156.468 53.3946 152.889 53.953 149.87C54.1094 149.043 54.0871 148.237 53.8637 147.544C52.7021 144.055 45.6655 141.908 36.6408 144.256C36.6184 143.563 36.3727 138.889 32.5529 136.048C28.867 133.32 22.9697 133.074 19.4402 136.854Z" fill="#8B8BA2"/>
<path d="M33.134 167.136C33.2904 167.941 33.3797 168.545 33.3797 168.858C33.3797 170.491 33.9158 176.731 33.0893 179.191L31.0342 181.226C32.9553 183.933 37.4453 183.754 37.8027 185.185L36.7975 181.987H43.633C43.7671 181.987 45.8222 185.23 45.9339 185.274L46.403 180.153C46.403 180.153 40.7514 177.066 40.7514 176.239C40.7514 175.411 42.3821 174.606 44.0351 175.411C45.6658 176.239 52.2333 181.159 54.6905 176.239C54.6905 176.239 58.7784 164.743 54.6905 151.615C54.4895 150.966 54.2437 150.362 53.9757 149.825C53.4172 152.845 50.6249 156.423 47.3189 157.34C43.3203 158.458 39.7908 155.327 37.49 157.34C36.7081 158.011 36.9762 158.503 35.8593 161.433C35.0551 163.491 34.1392 165.861 33.134 167.136Z" fill="#E2A66F"/>
<path d="M25.6729 353.015L29.4034 368.76L35.0103 368.715L35.2113 353.015H25.6729Z" fill="#E2A66F"/>
<path d="M72.7168 353.685L83.3275 368.76L87.4825 363.437L81.0937 351.605L72.7168 353.685Z" fill="#E2A66F"/>
<path d="M85.7851 359.299L80.3122 359.456L74.3925 359.635C74.3925 359.635 60.7214 344.381 53.037 319.959C52.8583 319.399 52.6796 318.818 52.4786 318.236C48.279 305.98 39.567 290.593 34.9876 276.659C34.2505 274.445 33.6026 272.343 33.0218 270.375C32.8431 269.748 32.6421 269.122 32.4857 268.518C29.1126 256.754 28.1297 249.038 27.2139 240.785L60.3417 241.054C60.3417 241.054 65.6806 297.392 85.7851 359.299Z" fill="#434444"/>
<path d="M55.6955 221.998C55.6061 237.788 57.9963 244.543 57.9963 244.543C57.9963 244.543 43.8115 251.767 26.9683 246.444C26.7673 246.377 13.0068 243.245 13.0068 243.245C13.2972 242.597 15.7991 231.973 16.0672 231.392C19.619 223.743 22.3219 220.388 22.7464 218.04C23.5282 213.656 23.5506 209.116 23.1485 204.822C22.1432 193.483 19.0829 184.067 19.0829 184.067C23.6846 183.016 28.0852 181.226 32.8657 179.437C33.9602 180.801 37.1993 182.188 40.1256 182.121C43.4764 182.054 44.5263 180.622 44.4146 179.035C47.9887 181.025 50.8257 182.926 50.8257 182.926C53.8637 188.204 60.0291 193.348 60.4759 201.467C60.6099 203.435 55.6955 221.573 55.6955 221.998Z" fill="white"/>
<path d="M27.2134 223.765C25.7614 225.823 22.9914 238.28 16.0889 239.846C19.6407 230.967 22.3436 227.053 22.768 224.324C23.5499 219.225 23.5722 213.947 23.1701 208.959C25.471 204.911 27.2134 202.116 27.2134 202.116C27.3921 201.467 30.8769 190.642 32.0161 200.304C33.133 210.011 28.8217 221.462 27.2134 223.765Z" fill="#5F9AA8"/>
<path d="M29.2247 367.865C29.2247 367.865 29.6715 370.974 28.5099 374.329C28.5099 374.329 27.594 378.511 31.7043 378.578C35.8145 378.645 36.8198 378.265 36.3507 375.715C35.8816 373.166 35.0104 368.737 35.0104 368.737L29.2247 367.865Z" fill="#E2A66F"/>
<path d="M36.7526 380.636C36.7526 380.636 36.7303 380.636 36.7526 380.636H28.2417H28.2194C27.7503 378.444 28.5098 374.329 28.5098 374.329C33.1562 378.779 36.0602 374.217 36.0602 374.217C36.8197 376.118 36.7526 380.636 36.7526 380.636Z" fill="#252D2D"/>
<path d="M97.3787 376.319C97.3787 376.319 89.806 367.709 87.4828 363.437L81.8535 366.322L94.43 378.153L97.3787 377.773V376.319Z" fill="#E2A66F"/>
<path d="M102.025 380.613H91.5259C90.61 379.786 89.7165 378.086 88.6442 375.894C88.0188 374.642 86.6338 373.926 85.2265 373.546V380.613H83.0596L81.0492 373.099C79.7089 370.571 80.7141 368.268 81.6523 366.277C82.7469 366.277 85.9413 367.06 91.5259 373.501C93.3576 375.626 95.3904 376.364 97.4009 376.297C97.4232 376.319 97.4679 376.319 97.4902 376.342C100.64 377.818 101.69 379.629 102.025 380.613Z" fill="#252D2D"/>
<path d="M101.511 189.099C101.511 189.099 92.5531 194.109 89.3364 195.563C88.1972 196.077 86.142 197.039 84.0199 198.023C82.7466 198.627 81.451 199.23 80.3341 199.745C78.4576 200.639 76.2015 200.147 74.8611 198.559C70.0137 192.879 57.4372 180.578 44.4586 179.035L44.4139 179.012C44.4139 179.012 44.4139 179.012 44.4139 179.035C44.4139 179.035 44.4139 179.035 44.3916 179.035L44.4586 179.169C45.1958 180.98 52.2994 198.783 52.5228 202.54C52.7462 206.499 53.461 267.243 53.461 267.243C53.461 267.243 52.9919 270.039 58.3531 268.876C63.692 267.713 65.0993 266.55 65.0993 266.55C65.0993 266.55 59.9838 229.088 61.3688 216.049C61.6368 213.5 61.3911 210.614 60.8326 207.64C68.7404 212.426 78.0555 214.573 78.0555 214.573C78.0555 214.573 81.5403 213.052 86.9239 209.697C89.18 208.288 91.816 206.052 94.4072 203.659C97.5346 200.796 102.918 193.863 102.918 193.863L101.511 189.099Z" fill="black"/>
<path d="M80.3128 359.456L74.3931 359.635C74.3931 359.635 60.722 344.381 53.0376 319.959C52.8589 319.399 52.6802 318.818 52.4792 318.236C48.2796 305.98 39.5676 290.593 34.9882 276.659C34.2511 274.445 33.6032 272.343 33.0224 270.375C32.8437 269.748 32.6427 269.122 32.4863 268.518L37.3561 264.806C37.3561 264.806 52.0101 288.558 56.5224 310.878C60.4763 330.314 76.2472 353.663 80.3128 359.456Z" fill="#2B2B2B"/>
<path d="M37.8696 312.981C37.9589 323.85 37.4005 348.832 35.9931 359.165H30.7436C27.8396 359.165 26.3876 359.12 26.3876 359.12C22.8358 341.139 20.3116 326.266 18.4799 313.45C16.9832 302.939 15.6429 293.903 14.6153 286.142C13.5877 278.337 12.8506 271.784 12.6049 266.259C12.5602 265.387 12.5378 264.537 12.5155 263.71C12.4932 262.882 12.4932 262.077 12.4932 261.294L41.1086 258.499C40.7512 277.554 37.8249 306.674 37.8696 312.981Z" fill="#434444"/>
<path d="M30.7433 359.165C27.8393 359.165 26.3873 359.12 26.3873 359.12C22.8355 341.139 20.3112 326.266 18.4795 313.45C16.9828 302.939 15.6425 293.903 14.6149 286.142C13.5874 278.337 12.8502 271.784 12.6045 266.259L23.1035 272.455C23.1035 272.455 16.402 274.825 18.9486 292.74C21.5175 310.655 27.1915 356.638 30.7433 359.165Z" fill="#2B2B2B"/>
<path d="M32.0837 266.08C32.0837 266.08 30.0732 273.372 23.1036 272.432C16.1341 271.493 6.21582 267.311 6.21582 267.311C6.21582 267.311 9.18682 257.872 12.895 245.504C17.385 230.497 22.9249 211.174 25.5609 198.984C26.298 195.563 26.7895 192.722 26.9905 190.665L32.8878 179.415C32.8878 179.415 41.3988 198.806 41.8679 203.704C42.3146 208.602 32.0837 266.08 32.0837 266.08Z" fill="#0F0000"/>
<path d="M56.9914 209.161C53.6406 209.608 52.345 211.397 51.9429 213.79C51.7195 215.087 51.0494 216.385 50.4909 217.279C47.1402 217.458 39.1877 217.883 32.4862 218.308L31.9277 227.098C37.423 226.404 44.1692 225.018 51.9429 222.356C52.5461 222.244 53.2832 221.887 54.2214 221.126C59.0465 217.167 61.7718 210.57 61.7718 209.608C61.7942 208.669 60.3645 208.713 56.9914 209.161Z" fill="#E2A66F"/>
<path d="M31.7928 213.947C31.4801 221.864 29.626 237.229 13.0286 245.437C12.9839 245.46 12.9392 245.482 12.8945 245.504C17.3845 230.497 22.9245 211.174 25.5604 198.984C28.5984 203.547 31.9492 209.586 31.7928 213.947Z" fill="black"/>
<path d="M32.8879 179.437C32.8879 179.437 18.703 180.444 15.2853 188.048C11.8675 195.652 10.7952 220.947 15.1289 228.395C15.1289 228.395 21.0932 230.095 31.6593 228.126C31.7933 228.104 31.9274 228.082 32.039 228.059C32.039 228.059 35.4121 219.807 32.3965 218.174C32.3965 218.174 23.4834 218.644 24.4217 215.691C25.3599 212.717 32.8879 179.437 32.8879 179.437Z" fill="black"/>
<path d="M111.116 183.127C103.477 182.143 101.556 189.099 101.556 189.099L102.985 193.863C105.331 194.198 107.386 193.572 109.285 190.866C111.184 188.16 111.697 189.188 112.904 187.176C114.557 184.425 112.01 183.396 111.116 183.127Z" fill="#E2A66F"/>
<path d="M89.337 195.563C88.1978 196.077 86.1427 197.039 84.0205 198.023C85.1598 200.036 86.5671 203.681 86.9468 209.697C89.203 208.288 92.1517 205.94 94.6536 203.48C98.6745 199.521 102.941 193.863 102.941 193.863L101.511 189.099C101.511 189.099 92.5314 194.109 89.337 195.563Z" fill="#E2A66F"/>
<path d="M233.355 250.917C233.355 250.917 227.927 252.303 224.487 251.275C221.047 250.223 215.105 251.946 214.144 253.198C213.184 254.45 213.541 254.965 215.239 255.39C216.936 255.815 222.99 258.409 226.966 256.911C230.942 255.412 236.125 255.367 236.125 255.367L233.355 250.917Z" fill="#D68C67"/>
<path d="M280.266 203.726C280.266 203.726 274.167 247.115 264.07 250.984C259.089 252.907 237.086 257.246 230.563 257.693C230.563 257.693 228.977 256.396 229.357 251.118C229.357 251.118 252.41 242.642 255.693 238.034C260.563 231.168 252.655 210.011 258.776 203.569C264.919 197.106 275.217 194.355 280.266 203.726Z" fill="#575C91"/>
<path d="M279.484 370.862V361.401H294.362C294.764 361.401 295.099 361.066 295.099 360.663V359.143C295.099 358.74 294.764 358.405 294.362 358.405H279.484V304.571C279.484 303.05 278.256 301.82 276.737 301.82H273.788C272.269 301.82 271.04 303.05 271.04 304.571V358.405H256.163C255.761 358.405 255.426 358.74 255.426 359.143V360.663C255.426 361.066 255.761 361.401 256.163 361.401H271.04V370.862C260.273 371.667 251.651 375.559 249.238 380.569H301.264C298.874 375.559 290.251 371.69 279.484 370.862Z" fill="#2B478B"/>
<path d="M228.865 370.236C228.865 370.236 228.24 380.457 226.252 380.613C225.984 380.636 216.222 380.636 216.222 380.636L203.757 380.569C203.757 380.569 203.846 377.572 207.487 376.923C211.128 376.297 217.227 373.725 219.438 368.916C221.762 363.839 228.865 370.236 228.865 370.236Z" fill="#12323A"/>
<path d="M257.526 341.027C257.526 341.027 266.126 346.573 265.3 348.363C265.188 348.609 260.43 357.13 260.43 357.13L254.287 367.977C254.287 367.977 251.696 366.434 252.924 362.945C254.153 359.456 254.89 352.88 251.763 348.609C248.479 344.113 257.526 341.027 257.526 341.027Z" fill="#12323A"/>
<path d="M278.211 295.111C276.424 298.13 274.369 300.97 272.247 303.632C265.702 311.907 258.554 318.751 257.325 325.192C257.079 326.489 256.677 327.854 256.163 329.33C255.65 330.806 255.002 332.371 254.265 333.959C251.495 339.998 247.317 346.775 243.185 352.947C236.014 363.593 229.268 372.472 229.268 372.472L216.893 371.936C217.384 370.683 222.79 355.989 230.005 338.03C232.931 330.739 236.059 322.978 239.052 315.508C239.454 314.501 239.856 313.517 240.259 312.533C241.174 310.252 242.09 307.993 242.961 305.801C249.752 288.938 255.136 275.496 255.136 275.496C255.136 275.496 282.232 265.208 285.047 271.873C287.37 277.375 285.494 282.765 278.211 295.111Z" fill="#4E84AD"/>
<path d="M250.846 168.433C247.183 176.373 247.763 184.335 249.662 189.748C250.824 193.08 254.599 194.735 257.816 193.259C258.955 192.744 260.117 191.917 261.166 190.665C261.166 190.665 262.551 189.77 261.569 196.144L266.684 196.77L277.004 193.863C277.004 193.863 272.202 190.105 271.33 187.019C271.152 186.393 271.107 185.767 271.174 185.14C270.571 185.319 270.057 185.342 269.878 185.118C269.499 184.626 271.107 183.441 271.464 181.137C271.554 180.645 271.889 178.408 270.66 177.156C269.119 175.613 266.684 177.245 265.098 175.568C264.294 174.718 264.562 173.891 263.512 173.175C262.417 172.437 261.323 172.817 261.122 172.392C260.965 172.012 261.479 171.184 264.294 169.216L264.205 167.114L252.276 167.628C251.918 167.628 251.606 167.539 251.315 167.382C251.181 167.718 251.002 168.053 250.846 168.433Z" fill="#D68C67"/>
<path d="M245.887 270.621C245.887 270.621 211.866 291.823 208.068 306.092C204.271 320.339 253.303 350.756 253.303 350.756C253.303 350.756 258.687 346.014 259.625 342.525C259.625 342.525 237.465 315.933 232.64 309.984C229.692 306.316 276.312 297.302 282.008 288.446C287.704 279.567 285.672 272.119 285.672 272.119L245.887 270.621Z" fill="#64A5CC"/>
<path d="M310.065 297.862H240.459C239.074 297.862 237.935 299.002 237.935 300.389V314.322C237.935 315.709 239.074 316.85 240.459 316.85H310.065C311.45 316.85 312.589 315.709 312.589 314.322V300.389C312.612 299.002 311.472 297.862 310.065 297.862Z" fill="#EE9849"/>
<path d="M286.677 234.769C285.515 250.492 287.481 274.378 286.14 278.516C285.001 282.094 271.553 279.969 266.349 278.784C264.427 278.337 262.104 277.71 259.692 276.972C252.99 274.892 245.663 271.918 244.881 269.704C244.859 269.614 244.814 269.525 244.814 269.458C244.747 269.144 244.747 268.831 244.837 268.541C245.105 267.422 246.11 266.192 246.222 263.419C246.356 260.31 246.333 256.642 246.445 252.706C246.445 252.259 246.467 251.789 246.512 251.342V251.185C246.512 251.096 246.512 251.029 246.512 250.939C246.624 246.555 246.847 241.926 247.115 237.363C247.294 234.478 247.473 231.638 247.696 228.909C248.277 221.864 249.081 215.602 250.109 211.643C251.806 205.202 255.581 200.975 258.999 197.889L261.479 195.764C264.249 196.368 267.51 195.965 270.459 194.556C273.653 193.035 274.77 191.939 275.329 192.364C282.745 198.067 288.062 215.557 286.677 234.769Z" fill="#6A6DB4"/>
<path d="M259.737 276.995C253.035 274.915 245.708 271.94 244.926 269.726C244.904 269.637 244.859 269.547 244.859 269.48C244.859 269.167 244.859 268.854 244.882 268.563C245.15 267.445 246.155 266.215 246.267 263.441C246.401 260.333 246.378 256.665 246.49 252.728C246.49 252.281 246.512 251.811 246.557 251.364V251.207C246.557 251.118 246.557 251.051 246.557 250.961L271.911 239.443C271.911 239.443 273.363 259.908 259.737 276.995Z" fill="#575C91"/>
<path d="M197.294 231.169L196.125 231.548L206.085 262.196L207.254 261.817L197.294 231.169Z" fill="#4A75CB"/>
<path d="M239.8 259.442L206.031 260.164L206.074 262.177L239.843 261.455L239.8 259.442Z" fill="#4A75CB"/>
<path d="M236.147 257.582C236.147 257.582 230.898 259.572 227.368 258.923C223.817 258.275 218.12 260.623 217.294 261.988C216.49 263.352 216.892 263.799 218.634 264.045C220.376 264.291 226.676 266.192 230.451 264.269C234.226 262.345 239.386 261.719 239.386 261.719L236.147 257.582Z" fill="#D68C67"/>
<path d="M277.563 205.493C277.563 205.493 276.289 249.284 266.684 254.249C261.948 256.709 240.548 263.464 234.114 264.604C234.114 264.604 232.394 263.486 232.193 258.208C232.193 258.208 254.174 247.226 256.922 242.284C261.01 234.926 250.824 214.752 256.207 207.685C261.591 200.639 271.531 196.748 277.563 205.493Z" fill="#6A6DB4"/>
<path d="M264.227 167.114L264.316 169.239H270.66V166.845L264.227 167.114Z" fill="#D68C67"/>
<path d="M250.489 165.168C250.198 166.063 250.623 166.98 251.36 167.382C251.628 167.539 251.963 167.628 252.32 167.628L264.249 167.114L270.683 166.845V169.239H264.338C261.524 171.207 261.01 172.034 261.166 172.414C261.367 172.862 262.44 172.459 263.557 173.197C264.606 173.891 264.338 174.718 265.143 175.59C266.706 177.268 269.163 175.635 270.705 177.178C271.933 178.408 271.576 180.667 271.487 181.159C271.129 183.463 269.521 184.648 269.901 185.14C270.057 185.364 270.593 185.342 271.196 185.163C271.822 185.006 272.537 184.671 273.095 184.335C277.116 181.92 279.864 174.181 277.071 167.651C274.793 162.328 269.096 158.906 262.797 158.906C254.554 158.906 251.27 162.82 250.489 165.168Z" fill="#332631"/>
<path d="M480.013 381.955H1.34553C1.09562 381.955 0.876953 381.665 0.876953 381.284C0.876953 380.927 1.08 380.613 1.34553 380.613H480.013C480.263 380.613 480.482 380.904 480.482 381.284C480.482 381.665 480.279 381.955 480.013 381.955Z" fill="#202F4E"/>
</svg>
