<?xml version="1.0" standalone="no"?><svg xmlns="http://www.w3.org/2000/svg" viewBox="0 0 1440 320"><path fill="#adaed3" fill-opacity="1" d="M0,320L14.1,288C28.2,256,56,192,85,165.3C112.9,139,141,149,169,160C197.6,171,226,181,254,202.7C282.4,224,311,256,339,272C367.1,288,395,288,424,245.3C451.8,203,480,117,508,101.3C536.5,85,565,139,593,133.3C621.2,128,649,64,678,80C705.9,96,734,192,762,229.3C790.6,267,819,245,847,218.7C875.3,192,904,160,932,160C960,160,988,192,1016,218.7C1044.7,245,1073,267,1101,272C1129.4,277,1158,267,1186,240C1214.1,213,1242,171,1271,160C1298.8,149,1327,171,1355,202.7C1383.5,235,1412,277,1426,298.7L1440,320L1440,320L1425.9,320C1411.8,320,1384,320,1355,320C1327.1,320,1299,320,1271,320C1242.4,320,1214,320,1186,320C1157.6,320,1129,320,1101,320C1072.9,320,1045,320,1016,320C988.2,320,960,320,932,320C903.5,320,875,320,847,320C818.8,320,791,320,762,320C734.1,320,706,320,678,320C649.4,320,621,320,593,320C564.7,320,536,320,508,320C480,320,452,320,424,320C395.3,320,367,320,339,320C310.6,320,282,320,254,320C225.9,320,198,320,169,320C141.2,320,113,320,85,320C56.5,320,28,320,14,320L0,320Z" data-darkreader-inline-fill="" style="--darkreader-inline-fill:#2c2d52;"></path></svg>