<svg width="17" height="21" viewBox="0 0 17 21" fill="none" xmlns="http://www.w3.org/2000/svg">
<path d="M11.3365 0.760986C14.399 0.760986 16.3508 2.19601 16.3508 5.01864V19.0919C16.3508 19.5346 16.1793 19.9592 15.874 20.2722C15.5687 20.5852 15.1546 20.761 14.7116 20.761C14.4474 20.7567 14.1876 20.6901 13.9371 20.5581L8.32483 17.4245L2.73525 20.5647C2.06203 20.9234 1.24628 20.7579 0.735138 20.1585L0.637105 20.0329L0.543456 19.8784C0.421246 19.6392 0.355313 19.374 0.35083 19.0919V5.19533C0.35083 2.26028 2.25998 0.760986 5.36517 0.760986H11.3365ZM11.3365 2.20873H5.36517C2.97008 2.20873 1.76288 3.15677 1.76288 5.19533L1.76278 19.0799C1.7635 19.124 1.77429 19.1674 1.76256 19.1507L1.80002 19.2129C1.86456 19.3031 1.98568 19.3325 2.07045 19.2875L7.65766 16.1493C8.0741 15.9186 8.57586 15.9186 8.99434 16.1504L14.5971 19.2783C14.6395 19.3006 14.6864 19.3126 14.7228 19.3133C14.7801 19.3133 14.835 19.29 14.8755 19.2485C14.916 19.207 14.9388 19.1506 14.9388 19.0919V5.01864C14.9388 3.11887 13.7009 2.20873 11.3365 2.20873ZM11.7587 7.07762C12.1486 7.07762 12.4647 7.40171 12.4647 7.80149C12.4647 8.16796 12.1991 8.47082 11.8545 8.51876L11.7587 8.52536H4.89125C4.50133 8.52536 4.18523 8.20127 4.18523 7.80149C4.18523 7.43502 4.45084 7.13216 4.79545 7.08423L4.89125 7.07762H11.7587Z" fill="white"/>
</svg>
