<svg width="20" height="21" viewBox="0 0 20 21" fill="none" xmlns="http://www.w3.org/2000/svg">
<path d="M6.1272 11.8872C7.50933 11.8872 8.61699 13.0056 8.61699 14.3976V17.7392C8.61699 19.1213 7.50933 20.2486 6.1272 20.2486H2.81401C1.44168 20.2486 0.324219 19.1213 0.324219 17.7392V14.3976C0.324219 13.0056 1.44168 11.8872 2.81401 11.8872H6.1272ZM17.4392 11.8872C18.8115 11.8872 19.929 13.0056 19.929 14.3976V17.7392C19.929 19.1213 18.8115 20.2486 17.4392 20.2486H14.126C12.7439 20.2486 11.6362 19.1213 11.6362 17.7392V14.3976C11.6362 13.0056 12.7439 11.8872 14.126 11.8872H17.4392ZM6.1272 0.644196C7.50933 0.644196 8.61699 1.77146 8.61699 3.15457V6.49619C8.61699 7.88812 7.50933 9.00559 6.1272 9.00559H2.81401C1.44168 9.00559 0.324219 7.88812 0.324219 6.49619V3.15457C0.324219 1.77146 1.44168 0.644196 2.81401 0.644196H6.1272ZM17.4392 0.644196C18.8115 0.644196 19.929 1.77146 19.929 3.15457V6.49619C19.929 7.88812 18.8115 9.00559 17.4392 9.00559H14.126C12.7439 9.00559 11.6362 7.88812 11.6362 6.49619V3.15457C11.6362 1.77146 12.7439 0.644196 14.126 0.644196H17.4392Z" fill="#200E32"/>
</svg>
