<svg width="20" height="21" viewBox="0 0 20 21" fill="none" xmlns="http://www.w3.org/2000/svg">
<g opacity="0.6">
<path d="M9.99102 1.92371C5.39102 1.92371 1.66602 5.65704 1.66602 10.257C1.66602 14.857 5.39102 18.5904 9.99102 18.5904C14.5993 18.5904 18.3327 14.857 18.3327 10.257C18.3327 5.65704 14.5993 1.92371 9.99102 1.92371ZM9.99935 16.9237C6.31602 16.9237 3.33268 13.9404 3.33268 10.257C3.33268 6.57371 6.31602 3.59037 9.99935 3.59037C13.6827 3.59037 16.666 6.57371 16.666 10.257C16.666 13.9404 13.6827 16.9237 9.99935 16.9237Z" fill="#1E1F3B"/>
<path d="M10.417 6.09039H9.16699V11.0904L13.542 13.7154L14.167 12.6904L10.417 10.4654V6.09039Z" fill="#1E1F3B"/>
</g>
</svg>
