<svg width="24" height="22" viewBox="0 0 24 22" fill="none" xmlns="http://www.w3.org/2000/svg">
<path d="M17.95 0.187866C19.5043 0.187866 20.9994 0.802168 22.0994 1.90443C23.2005 3.00438 23.816 4.48798 23.816 6.04112V15.1977C23.816 18.4315 21.1849 21.0509 17.95 21.0509H6.49961C3.26467 21.0509 0.634766 18.4315 0.634766 15.1977V6.04112C0.634766 2.80734 3.25308 0.187866 6.49961 0.187866H17.95ZM19.2608 6.21497C19.0174 6.20222 18.7856 6.28452 18.6106 6.44679L13.3844 10.6194C12.7122 11.1769 11.749 11.1769 11.0663 10.6194L5.85053 6.44679C5.49007 6.1802 4.99167 6.21497 4.69147 6.52792C4.37853 6.84087 4.34376 7.33926 4.60918 7.68698L4.76102 7.83766L10.0347 11.9523C10.6838 12.4623 11.4708 12.7405 12.2949 12.7405C13.1167 12.7405 13.9176 12.4623 14.5655 11.9523L19.794 7.76811L19.8867 7.67539C20.1638 7.33926 20.1638 6.85246 19.874 6.51633C19.7129 6.34363 19.4915 6.23815 19.2608 6.21497Z" fill="#200E32"/>
</svg>
