<svg width="22" height="22" viewBox="0 0 22 22" fill="none" xmlns="http://www.w3.org/2000/svg">
<g clip-path="url(#clip0)">
<path d="M18.6909 0H2.94092C1.49279 0 0.315918 1.23292 0.315918 2.75V19.25C0.315918 20.7662 1.49279 22 2.94092 22H18.6909C20.1382 22 21.3159 20.7662 21.3159 19.25V2.75C21.3159 1.23292 20.1382 0 18.6909 0Z" fill="#3B5999"/>
<path d="M14.7534 11V8.25C14.7534 7.491 15.3414 7.5625 16.0659 7.5625H17.3784V4.125H14.7534C12.5782 4.125 10.8159 5.97117 10.8159 8.25V11H8.19092V14.4375H10.8159V22H14.7534V14.4375H16.7222L18.0347 11H14.7534Z" fill="white"/>
</g>
<defs>
<clipPath id="clip0">
<rect width="21" height="22" fill="white" transform="translate(0.315918)"/>
</clipPath>
</defs>
</svg>
