<svg width="144" height="145" viewBox="0 0 144 145" fill="none" xmlns="http://www.w3.org/2000/svg">
<mask id="mask0" mask-type="alpha" maskUnits="userSpaceOnUse" x="0" y="0" width="144" height="145">
<circle cx="72.0012" cy="72.2222" r="71.7844" fill="#F19A33"/>
</mask>
<g mask="url(#mask0)">
<path d="M97.4772 38.4955C94.7317 38.4955 92.5059 40.7037 92.5059 43.4274V66.4428C92.5059 69.1665 94.7317 71.3747 97.4772 71.3747C100.223 71.3747 102.449 69.1665 102.449 66.4428V43.4274C102.449 40.7037 100.223 38.4955 97.4772 38.4955Z" fill="white"/>
<path d="M80.9069 31.9196C78.1614 31.9196 75.9355 34.1277 75.9355 36.8514V51.6471H82.564V58.2229C82.564 62.8613 80.8746 67.0749 78.1638 70.4467C78.9608 70.9857 79.8695 71.3746 80.9069 71.3746C83.6524 71.3746 85.8782 69.1664 85.8782 66.4427V36.8514C85.8782 34.1277 83.6524 31.9196 80.9069 31.9196Z" fill="white"/>
<path d="M47.7624 31.9196C45.0168 31.9196 42.791 34.1277 42.791 36.8514V51.9798C43.8624 51.763 44.9704 51.6471 46.1052 51.6471H52.7337V36.8514C52.7337 34.1277 50.5079 31.9196 47.7624 31.9196Z" fill="white"/>
<path d="M64.3346 31.9196C61.5891 31.9196 59.3633 34.1277 59.3633 36.8514V51.6471H69.306V36.8514C69.306 34.1277 67.0801 31.9196 64.3346 31.9196Z" fill="white"/>
<path d="M97.4772 77.9504C94.2293 77.9504 91.3127 76.6353 89.1916 74.465C87.0705 76.6353 84.154 77.9504 80.9061 77.9504C77.9896 77.9504 75.2721 76.8327 73.2173 74.9253C71.626 75.9119 69.9031 76.701 68.0469 77.1613C72.8854 81.3699 75.9347 87.5514 75.9347 94.39H69.3063C69.3063 85.3154 61.8824 77.9504 52.7352 77.9504V71.3746H62.6779C69.9994 71.3746 75.9347 65.4864 75.9347 58.2229H46.1067C40.6155 58.2229 36.1641 62.639 36.1641 68.0867C36.1641 68.6943 36.1641 75.1081 36.1641 75.6491C36.1641 84.8715 40.4354 93.04 46.7035 99.6507C48.493 101.492 49.421 103.925 49.421 106.424V144.147H95.8201V104.056C95.8201 102.544 96.1515 101.032 96.8804 99.6507C97.6341 97.7551 102.449 90.8969 102.449 80.0547V76.7668C100.924 77.4901 99.2671 77.9504 97.4772 77.9504Z" fill="white"/>
</g>
</svg>
