<svg width="21" height="25" viewBox="0 0 21 25" fill="none" xmlns="http://www.w3.org/2000/svg">
<path d="M10.7579 0.85791C14.4404 0.85791 17.4034 3.75565 17.4034 7.33312V9.17312C19.4703 9.81826 20.9762 11.6893 20.9762 13.924V19.8483C20.9762 22.6148 18.6825 24.8579 15.8548 24.8579H5.69873C2.8698 24.8579 0.576172 22.6148 0.576172 19.8483V13.924C0.576172 11.6893 2.08331 9.81826 4.14892 9.17312V7.33312C4.16111 3.75565 7.12417 0.85791 10.7579 0.85791ZM10.7701 14.519C10.1848 14.519 9.70923 14.9841 9.70923 15.5565V18.2038C9.70923 18.7882 10.1848 19.2532 10.7701 19.2532C11.3676 19.2532 11.8431 18.7882 11.8431 18.2038V15.5565C11.8431 14.9841 11.3676 14.519 10.7701 14.519ZM10.7823 2.94476C8.30695 2.94476 6.295 4.90044 6.28281 7.30927V8.91436H15.2695V7.33312C15.2695 4.91237 13.2576 2.94476 10.7823 2.94476Z" fill="#26284C"/>
</svg>
