<svg width="867" height="234" viewBox="0 0 867 234" fill="none" xmlns="http://www.w3.org/2000/svg">
<path fill-rule="evenodd" clip-rule="evenodd" d="M65.8732 81.5601H32.5V73.7881H73.6344V161.612H32.5V153.84H65.8732V81.5601Z" fill="#6A6DB4"/>
<path fill-rule="evenodd" clip-rule="evenodd" d="M81.3956 66.016H32.5V58.244H89.1568V177.156H32.5V169.384H81.3956V66.016Z" fill="#6A6DB4"/>
<path fill-rule="evenodd" clip-rule="evenodd" d="M96.918 50.472H32.5V42.7H104.679V192.7H32.5V184.928H96.918V50.472Z" fill="#6A6DB4"/>
<path fill-rule="evenodd" clip-rule="evenodd" d="M143.485 42.7V161.612H188.5V153.84H151.246V42.7H143.485Z" fill="#6A6DB4"/>
<path fill-rule="evenodd" clip-rule="evenodd" d="M127.963 42.7V177.156H188.5V169.384H135.724V42.7H127.963Z" fill="#6A6DB4"/>
<path fill-rule="evenodd" clip-rule="evenodd" d="M112.44 42.7V192.7H188.5V184.928H120.201V42.7H112.44Z" fill="#6A6DB4"/>
<path d="M220 176.636V59.3636H232.85V176.636H220Z" fill="#6A6DB4"/>
<path d="M312.474 176.636L271.868 86.4659H271.182V176.636H258.846V59.3636H272.382L312.303 148H312.988V59.3636H325.324V176.636H312.474Z" fill="#6A6DB4"/>
<path d="M351.08 59.3636H379.179C390.601 59.3636 398.711 60.8409 403.508 63.7955C408.42 66.75 411.561 72.0909 412.932 79.8182C414.417 87.4318 415.159 100.159 415.159 118C415.159 135.841 414.417 148.625 412.932 156.352C411.561 163.966 408.42 169.25 403.508 172.205C398.711 175.159 390.601 176.636 379.179 176.636H351.08V59.3636ZM378.665 165.386C386.546 165.386 391.915 164.591 394.77 163C397.74 161.295 399.739 157.375 400.767 151.239C401.795 145.102 402.309 134.023 402.309 118C402.309 102.091 401.795 91.0682 400.767 84.9318C399.739 78.6818 397.74 74.7614 394.77 73.1705C391.8 71.4659 386.432 70.6136 378.665 70.6136H363.758V165.386H378.665Z" fill="#6A6DB4"/>
<path d="M438.473 176.636V59.3636H451.323V176.636H438.473Z" fill="#6A6DB4"/>
<path d="M528.377 175.955C525.864 176.523 522.78 176.977 519.125 177.318C515.584 177.773 512.214 178 509.016 178C498.736 178 491.197 176.466 486.4 173.398C481.717 170.33 478.518 164.761 476.805 156.693C475.206 148.511 474.406 135.614 474.406 118C474.406 100.5 475.206 87.7159 476.805 79.6477C478.518 71.4659 481.717 65.8409 486.4 62.7727C491.197 59.5909 498.736 58 509.016 58C512.214 58 515.584 58.2273 519.125 58.6818C522.666 59.1364 525.579 59.7045 527.863 60.3864V70.7841C521.467 69.7614 516.098 69.25 511.758 69.25C503.876 69.25 498.336 70.2727 495.138 72.3182C491.94 74.3636 489.827 78.5682 488.799 84.9318C487.885 91.2955 487.428 102.318 487.428 118C487.428 133.682 487.885 144.705 488.799 151.068C489.827 157.432 491.94 161.636 495.138 163.682C498.336 165.727 503.876 166.75 511.758 166.75C517.469 166.75 523.009 166.239 528.377 165.216V175.955Z" fill="#6A6DB4"/>
<path d="M582.309 176.636V59.3636H595.159V165.045H633.196V176.636H582.309Z" fill="#6A6DB4"/>
<path d="M705.312 176.636L697.088 144.08H660.936L652.883 176.636H640.033L670.873 59.3636H687.664L718.505 176.636H705.312ZM679.44 74.875H678.583L664.02 132.83H694.004L679.44 74.875Z" fill="#6A6DB4"/>
<path d="M798.957 176.636L780.11 81.3523H779.425L760.75 176.636H744.644L722.713 59.3636H735.906L752.868 158.057H753.725L772.743 59.3636H787.135L806.325 158.057H807.353L823.972 59.3636H836.822L814.892 176.636H798.957Z" fill="#6A6DB4"/>
</svg>
