<svg width="157" height="52" viewBox="0 0 157 52" fill="none" xmlns="http://www.w3.org/2000/svg">
<path d="M6.88403 15.4575C6.88403 10.7339 10.7365 6.90466 15.4887 6.90466H36.5224C41.2747 6.90466 45.1271 10.7339 45.1271 15.4575V36.3643C45.1271 41.0879 41.2747 44.9171 36.5224 44.9171H15.4887C10.7365 44.9171 6.88403 41.0879 6.88403 36.3643V15.4575Z" fill="#6A6DB4"/>
<path fill-rule="evenodd" clip-rule="evenodd" d="M19.1336 20.1394H13.8157V18.9084H20.3703V32.8184H13.8157V31.5875H19.1336V20.1394Z" fill="#F9F9FB"/>
<path fill-rule="evenodd" clip-rule="evenodd" d="M21.607 17.6774H13.8157V16.4464H22.8437V35.2803H13.8157V34.0493H21.607V17.6774Z" fill="#F9F9FB"/>
<path fill-rule="evenodd" clip-rule="evenodd" d="M24.0804 15.2155H13.8157V13.9845H25.3172V37.7423H13.8157V36.5113H24.0804V15.2155Z" fill="#F9F9FB"/>
<path fill-rule="evenodd" clip-rule="evenodd" d="M31.5006 13.9845V32.8184H38.6736V31.5874H32.7373V13.9845H31.5006Z" fill="#F9F9FB"/>
<path fill-rule="evenodd" clip-rule="evenodd" d="M29.0272 13.9845V35.2803H38.6736V34.0493H30.2639V13.9845H29.0272Z" fill="#F9F9FB"/>
<path fill-rule="evenodd" clip-rule="evenodd" d="M26.5537 13.9845V37.7423H38.6736V36.5113H27.7905V13.9845H26.5537Z" fill="#F9F9FB"/>
<path d="M51.501 35.1981V16.6238H53.5486V35.1981H51.501Z" fill="white"/>
<path d="M66.2364 35.1981L59.7659 20.9164H59.6567V35.1981H57.691V16.6238H59.8478L66.2091 30.6625H66.3183V16.6238H68.284V35.1981H66.2364Z" fill="white"/>
<path d="M72.388 16.6238H76.8655C78.6856 16.6238 79.9779 16.8578 80.7423 17.3257C81.525 17.7937 82.0255 18.6396 82.2439 19.8635C82.4805 21.0694 82.5989 23.0852 82.5989 25.9109C82.5989 28.7367 82.4805 30.7615 82.2439 31.9854C82.0255 33.1913 81.525 34.0282 80.7423 34.4961C79.9779 34.9641 78.6856 35.1981 76.8655 35.1981H72.388V16.6238ZM76.7836 33.4162C78.0395 33.4162 78.8949 33.2902 79.35 33.0383C79.8232 32.7683 80.1417 32.1474 80.3055 31.1754C80.4693 30.2035 80.5512 28.4487 80.5512 25.9109C80.5512 23.3912 80.4693 21.6453 80.3055 20.6734C80.1417 19.6835 79.8232 19.0626 79.35 18.8106C78.8767 18.5406 78.0213 18.4056 76.7836 18.4056H74.4084V33.4162H76.7836Z" fill="white"/>
<path d="M86.3138 35.1981V16.6238H88.3614V35.1981H86.3138Z" fill="white"/>
<path d="M100.64 35.0901C100.239 35.1801 99.7478 35.2521 99.1654 35.3061C98.6012 35.3781 98.0642 35.4141 97.5546 35.4141C95.9165 35.4141 94.7152 35.1711 93.9508 34.6851C93.2046 34.1992 92.6949 33.3172 92.4219 32.0394C92.1671 30.7435 92.0397 28.7007 92.0397 25.9109C92.0397 23.1392 92.1671 21.1144 92.4219 19.8365C92.6949 18.5406 93.2046 17.6497 93.9508 17.1638C94.7152 16.6598 95.9165 16.4078 97.5546 16.4078C98.0642 16.4078 98.6012 16.4438 99.1654 16.5158C99.7296 16.5878 100.194 16.6778 100.558 16.7858V18.4326C99.5385 18.2707 98.6831 18.1897 97.9914 18.1897C96.7356 18.1897 95.8528 18.3517 95.3432 18.6756C94.8335 18.9996 94.4968 19.6655 94.333 20.6734C94.1874 21.6813 94.1146 23.4272 94.1146 25.9109C94.1146 28.3947 94.1874 30.1405 94.333 31.1485C94.4968 32.1564 94.8335 32.8223 95.3432 33.1463C95.8528 33.4702 96.7356 33.6322 97.9914 33.6322C98.9015 33.6322 99.7843 33.5512 100.64 33.3892V35.0901Z" fill="white"/>
<path d="M109.234 35.1981V16.6238H111.281V33.3622H117.342V35.1981H109.234Z" fill="white"/>
<path d="M128.834 35.1981L127.523 30.0416H121.762L120.479 35.1981H118.432L123.346 16.6238H126.022L130.936 35.1981H128.834ZM124.711 19.0806H124.575L122.254 28.2597H127.032L124.711 19.0806Z" fill="white"/>
<path d="M143.756 35.1981L140.752 20.1065H140.643L137.667 35.1981H135.101L131.606 16.6238H133.709L136.411 32.2553H136.548L139.578 16.6238H141.872L144.93 32.2553H145.093L147.742 16.6238H149.789L146.295 35.1981H143.756Z" fill="white"/>
</svg>
