<svg width="208" height="57" viewBox="0 0 208 57" fill="none" xmlns="http://www.w3.org/2000/svg">
<path d="M147.012 42.7486V14.9624H151.807V38.1837H161.797V42.7486H147.012Z" fill="white"/>
<path d="M175.64 42.7486V41.1211C174.281 42.5236 172.47 43.2249 170.205 43.2249C168.021 43.2249 166.236 42.6427 164.851 41.4783C163.492 40.2875 162.813 38.6203 162.813 36.4768C162.813 34.2804 163.585 32.6132 165.131 31.4753C166.702 30.3374 168.594 29.7685 170.805 29.7685C172.75 29.7685 174.361 30.1257 175.64 30.8402V29.7685C175.64 28.4718 175.307 27.5323 174.641 26.9501C174.002 26.368 173.003 26.0769 171.644 26.0769C169.433 26.0769 167.408 26.712 165.57 27.9822L164.132 24.2112C166.343 22.7293 169.007 21.9883 172.123 21.9883C173.189 21.9883 174.121 22.081 174.921 22.2662C175.746 22.425 176.586 22.7558 177.438 23.2586C178.317 23.7614 178.997 24.5552 179.476 25.6402C179.956 26.7252 180.195 28.0748 180.195 29.6891V42.7486H175.64ZM171.085 39.1364C172.869 39.1364 174.388 38.488 175.64 37.1913V34.5715C174.468 34.0158 173.109 33.7379 171.564 33.7379C170.312 33.7379 169.3 33.9628 168.527 34.4127C167.755 34.8626 167.368 35.5506 167.368 36.4768C167.368 37.2972 167.688 37.9455 168.327 38.4219C168.967 38.8982 169.886 39.1364 171.085 39.1364Z" fill="white"/>
<path d="M186.673 42.7486L181.079 22.4647H185.674L188.311 33.6982C188.445 34.3069 188.604 35.1008 188.791 36.0799C188.924 35.3654 189.097 34.5715 189.31 33.6982L192.307 22.4647H196.583L199.54 33.6982C199.753 34.5715 199.926 35.3654 200.06 36.0799C200.246 35.1008 200.406 34.3069 200.539 33.6982L203.216 22.4647H207.812L202.217 42.7486H198.062L195.065 31.7929C194.665 30.2316 194.452 29.3054 194.425 29.0143C194.319 29.5435 194.106 30.4697 193.786 31.7929L190.789 42.7486H186.673Z" fill="white"/>
<path d="M67.2119 42.7476V14.8883H72.0047V42.7476H67.2119Z" fill="white"/>
<path d="M89.2108 42.7476V31.0865C89.2108 27.9291 87.9461 26.3504 85.4166 26.3504C82.6474 26.3504 81.2628 27.9026 81.2628 31.0069V42.7476H76.5899V22.4103H81.2628V24.3206C82.5942 22.7287 84.3914 21.9327 86.6547 21.9327C88.7848 21.9327 90.5155 22.596 91.8468 23.9227C93.2048 25.2493 93.8838 27.3586 93.8838 30.2507V42.7476H89.2108Z" fill="white"/>
<path d="M105.152 43.2252C102.542 43.2252 100.479 42.2833 98.9611 40.3995C97.4434 38.5156 96.6845 35.9022 96.6845 32.5591C96.6845 29.2955 97.47 26.7086 99.041 24.7982C100.612 22.8879 102.649 21.9327 105.152 21.9327C107.122 21.9327 108.653 22.5695 109.745 23.8431V16.122L114.418 14.0127V42.7476H109.745V41.275C108.733 42.5751 107.202 43.2252 105.152 43.2252ZM105.871 38.7677C107.601 38.7677 108.893 38.1177 109.745 36.8175V28.3006C108.866 27.0005 107.575 26.3504 105.871 26.3504C104.433 26.3504 103.314 26.8943 102.516 27.9822C101.744 29.0435 101.357 30.5691 101.357 32.5591C101.357 34.4429 101.757 35.9552 102.556 37.0961C103.354 38.2105 104.459 38.7677 105.871 38.7677Z" fill="white"/>
<path d="M122.778 18.8284C122.246 19.359 121.594 19.6244 120.821 19.6244C120.049 19.6244 119.384 19.359 118.824 18.8284C118.292 18.2712 118.026 17.6079 118.026 16.8384C118.026 16.069 118.292 15.4189 118.824 14.8883C119.384 14.3576 120.049 14.0923 120.821 14.0923C121.594 14.0923 122.246 14.3576 122.778 14.8883C123.311 15.4189 123.577 16.069 123.577 16.8384C123.577 17.6079 123.311 18.2712 122.778 18.8284ZM118.465 42.7476V22.4103H123.138V42.7476H118.465Z" fill="white"/>
<path d="M135.262 43.2252C132.466 43.2252 130.243 42.2833 128.592 40.3995C126.968 38.5156 126.156 35.9154 126.156 32.5989C126.156 29.2823 126.968 26.6821 128.592 24.7982C130.243 22.8879 132.466 21.9327 135.262 21.9327C139.469 21.9327 142.171 23.8033 143.37 27.5444L138.936 29.0169C138.271 27.2658 137.099 26.3902 135.422 26.3902C134.01 26.3902 132.905 26.9474 132.107 28.0618C131.308 29.1761 130.908 30.6885 130.908 32.5989C130.908 34.4827 131.294 35.9818 132.067 37.0961C132.865 38.184 133.93 38.7279 135.262 38.7279C137.152 38.7279 138.39 37.7462 138.976 35.7828L143.449 37.1359C142.278 41.1954 139.549 43.2252 135.262 43.2252Z" fill="white"/>
<path d="M0 12.825C0 5.74195 5.74195 0 12.825 0H44.175C51.2581 0 57 5.74195 57 12.825V44.175C57 51.2581 51.2581 57 44.175 57H12.825C5.74195 57 0 51.2581 0 44.175V12.825Z" fill="#6A6DB4"/>
<path fill-rule="evenodd" clip-rule="evenodd" d="M18.2572 19.8454H10.3311V17.9995H20.1005V38.8577H10.3311V37.0118H18.2572V19.8454Z" fill="#F9F9FB"/>
<path fill-rule="evenodd" clip-rule="evenodd" d="M21.9438 16.154H10.3311V14.3081H23.7871V42.5497H10.3311V40.7038H21.9438V16.154Z" fill="#F9F9FB"/>
<path fill-rule="evenodd" clip-rule="evenodd" d="M25.6303 12.4621H10.3311V10.6162H27.4736V46.2412H10.3311V44.3954H25.6303V12.4621Z" fill="#F9F9FB"/>
<path fill-rule="evenodd" clip-rule="evenodd" d="M36.6908 10.6162V38.8578H47.3818V37.0119H38.5341V10.6162H36.6908Z" fill="#F9F9FB"/>
<path fill-rule="evenodd" clip-rule="evenodd" d="M33.0042 10.6162V42.5495H47.3818V40.7036H34.8475V10.6162H33.0042Z" fill="#F9F9FB"/>
<path fill-rule="evenodd" clip-rule="evenodd" d="M29.3176 10.6162V46.2412H47.3818V44.3954H31.1609V10.6162H29.3176Z" fill="#F9F9FB"/>
</svg>
