<svg width="21" height="21" viewBox="0 0 21 21" fill="none" xmlns="http://www.w3.org/2000/svg">
<path d="M9.96237 0.760986C15.2707 0.760986 19.5739 4.96918 19.5739 10.1602C19.5739 12.61 18.6155 14.8409 17.0454 16.5139L20.1333 19.5246C20.4228 19.8069 20.4234 20.2652 20.1347 20.5483C19.8723 20.8056 19.4611 20.8295 19.171 20.6196L19.0879 20.5496L15.9635 17.5027C14.319 18.7898 12.2326 19.5595 9.96237 19.5595C4.65406 19.5595 0.35083 15.3513 0.35083 10.1602C0.35083 4.96918 4.65406 0.760986 9.96237 0.760986ZM9.96237 2.20873C5.47169 2.20873 1.83127 5.76874 1.83127 10.1602C1.83127 14.5518 5.47169 18.1118 9.96237 18.1118C14.4531 18.1118 18.0935 14.5518 18.0935 10.1602C18.0935 5.76874 14.4531 2.20873 9.96237 2.20873Z" fill="white"/>
</svg>
