<svg width="23" height="20" viewBox="0 0 23 20" fill="none" xmlns="http://www.w3.org/2000/svg">
<path opacity="0.5" d="M19.4097 0.585215C19.7373 0.265703 20.2506 0.265703 20.5672 0.585215C20.8948 0.904728 20.8948 1.43358 20.5672 1.75309L18.5799 3.7583C20.1632 5.21264 21.5063 7.17378 22.5109 9.53156C22.5983 9.7409 22.5983 9.98329 22.5109 10.1816C20.1741 15.6684 16.0138 18.9517 11.3839 18.9517H11.373C9.26551 18.9517 7.2454 18.2576 5.46552 16.9905L3.34713 19.128C3.18334 19.2932 2.97587 19.3703 2.7684 19.3703C2.56092 19.3703 2.34253 19.2932 2.18966 19.128C1.91667 18.8525 1.87299 18.4118 2.09138 18.0923L2.12414 18.0482L18.2741 1.75309C18.296 1.73105 18.3178 1.70902 18.3287 1.68698C18.3506 1.66495 18.3724 1.64291 18.3833 1.62088L19.4097 0.585215ZM11.3868 0.776813C12.9483 0.776813 14.4662 1.15141 15.8639 1.85654L12.2167 5.53645C11.9547 5.49238 11.6708 5.45932 11.3868 5.45932C8.97363 5.45932 7.01904 7.43149 7.01904 9.86639C7.01904 10.1529 7.0518 10.4393 7.09548 10.7037L3.05525 14.7803C1.9633 13.5022 1.0133 11.9598 0.259853 10.1859C0.172497 9.98759 0.172497 9.7452 0.259853 9.53586C2.59663 4.04906 6.75697 0.776813 11.3759 0.776813H11.3868ZM14.9873 7.38312L13.7971 8.58404C13.9937 8.95865 14.1029 9.39935 14.1029 9.86209C14.1029 11.3715 12.8799 12.6055 11.3839 12.6055C10.9253 12.6055 10.4885 12.4953 10.1172 12.297L8.92701 13.4979C9.62586 13.9717 10.4776 14.2581 11.3839 14.2581C13.7862 14.2581 15.7408 12.286 15.7408 9.86209C15.7408 8.94763 15.4569 8.08825 14.9873 7.38312Z" fill="#200E32"/>
</svg>
