<svg xmlns="http://www.w3.org/2000/svg" viewBox="0 0 1920 526.51"><defs><style>.cls-1{fill:#6a6db4;}.cls-2{fill:#232323;}.cls-3{fill:#f9f9fb;fill-rule:evenodd;}</style></defs><title>logoAsset 1</title><g id="Layer_2" data-name="Layer 2"><g id="Layer_1-2" data-name="Layer 1"><path class="cls-1" d="M1358.39,394.87V138.21h44.29V352.7H1495v42.17Z"/><path class="cls-1" d="M1622.83,394.87v-15q-18.82,19.44-50.2,19.44-30.27,0-49.46-16.14-18.83-16.49-18.83-46.19,0-30.43,21.42-46.2Q1547.53,275,1578.17,275q26.94,0,44.66,9.9V275q0-18-9.23-26-8.86-8.07-27.68-8.07a96.58,96.58,0,0,0-56.11,17.6l-13.29-34.83q30.64-20.53,73.83-20.53a115.37,115.37,0,0,1,25.83,2.56,73.1,73.1,0,0,1,23.26,9.17q12.18,7,18.82,22t6.65,37.4V394.87Zm-42.08-33.37q24.74,0,42.08-18v-24.2q-16.24-7.71-37.65-7.7-17.34,0-28,6.23t-10.7,19.07q0,11.35,8.85,18T1580.75,361.5Z"/><path class="cls-1" d="M1724.74,394.87l-51.67-187.36h42.44l24.36,103.76q1.86,8.43,4.43,22,1.85-9.9,4.8-22l27.69-103.76h39.49l27.32,103.76q2.94,12.11,4.79,22,2.58-13.56,4.43-22l24.73-103.76H1920l-51.68,187.36h-38.38l-27.68-101.2q-5.55-21.63-5.91-25.67-1.49,7.33-5.91,25.67l-27.68,101.2Z"/><path class="cls-2" d="M621.28,394.86V137.52h44.27V394.86Z"/><path class="cls-2" d="M824.48,394.86V287.14q0-43.74-35-43.74-38.37,0-38.37,43V394.86H707.91V207h43.16v17.65q18.43-22.07,49.8-22.06,29.52,0,48,18.38,18.81,18.39,18.82,58.45V394.86Z"/><path class="cls-2" d="M971.73,399.27q-36.16,0-57.18-26.1t-21-72.43q0-45.21,21.76-71.68t56.45-26.47q27.3,0,42.42,17.65V148.92l43.17-19.49V394.86h-43.17V381.25Q1000.14,399.27,971.73,399.27Zm6.64-41.18q24,0,35.78-18V261.41q-12.17-18-35.78-18-19.92,0-31,15.07-10.7,14.7-10.7,42.27,0,26.11,11.07,41.91Q958.82,358.1,978.37,358.09Z"/><path class="cls-2" d="M1134.55,173.92a24.64,24.64,0,0,1-18.08,7.35,25.17,25.17,0,0,1-25.82-25.74,24.41,24.41,0,0,1,7.38-18,25.86,25.86,0,0,1,18.44-7.35,25.15,25.15,0,0,1,25.46,25.36A25.71,25.71,0,0,1,1134.55,173.92ZM1094.7,394.86V207h43.17V394.86Z"/><path class="cls-2" d="M1249.85,399.27q-38.73,0-61.6-26.1-22.51-26.1-22.51-72.06t22.51-72.05q22.86-26.48,61.6-26.47,58.29,0,74.89,51.83L1283.8,268q-9.22-24.27-32.47-24.27-19.55,0-30.62,15.44t-11.07,41.91q0,26.1,10.7,41.54,11.07,15.08,29.51,15.08,26.2,0,34.31-27.21l41.33,12.5Q1309.25,399.27,1249.85,399.27Z"/><path class="cls-1" d="M0,118.46A118.46,118.46,0,0,1,118.46,0H408A118.47,118.47,0,0,1,526.51,118.46V408A118.47,118.47,0,0,1,408,526.51H118.46A118.47,118.47,0,0,1,0,408Z"/><path class="cls-3" d="M168.64,183.31H95.43V166.26h90.24V358.93H95.43V341.88h73.21Z"/><path class="cls-3" d="M202.7,149.21H95.43V132.16H219.72V393H95.43V376H202.7Z"/><path class="cls-3" d="M236.75,115.11H95.43v-17H253.77V427.13H95.43V410.08H236.75Z"/><path class="cls-3" d="M338.91,98.06V358.93h98.75V341.88H355.93V98.06Z"/><path class="cls-3" d="M304.85,98.06V393H437.66V376H321.88V98.06Z"/><path class="cls-3" d="M270.8,98.06V427.13H437.66V410.08H287.83v-312Z"/></g></g></svg>