<svg xmlns="http://www.w3.org/2000/svg" viewBox="0 0 375.37 374.06"><defs><style>.cls-1{fill:#00e676;}.cls-2{fill:#fff;}</style></defs><title>whatsAppAsset 2</title><g id="Layer_2" data-name="Layer 2"><g id="Layer_1-2" data-name="Layer 1"><path class="cls-1" d="M99.22,323.51l6.14,3c25.57,15.17,54.21,22.25,82.85,22.25,90,0,163.65-72.79,163.65-161.76A161.4,161.4,0,0,0,303.78,72.79,163.42,163.42,0,0,0,188.21,25.28C98.2,25.28,24.55,98.07,25.58,188c0,30.33,9.2,59.65,24.54,84.92L54.21,279,37.85,338.68Z"/><path class="cls-2" d="M321.16,54.59C286.39,19.21,238.32,0,189.22,0,84.89,0,1,83.91,2.05,186c0,32.35,9.2,63.69,24.54,92L0,374.06l99.21-25.28C126.83,364,157.51,371,188.2,371c103.3,0,187.17-83.92,187.17-186a182.43,182.43,0,0,0-54.2-130.42ZM189.22,339.69c-27.62,0-55.23-7.08-78.76-21.23l-6.13-3L45,330.59,60.35,273l-4.09-6.06c-45-71.78-23.53-166.81,50.11-211.3s168.77-23.25,213.77,49.54S343.67,272,270,316.43c-23.52,15.17-52.16,23.25-80.8,23.25Zm90-112.22L268,222.41s-16.37-7.07-26.6-12.13c-1,0-2-1-3.06-1a14.9,14.9,0,0,0-7.16,2s-1,1-15.35,17.19a5.62,5.62,0,0,1-5.11,3h-1a7.79,7.79,0,0,1-4.09-2l-5.12-2c-11.25-5.06-21.48-11.12-29.66-19.21-2-2-5.11-4-7.16-6.06-7.16-7.08-14.32-15.17-19.43-24.27l-1-2c-1-1-1-2-2-4,0-2,0-4.05,1-5.06,0,0,4.09-5.05,7.16-8.09,2-2,3.07-5.05,5.12-7.07,2-3,3.06-7.08,2-10.11-1-5.06-13.3-32.35-16.36-38.42-2-3-4.09-4-7.16-5.05H121.72c-2,0-4.09,1-6.14,1l-1,1c-2,1-4.09,3-6.13,4-2,2-3.07,4-5.12,6.07a51.18,51.18,0,0,0-11.25,31.34,59.39,59.39,0,0,0,5.12,23.25l1,3A168.46,168.46,0,0,0,136,219.38l4.09,4.05c3.06,3,6.13,5,8.18,8.08A183.53,183.53,0,0,0,222,269.93c3.07,1,7.16,1,10.23,2h10.23c5.11,0,11.25-2,15.34-4,3.07-2,5.11-2,7.16-4l2-2c2.05-2,4.1-3,6.14-5s4.09-4.05,5.12-6.07c2-4,3.06-9.1,4.09-14.15v-7.08A12.85,12.85,0,0,0,279.23,227.47Z"/></g></g></svg>